<?xml version="1.0" encoding="utf-8"?>
<!-- Generator: Adobe Illustrator 16.0.0, SVG Export Plug-In . SVG Version: 6.00 Build 0)  -->
<!DOCTYPE svg PUBLIC "-//W3C//DTD SVG 1.1//EN" "http://www.w3.org/Graphics/SVG/1.1/DTD/svg11.dtd">
<svg version="1.1" id="Layer_1" xmlns="http://www.w3.org/2000/svg" xmlns:xlink="http://www.w3.org/1999/xlink" x="0px" y="0px"
	 width="70px" height="70px" viewBox="0 0 644.59 658.395" enable-background="new 0 0 644.59 658.395"
	 xml:space="preserve">
<path fill="#E52625" d="M423.408,641.959c-16.832-5.833-23-2.824-23-2.824l-0.354-111.525h-7.971l0.408,111.767
	c0,0-57.584,0.584-46.668,11.417c0,0,5.086,1.75,11.418,0c0,0-9.168,7,4.416,4.583c3.811-0.678,6.061-1.081,7.324-1.309
	c-0.148,0.412-2.107,6.296,8.51,3.642c11-2.75,20.75-10,20.75-10S440.24,647.792,423.408,641.959z"/>
<path fill="#E52625" d="M381.936,624.626c-16.832-5.833-23-2.824-23-2.824l0.154-96.192h-8.357l0.289,96.434
	c0,0-57.584,0.584-46.666,11.417c0,0,5.084,1.75,11.416,0c0,0-9.168,7,4.416,4.583c3.811-0.678,6.061-1.08,7.326-1.309
	c-0.15,0.412-2.109,6.296,8.508,3.642c11-2.75,20.75-10,20.75-10S398.771,630.459,381.936,624.626z"/>
<path fill="#EF7E81" d="M323.389,516.713c0,0,23.334,48.258,52,8.925s-18.313-27.333-18.313-27.333"/>
<path fill="#8BC483" d="M361.389,518.713c0,0,24.002,39.593,41.334,26.259s24.666-52,24.666-52"/>
<path fill="#8BC483" d="M364.502,274.283c0,0,6.176-53.465,14.48-90.222c0.936-2.876,1.66-5.844,2.143-8.895
	c0.004-0.012,0.008-0.024,0.01-0.035l-0.002-0.001c0.475-3.004,0.727-6.083,0.727-9.22c0-22.035-12.168-41.232-30.174-51.351
	l0.014-0.006c0,0-0.287-0.165-0.816-0.451c-0.029-0.018-0.063-0.035-0.094-0.052c-7.742-4.193-63.182-32.375-81.535,9.908
	c0,0-3.994,16.024-5.885,25.36l-0.072-0.016c0,0-38.795,222.304-3.795,351.072c0,0,103,55.763,262-22.098
	C521.502,478.279,470.889,364.99,364.502,274.283z"/>
<path fill="#EF7E81" d="M424.449,238.276c38.373-26.513,94.607-58.997,161.641-78.548c128-37.334-32,119.083-32,119.083
	c112-4.251-52.666,90.25-52.666,90.25c44,16,0,48,0,48c-12.803,9.989-25.666,16.178-37.99,19.726
	c-0.705,0.216-2.354,0.695-4.824,1.259c-6.027,1.423-11.902,2.235-17.557,2.579c-26.551,1.995-72.02-2.659-112.949-46.286
	l0.014-0.013c-8.086-7.912-13.803-16.62-14.805-25.838l-0.014,0.017c-0.012-0.126-0.012-0.254-0.023-0.38
	c-0.059-0.631-0.096-1.265-0.109-1.9c-0.012-0.323-0.018-0.646-0.021-0.971c0-0.058-0.002-0.116,0-0.175
	C312.643,308.51,424.303,238.368,424.449,238.276z"/>
<path fill="#EB5C5D" d="M429.424,428.389c0,0,44-32,0-48c0,0,164.666-94.501,52.666-90.25c0,0,106.168-103.791,76.344-122.096
	c8.994-3.215,18.215-6.233,27.656-8.987c128-37.334-32,119.083-32,119.083c112-4.251-52.666,90.25-52.666,90.25c44,16,0,48,0,48
	c-12.803,9.989-25.666,16.178-37.99,19.726c-0.705,0.216-2.354,0.695-4.824,1.259c-6.027,1.423-11.902,2.235-17.557,2.579
	c-7.854,0.59-17.365,0.598-27.922-0.813C418.541,436.18,423.988,432.63,429.424,428.389z"/>
<path fill="#FFDF7B" d="M323.221,517.917c-49.766-11.346-36.148-186.183-51.271-203.81c-11.594-13.516-23.121,15.188-26.863,28.168
	c-1.369,22.374,0.047,43.799,0.563,67.435c0.516,18.705,1.615,34.209,2.938,46.844c1.818,16.438,4.525,32.113,8.371,46.341
	c25.172,12.238,60.852,14.708,65.709,14.993C322.854,517.896,323.033,517.908,323.221,517.917z"/>
<g>
	<path fill="#EF9B3A" d="M269.475,186.11c0,0-158.967-85.584-260.936,86.704c0,0,153.654-87.469,237.918,27.173
		C246.457,299.987,288.191,259.616,269.475,186.11z"/>
	<path fill="#FBBC3E" d="M275.688,221.888c-0.123-10.801-1.518-22.623-4.787-35.488c0,0-158.973-85.586-260.939,86.705
		c0,0,1.83-1.041,5.195-2.748C112.041,162.929,244.846,209.08,275.688,221.888z"/>
</g>
<path fill="#EF7E81" d="M120.744,208.58c0,0,36.668,13.694,12,73.028c-24.666,59.334-22.668,88,28.666,86s72-34,50-42
	s-80.666,31.424-51.332-25.621c29.332-57.045,13.355-85.098,1.344-98.738c0,0-34.072,2.028-43,6.069"/>
<path fill="#EB5C5D" d="M78.801,246.68c0,0-19.945,20,0,37.798s23.756-42.533,34.338-43.038
	C123.723,240.935,84.523,243.083,78.801,246.68z"/>
<path fill="#EB5C5D" d="M126.74,212.121c12.877-2.632,33.637-4.15,39.637-4.551c-1.637-2.391-3.322-4.487-4.938-6.321
	c0,0-34.074,2.028-43,6.069l2.322,1.262C120.762,208.58,123.377,209.559,126.74,212.121z"/>
<path fill="#709B68" d="M266.377,152.639c7.455-1.839,22.074-3.157,27.236,12.716l5.049-11.667c0,0-11.871-18.38-33.916-10.47
	c-0.488,2.175-0.939,4.265-1.311,6.096l-0.072-0.016c0,0-0.273,1.566-0.752,4.5c1.412-0.54,2.758-0.91,3.744-1.132
	C266.363,152.657,266.369,152.647,266.377,152.639z"/>
<path fill="#FBBC3E" d="M263.398,139.566c-2.297,0.415-4.045,2.439-4.045,4.889c0,2.416,1.699,4.427,3.951,4.877
	c1.67-0.705,3.313-1.152,4.467-1.412c0.008-0.009,0.014-0.019,0.021-0.027c7.455-1.839,22.074-3.157,27.236,12.716l5.049-11.667
	C300.078,148.941,287.219,129.003,263.398,139.566z"/>
<path fill="#8BC483" d="M361.725,272.854c0,0,2.051,0.804,3.373,1.938s-2.229,1.28-2.229,1.28"/>
<circle fill="#709B68" cx="325.425" cy="181.001" r="39.759"/>
<circle fill="#FBBC3E" cx="325.425" cy="174.451" r="39.759"/>
<circle fill="#010102" cx="325.425" cy="174.451" r="30.396"/>
<path fill="#709B68" d="M257.568,364.558c-4.975,0-9.791,1.285-14.361,3.681c0.188,47.498,4.363,95.213,15.969,134.307
	c0,0,15.848,7.854,44.826,13.552c4.537-14.847,7.133-32.071,7.133-50.441C311.135,409.822,287.154,364.558,257.568,364.558z"/>
<path fill="#CCB164" d="M285.744,418.136l-4.271-38.459c-0.109-1.529-0.217-3.046-0.324-4.55
	c-7.543-6.967-16.021-10.884-24.984-10.884c-4.779,0-9.418,1.126-13.852,3.221c0.039,4.186,0.131,8.382,0.242,12.604l-5.342,14.073
	L285.744,418.136z"/>
<path fill="#709B68" d="M366.887,265.129c0-0.014,0.006-0.026,0.006-0.04c0-0.53-0.201-1.004-0.516-1.381
	c-0.01-0.016-0.018-0.033-0.027-0.049c-0.018-0.027-0.049-0.054-0.072-0.081c-0.006-0.008-0.012-0.016-0.02-0.022
	c-0.105-0.12-0.242-0.236-0.424-0.35v-0.001c-0.002-0.001-0.004-0.002-0.006-0.003c-0.375-0.233-0.902-0.451-1.539-0.655
	c-73.805-30.895-126.076,116.777-126.076,116.777l0.389,11.104c22.238-51.064,43.037-82.16,61.092-100.813l2.482-2.507
	c0.059-0.057,0.115-0.11,0.172-0.167c4.66-4.441,14.869-13.148,27.752-18.028c5.613-2.035,21.049-6.326,35.666,1.364
	C365.766,270.278,367.221,267.461,366.887,265.129z"/>
<path fill="#FBBC3E" d="M366.887,259.879c0-0.014,0.006-0.026,0.006-0.04c0-0.53-0.201-1.004-0.516-1.381
	c-0.01-0.016-0.018-0.033-0.027-0.049c-0.018-0.027-0.049-0.054-0.072-0.081c-0.006-0.008-0.012-0.016-0.02-0.022
	c-0.105-0.12-0.242-0.236-0.424-0.35v-0.001c-0.002-0.001-0.004-0.002-0.006-0.003c-0.375-0.233-0.902-0.451-1.539-0.655
	c-73.805-30.895-126.076,116.777-126.076,116.777l0.389,11.104c22.238-51.064,43.037-82.16,61.092-100.813l2.482-2.507
	c0.059-0.057,0.115-0.11,0.172-0.167c4.66-4.441,14.869-13.148,27.752-18.028c5.613-2.035,21.049-6.326,35.666,1.364
	C365.766,265.028,367.221,262.211,366.887,259.879z"/>
<path fill="#EF9B3A" d="M298.443,471.561c0,50.923-20.025,92.204-44.729,92.204c-24.705,0-44.73-41.281-44.73-92.204
	c0-50.92,20.025-92.201,44.73-92.201C278.418,379.359,298.443,420.641,298.443,471.561z"/>
<polyline fill="#EF9B3A" points="238.215,375.859 261.277,380.679 280.244,409.275 283.863,446.775 287.244,484.775 
	283.863,501.775 271.244,547.716 249.357,563.332 232.33,559.472 230.463,547.716 "/>
<path fill="#FBBC3E" d="M282.943,468.061c0,50.923-20.025,92.204-44.729,92.204c-24.705,0-44.73-41.281-44.73-92.204
	c0-50.92,20.025-92.201,44.73-92.201C262.918,375.859,282.943,417.141,282.943,468.061z"/>
<ellipse fill="#EF9B3A" cx="231.964" cy="468.062" rx="31.479" ry="64.89"/>
<path fill="#FFDF7B" d="M238.213,549.466c-23.854,0-43.342-38.49-44.656-86.983c-0.047,1.729-0.072,3.469-0.072,5.221
	c0,50.923,20.025,92.204,44.729,92.204c24.705,0,44.729-41.281,44.729-92.204c0-1.752-0.025-3.492-0.072-5.221
	C281.557,510.976,262.068,549.466,238.213,549.466z"/>
<path opacity="0.3" fill="#FFDF7B" d="M201.775,479.527c0.734,9.538,2.473,18.387,4.99,26.063l56.678-51.675
	c-1.137-9.647-3.314-18.456-6.281-25.877L201.775,479.527z"/>
<path fill="#EB6121" d="M239.631,411.661c3.826,0,7.492,1.41,10.885,3.986c-5.203-7.838-11.613-12.476-18.551-12.476
	c-17.387,0-31.48,29.053-31.48,64.89c0,27.95,8.574,51.771,20.596,60.902c-7.836-11.803-12.928-30.878-12.928-52.413
	C208.152,440.714,222.246,411.661,239.631,411.661z"/>
<path fill="#FFDF7B" d="M238.215,383.823c24.057,0,43.672,39.147,44.684,88.22c0.027-1.321,0.045-2.647,0.045-3.982
	c0-50.92-20.025-92.201-44.729-92.201c-24.705,0-44.73,41.281-44.73,92.201c0,1.335,0.018,2.661,0.045,3.982
	C194.541,422.971,214.158,383.823,238.215,383.823z"/>
<path opacity="0.3" fill="#FFDF7B" d="M262.365,447.082l14.842-15.842c-1.27-9.431-4.264-17.09-6.824-25.046l-15.291,17.487
	C257.492,428.666,260.705,436.781,262.365,447.082z"/>
<path opacity="0.3" fill="#FFDF7B" d="M271.504,406.481l15.424,3.323c0,0,6.133,14.705,6.85,20.713l-14.975-1.244
	C278.803,429.273,272.734,409.19,271.504,406.481z"/>
</svg>
