<?xml version="1.0" encoding="utf-8"?>
<!-- Generator: Adobe Illustrator 16.0.0, SVG Export Plug-In . SVG Version: 6.00 Build 0)  -->
<!DOCTYPE svg PUBLIC "-//W3C//DTD SVG 1.1//EN" "http://www.w3.org/Graphics/SVG/1.1/DTD/svg11.dtd">
<svg version="1.1" id="Layer_1" xmlns="http://www.w3.org/2000/svg" xmlns:xlink="http://www.w3.org/1999/xlink" x="0px" y="0px"
	 width="70px" height="70px" viewBox="0 0 644.59 658.395" enable-background="new 0 0 644.59 658.395"
	 xml:space="preserve">
<path fill="#F8AB12" d="M342.3,601.874l1.834,26.333c0,0-31.166,8.756-19.834,19.334c0,0,2.001,3.166,17.334-5.667
	c0,0-3.833,13.999,2.5,12.333c0,0,7.666-0.5,8.666-9.333c0,0,11.668,19.166,18.334,11.333c0,0,12-4.833-13.5-27.833l-1.834-26.5"/>
<path fill="#F8AB12" d="M282.479,601.874l1.834,26.333c0,0-31.167,8.756-19.834,19.334c0,0,2.001,3.166,17.334-5.667
	c0,0-3.833,13.999,2.5,12.333c0,0,7.666-0.5,8.666-9.333c0,0,11.668,19.166,18.334,11.333c0,0,12-4.833-13.5-27.833l-1.834-26.5"/>
<path fill="#3D8ACA" d="M216.903,442.023c0,0-14.158,36.867-28.316,51.025s-1.089,38.119,28.316,53.366
	c29.406,15.248,32.674-5.445,32.674-5.445"/>
<path fill="#58AADF" d="M372.455,464.479V203.685c0.217-2.372,0.342-4.77,0.342-7.197c0-43.238-35.05-78.29-78.29-78.29
	c-43.238,0-78.289,35.052-78.289,78.29c0,0.298,0.02,0.591,0.022,0.889c-0.005,0.038-0.022,0.071-0.022,0.111v335.311
	c0,0.292,0.131,0.55,0.331,0.732c2.28,25.561,16.849,47.57,37.747,60.115l-0.009,0.019c0,0,118.606,77.112,225.269-88.888
	C479.556,504.776,423.803,474.55,372.455,464.479z"/>
<path fill="#F8AB12" d="M215.836,235.595c0,0,42.277,2.047,49.098-4.772c6.818-6.817-13.05,75.009-84.604,37.505L215.836,235.595z"
	/>
<path fill="#86D0EC" d="M280.933,524.041V328.545h-0.1c-1.361-20.135-18.113-36.048-38.592-36.048
	c-10.021,0-19.151,3.809-26.023,10.059v230.246c0,0.292,0.131,0.55,0.331,0.732c2.28,25.561,16.849,47.57,37.747,60.115
	l-0.009,0.019c0,0,45.503,29.579,105.487,12.653C288.63,602.149,281.493,541.714,280.933,524.041z"/>
<path fill="#86D0EC" d="M329.199,453.559c0,0,21.183,79.851,87.183,87.851s-44.064-140-44.064-140"/>
<path fill="#F8AB12" d="M384.81,327.359c0-11.798-6.278-21.362-14.022-21.362c-2.11,0-4.104,0.729-5.899,2.002l-0.007-0.016
	c-21.39,15.527-73.19,32.193-74.706,32.678c-39.903,9.777-62.905,2.459-69.203-0.113c-0.566-0.311-1.145-0.58-1.741-0.779
	c-0.028-0.015-0.045-0.023-0.045-0.023l-0.001,0.006c-0.957-0.316-1.948-0.49-2.967-0.49c-7.746,0-14.023,9.566-14.023,21.365
	c0,7.736,2.709,14.491,6.752,18.241l-0.025,0.006c0,0,0.061,0.048,0.172,0.131c1.48,1.334,3.133,2.262,4.898,2.689
	c13.206,5.824,54.015,15.424,142.731-25.392l0.042-0.011l0.045-0.031c5.314-2.445,10.799-5.07,16.459-7.89
	c1.295-0.354,2.523-0.978,3.669-1.832c0.03-0.014,0.058-0.029,0.087-0.045l-0.038,0.008
	C381.617,343.013,384.81,335.764,384.81,327.359z"/>
<path fill="#EB6121" d="M291.144,340.348c0,0-0.259,26.212,0.029,40.245l24.577-7.657c0,0,0.695-24.392-7.016-38.694
	L291.144,340.348z"/>
<path fill="#FFDF7B" d="M337.912,364.489l22.543-9.922c0,0,0.056-24.914-7.655-39.217l-21.258,9.938
	C334.696,334.618,337.005,348.446,337.912,364.489z"/>
<path fill="#EB6121" d="M246.589,387.893l-20.494-2.544c0,0-3.287-25.848,2.006-42.506l21.38,2.487
	C247.852,355.525,245,371.972,246.589,387.893z"/>
<path fill="#58AADF" d="M252.469,138.374c0,0-20.741-5.854-15.186-20.177c0,0,9.415,13.158,35.985,2.917"/>
<path fill="#FFE401" d="M221.823,346.557"/>
<path fill="#FFE401" d="M247.524,512.23c0-0.372-0.268-0.671-0.6-0.671h-5.933c-0.33,0-0.597,0.299-0.597,0.671v17.376
	c0,0.062,0.019,0.115,0.029,0.172c-0.018,0.163-0.029,0.33-0.029,0.499c0,2.215,1.594,4.01,3.564,4.01
	c1.969,0,3.564-1.795,3.564-4.01c0-0.169-0.014-0.335-0.031-0.499c0.012-0.057,0.031-0.11,0.031-0.172V512.23z"/>
<path fill="#FFE401" d="M275.706,512.23c0-0.372-0.266-0.671-0.594-0.671h-5.936c-0.331,0-0.598,0.299-0.598,0.671v17.376
	c0,0.062,0.019,0.115,0.031,0.172c-0.018,0.163-0.031,0.33-0.031,0.499c0,2.215,1.598,4.01,3.564,4.01
	c1.969,0,3.563-1.795,3.563-4.01c0-0.169-0.012-0.335-0.029-0.499c0.014-0.057,0.029-0.11,0.029-0.172V512.23z"/>
<path fill="#F8AB12" d="M261.903,512.23c0-0.372-0.266-0.671-0.597-0.671h-5.933c-0.33,0-0.596,0.299-0.596,0.671v17.376
	c0,0.062,0.016,0.115,0.028,0.172c-0.017,0.163-0.028,0.33-0.028,0.499c0,2.215,1.595,4.01,3.561,4.01
	c1.969,0,3.564-1.795,3.564-4.01c0-0.169-0.012-0.335-0.029-0.499c0.015-0.057,0.029-0.11,0.029-0.172V512.23z"/>
<path fill="#FFE401" d="M303.892,513.557c0-0.372-0.266-0.671-0.598-0.671h-5.933c-0.329,0-0.597,0.299-0.597,0.671v17.376
	c0,0.062,0.017,0.115,0.029,0.171c-0.018,0.164-0.029,0.331-0.029,0.5c0,2.215,1.596,4.01,3.563,4.01c1.97,0,3.564-1.795,3.564-4.01
	c0-0.169-0.012-0.335-0.03-0.5c0.013-0.056,0.03-0.109,0.03-0.171V513.557z"/>
<path fill="#F8AB12" d="M289.512,513.557c0-0.372-0.266-0.671-0.599-0.671h-5.932c-0.331,0-0.597,0.299-0.597,0.671v17.376
	c0,0.062,0.017,0.115,0.03,0.171c-0.018,0.164-0.03,0.331-0.03,0.5c0,2.215,1.597,4.01,3.563,4.01c1.97,0,3.563-1.795,3.563-4.01
	c0-0.169-0.013-0.335-0.03-0.5c0.014-0.056,0.03-0.109,0.03-0.171V513.557z"/>
<path fill="#F8AB12" d="M303.892,344.851c0-1.004-0.107-1.98-0.294-2.924l0,0l0,0c-1.187-5.973-5.921-10.442-11.589-10.442
	c-0.921,0-1.814,0.13-2.675,0.353c-0.017,0.002-0.03,0.002-0.049,0.004c-12.521,1.764-32.298,0.045-35.728-0.274
	c-0.064-0.008-0.135-0.013-0.201-0.021c-0.204-0.018-0.318-0.029-0.318-0.029v0.012c-0.253-0.017-0.504-0.043-0.76-0.043
	c-6.564,0-11.885,5.984-11.885,13.367v171.68h63.498l-0.283-168.799C303.79,346.805,303.892,345.843,303.892,344.851z"/>
<rect x="240.394" y="387.527" fill="#FFDF7B" width="63.326" height="36.168"/>
<rect x="240.479" y="452.882" fill="#FFDF7B" width="63.326" height="36.168"/>
<circle fill="#3257A3" cx="314.977" cy="200.116" r="39.759"/>
<circle fill="#FFFFFF" cx="314.976" cy="200.116" r="30.395"/>
<circle fill="#010102" cx="307.034" cy="205.878" r="15.938"/>
<circle fill="#FFFFFF" cx="304.729" cy="209.675" r="6.719"/>
</svg>
