<?xml version="1.0" encoding="utf-8"?>
<!-- Generator: Adobe Illustrator 16.0.0, SVG Export Plug-In . SVG Version: 6.00 Build 0)  -->
<!DOCTYPE svg PUBLIC "-//W3C//DTD SVG 1.1//EN" "http://www.w3.org/Graphics/SVG/1.1/DTD/svg11.dtd">
<svg version="1.1" id="Layer_1" xmlns="http://www.w3.org/2000/svg" xmlns:xlink="http://www.w3.org/1999/xlink" x="0px" y="0px"
	 width="70px" height="70px" viewBox="0 0 644.59 658.395" enable-background="new 0 0 644.59 658.395"
	 xml:space="preserve">
<g>
	<path fill="#F8AB12" d="M368.266,596.025l2.125,30.544c0,0-36.152,10.156-23.006,22.426c0,0,2.322,3.673,20.107-6.572
		c0,0-4.447,16.237,2.898,14.305c0,0,8.893-0.579,10.053-10.825c0,0,13.535,22.23,21.266,13.145c0,0,13.92-5.604-15.66-32.283
		l-2.125-30.738"/>
	<path fill="#F8AB12" d="M298.877,596.025l2.127,30.544c0,0-36.152,10.156-23.006,22.426c0,0,2.32,3.673,20.105-6.572
		c0,0-4.445,16.237,2.9,14.305c0,0,8.893-0.579,10.053-10.825c0,0,13.533,22.23,21.266,13.145c0,0,13.92-5.604-15.658-32.283
		l-2.129-30.738"/>
	<path fill="#EB5C5D" d="M527.856,502.386c0,0-21.428-52.472-67.453-95.725c-11.268-11.63-25.085-22.234-41.008-30.926
		c-0.783-0.428-1.574-0.822-2.363-1.238c-0.201-0.113-0.396-0.23-0.598-0.342l-0.025,0.016
		c-14.363-7.498-29.047-12.746-43.354-15.797c-0.836-0.26-1.848-0.477-3.066-0.643c-0.066-0.01-0.127-0.021-0.193-0.029
		c-2.09-0.398-4.17-0.756-6.238-1.062c-8.463-1.704-14.658-4.104-18.613-5.993c-0.709-0.365-1.422-0.721-2.137-1.073
		c-38.342-22.06-44.588-55.72-45.197-72.009c0.172-2.086,0.283-4.191,0.283-6.324c0-0.873-0.033-1.736-0.066-2.602
		c0.039-0.362,0.066-0.56,0.066-0.56h-0.08c-1.658-39.604-34.277-71.209-74.289-71.209c-41.076,0-74.373,33.297-74.373,74.37
		c0,12.511,3.104,24.29,8.56,34.637l-0.011,0.004c0,0,0.011,0.013,0.031,0.035c2.217,4.198,4.824,8.156,7.773,11.83
		c9.287,17.129,21.921,52.522,8.309,104.271c-3.596,11.462-5.536,23.655-5.536,36.303c0,27.157,8.937,52.226,24.029,72.427l0,0
		c0,0,76.499,130.407,289.153,48.704l49.49-39.028L527.856,502.386z"/>
	<path fill="#EF7E81" d="M532.217,503.999c0,0-85.85-165.301-198.15-160.947c0,0-79.133-10.847-117.088,79.387
		c-0.029,0.068-0.063,0.133-0.092,0.201l0,0c0,0-6.691,15.845-3.23,42.562c1.852,10.069,5.354,21.454,11.041,34.331
		c0,0,29.549,101.468,318.371,102.265c0,0,97.436,10.075,98.595-15.443C641.664,586.354,655.916,566.635,532.217,503.999z"/>
	<path fill="#FFDF7B" d="M460.061,557.82c0,0,112.705,32.493,68.908-64.757c0,0-22.092-38.159-25.994-37.938"/>
	<path fill="#EB5C5D" d="M383.305,561.618c0,0,69.125,31.554,84.152-12.773c0,0,33.813-4.509,32.309-30.806
		c0,0,21.037-7.999,19.535-37.058c0,0-5.26-17.416-30.055-40.896"/>
	<path fill="#FFDF7B" d="M351.418,580.584c0,0,24.732,0.014,29.34-19.311c0,0,44.795,2.33,46.717-27.777
		c0,0,40.33-2.33,44.865-40.075c0,0,27.475,4.271,23.961-45.584c0,0-13.582-27.234-31.262-39.258
		c-3.982-2.709-4.924,0.043-9.678-2.129c-25.858-11.822-13.521,29.054-13.521,29.054l-64.905,68.208l-63.24,31.239l-34.182,17.997
		c-1.789-1.366,8.943,4.84,25.844,12.142C322.256,572.391,345.323,580.786,351.418,580.584z"/>
	<path fill="#EB5C5D" d="M470.042,414.403c-5.414-6.959-26.606-25.16-26.606-25.16c-4.559,32.859-12.299,32.729-15.032,31.536
		c0,0-1.4,4.332-3.018,9.034c-0.992,3.52-2.211,6.726-3.576,9.669c-0.238,0.558-0.455,1.022-0.637,1.362
		c-0.006,0.012-0.014,0.018-0.02,0.029c-10.863,21.941-30.355,27.756-30.355,27.756c-14.168,29.896-55.201,39.428-55.201,39.428
		c-22.393,27.565-82.396,27.948-82.396,27.948c2.934,3.197,10.096,7.814,17.391,12.084l0.557,0.386l1.648,0.894
		c9.236,5.306,30.648,14.91,30.648,14.91c51.037-0.773,52.924-33.108,52.924-33.108c51.029,3.046,57.225-40.985,57.225-40.985
		c47.172,1.546,40.211-45.624,40.211-45.624C470.042,451.521,475.456,421.363,470.042,414.403z"/>
	<path fill="#8CC47E" d="M308.37,492.445"/>
	<circle fill="#EA571F" cx="224.118" cy="293.23" r="42.355"/>
	<circle fill="#FFFFFF" cx="224.119" cy="293.23" r="33.1"/>
	<circle fill="#010102" cx="214.986" cy="303.656" r="17.356"/>
	<circle fill="#FFFFFF" cx="209.798" cy="300.611" r="6.308"/>
	<path fill="#3257A3" d="M393.77,306.928c0,0,2.463,20.828-20.963,12.087s-5.98-36.765-33.973-32.397s35.289,3.08,35.289,3.08"/>
	<path fill="#3257A3" d="M164.265,241.871c0,0-38.351,3.408-82.559-23.973c-44.21-27.384-26.499-55.409-12.781-55.375
		c13.72,0.037,65.882,27.088,65.882,27.088"/>
	<path fill="#58AADF" d="M391.725,316.658c0,0,15.025-16.14-32.115-44.518c-47.146-28.379-68.268-37.473-68.268-37.473
		l-92.873-31.912l-21.111-14.745l-4.134-2.589c0,0-74.32-27.157-106.135-22.682c0,0,27.906,2.727,57.068,36.283
		c29.164,33.557,63.798,87.238,134.782,102.458c70.98,15.218,81.695-22.798,118.584-1.55
		C377.524,299.932,390.163,308.716,391.725,316.658z"/>
	<path fill="#58AADF" d="M268.553,140.232l0.109-0.136c0.355,0.177,0.686,0.358,1.039,0.537c0.369,0.13,0.73,0.247,1.1,0.384
		l-0.027,0.17c66.973,35.066,27.889,111.172,27.889,111.172c-21.713,2.48-49.893-7.553-69.949-16.541
		c-20.309-8.394-46.969-21.975-60.088-39.454C168.625,196.364,197.061,115.673,268.553,140.232z"/>
	<path fill="#3257A3" d="M238.688,212.652c19.508,8.744,46.682,18.438,68.135,16.682c-3.352,13.664-8.16,23.025-8.16,23.025
		c-21.713,2.48-49.893-7.553-69.949-16.541c-20.309-8.394-46.969-21.975-60.088-39.454c0,0,3.503-9.923,11.123-21.746
		C193.215,191.408,218.934,204.488,238.688,212.652z"/>
	<path fill="#EB5C5D" d="M150.501,257.093c0,0,2.255-12.617,3.894-13.329c0,0,8.031,6.938,10.257,8.741s-1.218,10.296-1.218,10.296"
		/>
	<path fill="#8BC483" d="M34.3,255.215l14.863-11.01c0,0,101.053,62.616,119.462,170.187c0,0-43.194-114.534-133.087-153.442"/>
	<path fill="#FFDF7B" d="M172.521,311.331l-0.545-0.317l-0.002-0.002l-7.734-9.1l-12.212-12.084c0,0-56.599,5.833-46.124,50.741
		l57.979-9.161l0,0h0.004l0.818-0.131c4.328-1.444,4.328-1.444,5.936-5.365c0.088-0.213,0.17-0.389,0.252-0.551l3.631-7.881
		C176.23,314.18,173.698,312.084,172.521,311.331z"/>
	<path fill="#EB6121" d="M2,224.521c0,0,38.77-11.424,58.27,16.646C79.769,269.238,28.096,293.585,2,224.521z"/>
	<path fill="#FFDF7B" d="M15.01,202.443c0,0,44.961,4.807,53.084,42.168C76.215,281.974,12.386,284.994,15.01,202.443z"/>
	<path fill="#719B6A" d="M73.247,262.029c-2.694-2.24-5.235-4.279-7.594-6.119c-1.023,7.762-6.531,12.559-13.39,13.23
		c2.937,1.687,5.813,3.453,8.636,5.287C66.571,272.468,71.097,268.191,73.247,262.029z"/>
	<path fill="#8BC483" d="M93.033,295.479c0,0-31.572-1.683-19.786,33.819c0,0-0.065-37.783,23.36-25.641"/>
</g>
</svg>
