<?xml version="1.0" encoding="utf-8"?>
<!-- Generator: Adobe Illustrator 16.0.0, SVG Export Plug-In . SVG Version: 6.00 Build 0)  -->
<!DOCTYPE svg PUBLIC "-//W3C//DTD SVG 1.1//EN" "http://www.w3.org/Graphics/SVG/1.1/DTD/svg11.dtd">
<svg version="1.1" id="Layer_1" xmlns="http://www.w3.org/2000/svg" xmlns:xlink="http://www.w3.org/1999/xlink" x="0px" y="0px"
	 width="70px" height="70px" viewBox="0 0 644.59 658.395" enable-background="new 0 0 644.59 658.395"
	 xml:space="preserve">
<path fill="#61B9E9" d="M357.104,604.543v19.5c0,0-57.584,0.584-46.666,11.417c0,0,5.084,1.75,11.416,0c0,0-9.168,7,4.416,4.583
	s7.334-1.333,7.334-1.333s-2.5,6.416,8.5,3.666s20.75-10,20.75-10s42,0.083,25.166-5.75c-16.832-5.833-23-2.824-23-2.824
	l0.75-16.509"/>
<path fill="#61B9E9" d="M398.427,608.982l0.148,30.394c0,0-57.584,0.584-46.666,11.417c0,0,5.084,1.75,11.416,0
	c0,0-9.168,7,4.416,4.583s7.334-1.333,7.334-1.333s-2.5,6.416,8.5,3.666s20.75-10,20.75-10s42,0.083,25.166-5.75
	c-16.832-5.833-23-2.824-23-2.824l-0.064-30.152"/>
<path fill="#BA76AF" d="M330.733,583.695c0,0,23.332,48.258,52,8.925c28.666-39.333-18.313-27.333-18.313-27.333"/>
<path fill="#A14996" d="M368.733,583.695c0,0,24,39.593,41.334,26.259c17.332-13.334,24.666-52,24.666-52"/>
<path fill="#A14996" d="M342.585,343.358c0,0,6.174-53.763,14.479-90.725c0.936-2.892,1.66-5.876,2.145-8.943
	c0.002-0.012,0.006-0.024,0.008-0.036l-0.002-0.001c0.475-3.021,0.727-6.116,0.727-9.271c0-22.158-12.166-41.463-30.174-51.637
	l0.014-0.006c0,0-0.287-0.166-0.814-0.454c-0.031-0.018-0.064-0.035-0.096-0.052c-7.742-4.217-63.18-32.556-81.535,9.963
	c0,0-3.994,16.114-5.885,25.502l-0.072-0.016c0,0-38.793,223.543-3.793,353.029c0,0,103,56.074,262-22.221
	C499.585,548.492,448.97,434.572,342.585,343.358z"/>
<g>
	<path fill="#EF9B3A" d="M241.151,239.821c0,0-63.373-34.118-104.024,34.565c0,0,61.254-34.87,94.848,10.832
		C231.976,285.219,248.612,269.125,241.151,239.821z"/>
	<path fill="#FBBC3E" d="M243.628,254.084c-0.049-4.306-0.605-9.019-1.908-14.147c0,0-63.375-34.119-104.025,34.565
		c0,0,0.729-0.415,2.071-1.096C178.39,230.58,231.333,248.979,243.628,254.084z"/>
</g>
<path fill="#BA76AF" d="M323.351,590.729c-63.438-14.463-46.08-237.329-65.357-259.798c-14.779-17.229-26.729,16.226-31.5,32.771
	c-1.746,28.521-2.684,58.965-2.025,89.094c0.656,23.844,2.059,43.606,3.744,59.712c2.316,20.954,5.77,40.936,10.672,59.071
	c32.084,15.601,77.568,18.748,83.76,19.112C322.88,590.702,323.112,590.718,323.351,590.729z"/>
<path fill="#58AADF" d="M440.624,450.563c0,0-103.592-137.099-130.381-124.115c-18.791,5.114-18.506,44.062-16.381,68.555
	l-0.309,1.686c0,0,4.318,57.575,37.18,92.852c32.859,35.276,30.537-32.724,30.537-32.724s8.322,108.277,52.322,101.139
	S440.624,450.563,440.624,450.563z"/>
<g>
	<path fill="#709B68" d="M347.28,315.153c0-0.014,0.006-0.026,0.006-0.04c0-0.53-0.203-1.004-0.516-1.381
		c-0.012-0.016-0.018-0.033-0.027-0.049c-0.02-0.027-0.049-0.054-0.072-0.081c-0.008-0.008-0.014-0.016-0.02-0.022
		c-0.105-0.12-0.244-0.236-0.424-0.35v-0.001c-0.002-0.001-0.004-0.002-0.008-0.003c-0.373-0.233-0.9-0.451-1.537-0.655
		c-73.805-30.895-126.076,116.777-126.076,116.777l0.389,11.104c22.238-51.064,43.037-82.16,61.092-100.813l2.482-2.507
		c0.057-0.057,0.113-0.11,0.172-0.167c4.658-4.441,14.869-13.148,27.752-18.028c5.613-2.035,21.047-6.326,35.666,1.364
		C346.159,320.303,347.614,317.485,347.28,315.153z"/>
	<path fill="#FBBC3E" d="M347.28,309.903c0-0.014,0.006-0.026,0.006-0.04c0-0.53-0.203-1.004-0.516-1.381
		c-0.012-0.016-0.018-0.033-0.027-0.049c-0.02-0.027-0.049-0.054-0.072-0.081c-0.008-0.008-0.014-0.016-0.02-0.022
		c-0.105-0.12-0.244-0.236-0.424-0.35v-0.001c-0.002-0.001-0.004-0.002-0.008-0.003c-0.373-0.233-0.9-0.451-1.537-0.655
		c-73.805-30.895-126.076,116.777-126.076,116.777l0.389,11.104c22.238-51.064,43.037-82.16,61.092-100.813l2.482-2.507
		c0.057-0.057,0.113-0.11,0.172-0.167c4.658-4.441,14.869-13.148,27.752-18.028c5.613-2.035,21.047-6.326,35.666,1.364
		C346.159,315.053,347.614,312.235,347.28,309.903z"/>
	<path fill="#EF9B3A" d="M278.835,521.585c0,50.923-20.023,92.204-44.729,92.204c-24.703,0-44.729-41.281-44.729-92.204
		c0-50.92,20.025-92.201,44.729-92.201C258.812,429.384,278.835,470.665,278.835,521.585z"/>
	<polyline fill="#EF9B3A" points="218.606,425.884 241.671,430.703 260.638,459.3 264.257,496.8 267.638,534.8 264.257,551.8 
		251.638,597.74 229.751,613.356 212.724,609.496 210.856,597.74 	"/>
	<path fill="#FBBC3E" d="M263.335,518.085c0,50.923-20.023,92.204-44.729,92.204c-24.703,0-44.729-41.281-44.729-92.204
		c0-50.92,20.025-92.201,44.729-92.201C243.312,425.884,263.335,467.165,263.335,518.085z"/>
	<ellipse fill="#EF9B3A" cx="212.356" cy="518.086" rx="31.479" ry="64.89"/>
	<path fill="#FFDF7B" d="M218.606,599.49c-23.855,0-43.344-38.49-44.658-86.983c-0.047,1.729-0.072,3.469-0.072,5.221
		c0,50.923,20.025,92.204,44.73,92.204c24.703,0,44.729-41.281,44.729-92.204c0-1.752-0.027-3.492-0.074-5.221
		C261.948,561,242.46,599.49,218.606,599.49z"/>
	<path opacity="0.3" fill="#FFDF7B" d="M182.169,529.552c0.732,9.538,2.471,18.387,4.99,26.063l56.676-51.675
		c-1.137-9.647-3.313-18.456-6.279-25.877L182.169,529.552z"/>
	<path fill="#EB6121" d="M220.024,461.686c3.826,0,7.492,1.41,10.883,3.986c-5.203-7.838-11.611-12.476-18.551-12.476
		c-17.385,0-31.479,29.053-31.479,64.89c0,27.95,8.574,51.771,20.594,60.902c-7.834-11.803-12.928-30.878-12.928-52.413
		C188.544,490.738,202.638,461.686,220.024,461.686z"/>
	<path fill="#FFDF7B" d="M218.606,433.848c24.057,0,43.674,39.147,44.686,88.22c0.027-1.321,0.043-2.647,0.043-3.982
		c0-50.92-20.023-92.201-44.729-92.201c-24.703,0-44.729,41.281-44.729,92.201c0,1.335,0.018,2.661,0.043,3.982
		C174.935,472.995,194.55,433.848,218.606,433.848z"/>
	<path opacity="0.3" fill="#FFDF7B" d="M242.759,497.106l14.84-15.842c-1.268-9.431-4.262-17.09-6.822-25.046l-15.291,17.487
		C237.884,478.69,241.099,486.806,242.759,497.106z"/>
	<path opacity="0.3" fill="#FFDF7B" d="M251.897,456.506l15.422,3.323c0,0,6.135,14.705,6.852,20.713l-14.975-1.244
		C259.196,479.298,253.126,459.215,251.897,456.506z"/>
</g>
<path fill="#7D3877" d="M237.075,225.529c7.455-1.839,22.074-3.157,27.236,12.716l5.049-11.667c0,0-11.871-18.38-33.916-10.47
	c-0.488,2.175-0.939,4.265-1.311,6.096l-0.072-0.016c0,0-0.273,1.566-0.752,4.5c1.412-0.54,2.758-0.91,3.744-1.132
	C237.062,225.548,237.067,225.538,237.075,225.529z"/>
<path fill="#FBBC3E" d="M234.097,212.457c-2.297,0.415-4.045,2.439-4.045,4.889c0,2.416,1.699,4.427,3.951,4.877
	c1.67-0.705,3.313-1.152,4.467-1.412c0.008-0.009,0.014-0.019,0.021-0.027c7.455-1.839,22.074-3.157,27.236,12.716l5.049-11.667
	C270.776,221.832,257.917,201.894,234.097,212.457z"/>
<circle fill="#7D3877" cx="296.123" cy="253.892" r="39.759"/>
<circle fill="#FBBC3E" cx="296.123" cy="247.342" r="39.759"/>
<circle fill="#010102" cx="296.123" cy="247.342" r="30.396"/>
<path fill="#EB6121" d="M206.354,160.29c0,0,52.346,74.52,182.748,71.015c130.402-3.504-53.26-62.984-53.26-62.984
	S164.319,96.93,206.354,160.29z"/>
<path fill="#F8AB12" d="M374.147,194.452l12.045-44.624c0,0,14.043-38.541-20.791-52.979l-2.498-0.935l-34.676-12.953l-2.498-0.934
	c-35.766-11.939-50.434,26.368-50.434,26.368l-20.166,41.591c7.398,13.168,34.734,25.173,55.594,32.716
	C331.415,190.685,359.929,199.546,374.147,194.452z"/>
<path fill="#FFDF7B" d="M328.054,146.497c-20.578-7.441-48.08-18.654-55.902-31.614l-10.801,22.276
	c7.398,13.168,35.271,24.795,56.131,32.338c20.691,7.982,46.174,16.426,60.393,11.332l5.906-21.883
	C368.61,161.159,346.681,153.683,328.054,146.497z"/>
<path fill="#61B9E9" d="M439.429,450.563c0,0-103.592-137.099-130.379-124.115c-5.014,1.364-8.66,5.153-11.285,10.417
	c0.146,5.506,0.488,10.822,0.902,15.589l-0.309,1.686c0,0,4.318,57.575,37.18,92.852c32.859,35.276,30.537-32.724,30.537-32.724
	s8.322,108.277,52.322,101.139c12.25-1.987,19.77-11.195,24.25-23.442C442.679,469.767,439.429,450.563,439.429,450.563z"/>
</svg>
