<?xml version="1.0" encoding="utf-8"?>
<!-- Generator: Adobe Illustrator 16.0.0, SVG Export Plug-In . SVG Version: 6.00 Build 0)  -->
<!DOCTYPE svg PUBLIC "-//W3C//DTD SVG 1.1//EN" "http://www.w3.org/Graphics/SVG/1.1/DTD/svg11.dtd">
<svg version="1.1" id="Layer_1" xmlns="http://www.w3.org/2000/svg" xmlns:xlink="http://www.w3.org/1999/xlink" x="0px" y="0px"
	 width="70px" height="70px" viewBox="0 0 644.59 658.395" enable-background="new 0 0 644.59 658.395"
	 xml:space="preserve">
<g>
	<path fill="#61B9E9" d="M315.226,609.188l0.15,30.882c0,0-58.508,0.593-47.416,11.601c0,0,5.166,1.778,11.602,0
		c0,0-9.316,7.112,4.486,4.656c13.803-2.455,7.453-1.354,7.453-1.354s-2.541,6.52,8.635,3.726
		c11.178-2.795,21.084-10.161,21.084-10.161s42.674,0.084,25.57-5.843s-23.369-2.869-23.369-2.869l-0.066-30.637"/>
	<path fill="#EB6121" d="M245.451,575.898c0,0,29.158,61.193,63.76,13.717c34.602-47.476-22.104-32.992-22.104-32.992"/>
	<path fill="#3D8ACA" d="M294.328,383.282l-41.334-64.666c0,0,80-140,147.334-200.667s12.041,148.011,12.041,148.011"/>
	<path fill="#F8AB12" d="M139.343,390.035c0.48-71.149,26.063-113.579,44.568-134.996c5.23-6.938,11.551-12.884,18.691-17.522
		c0.053-0.035,0.086-0.058,0.086-0.058l0.008-0.001c10.785-6.982,23.412-11.004,36.914-11.004c6.734,0,13.242,1.02,19.422,2.887
		l0.049-0.007c0.584,0.173,1.158,0.362,1.734,0.552c0.049,0.017,0.098,0.031,0.146,0.047c1.053,0.351,2.094,0.729,3.119,1.136
		c0.26,0.101,0.514,0.212,0.77,0.315c0.496,0.205,0.992,0.411,1.48,0.629c11.445,4.95,21.43,12.976,29.063,23.139
		c2.324,2.809,4.51,5.729,6.566,8.705c1.783,2.359,47.607,63.842,31.619,124.592l65.576-5.166l-58.32,53.958l9.469,5.219
		l1.135,31.928l108.865-46.178c0,0,45.666-12.033,71.012-8.538l0,0c0,0,32.523-3.764,13.02,27.664l0.004-0.001
		c0,0-33.094,70.793-155.697,119.877c-12.701,5.21-27.316,10.131-43.236,13.632c-4.07,10.968-10.094,22.979-18.352,29.332
		c-15.031,11.563-34.994-16.043-40.521-24.381c-4.727-0.141-8.85-0.664-12.41-1.531c-12.445-1.729-25.102-4.834-37.787-9.665
		c-2.299-0.854-4.592-1.772-6.875-2.76c-0.131-0.056-0.264-0.112-0.393-0.168c-0.098-0.043-0.195-0.085-0.293-0.128
		c-6.475-2.8-11.627-5.501-15.604-8.104c-31.133-18.912-58.043-53.29-68.795-113.835l-0.072,0.005
		c-0.496-2.999-0.939-5.949-1.357-8.874c-0.055-0.377-0.113-0.747-0.168-1.126C139.955,419.67,138.925,403.326,139.343,390.035z"/>
	<path fill="#61B9E9" d="M273.24,604.677v19.813c0,0-58.508,0.594-47.416,11.601c0,0,5.166,1.778,11.6,0
		c0,0-9.314,7.113,4.488,4.657s7.451-1.354,7.451-1.354s-2.539,6.52,8.637,3.725c11.178-2.794,21.084-10.16,21.084-10.16
		s42.674,0.084,25.57-5.843s-23.371-2.87-23.371-2.87l0.764-16.773"/>
	<g>
		<circle fill="#BA76AF" cx="224.424" cy="303.481" r="43.021"/>
		<circle fill="#FFFFFF" cx="224.424" cy="303.481" r="32.89"/>
		<circle fill="#010102" cx="215.832" cy="310.963" r="17.246"/>
		<circle fill="#FFFFFF" cx="213.549" cy="315.199" r="7.271"/>
	</g>
	<path fill="#EB6121" d="M60.263,318.33c-0.061-0.136-0.092-0.209-0.092-0.209l0.262,0.253l103.465,25.701
		c0,0-2.131,46.317-29.002,45.848l0.072,0.065c-0.236-0.025-0.467-0.065-0.701-0.1c-3.414-0.149-7.217-1.043-11.461-2.869
		c-36.496-13.4-59.898-62.884-62.41-68.392l-0.215-0.317L60.263,318.33z"/>
	<path fill="#61B9E9" d="M379.767,285.43c38.373-26.513,94.607-58.997,161.641-78.548c128-37.334-32,119.083-32,119.083
		c112-4.251-52.666,90.25-52.666,90.25c44,16,0,48,0,48c-12.803,9.989-25.666,16.178-37.992,19.726
		c-0.703,0.216-2.354,0.695-4.822,1.259c-6.027,1.423-11.902,2.235-17.557,2.579c-26.551,1.995-72.02-2.659-112.949-46.286
		l0.014-0.013c-8.086-7.912-13.805-16.62-14.805-25.838l-0.014,0.017c-0.012-0.126-0.012-0.254-0.021-0.38
		c-0.061-0.631-0.098-1.265-0.111-1.9c-0.014-0.323-0.018-0.646-0.021-0.971c0-0.058-0.002-0.116,0-0.175
		C267.96,355.663,379.621,285.521,379.767,285.43z"/>
	<path fill="#FFDF7B" d="M141.925,433.194c0,0,57.98-32.445,99.98,25.711c41.914,58.038,6.285,119.654,0.639,117.921
		c-1.857-0.635-4.314-1.275-6.172-1.982c-2.299-0.854-4.592-1.772-6.875-2.76c-0.131-0.056-0.264-0.112-0.395-0.168
		c-0.098-0.043-0.193-0.085-0.291-0.128c-6.475-2.8-11.627-5.501-15.604-8.104c-31.133-18.912-58.043-53.29-68.795-113.835
		l-0.072,0.005c-0.496-2.999-0.939-5.949-1.357-8.874c-0.055-0.377-0.115-0.747-0.168-1.126
		C142.494,437.586,142.201,435.37,141.925,433.194L141.925,433.194z"/>
	<path fill="#58AADF" d="M384.742,475.542c0,0,44-32,0-48c0,0,164.666-94.501,52.666-90.25c0,0,106.166-103.791,76.342-122.096
		c8.996-3.215,18.217-6.233,27.658-8.987c128-37.334-32,119.083-32,119.083c112-4.251-52.666,90.25-52.666,90.25c44,16,0,48,0,48
		c-12.803,9.989-25.666,16.178-37.992,19.726c-0.703,0.216-2.354,0.695-4.822,1.259c-6.027,1.423-11.902,2.235-17.557,2.579
		c-7.854,0.59-17.365,0.598-27.922-0.813C373.859,483.333,379.306,479.783,384.742,475.542z"/>
	<path fill="#BA76AF" d="M403.669,290.701c0,0,4.262,17.417-16.527,12.44c-20.787-4.977-8.902-30.572-32.201-23.95
		c-23.297,6.622,30.266-1.063,30.266-1.063"/>
	<path fill="#BA76AF" d="M202.156,259.409c0,0-32.188,6.888-72.551-11.739c-40.365-18.63-28.258-44.255-16.613-45.654
		c11.645-1.398,58.725,16.12,58.725,16.12"/>
	<path fill="#A14996" d="M402.949,299.172c0,0,11.068-15.261-31.889-34.429c-42.959-19.168-61.828-24.684-61.828-24.684
		l-82.129-17.402l-19.449-10.313l-3.777-1.766c0,0-65.891-15.301-92.418-8.189c0,0,23.963-0.594,52.201,24.842
		c28.242,25.436,63.223,67.377,125.039,72.896c61.813,5.518,66.945-27.854,100.459-13.669
		C389.158,286.458,400.796,292.595,402.949,299.172z"/>
	<path fill="#A14996" d="M280.058,162.304l0.078-0.127c0.318,0.113,0.619,0.232,0.936,0.348c0.328,0.072,0.646,0.134,0.975,0.211
		l-0.006,0.147c60.48,22.776,35.246,91.425,35.246,91.425c-18.164,4.367-43.121-1.211-61.076-6.748
		c-18.107-5.006-42.143-13.752-55.096-27.217C201.115,220.343,216.835,148.913,280.058,162.304z"/>
	<path fill="#BA76AF" d="M262.261,226.864c17.463,5.387,41.529,10.781,59.549,7.057c-1.42,11.942-4.523,20.387-4.523,20.387
		c-18.164,4.367-43.121-1.211-61.076-6.748c-18.107-5.006-42.143-13.752-55.096-27.217c0,0,1.938-8.784,7.172-19.611
		C221.462,213.575,244.648,221.995,262.261,226.864z"/>
	<path fill="#F8AB12" d="M175.539,265.67c0,0,11.379-15.377,12.479-15.624c0,0,13.07,11.441,14.139,12.311
		s-19.787,10.191-19.787,10.191"/>
</g>
</svg>
