<?xml version="1.0" encoding="utf-8"?>
<!-- Generator: Adobe Illustrator 16.0.0, SVG Export Plug-In . SVG Version: 6.00 Build 0)  -->
<!DOCTYPE svg PUBLIC "-//W3C//DTD SVG 1.1//EN" "http://www.w3.org/Graphics/SVG/1.1/DTD/svg11.dtd">
<svg version="1.1" id="Layer_1" xmlns="http://www.w3.org/2000/svg" xmlns:xlink="http://www.w3.org/1999/xlink" x="0px" y="0px"
	 width="70px" height="70px" viewBox="0 0 644.59 658.395" enable-background="new 0 0 644.59 658.395"
	 xml:space="preserve">
<path fill="#A14996" d="M331.9,610.865l1.594,22.878c0,0-27.076,7.606-17.232,16.797c0,0,1.74,2.751,15.061-4.923
	c0,0-3.33,12.162,2.172,10.714c0,0,6.66-0.434,7.529-8.108c0,0,10.137,16.651,15.928,9.847c0,0,10.426-4.199-11.729-24.182
	l-1.594-23.022"/>
<path fill="#58AADF" d="M382.559,497.767c-6.553-1.947-12.955-3.326-14.283-3.605c-0.086-0.023-0.164-0.048-0.248-0.07l0.066-0.062
	c-1.455-0.37-2.83-0.789-4.141-1.243c-5.697-2.104-9.457-4.698-10.883-5.785c-0.18-0.14-0.363-0.279-0.537-0.422
	c-0.012-0.01-0.035-0.028-0.045-0.036c-8.023-6.607-10.77-15.657-11.256-23.936h2.957v-62.852c0.188-2.061,0.297-4.144,0.297-6.253
	c0-37.565-30.451-68.018-68.018-68.018c-6.41,0-12.605,0.906-18.486,2.564l0.035-0.03c-0.082,0.032-0.158,0.058-0.24,0.089
	c-1.799,0.513-3.568,1.09-5.301,1.744c-6.701,1.847-11.891,1.837-15.791,1.047c-7.303-5.955-11.969-15.021-11.969-25.18
	c0-3.902,0.689-7.644,1.951-11.11c-10.887,5.244-18.4,16.383-18.4,29.275c0,11.478,5.959,21.556,14.947,27.332
	c-9.232,11.611-14.762,26.299-14.762,42.286c0,0.259,0.016,0.514,0.018,0.772c-0.004,0.032-0.018,0.062-0.018,0.097v68.235h13.908
	v88.245c0,0.254,0.115,0.478,0.287,0.637c1.982,22.206,14.639,41.328,32.795,52.228l-0.008,0.016c0,0,103.045,66.994,195.711-77.225
	C451.146,526.508,418.758,508.951,382.559,497.767z"/>
<path fill="#A14996" d="M279.93,610.865l1.594,22.878c0,0-27.078,7.606-17.232,16.797c0,0,1.738,2.751,15.061-4.923
	c0,0-3.332,12.162,2.172,10.714c0,0,6.66-0.434,7.529-8.108c0,0,10.135,16.651,15.928,9.847c0,0,10.424-4.199-11.729-24.182
	l-1.594-23.022"/>
<path fill="#86D0EC" d="M292.266,499.904c0,0,22.146,74.751,76.383,81.325c54.238,6.574-36.211-115.05-36.211-115.05"/>
<g>
	<path fill="#86D0EC" d="M278.586,543.245v-19.412h-56.225v27.023c0,0.253,0.115,0.478,0.287,0.636
		c1.982,22.207,14.639,41.329,32.795,52.228l-0.008,0.017c0,0,39.533,25.697,91.646,10.992
		C285.273,611.104,279.072,558.599,278.586,543.245z"/>
	<path fill="#86D0EC" d="M278.498,514.87v-35.75h-0.086c-1.184-17.493-15.736-31.318-33.527-31.318
		c-8.705,0-16.639,3.31-22.609,8.739v58.329H278.498z"/>
</g>
<path fill="#709B68" d="M212.979,477.665l2.301,92.494l125.166-101.698c0,0,8.744,4.832,10.125-2.53c0,0,21.398,5.752,29.91-3.911
	c0,0-12.654-13.806-28.99-5.753c0,0,0.92-2.071-0.92-3.911c0,0,20.707-11.044,19.326-32.212c0,0-22.316,0.752-26.459,28.331
	c0,0-6.672,2.04-5.752,6.182S212.979,477.665,212.979,477.665z"/>
<path fill="#FFDF7B" d="M208.699,428.968c0,0,36.73,1.778,42.656-4.146c5.924-5.923-11.338,65.167-73.504,32.584L208.699,428.968z"
	/>
<path fill="#8BC483" d="M351.49,456.267c0,0,0.92-2.071-0.92-3.911c0,0,20.707-11.044,19.326-32.212c0,0-22.316,0.752-26.459,28.331
	c0,0-6.672,2.04-5.752,6.182c0.313,1.401-13.873,4.489-32.771,7.962c1.836,1.987,2.969,4.637,2.969,7.557
	c0,6.159-4.992,11.151-11.152,11.151c-6.158,0-11.152-4.992-11.152-11.151c0-1.519,0.307-2.965,0.857-4.284
	c-9.916,1.703-20.211,3.401-29.854,4.958c2.047,2.138,3.311,5.03,3.311,8.224c0,6.573-5.328,11.901-11.9,11.901
	c-6.574,0-11.902-5.328-11.902-11.901c0-1.849,0.434-3.592,1.186-5.152c-14.314,2.246-24.297,3.745-24.297,3.745l0.584,23.485
	c1.236-0.298,2.52-0.474,3.848-0.474c9.035,0,16.357,7.324,16.357,16.358c0,9.035-7.322,16.359-16.357,16.359
	c-1.045,0-2.063-0.108-3.053-0.295l0.922,37.06l44.107-35.838c-6.133-3.325-10.297-9.819-10.297-17.286
	c0-10.854,8.797-19.651,19.652-19.651c8.902,0,16.41,5.923,18.826,14.04l52.877-42.963c0,0,8.744,4.832,10.125-2.53
	c0,0,21.398,5.752,29.91-3.911C380.48,462.02,367.826,448.214,351.49,456.267z"/>
<path fill="#3257A3" d="M213.885,382.423c6.703-3.749,20.447-8.895,29.633,5.043l1.775-12.588c0,0-16.316-14.577-35.477-1.106
	c0.105,2.226,0.223,4.36,0.352,6.225L210.094,380c0,0,0.15,1.583,0.467,4.539c1.219-0.896,2.42-1.609,3.313-2.084
	C213.877,382.444,213.881,382.434,213.885,382.423z"/>
<path fill="#F8AB12" d="M207.549,370.607c-2.104,1.009-3.254,3.424-2.604,5.785c0.639,2.33,2.811,3.818,5.102,3.656
	c1.422-1.123,2.889-1.989,3.934-2.546c0.004-0.011,0.008-0.021,0.014-0.032c6.701-3.748,20.447-8.894,29.631,5.043l1.775-12.588
	C245.4,369.926,227.719,354.108,207.549,370.607z"/>
<circle fill="#3257A3" cx="278.339" cy="394.122" r="39.759"/>
<circle fill="#F8AB12" cx="276.603" cy="387.806" r="39.759"/>
<circle fill="#010102" cx="276.603" cy="387.806" r="30.394"/>
</svg>
