<?xml version="1.0" encoding="utf-8"?>
<!-- Generator: Adobe Illustrator 16.0.0, SVG Export Plug-In . SVG Version: 6.00 Build 0)  -->
<!DOCTYPE svg PUBLIC "-//W3C//DTD SVG 1.1//EN" "http://www.w3.org/Graphics/SVG/1.1/DTD/svg11.dtd">
<svg version="1.1" id="Layer_1" xmlns="http://www.w3.org/2000/svg" xmlns:xlink="http://www.w3.org/1999/xlink" x="0px" y="0px"
	 width="70px" height="70px" viewBox="0 0 644.59 658.395" enable-background="new 0 0 644.59 658.395"
	 xml:space="preserve">
<path fill="#3257A3" d="M308.742,459.299l0.492,164.744c0,0-57.584,0.584-46.666,11.417c0,0,5.084,1.75,11.416,0
	c0,0-9.168,7,4.416,4.583s7.335-1.333,7.335-1.333s-2.5,6.416,8.5,3.666s20.749-10,20.749-10s42,0.083,25.166-5.75
	c-16.832-5.833-23-2.824-23-2.824l0.258-161.753"/>
<path fill="#3257A3" d="M350.064,463.738l0.641,175.638c0,0-57.584,0.584-46.666,11.417c0,0,5.084,1.75,11.416,0
	c0,0-9.167,7,4.416,4.583c13.584-2.417,7.334-1.333,7.334-1.333s-2.5,6.416,8.5,3.666s20.75-10,20.75-10s42,0.083,25.166-5.75
	c-16.832-5.833-23-2.824-23-2.824l-0.557-175.396"/>
<path fill="#A14996" d="M281.603,439.38c0,0,23.332,48.258,52,8.925c28.665-39.333-18.314-27.333-18.314-27.333"/>
<path fill="#BA76AF" d="M319.603,439.38c0,0,24,39.593,41.334,26.259c17.331-13.334,24.666-52,24.666-52"/>
<path fill="#BA76AF" d="M391.455,324.737c-7.359-2.188-14.548-3.661-14.548-3.661l0.084-0.076c-1.607-0.409-3.13-0.87-4.562-1.382
	c-1.814-0.409-3.627-0.795-5.433-1.149v-1.235c-12.419-6.592-16.282-17.685-16.867-27.655h2.956v-62.852
	c0.188-2.061,0.298-4.144,0.298-6.253c0-37.565-30.451-68.018-68.018-68.018c-6.411,0-12.606,0.906-18.487,2.564l0.036-0.03
	c-0.082,0.031-0.159,0.058-0.241,0.088c-1.798,0.514-3.567,1.091-5.301,1.744c-18.861,5.199-25.722-4.366-25.722-4.366
	c-2.901,7.48,2.451,12.299,7.185,14.955c-15.532,12.466-25.486,31.597-25.486,53.063c0,0.259,0.017,0.514,0.02,0.772
	c-0.005,0.032-0.02,0.062-0.02,0.097v28.282c5.05,8.937,12.366,25.04,9.904,39.953h4.005v88.245c0,0.254,0.114,0.478,0.288,0.637
	c1.981,22.206,14.638,41.328,32.794,52.228l-0.008,0.016c0,0,103.045,66.994,195.711-77.225
	C460.043,353.479,427.654,335.922,391.455,324.737z"/>
<path fill="#A14996" d="M287.483,370.216v-19.412h-0.087v-7.713h-0.087c-1.183-17.493-15.737-31.318-33.527-31.318
	c-8.706,0-16.639,3.31-22.61,8.739v58.329h0.414c2.092,22.046,14.702,41.013,32.755,51.85l-0.008,0.017
	c0,0,39.533,25.697,91.646,10.992C294.169,438.075,287.969,385.569,287.483,370.216z"/>
<path fill="#8BC483" d="M386.988,323.584c-3.122-0.807-6.314-1.587-8.125-2.024c-0.301-0.069-0.597-0.142-0.893-0.215
	c-0.386-0.092-0.605-0.145-0.605-0.145l0.015-0.01c-10.239-2.686-16.063-7.736-16.063-7.736l4.862,14.193l12.163,14.193
	C378.341,341.841,393.358,328.003,386.988,323.584z"/>
<path fill="#A14996" d="M376.382,262.148c0-0.014,0.006-0.026,0.006-0.04c0-0.53-0.202-1.004-0.516-1.381
	c-0.011-0.016-0.018-0.033-0.027-0.049c-0.019-0.027-0.049-0.054-0.072-0.081c-0.007-0.008-0.013-0.016-0.02-0.022
	c-0.105-0.12-0.243-0.236-0.424-0.35v-0.001c-0.002-0.001-0.004-0.002-0.007-0.003c-0.374-0.233-0.901-0.451-1.538-0.655
	c-73.805-30.895-126.076,116.777-126.076,116.777l0.389,11.104c22.238-51.064,43.037-82.16,61.092-100.813l2.482-2.507
	c0.058-0.057,0.114-0.11,0.172-0.167c4.659-4.441,14.869-13.148,27.752-18.028c5.613-2.035,21.048-6.326,35.666,1.364
	C375.261,267.298,376.716,264.48,376.382,262.148z"/>
<path fill="#FBBC3E" d="M376.382,256.898c0-0.014,0.006-0.026,0.006-0.04c0-0.53-0.202-1.004-0.516-1.381
	c-0.011-0.016-0.018-0.033-0.027-0.049c-0.019-0.027-0.049-0.054-0.072-0.081c-0.007-0.008-0.013-0.016-0.02-0.022
	c-0.105-0.12-0.243-0.236-0.424-0.35v-0.001c-0.002-0.001-0.004-0.002-0.007-0.003c-0.374-0.233-0.901-0.451-1.538-0.655
	c-73.805-30.895-126.076,116.777-126.076,116.777l0.389,11.104c22.238-51.064,43.037-82.16,61.092-100.813l2.482-2.507
	c0.058-0.057,0.114-0.11,0.172-0.167c4.659-4.441,14.869-13.148,27.752-18.028c5.613-2.035,21.048-6.326,35.666,1.364
	C375.261,262.048,376.716,259.23,376.382,256.898z"/>
<path fill="#EF9B3A" d="M307.938,468.58c0,50.923-20.024,92.204-44.729,92.204s-44.729-41.281-44.729-92.204
	c0-50.92,20.025-92.201,44.729-92.201S307.938,417.66,307.938,468.58z"/>
<polyline fill="#EF9B3A" points="247.709,372.879 270.773,377.698 289.74,406.295 293.359,443.795 296.74,481.795 293.359,498.795 
	280.74,544.735 258.853,560.352 241.826,556.491 239.958,544.735 "/>
<path fill="#FBBC3E" d="M292.438,465.08c0,50.923-20.024,92.204-44.729,92.204s-44.729-41.281-44.729-92.204
	c0-50.92,20.025-92.201,44.729-92.201S292.438,414.16,292.438,465.08z"/>
<ellipse fill="#EF9B3A" cx="241.459" cy="465.081" rx="31.479" ry="64.89"/>
<path fill="#FFDF7B" d="M247.708,546.485c-23.854,0-43.343-38.49-44.657-86.983c-0.047,1.729-0.072,3.469-0.072,5.221
	c0,50.923,20.025,92.204,44.729,92.204s44.729-41.281,44.729-92.204c0-1.752-0.026-3.492-0.073-5.221
	C291.051,507.995,271.563,546.485,247.708,546.485z"/>
<path opacity="0.3" fill="#FFDF7B" d="M211.271,476.547c0.733,9.538,2.472,18.387,4.99,26.063l56.677-51.675
	c-1.137-9.647-3.313-18.456-6.28-25.877L211.271,476.547z"/>
<path fill="#EB6121" d="M249.126,408.681c3.826,0,7.492,1.41,10.884,3.986c-5.203-7.838-11.612-12.476-18.551-12.476
	c-17.386,0-31.479,29.053-31.479,64.89c0,27.95,8.574,51.771,20.595,60.902c-7.835-11.803-12.928-30.878-12.928-52.413
	C217.647,437.733,231.741,408.681,249.126,408.681z"/>
<path fill="#FFDF7B" d="M247.709,380.843c24.057,0,43.673,39.147,44.685,88.22c0.027-1.321,0.044-2.647,0.044-3.982
	c0-50.92-20.024-92.201-44.729-92.201S202.98,414.16,202.98,465.08c0,1.335,0.018,2.661,0.044,3.982
	C204.037,419.99,223.653,380.843,247.709,380.843z"/>
<path opacity="0.3" fill="#FFDF7B" d="M271.861,444.102l14.841-15.842c-1.269-9.431-4.263-17.09-6.823-25.046l-15.291,17.487
	C266.987,425.686,270.201,433.801,271.861,444.102z"/>
<path opacity="0.3" fill="#FFDF7B" d="M281,403.501l15.423,3.323c0,0,6.134,14.705,6.851,20.713l-14.975-1.244
	C288.298,426.293,282.229,406.21,281,403.501z"/>
<path fill="#A14996" d="M393.767,232.636c26.696-18.446,65.82-41.046,112.455-54.647c89.053-25.975-22.262,82.848-22.262,82.848
	c77.92-2.957-36.642,62.789-36.642,62.789c30.612,11.131,0,33.394,0,33.394c-8.907,6.95-17.855,11.255-26.433,13.724
	c-0.488,0.149-1.637,0.484-3.354,0.876c-4.193,0.989-8.281,1.555-12.215,1.794c-18.472,1.388-50.105-1.85-78.582-32.202l0.012-0.009
	c-5.627-5.505-9.604-11.563-10.301-17.976l-0.01,0.012c-0.008-0.088-0.008-0.176-0.016-0.265c-0.041-0.439-0.066-0.88-0.076-1.322
	c-0.009-0.225-0.012-0.45-0.016-0.676c0-0.039,0-0.08,0-0.12C315.981,281.497,393.665,232.699,393.767,232.636z"/>
<path fill="#F8AB12" d="M397.228,364.899c0,0,30.609-22.263,0-33.395c0,0,114.561-65.746,36.641-62.789
	c0,0,73.861-72.208,53.111-84.943c6.258-2.237,12.674-4.337,19.242-6.252c89.053-25.974-22.262,82.848-22.262,82.848
	c77.92-2.957-36.642,62.788-36.642,62.788c30.612,11.132,0,33.395,0,33.395c-8.907,6.949-17.855,11.254-26.433,13.723
	c-0.488,0.151-1.637,0.484-3.354,0.876c-4.193,0.99-8.281,1.556-12.215,1.795c-5.463,0.41-12.082,0.416-19.426-0.565
	C389.656,370.32,393.446,367.849,397.228,364.899z"/>
<g>
	<path fill="#8BC483" d="M106.996,193.233l17.496-6.001c0,0,77.396,90.235,62.424,198.338c0,0-6.549-122.233-80.474-186.496"/>
	<path fill="#EB6121" d="M85.487,154.212c0,0,40.409,0.831,50.511,33.483C146.097,220.347,89.483,227.934,85.487,154.212z"/>
	<path fill="#FFDF7B" d="M104.562,137.1c0,0,41.404,18.174,37.853,56.243C138.861,231.412,77.104,214.995,104.562,137.1z"/>
	<path fill="#719B6A" d="M142.06,211.503c-1.89-2.949-3.695-5.661-5.389-8.128c-3.321,7.089-10.022,9.996-16.762,8.563
		c2.288,2.495,4.497,5.049,6.632,7.65C132.542,219.436,138.148,216.727,142.06,211.503z"/>
	<path fill="#8BC483" d="M150.809,249.37c0,0-29.586-11.148-29.085,26.255c0,0,11.36-36.034,30.02-17.378"/>
</g>
<g>
	<path fill="#E62C29" d="M241.185,254.897c0,0-63.373-34.118-104.023,34.565c0,0,61.255-34.87,94.848,10.832
		C232.009,300.295,248.646,284.201,241.185,254.897z"/>
	<path fill="#EB5C5D" d="M243.11,269.199c-0.048-4.306-0.604-9.019-1.909-14.147c0,0-62.822-34.158-103.472,34.526
		c0,0,0.729-0.415,2.071-1.096C178.423,245.656,230.815,264.094,243.11,269.199z"/>
</g>
<path fill="#A14996" d="M220.799,213.035c6.702-3.749,20.447-8.895,29.633,5.043l1.775-12.588c0,0-16.317-14.577-35.478-1.106
	c0.105,2.226,0.224,4.36,0.352,6.225l-0.074,0.004c0,0,0.151,1.583,0.468,4.539c1.218-0.896,2.419-1.609,3.312-2.084
	C220.792,213.057,220.794,213.046,220.799,213.035z"/>
<path fill="#F8AB12" d="M214.463,201.22c-2.104,1.009-3.254,3.424-2.604,5.785c0.64,2.33,2.812,3.818,5.102,3.656
	c1.423-1.123,2.889-1.989,3.934-2.546c0.005-0.011,0.008-0.021,0.014-0.032c6.701-3.748,20.447-8.894,29.632,5.043l1.775-12.588
	C252.315,200.538,234.632,184.721,214.463,201.22z"/>
<circle fill="#A14996" cx="285.252" cy="224.734" r="39.759"/>
<circle fill="#F8AB12" cx="283.517" cy="218.418" r="39.759"/>
<circle fill="#010102" cx="283.517" cy="218.418" r="30.395"/>
</svg>
