<?xml version="1.0" encoding="utf-8"?>
<!-- Generator: Adobe Illustrator 16.0.0, SVG Export Plug-In . SVG Version: 6.00 Build 0)  -->
<!DOCTYPE svg PUBLIC "-//W3C//DTD SVG 1.1//EN" "http://www.w3.org/Graphics/SVG/1.1/DTD/svg11.dtd">
<svg version="1.1" id="Layer_1" xmlns="http://www.w3.org/2000/svg" xmlns:xlink="http://www.w3.org/1999/xlink" x="0px" y="0px"
	 width="70px" height="70px" viewBox="0 0 644.59 658.395" enable-background="new 0 0 644.59 658.395"
	 xml:space="preserve">
<path fill="#8BC483" d="M666.36,682.067c0,0,2.051,0.804,3.373,1.938s-2.229,1.28-2.229,1.28"/>
<path fill="#FFE401" d="M182.011,108.302c0,0,62.854-4.754,73.28,5.122c10.429,9.874-22.453-111.135-127.458-52.418L182.011,108.302
	z"/>
<path fill="#FBBC3E" d="M171.412,114.906c0,0,11.24,62.023,23.424,69.625c12.184,7.604-113.206,6.278-82.846-110.135
	L171.412,114.906z"/>
<path fill="#FACD4E" d="M255.791,575.397c0,0,29.159,61.193,63.761,13.717c34.602-47.476-22.104-32.992-22.104-32.992"/>
<path fill="#3257A3" d="M283.581,604.176v19.813c0,0-58.509,0.594-47.416,11.601c0,0,5.166,1.778,11.6,0
	c0,0-9.314,7.113,4.488,4.657c13.802-2.456,7.451-1.354,7.451-1.354s-2.539,6.52,8.637,3.725
	c11.177-2.794,21.083-10.16,21.083-10.16s42.675,0.084,25.571-5.843c-17.104-5.927-23.371-2.87-23.371-2.87l0.763-16.773"/>
<path fill="#709B68" d="M304.669,382.781l-41.334-64.666c0,0,80-140,147.334-200.667s12.04,148.011,12.04,148.011"/>
<path fill="#FFDF7B" d="M541.656,419.17c-25.345-3.495-71.011,8.538-71.011,8.538L361.78,473.886l-1.135-31.928l-9.47-5.219
	l58.321-53.958l-65.576,5.166c0.223-0.845,0.429-1.69,0.627-2.535l-31.493,4.075V264.376c-0.131-0.181-0.24-0.331-0.342-0.469
	v-78.229c0.217-2.372,0.342-4.77,0.342-7.197c0-0.2-0.014-0.397-0.016-0.598c0.242-2.564,0.379-5.161,0.379-7.789
	c0-45.234-36.67-81.903-81.903-81.903c-44.512,0-80.702,35.513-81.849,79.748h-0.07v223h0.055
	c-0.306,13.035,0.744,28.923,3.47,48.169c0.054,0.379,0.113,0.749,0.168,1.126c0.417,2.925,0.861,5.875,1.357,8.874l0.073-0.005
	c10.752,60.545,37.661,94.923,68.794,113.835c3.976,2.603,9.128,5.304,15.604,8.104c0.098,0.043,0.195,0.085,0.292,0.128
	c0.129,0.056,0.262,0.112,0.394,0.168c2.283,0.987,4.576,1.906,6.875,2.76c12.686,4.831,25.343,7.937,37.787,9.665
	c3.56,0.867,7.685,1.391,12.409,1.531c5.528,8.338,25.491,35.944,40.522,24.381c8.258-6.353,14.28-18.364,18.352-29.332
	c15.92-3.501,30.535-8.422,43.237-13.632c122.602-49.084,155.696-119.877,155.696-119.877l-0.005,0.001
	C574.181,415.406,541.656,419.17,541.656,419.17z"/>
<path fill="#EF7E81" d="M312.916,265.863v-6.487c-0.13-0.181-0.242-0.331-0.342-0.469v-78.229c0.217-2.372,0.342-4.77,0.342-7.197
	c0-0.2-0.014-0.397-0.016-0.598c0.242-2.564,0.379-5.161,0.379-7.789c0-45.234-36.67-81.903-81.904-81.903
	c-44.511,0-80.701,35.513-81.848,79.748h-0.07v102.925H312.916z"/>
<path fill="#EF7E81" d="M126.871,89.782c0,0-72.141,46.49-54.722,129.201c17.419,82.71-3.169,86.836-20.588,92.691
	c-17.419,5.854-18.211,31.193,17.421,25.65c35.631-5.543,42.757-41.043,42.757-59.717c0-18.672-47.583-118.448,42.468-166.911
	c0,0,6.822-12.697-4.758-19.526S126.871,89.782,126.871,89.782z"/>
<path fill="#3257A3" d="M325.567,608.688l0.15,30.882c0,0-58.509,0.593-47.416,11.601c0,0,5.166,1.778,11.602,0
	c0,0-9.317,7.112,4.486,4.656c13.802-2.455,7.452-1.354,7.452-1.354s-2.54,6.52,8.636,3.726
	c11.178-2.795,21.084-10.161,21.084-10.161s42.675,0.084,25.57-5.843c-17.104-5.927-23.369-2.869-23.369-2.869l-0.066-30.637"/>
<circle fill="#EB5C5D" cx="241.075" cy="154.151" r="48.594"/>
<circle fill="#FFFFFF" cx="241.073" cy="154.151" r="37.149"/>
<g>
	<circle fill="#010102" cx="231.368" cy="148.065" r="19.479"/>
	<circle fill="#FFFFFF" cx="229.062" cy="143.151" r="8.211"/>
</g>
<ellipse fill="#FACD4E" cx="157.679" cy="288.32" rx="26.846" ry="28.324"/>
<ellipse fill="#FACD4E" cx="303.894" cy="288.32" rx="26.847" ry="28.324"/>
<rect x="157.68" y="259.997" fill="#FACD4E" width="146.213" height="56.647"/>
<rect x="149.457" y="313.439" fill="#F8AB12" width="163.598" height="8"/>
<rect x="224.521" y="259.997" fill="#F8AB12" width="4.539" height="53.442"/>
<rect x="254.541" y="259.997" fill="#F8AB12" width="4.54" height="53.442"/>
<rect x="285.13" y="259.997" fill="#F8AB12" width="4.539" height="53.442"/>
<rect x="163.914" y="259.997" fill="#F8AB12" width="4.539" height="53.442"/>
<rect x="193.935" y="259.997" fill="#F8AB12" width="4.539" height="53.442"/>
<path fill="#FACD4E" d="M151.971,428.878c3.008,25.865,14.71,88.729,58.818,124.729c3.856,2.965,7.805,5.656,11.822,8.097
	c4.084,2.673,9.375,5.447,16.023,8.322c0.101,0.044,0.201,0.087,0.301,0.131c0.133,0.058,0.27,0.116,0.404,0.173
	c2.344,1.014,4.699,1.958,7.06,2.834c1.189,0.453,2.378,0.889,3.567,1.312c3.348,1.018,6.299,1.979,8.9,2.893
	c0.406,0.12,0.811,0.248,1.217,0.365c11.365-17.05,29.66-69.899-6.686-120.227c-39.137-54.19-88.694-35.798-101.289-29.974
	C152.161,427.938,152.098,428.394,151.971,428.878z"/>
<path fill="#EF7E81" d="M155.943,456.815c0.043,0.299,0.09,0.602,0.133,0.9c7.402,35.107,24.91,84.567,66.004,107.144
	c2.064,1.058,4.344,2.132,6.871,3.225c0.083,0.036,0.166,0.073,0.248,0.109c0.109,0.047,0.223,0.096,0.335,0.143
	c1.942,0.84,3.894,1.622,5.848,2.347c1.581,0.602,3.671,1.146,5.251,1.688c4.803,1.475,35.109-50.939-0.544-100.308
	c-35.726-49.47-85.046-21.87-85.046-21.87c0.234,1.85,0.482,3.735,0.758,5.664C155.846,456.18,155.896,456.494,155.943,456.815z"/>
<path fill="#EB5C5D" d="M155.943,456.812c0.043,0.299,0.09,0.602,0.133,0.9c0.014,0.068,0.031,0.14,0.045,0.208
	c6.818-3.402,44.919-20.299,79.07,7.93c-35.166-40.828-80.148-15.661-80.148-15.661c0.234,1.85,0.482,3.735,0.758,5.664
	C155.846,456.176,155.896,456.49,155.943,456.812z"/>
<rect x="179.312" y="419.992" transform="matrix(0.9982 -0.0602 0.0602 0.9982 -25.6461 11.7207)" fill="#F8AB12" width="4.539" height="22.496"/>
<rect x="211.772" y="426.065" transform="matrix(0.9307 0.3657 -0.3657 0.9307 174.6138 -48.0162)" fill="#F8AB12" width="4.539" height="21.614"/>
<rect x="238.527" y="447.029" transform="matrix(0.7702 0.6379 -0.6379 0.7702 346.777 -48.5795)" fill="#F8AB12" width="4.539" height="19.729"/>
<rect x="254.948" y="472.054" transform="matrix(0.2932 0.9561 -0.9561 0.2932 642.5549 94.7213)" fill="#F8AB12" width="4.54" height="19.728"/>
<polygon fill="#F8AB12" points="256.859,516.029 256.242,510.919 274.885,511.904 274.658,516.438 "/>
<rect x="149.789" y="251.997" fill="#EB5C5D" width="162.785" height="8"/>
<polygon fill="#F8AB12" points="254.092,546.725 254.736,541.618 272.579,547.112 271.256,551.453 "/>
<polygon fill="#F8AB12" points="245.088,570.394 245.756,565.294 263.096,570.635 261.773,574.976 "/>
<path fill="#FACD4E" d="M313.614,331.917c-35.776,0-64.778,29.003-64.778,64.777c0,35.776,29.002,64.778,64.778,64.778V331.917z"/>
<circle fill="#EF7E81" cx="318.01" cy="396.695" r="51.154"/>
<path fill="#EB5C5D" d="M313.055,345.784c-25.926,2.493-46.199,24.332-46.199,50.911c0,4.069,0.489,8.021,1.387,11.816
	c0.937-26.81,19.704-49.083,44.813-55.314V345.784z"/>
<path fill="#8BC483" d="M390.107,284.929c38.375-26.513,94.608-58.997,161.643-78.548c128-37.334-32,119.083-32,119.083
	c112-4.251-52.667,90.25-52.667,90.25c44,16,0,48,0,48c-12.803,9.989-25.666,16.178-37.991,19.726
	c-0.705,0.216-2.354,0.695-4.823,1.259c-6.028,1.423-11.902,2.235-17.557,2.579c-26.55,1.995-72.021-2.659-112.949-46.286
	l0.013-0.013c-8.084-7.912-13.803-16.62-14.805-25.838l-0.014,0.017c-0.011-0.126-0.011-0.254-0.021-0.38
	c-0.061-0.631-0.098-1.265-0.111-1.9c-0.012-0.323-0.018-0.646-0.021-0.971c0-0.058,0-0.116,0-0.175
	C278.302,355.162,389.962,285.021,390.107,284.929z"/>
<path fill="#709B68" d="M395.083,475.041c0,0,44-32,0-48c0,0,164.667-94.501,52.667-90.25c0,0,106.166-103.791,76.342-122.096
	c8.994-3.215,18.215-6.233,27.658-8.987c128-37.334-32,119.083-32,119.083c112-4.251-52.667,90.25-52.667,90.25c44,16,0,48,0,48
	c-12.803,9.989-25.666,16.178-37.991,19.726c-0.705,0.216-2.354,0.695-4.823,1.259c-6.028,1.423-11.902,2.235-17.557,2.579
	c-7.854,0.59-17.364,0.598-27.923-0.813C384.201,482.832,389.648,479.282,395.083,475.041z"/>
</svg>
