<?xml version="1.0" encoding="utf-8"?>
<!-- Generator: Adobe Illustrator 16.0.0, SVG Export Plug-In . SVG Version: 6.00 Build 0)  -->
<!DOCTYPE svg PUBLIC "-//W3C//DTD SVG 1.1//EN" "http://www.w3.org/Graphics/SVG/1.1/DTD/svg11.dtd">
<svg version="1.1" id="Layer_1" xmlns="http://www.w3.org/2000/svg" xmlns:xlink="http://www.w3.org/1999/xlink" x="0px" y="0px"
	 width="70px" height="70px" viewBox="0 0 644.59 658.395" enable-background="new 0 0 644.59 658.395"
	 xml:space="preserve">
<path fill="#3257A3" d="M291.933,460.04l0.492,164.744c0,0-57.584,0.584-46.666,11.417c0,0,5.084,1.75,11.417,0
	c0,0-9.169,7,4.415,4.583c13.585-2.417,7.334-1.333,7.334-1.333s-2.5,6.416,8.5,3.666s20.751-10,20.751-10s41.999,0.083,25.165-5.75
	c-16.832-5.833-23-2.824-23-2.824l0.258-161.753"/>
<path fill="#FACD4E" d="M311.712,328.67l-25.86-40.459c0,0,50.052-87.593,92.18-125.551c42.129-37.956,7.534,92.605,7.534,92.605"/>
<path fill="#709B68" d="M281.131,449.182c0,0,18.244,38.286,39.893,8.582c21.649-29.703-13.829-20.642-13.829-20.642"/>
<path fill="#8BC483" d="M459.986,351.437c-15.858-2.188-44.43,5.342-44.43,5.342l-68.112,28.893l-0.71-19.977l-5.926-3.266
	l36.49-33.759l-41.029,3.231c0.141-0.528,0.27-1.058,0.393-1.586l-19.703,2.55v-78.277c-0.082-0.113-0.152-0.207-0.215-0.294V205.35
	c0.137-1.484,0.215-2.983,0.215-4.503c0-27.053-21.93-48.983-48.983-48.983c-27.052,0-48.982,21.931-48.982,48.983
	c0,0.187,0.012,0.369,0.014,0.556c-0.003,0.023-0.014,0.045-0.014,0.069v94.893c-2.536,10.529-4.155,22.656-4.249,36.53
	c-0.262,8.315,0.381,18.541,2.149,31.016c0.034,0.237,0.071,0.469,0.105,0.705c0.262,1.83,0.539,3.676,0.849,5.552l0.046-0.002
	c6.728,37.88,23.563,59.389,43.042,71.222c2.488,1.628,5.711,3.318,9.763,5.07c0.062,0.026,0.122,0.053,0.184,0.079
	c0.08,0.035,0.163,0.07,0.245,0.105c1.428,0.617,2.863,1.192,4.301,1.727c7.938,3.022,15.857,4.966,23.642,6.047
	c2.229,0.543,4.808,0.87,7.766,0.958c3.458,5.217,15.948,22.489,25.353,15.255c5.166-3.975,8.936-11.49,11.481-18.352
	c9.961-2.191,19.105-5.27,27.052-8.529c76.709-30.71,97.413-75.002,97.413-75.002h-0.003
	C480.335,349.082,459.986,351.437,459.986,351.437z"/>
<path fill="#709B68" d="M216.359,359.897c0,0,36.276-20.3,62.554,16.086c26.226,36.313,3.933,74.863,0.4,73.779
	c-1.162-0.397-2.7-0.798-3.862-1.24c-1.438-0.534-2.872-1.109-4.301-1.727c-0.083-0.035-0.166-0.07-0.246-0.105
	c-0.062-0.027-0.121-0.054-0.183-0.08c-4.052-1.751-7.274-3.441-9.763-5.07c-19.479-11.832-36.314-33.341-43.042-71.223
	l-0.046,0.004c-0.311-1.877-0.588-3.723-0.85-5.552c-0.033-0.236-0.072-0.468-0.104-0.705
	C216.715,362.646,216.532,361.259,216.359,359.897L216.359,359.897z"/>
<path fill="#FFDF7B" d="M365.169,267.447c24.007-16.588,59.191-36.912,101.133-49.145c80.085-23.358-20.021,74.506-20.021,74.506
	c70.074-2.66-32.952,56.465-32.952,56.465c27.529,10.012,0,30.032,0,30.032c-8.01,6.25-16.058,10.122-23.77,12.342
	c-0.44,0.136-1.473,0.435-3.018,0.787c-3.771,0.891-7.447,1.398-10.984,1.614c-16.611,1.248-45.06-1.664-70.668-28.96l0.009-0.008
	c-5.061-4.95-8.637-10.398-9.263-16.165l-0.009,0.01c-0.009-0.079-0.009-0.158-0.015-0.237c-0.037-0.395-0.061-0.791-0.069-1.189
	c-0.008-0.202-0.01-0.404-0.014-0.607c0-0.035,0-0.072,0-0.109C295.215,311.39,365.076,267.504,365.169,267.447z"/>
<path fill="#FACD4E" d="M368.28,386.394c0,0,27.529-20.022,0-30.032c0,0,103.025-59.126,32.952-56.466
	c0,0,66.424-64.938,47.765-76.391c5.628-2.012,11.396-3.9,17.305-5.623c80.085-23.358-20.021,74.505-20.021,74.505
	c70.074-2.659-32.952,56.466-32.952,56.466c27.529,10.012,0,30.032,0,30.032c-8.01,6.25-16.058,10.122-23.77,12.342
	c-0.44,0.135-1.473,0.435-3.018,0.788c-3.771,0.89-7.447,1.398-10.984,1.613c-4.913,0.369-10.864,0.374-17.47-0.509
	C361.472,391.268,364.88,389.047,368.28,386.394z"/>
<circle fill="#709B68" cx="265.866" cy="268.589" r="26.917"/>
<circle fill="#FFFFFF" cx="265.866" cy="268.589" r="20.578"/>
<circle fill="#010102" cx="260.49" cy="273.27" r="10.79"/>
<circle fill="#FFFFFF" cx="259.061" cy="275.92" r="4.549"/>
<path fill="#709B68" d="M245.504,271.421l40.599-16.834c0,0-12.815-13.003-21.253-7.98c-8.438,5.021-20.798-0.693-23.439,21.168"/>
<g>
	<path fill="#E62C29" d="M224.986,272.596c0,0-54.852-29.529-90.034,29.917c0,0,53.017-30.181,82.092,9.375
		C217.044,311.888,231.443,297.958,224.986,272.596z"/>
	<path fill="#EB5C5D" d="M227.129,284.94c-0.041-3.728-0.522-7.807-1.651-12.245c0,0-54.853-29.53-90.035,29.917
		c0,0,0.632-0.359,1.793-0.948C170.664,264.597,216.488,280.521,227.129,284.94z"/>
</g>
<path fill="#709B68" d="M439.027,403.871c-102.753,9.322-84.997,41.9-82.393,45.913c4.742-1.5,9.221-3.148,13.365-4.848
	C401.796,432.207,423.962,417.146,439.027,403.871z"/>
<path fill="#3257A3" d="M322.195,464.479l0.641,175.638c0,0-57.583,0.584-46.666,11.417c0,0,5.084,1.75,11.416,0
	c0,0-9.168,7,4.416,4.583s7.335-1.333,7.335-1.333s-2.5,6.416,8.5,3.666s20.749-10,20.749-10s42,0.083,25.167-5.75
	s-23-2.824-23-2.824l-0.558-175.396"/>
<path fill="#8BC483" d="M218.993,214.279c0,0-29.608-2.335-34.942,11.332s9.353,15.001,13.843,13.667c0,0-2.28,24.145,36.771,0.405"
	/>
<path fill="#709B68" d="M182.9,229.067h133.844l0.045-14.367H191.384C191.384,214.7,184.85,225.81,182.9,229.067z"/>
<g>
	<path fill="#61B9E9" d="M162.643,215.854c7.447-8.4,27.982-26.126,72.022-31.627l-5.468,34.374l-66.414,1.66
		C161.461,220.14,159.891,219.38,162.643,215.854z"/>
	<path fill="#709B68" d="M316.744,192.167c0,0-0.289,1.362,0.045,4.599l-26.218-1.051l6.652-8.146"/>
	<path fill="#3257A3" d="M217.195,179.113c3.228-13.78,16.902-23.239,34.463-25.799l-0.013-0.007c0,0,0.282-0.044,0.794-0.111
		c0.029-0.007,0.063-0.011,0.094-0.014c7.526-1.004,61.154-7.03,71.35,23.249c0,0,0.9,8.02,1.359,14.23v-0.001
		c0,0,0.001,0.006,0,0.006c0.008,0.104,0.016,0.208,0.023,0.309c0.023,0.737-0.125,2.532-2.168,2.45
		c-0.002-0.001-0.002-0.001-0.004,0l-22.053-0.89c-0.955,0.03-2.913,0.461-2.975,3.453l-0.18,9.079
		c-0.001,0.006-0.001,0.008-0.001,0.012c-0.046,2.289,0.762,3.187,1.583,3.512l22.918,1.008h0.002
		c2.376,0.105,2.799,1.433,2.848,2.171c-0.004,0.162-0.008,0.323-0.014,0.486v0.001l0,0c-0.031,1.024-0.067,2.081-0.107,3.18
		c-0.356,1.832-1.762,4.289-6.764,4.051c-20.322-1.037-64.438-2.802-95.458-0.555c-0.843,0.048-4.909,0.007-4.959-5.104
		c0.002-0.011-0.002-0.018-0.002-0.027c-0.024-7.7-0.244-15.631-0.828-22.737c-0.413-1.995-0.626-4.003-0.612-6.011
		c-0.002-0.009-0.002-0.017-0.002-0.024h0.004C216.509,183.052,216.734,181.071,217.195,179.113z"/>
	<path fill="#61B9E9" d="M262.034,146.456v-0.002l0.038-0.003c0.307-0.033,0.595-0.053,0.867-0.058l4.966-0.334
		c9.59-0.621,10.208,6.384,10.208,6.384l-21.769,0.331C256.604,147.998,259.693,146.729,262.034,146.456z"/>
</g>
</svg>
