<?xml version="1.0" encoding="utf-8"?>
<!-- Generator: Adobe Illustrator 16.0.0, SVG Export Plug-In . SVG Version: 6.00 Build 0)  -->
<!DOCTYPE svg PUBLIC "-//W3C//DTD SVG 1.1//EN" "http://www.w3.org/Graphics/SVG/1.1/DTD/svg11.dtd">
<svg version="1.1" id="Layer_1" xmlns="http://www.w3.org/2000/svg" xmlns:xlink="http://www.w3.org/1999/xlink" x="0px" y="0px"
	  width="70px" height="70px" viewBox="0 0 644.59 658.395" enable-background="new 0 0 644.59 658.395"
	 xml:space="preserve">
<g>
	<path fill="#E52625" d="M352.62,602.469l1.834,26.332c0,0-31.166,8.756-19.834,19.334c0,0,2.001,3.166,17.334-5.666
		c0,0-3.833,13.998,2.5,12.332c0,0,7.666-0.5,8.666-9.332c0,0,11.668,19.166,18.334,11.332c0,0,12-4.832-13.5-27.832l-1.834-26.5"/>
	<path fill="#E52625" d="M292.8,602.469l1.834,26.332c0,0-31.167,8.756-19.834,19.334c0,0,2.001,3.166,17.334-5.666
		c0,0-3.833,13.998,2.5,12.332c0,0,7.666-0.5,8.666-9.332c0,0,11.668,19.166,18.334,11.332c0,0,12-4.832-13.5-27.832l-1.834-26.5"/>
	<path fill="#E62C29" d="M227.224,442.617c0,0-14.158,36.867-28.316,51.025s-1.089,38.119,28.316,53.367
		c29.406,15.248,32.674-5.445,32.674-5.445"/>
	<path fill="#EB5C5D" d="M382.775,465.074V204.279c0.217-2.372,0.342-4.77,0.342-7.197c0-43.238-35.05-78.29-78.29-78.29
		c-43.238,0-78.289,35.052-78.289,78.29c0,0.298,0.02,0.591,0.022,0.889c-0.005,0.038-0.022,0.071-0.022,0.111v335.311
		c0,0.291,0.131,0.549,0.331,0.732c2.28,25.561,16.849,47.57,37.747,60.115l-0.009,0.018c0,0,118.606,77.113,225.269-88.887
		C489.876,505.371,434.123,475.145,382.775,465.074z"/>
	<path fill="#FFE401" d="M226.156,236.189c0,0,42.277,2.047,49.098-4.772c6.818-6.817-13.05,75.009-84.604,37.505L226.156,236.189z"
		/>
	<path fill="#EF7E81" d="M291.253,524.635V329.139h-0.1c-1.361-20.135-18.113-36.047-38.592-36.047
		c-10.021,0-19.151,3.809-26.023,10.059v230.246c0,0.291,0.131,0.549,0.331,0.732c2.28,25.561,16.849,47.57,37.747,60.115
		l-0.009,0.018c0,0,45.503,29.58,105.487,12.654C298.95,602.744,291.813,542.309,291.253,524.635z"/>
	<path fill="#EF7E81" d="M339.52,454.152c0,0,21.183,79.852,87.183,87.852s-44.064-140-44.064-140"/>
	<path fill="#FFDF7B" d="M395.13,327.953c0-11.797-6.278-21.361-14.022-21.361c-2.11,0-4.104,0.729-5.899,2.002l-0.007-0.016
		c-21.39,15.527-73.19,32.193-74.706,32.678c-39.903,9.777-62.905,2.459-69.203-0.113c-0.566-0.311-1.145-0.58-1.741-0.779
		c-0.028-0.016-0.045-0.023-0.045-0.023l-0.001,0.006c-0.957-0.316-1.948-0.49-2.967-0.49c-7.746,0-14.023,9.566-14.023,21.365
		c0,7.736,2.709,14.49,6.752,18.24l-0.025,0.006c0,0,0.061,0.049,0.172,0.131c1.48,1.334,3.133,2.262,4.898,2.689
		c13.206,5.824,54.015,15.424,142.731-25.391l0.042-0.012l0.045-0.031c5.314-2.445,10.799-5.07,16.459-7.889
		c1.295-0.354,2.523-0.979,3.669-1.832c0.03-0.014,0.058-0.029,0.087-0.045l-0.038,0.008
		C391.938,343.607,395.13,336.357,395.13,327.953z"/>
	<path fill="#58AADF" d="M301.464,340.941c0,0-0.259,26.213,0.029,40.246l24.577-7.658c0,0,0.695-24.391-7.016-38.693
		L301.464,340.941z"/>
	<path fill="#70CAF3" d="M348.232,365.084l22.543-9.922c0,0,0.056-24.914-7.655-39.217l-21.258,9.938
		C345.017,335.213,347.325,349.041,348.232,365.084z"/>
	<path fill="#58AADF" d="M256.909,388.486l-20.494-2.543c0,0-3.287-25.848,2.006-42.506l21.38,2.486
		C258.172,356.119,255.32,372.566,256.909,388.486z"/>
	<path fill="#EB5C5D" d="M262.789,138.968c0,0-20.741-5.854-15.186-20.177c0,0,9.415,13.158,35.985,2.917"/>
	<path fill="#FFE401" d="M232.144,347.15"/>
	<path fill="#FFE401" d="M257.845,512.824c0-0.371-0.268-0.67-0.6-0.67h-5.933c-0.33,0-0.597,0.299-0.597,0.67v17.377
		c0,0.061,0.019,0.115,0.029,0.172c-0.018,0.162-0.029,0.33-0.029,0.498c0,2.215,1.594,4.01,3.564,4.01
		c1.969,0,3.564-1.795,3.564-4.01c0-0.168-0.014-0.334-0.031-0.498c0.012-0.057,0.031-0.111,0.031-0.172V512.824z"/>
	<path fill="#FFE401" d="M286.026,512.824c0-0.371-0.266-0.67-0.594-0.67h-5.936c-0.331,0-0.598,0.299-0.598,0.67v17.377
		c0,0.061,0.019,0.115,0.031,0.172c-0.018,0.162-0.031,0.33-0.031,0.498c0,2.215,1.598,4.01,3.564,4.01
		c1.969,0,3.563-1.795,3.563-4.01c0-0.168-0.012-0.334-0.029-0.498c0.014-0.057,0.029-0.111,0.029-0.172V512.824z"/>
	<path fill="#70CAF3" d="M272.224,512.824c0-0.371-0.266-0.67-0.597-0.67h-5.933c-0.33,0-0.596,0.299-0.596,0.67v17.377
		c0,0.061,0.016,0.115,0.028,0.172c-0.017,0.162-0.028,0.33-0.028,0.498c0,2.215,1.595,4.01,3.561,4.01
		c1.969,0,3.564-1.795,3.564-4.01c0-0.168-0.012-0.334-0.029-0.498c0.015-0.057,0.029-0.111,0.029-0.172V512.824z"/>
	<path fill="#FFE401" d="M314.212,514.15c0-0.371-0.266-0.67-0.598-0.67h-5.933c-0.329,0-0.597,0.299-0.597,0.67v17.377
		c0,0.061,0.017,0.115,0.029,0.17c-0.018,0.164-0.029,0.332-0.029,0.5c0,2.215,1.596,4.01,3.563,4.01c1.97,0,3.564-1.795,3.564-4.01
		c0-0.168-0.012-0.334-0.03-0.5c0.013-0.055,0.03-0.109,0.03-0.17V514.15z"/>
	<path fill="#70CAF3" d="M299.832,514.15c0-0.371-0.266-0.67-0.599-0.67h-5.932c-0.331,0-0.597,0.299-0.597,0.67v17.377
		c0,0.061,0.017,0.115,0.03,0.17c-0.018,0.164-0.03,0.332-0.03,0.5c0,2.215,1.597,4.01,3.563,4.01c1.97,0,3.563-1.795,3.563-4.01
		c0-0.168-0.013-0.334-0.03-0.5c0.014-0.055,0.03-0.109,0.03-0.17V514.15z"/>
	<path fill="#FFDF7B" d="M314.212,345.445c0-1.004-0.107-1.98-0.294-2.924l0,0l0,0c-1.187-5.973-5.921-10.443-11.589-10.443
		c-0.921,0-1.814,0.131-2.675,0.354c-0.017,0.002-0.03,0.002-0.049,0.004c-12.521,1.764-32.298,0.045-35.728-0.275
		c-0.064-0.008-0.135-0.012-0.201-0.02c-0.204-0.018-0.318-0.029-0.318-0.029v0.012c-0.253-0.018-0.504-0.043-0.76-0.043
		c-6.564,0-11.885,5.984-11.885,13.367v171.68h63.498l-0.283-168.799C314.11,347.398,314.212,346.438,314.212,345.445z"/>
	<rect x="250.714" y="388.121" fill="#70CAF3" width="63.326" height="36.168"/>
	<rect x="250.8" y="453.477" fill="#70CAF3" width="63.326" height="36.168"/>
	<circle fill="#D61516" cx="325.297" cy="200.71" r="39.759"/>
	<circle fill="#FFFFFF" cx="325.296" cy="200.71" r="30.395"/>
	<circle fill="#010102" cx="317.354" cy="206.472" r="15.938"/>
	<circle fill="#FFFFFF" cx="315.05" cy="210.269" r="6.719"/>
</g>
</svg>
