<?xml version="1.0" encoding="utf-8"?>
<!-- Generator: Adobe Illustrator 16.0.0, SVG Export Plug-In . SVG Version: 6.00 Build 0)  -->
<!DOCTYPE svg PUBLIC "-//W3C//DTD SVG 1.1//EN" "http://www.w3.org/Graphics/SVG/1.1/DTD/svg11.dtd">
<svg version="1.1" id="Layer_1" xmlns="http://www.w3.org/2000/svg" xmlns:xlink="http://www.w3.org/1999/xlink" x="0px" y="0px"
	 width="70px" height="70px" viewBox="0 0 644.59 658.395" enable-background="new 0 0 644.59 658.395"
	 xml:space="preserve">
<path fill="#D7D3CF" d="M99.218,157.372c0,0-3.065-22.335,17.519-26.934l89.338,56.984l-20.146,24.524"/>
<path fill="#F8AB12" d="M132.352,178.481c0,0-3.065-22.334,17.519-26.932l89.338,56.984l-20.146,24.522"/>
<path fill="#D7D3CF" d="M101.41,127.438c2.275,3.21-11.678-26.122,10.51-35.465c22.188-9.341,59.286-31.591,60.881-47.326
	c1.596-15.735-8.913-43.179-45.701-41.428c-36.785,1.752,28.614,10.449,16.936,41.428S64.041,74.732,101.41,127.438z"/>
<path fill="#E52625" d="M480.994,642.422c-16.833-5.833-23-2.824-23-2.824l-0.354-111.525h-7.97l0.407,111.767
	c0,0-57.583,0.584-46.667,11.417c0,0,5.086,1.75,11.418,0c0,0-9.168,7,4.416,4.583c3.811-0.678,6.061-1.081,7.324-1.309
	c-0.148,0.412-2.107,6.296,8.51,3.642c11-2.75,20.75-10,20.75-10S497.826,648.255,480.994,642.422z"/>
<path fill="#E52625" d="M439.521,625.089c-16.832-5.833-23-2.824-23-2.824l0.154-96.192h-8.357l0.289,96.434
	c0,0-57.585,0.584-46.667,11.417c0,0,5.084,1.75,11.417,0c0,0-9.169,7,4.415,4.583c3.812-0.678,6.062-1.08,7.326-1.309
	c-0.149,0.412-2.109,6.296,8.509,3.642c11-2.75,20.75-10,20.75-10S456.356,630.922,439.521,625.089z"/>
<path fill="#FFDF7B" d="M380.975,517.176c0,0,23.333,48.258,52,8.925c28.666-39.333-18.313-27.333-18.313-27.333"/>
<path fill="#58AADF" d="M418.975,519.176c0,0,24.001,39.593,41.334,26.259c17.332-13.334,24.666-52,24.666-52"/>
<path fill="#58AADF" d="M422.088,274.746c0,0,6.175-53.465,14.48-90.222c0.935-2.876,1.659-5.844,2.143-8.895
	c0.003-0.012,0.007-0.024,0.01-0.035l-0.003-0.001c0.475-3.004,0.727-6.083,0.727-9.22c0-22.035-12.167-41.232-30.174-51.351
	l0.015-0.006c0,0-0.287-0.165-0.816-0.451c-0.03-0.018-0.063-0.035-0.095-0.052c-7.741-4.193-63.181-32.375-81.534,9.908
	c0,0-3.994,16.024-5.885,25.36l-0.072-0.016c0,0-38.795,222.304-3.795,351.072c0,0,103,55.763,262-22.098
	C579.088,478.742,528.475,365.453,422.088,274.746z"/>
<path fill="#FFDF7B" d="M380.807,518.38c-49.766-11.346-36.149-186.183-51.271-203.81c-11.595-13.516-23.121,15.188-26.863,28.168
	c-1.37,22.374,0.046,43.799,0.563,67.435c0.516,18.705,1.615,34.209,2.938,46.844c1.817,16.438,4.525,32.113,8.371,46.341
	c25.171,12.238,60.852,14.708,65.709,14.993C380.438,518.359,380.619,518.371,380.807,518.38z"/>
<path fill="#FACD4E" d="M327.061,186.573c0,0-158.967-85.584-260.936,86.704c0,0,153.654-87.469,237.918,27.173
	C304.043,300.45,345.777,260.079,327.061,186.573z"/>
<path fill="#FFDF7B" d="M333.273,222.351c-0.123-10.801-1.518-22.623-4.787-35.488c0,0-158.973-85.586-260.939,86.705
	c0,0,1.83-1.041,5.195-2.748C169.627,163.392,302.432,209.543,333.273,222.351z"/>
<path fill="#709B68" d="M323.963,153.102c7.455-1.839,22.073-3.157,27.236,12.716l5.048-11.667c0,0-11.87-18.38-33.916-10.47
	c-0.487,2.175-0.939,4.265-1.311,6.096l-0.072-0.016c0,0-0.273,1.566-0.752,4.5c1.412-0.54,2.759-0.91,3.745-1.132
	C323.949,153.12,323.955,153.11,323.963,153.102z"/>
<path fill="#FBBC3E" d="M320.984,140.029c-2.297,0.415-4.045,2.439-4.045,4.889c0,2.416,1.699,4.427,3.951,4.877
	c1.669-0.705,3.313-1.152,4.467-1.412c0.008-0.009,0.014-0.019,0.021-0.027c7.455-1.839,22.073-3.157,27.236,12.716l5.048-11.667
	C357.663,149.404,344.805,129.466,320.984,140.029z"/>
<path fill="#8BC483" d="M419.311,273.316c0,0,2.051,0.804,3.373,1.938s-2.229,1.28-2.229,1.28"/>
<circle fill="#709B68" cx="383.011" cy="181.464" r="39.759"/>
<circle fill="#FBBC3E" cx="383.011" cy="174.914" r="39.759"/>
<circle fill="#010102" cx="383.01" cy="174.914" r="30.395"/>
<path fill="#3D8ACA" d="M365.132,350.706c0,0,37.045,125.036,127.767,136.033c90.725,10.997-60.57-192.445-60.57-192.445"/>
<path fill="#FFFFFF" d="M291.162,309.521l2.708,108.849l147.298-119.681c0,0,10.29,5.687,11.915-2.978
	c0,0,25.183,6.769,35.198-4.603c0,0-14.891-16.247-34.115-6.771c0,0,1.082-2.438-1.083-4.603c0,0,24.368-12.997,22.743-37.907
	c0,0-26.262,0.885-31.137,33.34c0,0-7.852,2.401-6.77,7.275S291.162,309.521,291.162,309.521z"/>
<path fill="#3257A3" d="M454.166,284.339c0,0,1.082-2.438-1.083-4.603c0,0,24.368-12.997,22.743-37.907
	c0,0-26.262,0.885-31.137,33.34c0,0-7.852,2.401-6.77,7.275c0.367,1.648-16.327,5.282-38.566,9.369
	c2.161,2.339,3.493,5.457,3.493,8.893c0,7.249-5.875,13.124-13.124,13.124c-7.246,0-13.123-5.875-13.123-13.124
	c0-1.786,0.36-3.488,1.008-5.041c-11.669,2.004-23.784,4.003-35.132,5.834c2.409,2.517,3.896,5.92,3.896,9.678
	c0,7.736-6.27,14.006-14.005,14.006s-14.006-6.27-14.006-14.006c0-2.175,0.511-4.227,1.396-6.063
	c-16.846,2.644-28.594,4.408-28.594,4.408l0.688,27.638c1.455-0.351,2.965-0.558,4.527-0.558c10.633,0,19.25,8.619,19.25,19.251
	c0,10.633-8.617,19.252-19.25,19.252c-1.229,0-2.427-0.127-3.592-0.347l1.085,43.612l51.906-42.175
	c-7.218-3.913-12.118-11.556-12.118-20.343c0-12.772,10.354-23.126,23.127-23.126c10.477,0,19.313,6.97,22.156,16.522l62.227-50.56
	c0,0,10.29,5.687,11.915-2.978c0,0,25.183,6.769,35.198-4.603C488.281,291.109,473.391,274.862,454.166,284.339z"/>
</svg>
