<?xml version="1.0" encoding="utf-8"?>
<!-- Generator: Adobe Illustrator 16.0.0, SVG Export Plug-In . SVG Version: 6.00 Build 0)  -->
<!DOCTYPE svg PUBLIC "-//W3C//DTD SVG 1.1//EN" "http://www.w3.org/Graphics/SVG/1.1/DTD/svg11.dtd">
<svg version="1.1" id="Layer_1" xmlns="http://www.w3.org/2000/svg" xmlns:xlink="http://www.w3.org/1999/xlink" x="0px" y="0px"
	 width="70px" height="70px" viewBox="0 0 644.59 658.395" enable-background="new 0 0 644.59 658.395"
	 xml:space="preserve">
<path fill="#EB5C5D" d="M349.161,603.142l1.834,26.333c0,0-31.166,8.756-19.834,19.334c0,0,2.001,3.166,17.334-5.667
	c0,0-3.833,13.999,2.5,12.333c0,0,7.666-0.5,8.666-9.333c0,0,11.668,19.166,18.334,11.333c0,0,12-4.833-13.5-27.833l-1.834-26.5"/>
<path fill="#EB5C5D" d="M289.341,603.142l1.834,26.333c0,0-31.167,8.756-19.834,19.334c0,0,2.001,3.166,17.334-5.667
	c0,0-3.833,13.999,2.5,12.333c0,0,7.666-0.5,8.666-9.333c0,0,11.668,19.166,18.334,11.333c0,0,12-4.833-13.5-27.833l-1.834-26.5"/>
<path fill="#EB6121" d="M223.765,443.291c0,0-14.158,36.867-28.316,51.025s-1.089,38.119,28.316,53.366
	c29.406,15.248,32.674-5.445,32.674-5.445"/>
<path fill="#F8AB12" d="M379.316,465.747V204.952c0.217-2.372,0.342-4.77,0.342-7.197c0-43.238-35.05-78.29-78.29-78.29
	c-43.238,0-78.289,35.052-78.289,78.29c0,0.298,0.02,0.591,0.022,0.889c-0.005,0.038-0.022,0.071-0.022,0.111v335.311
	c0,0.292,0.131,0.55,0.331,0.732c2.28,25.561,16.849,47.57,37.747,60.115l-0.009,0.019c0,0,118.606,77.112,225.269-88.888
	C486.417,506.044,430.664,475.817,379.316,465.747z"/>
<path fill="#FFDF7B" d="M222.697,236.862c0,0,42.277,2.047,49.098-4.772c6.818-6.817-13.05,75.009-84.604,37.505L222.697,236.862z"
	/>
<path fill="#FFDF7B" d="M287.794,525.309V329.813h-0.1c-1.361-20.135-18.113-36.048-38.592-36.048
	c-10.021,0-19.151,3.809-26.023,10.059v230.246c0,0.292,0.131,0.55,0.331,0.732c2.28,25.561,16.849,47.57,37.747,60.115
	l-0.009,0.019c0,0,45.503,29.579,105.487,12.653C295.491,603.417,288.354,542.981,287.794,525.309z"/>
<path fill="#FFDF7B" d="M336.061,454.826c0,0,21.183,79.851,87.183,87.851s-44.064-140-44.064-140"/>
<path fill="#3257A3" d="M391.671,328.627c0-11.798-6.278-21.362-14.022-21.362c-2.11,0-4.104,0.729-5.899,2.002l-0.007-0.016
	c-21.39,15.527-73.19,32.193-74.706,32.678c-39.903,9.777-62.905,2.459-69.203-0.113c-0.566-0.311-1.145-0.58-1.741-0.779
	c-0.028-0.015-0.045-0.023-0.045-0.023l-0.001,0.006c-0.957-0.316-1.948-0.49-2.967-0.49c-7.746,0-14.023,9.566-14.023,21.365
	c0,7.736,2.709,14.491,6.752,18.241l-0.025,0.006c0,0,0.061,0.048,0.172,0.131c1.48,1.334,3.133,2.262,4.898,2.689
	c13.206,5.824,54.015,15.424,142.731-25.392l0.042-0.011l0.045-0.031c5.314-2.445,10.799-5.07,16.459-7.89
	c1.295-0.354,2.523-0.978,3.669-1.832c0.03-0.014,0.058-0.029,0.087-0.045l-0.038,0.008
	C388.479,344.28,391.671,337.031,391.671,328.627z"/>
<path fill="#86D0EC" d="M298.005,341.615c0,0-0.259,26.212,0.029,40.245l24.577-7.657c0,0,0.695-24.392-7.016-38.694
	L298.005,341.615z"/>
<path fill="#86D0EC" d="M344.773,365.757l22.543-9.922c0,0,0.056-24.914-7.655-39.217l-21.258,9.938
	C341.558,335.886,343.866,349.714,344.773,365.757z"/>
<path fill="#86D0EC" d="M253.45,389.16l-20.494-2.544c0,0-3.287-25.848,2.006-42.506l21.38,2.487
	C254.713,356.793,251.861,373.239,253.45,389.16z"/>
<path fill="#F8AB12" d="M259.33,139.642c0,0-20.741-5.854-15.186-20.177c0,0,9.415,13.158,35.985,2.917"/>
<path fill="#FFE401" d="M228.685,347.824"/>
<path fill="#3257A3" d="M254.386,513.498c0-0.372-0.268-0.671-0.6-0.671h-5.933c-0.33,0-0.597,0.299-0.597,0.671v17.376
	c0,0.062,0.019,0.115,0.029,0.172c-0.018,0.163-0.029,0.33-0.029,0.499c0,2.215,1.594,4.01,3.564,4.01
	c1.969,0,3.564-1.795,3.564-4.01c0-0.169-0.014-0.335-0.031-0.499c0.012-0.057,0.031-0.11,0.031-0.172V513.498z"/>
<path fill="#3257A3" d="M282.567,513.498c0-0.372-0.266-0.671-0.594-0.671h-5.936c-0.331,0-0.598,0.299-0.598,0.671v17.376
	c0,0.062,0.019,0.115,0.031,0.172c-0.018,0.163-0.031,0.33-0.031,0.499c0,2.215,1.598,4.01,3.564,4.01
	c1.969,0,3.563-1.795,3.563-4.01c0-0.169-0.012-0.335-0.029-0.499c0.014-0.057,0.029-0.11,0.029-0.172V513.498z"/>
<path fill="#3257A3" d="M268.765,513.498c0-0.372-0.266-0.671-0.597-0.671h-5.933c-0.33,0-0.596,0.299-0.596,0.671v17.376
	c0,0.062,0.016,0.115,0.028,0.172c-0.017,0.163-0.028,0.33-0.028,0.499c0,2.215,1.595,4.01,3.561,4.01
	c1.969,0,3.564-1.795,3.564-4.01c0-0.169-0.012-0.335-0.029-0.499c0.015-0.057,0.029-0.11,0.029-0.172V513.498z"/>
<path fill="#3257A3" d="M310.753,514.824c0-0.372-0.266-0.671-0.598-0.671h-5.933c-0.329,0-0.597,0.299-0.597,0.671V532.2
	c0,0.062,0.017,0.115,0.029,0.171c-0.018,0.164-0.029,0.331-0.029,0.5c0,2.215,1.596,4.01,3.563,4.01c1.97,0,3.564-1.795,3.564-4.01
	c0-0.169-0.012-0.335-0.03-0.5c0.013-0.056,0.03-0.109,0.03-0.171V514.824z"/>
<path fill="#3257A3" d="M296.373,514.824c0-0.372-0.266-0.671-0.599-0.671h-5.932c-0.331,0-0.597,0.299-0.597,0.671V532.2
	c0,0.062,0.017,0.115,0.03,0.171c-0.018,0.164-0.03,0.331-0.03,0.5c0,2.215,1.597,4.01,3.563,4.01c1.97,0,3.563-1.795,3.563-4.01
	c0-0.169-0.013-0.335-0.03-0.5c0.014-0.056,0.03-0.109,0.03-0.171V514.824z"/>
<path fill="#3257A3" d="M310.753,346.118c0-1.004-0.107-1.98-0.294-2.924l0,0l0,0c-1.187-5.973-5.921-10.442-11.589-10.442
	c-0.921,0-1.814,0.13-2.675,0.353c-0.017,0.002-0.03,0.002-0.049,0.004c-12.521,1.764-32.298,0.045-35.728-0.274
	c-0.064-0.008-0.135-0.013-0.201-0.021c-0.204-0.018-0.318-0.029-0.318-0.029v0.012c-0.253-0.017-0.504-0.043-0.76-0.043
	c-6.564,0-11.885,5.984-11.885,13.367V517.8h63.498l-0.283-168.799C310.651,348.072,310.753,347.11,310.753,346.118z"/>
<rect x="247.255" y="388.795" fill="#86D0EC" width="63.326" height="36.168"/>
<rect x="247.341" y="454.149" fill="#86D0EC" width="63.326" height="36.168"/>
<path fill="#EB6121" d="M227.629,195.175c6.702-3.749,20.447-8.895,29.633,5.043l1.775-12.588c0,0-16.317-14.577-35.478-1.106
	c0.105,2.226,0.224,4.36,0.352,6.225l-0.074,0.004c0,0,0.151,1.583,0.468,4.539c1.218-0.896,2.419-1.609,3.312-2.084
	C227.621,195.196,227.624,195.186,227.629,195.175z"/>
<path fill="#FFFFFF" d="M221.293,183.359c-2.104,1.009-3.254,3.424-2.604,5.785c0.64,2.33,2.812,3.818,5.102,3.656
	c1.423-1.123,2.889-1.989,3.934-2.546c0.005-0.011,0.008-0.021,0.014-0.032c6.701-3.748,20.447-8.894,29.632,5.043l1.775-12.588
	C259.145,182.678,241.462,166.86,221.293,183.359z"/>
<circle fill="#EB6121" cx="292.082" cy="206.874" r="39.759"/>
<circle fill="#FFFFFF" cx="290.346" cy="200.558" r="39.759"/>
<circle fill="#010102" cx="290.346" cy="200.558" r="30.395"/>
</svg>
