<?xml version="1.0" encoding="utf-8"?>
<!-- Generator: Adobe Illustrator 16.0.0, SVG Export Plug-In . SVG Version: 6.00 Build 0)  -->
<!DOCTYPE svg PUBLIC "-//W3C//DTD SVG 1.1//EN" "http://www.w3.org/Graphics/SVG/1.1/DTD/svg11.dtd">
<svg version="1.1" id="Layer_1" xmlns="http://www.w3.org/2000/svg" xmlns:xlink="http://www.w3.org/1999/xlink" x="0px" y="0px"
	 width="70px" height="70px" viewBox="0 0 644.59 658.395" enable-background="new 0 0 644.59 658.395"
	 xml:space="preserve">
<path fill="#3257A3" d="M366.267,593.134l2.125,30.544c0,0-36.152,10.156-23.006,22.426c0,0,2.322,3.673,20.107-6.572
	c0,0-4.447,16.237,2.898,14.305c0,0,8.893-0.579,10.053-10.825c0,0,13.535,22.23,21.266,13.145c0,0,13.92-5.604-15.66-32.283
	l-2.125-30.738"/>
<path fill="#3257A3" d="M296.878,593.134l2.127,30.544c0,0-36.151,10.156-23.005,22.426c0,0,2.32,3.673,20.104-6.572
	c0,0-4.446,16.237,2.9,14.305c0,0,8.893-0.579,10.053-10.825c0,0,13.533,22.23,21.266,13.145c0,0,13.92-5.604-15.658-32.283
	l-2.129-30.738"/>
<path fill="#58AADF" d="M525.856,499.494c0,0-21.428-52.472-67.453-95.725c-11.268-11.63-25.085-22.234-41.008-30.926
	c-0.783-0.428-1.574-0.822-2.363-1.238c-0.201-0.113-0.396-0.23-0.598-0.342l-0.025,0.016
	c-14.363-7.498-29.047-12.746-43.354-15.797c-0.836-0.26-1.848-0.477-3.066-0.643c-0.066-0.01-0.127-0.021-0.193-0.029
	c-2.09-0.398-4.17-0.756-6.238-1.062c-8.463-1.704-14.658-4.104-18.613-5.993c-0.709-0.365-1.422-0.721-2.137-1.073
	c-38.342-22.06-44.588-55.72-45.197-72.009c0.172-2.086,0.283-4.191,0.283-6.324c0-0.873-0.033-1.736-0.066-2.602
	c0.039-0.362,0.066-0.56,0.066-0.56h-0.08c-1.658-39.604-34.276-71.209-74.29-71.209c-41.074,0-74.371,33.297-74.371,74.37
	c0,12.511,3.104,24.29,8.559,34.637l-0.01,0.004c0,0,0.01,0.013,0.031,0.035c2.217,4.198,4.824,8.156,7.773,11.83
	c9.287,17.129,21.92,52.522,8.309,104.271c-3.596,11.462-5.537,23.655-5.537,36.303c0,27.157,8.938,52.226,24.029,72.427l0,0
	c0,0,76.5,130.407,289.153,48.704l49.49-39.028L525.856,499.494z"/>
<path fill="#86D0EC" d="M530.218,501.107c0,0-85.85-165.301-198.15-160.947c0,0-79.132-10.847-117.089,79.387
	c-0.027,0.068-0.061,0.133-0.09,0.201l0,0c0,0-6.691,15.845-3.232,42.562c1.852,10.069,5.354,21.454,11.041,34.331
	c0,0,29.551,101.468,318.372,102.265c0,0,97.435,10.075,98.595-15.443C639.665,583.462,653.916,563.743,530.218,501.107z"/>
<path fill="#FFFFFF" d="M458.062,554.929c0,0,112.705,32.493,68.908-64.757c0,0-22.092-38.159-25.994-37.938"/>
<path fill="#86D0EC" d="M381.306,558.727c0,0,69.125,31.554,84.152-12.773c0,0,33.813-4.509,32.309-30.806
	c0,0,21.037-7.999,19.535-37.058c0,0-5.26-17.416-30.055-40.896"/>
<path fill="#3257A3" d="M349.419,577.692c0,0,24.732,0.014,29.34-19.311c0,0,44.795,2.33,46.717-27.777
	c0,0,40.33-2.33,44.865-40.075c0,0,27.475,4.271,23.961-45.584c0,0-13.582-27.234-31.262-39.258
	c-3.982-2.709-4.924,0.043-9.678-2.129c-25.858-11.822-13.521,29.054-13.521,29.054l-64.905,68.208l-63.24,31.239l-34.181,17.997
	c-1.789-1.366,8.941,4.84,25.843,12.142C320.257,569.499,343.323,577.895,349.419,577.692z"/>
<path fill="#58AADF" d="M468.042,411.512c-5.414-6.959-26.606-25.16-26.606-25.16c-4.559,32.859-12.299,32.729-15.032,31.536
	c0,0-1.4,4.332-3.018,9.034c-0.992,3.52-2.211,6.726-3.576,9.669c-0.238,0.558-0.455,1.022-0.637,1.362
	c-0.006,0.012-0.014,0.018-0.02,0.029c-10.863,21.941-30.355,27.756-30.355,27.756c-14.168,29.896-55.201,39.428-55.201,39.428
	c-22.393,27.565-82.396,27.948-82.396,27.948c2.932,3.197,10.094,7.814,17.389,12.084l0.559,0.386l1.646,0.894
	c9.238,5.306,30.649,14.91,30.649,14.91c51.037-0.773,52.924-33.108,52.924-33.108c51.029,3.046,57.225-40.985,57.225-40.985
	c47.172,1.546,40.211-45.624,40.211-45.624C468.042,448.63,473.456,418.472,468.042,411.512z"/>
<path fill="#8CC47E" d="M306.37,489.554"/>
<circle fill="#3257A3" cx="222.119" cy="290.339" r="42.355"/>
<path fill="#FFFFFF" d="M255.219,290.339c0,18.279-14.818,33.1-33.102,33.1c-18.279,0-33.098-14.82-33.098-33.1
	c0-18.281,14.818-33.101,33.098-33.101C240.4,257.238,255.219,272.058,255.219,290.339z"/>
<circle fill="#010102" cx="212.987" cy="300.765" r="17.356"/>
<circle fill="#FFFFFF" cx="207.798" cy="297.72" r="6.308"/>
<path fill="#3257A3" d="M391.771,304.036c0,0,2.463,20.828-20.963,12.087s-5.98-36.765-33.973-32.397s35.289,3.08,35.289,3.08"/>
<path fill="#3257A3" d="M162.266,238.979c0,0-38.352,3.408-82.559-23.973c-44.211-27.384-26.5-55.409-12.781-55.375
	c13.719,0.037,65.881,27.088,65.881,27.088"/>
<path fill="#F8AB12" d="M389.726,313.767c0,0,15.025-16.14-32.115-44.518c-47.146-28.379-68.269-37.473-68.269-37.473
	l-92.873-31.912l-21.109-14.745l-4.135-2.589c0,0-74.32-27.157-106.135-22.682c0,0,27.906,2.727,57.068,36.283
	c29.164,33.557,63.799,87.238,134.781,102.458c70.981,15.218,81.696-22.798,118.585-1.55
	C375.524,297.04,388.163,305.824,389.726,313.767z"/>
<path fill="#F8AB12" d="M266.555,137.341l0.107-0.136c0.355,0.177,0.686,0.358,1.039,0.537c0.369,0.13,0.73,0.247,1.1,0.384
	l-0.027,0.17c66.974,35.066,27.89,111.172,27.89,111.172c-21.712,2.48-49.894-7.553-69.95-16.541
	c-20.309-8.394-46.969-21.975-60.088-39.454C166.625,193.473,195.061,112.781,266.555,137.341z"/>
<path fill="#3257A3" d="M236.689,209.761c19.506,8.744,46.68,18.438,68.134,16.682c-3.352,13.664-8.16,23.025-8.16,23.025
	c-21.712,2.48-49.894-7.553-69.95-16.541c-20.309-8.394-46.969-21.975-60.088-39.454c0,0,3.504-9.923,11.123-21.746
	C191.215,188.517,216.934,201.597,236.689,209.761z"/>
<path fill="#58AADF" d="M148.502,254.201c0,0,2.254-12.617,3.893-13.329c0,0,8.031,6.938,10.258,8.741
	c2.225,1.804-1.219,10.296-1.219,10.296"/>
<path fill="#8BC483" d="M32.301,252.323l14.863-11.01c0,0,101.053,62.616,119.461,170.187c0,0-43.193-114.534-133.086-153.442"/>
<path fill="#FFDF7B" d="M170.521,308.439l-0.545-0.317l-0.002-0.002l-7.734-9.1l-12.211-12.084c0,0-56.6,5.833-46.125,50.741
	l57.979-9.161l0,0h0.004l0.818-0.131c4.328-1.444,4.328-1.444,5.936-5.365c0.088-0.213,0.17-0.389,0.252-0.551l3.631-7.881
	C174.23,311.288,171.699,309.192,170.521,308.439z"/>
<path fill="#3257A3" d="M0,221.63c0,0,38.77-11.424,58.27,16.646S26.096,290.693,0,221.63z"/>
<path fill="#58AADF" d="M13.01,199.552c0,0,44.961,4.807,53.084,42.168C74.215,279.082,10.387,282.103,13.01,199.552z"/>
<path fill="#719B6A" d="M71.248,259.138c-2.695-2.24-5.236-4.279-7.594-6.119c-1.023,7.762-6.531,12.559-13.391,13.23
	c2.938,1.687,5.814,3.453,8.637,5.287C64.572,269.576,69.098,265.3,71.248,259.138z"/>
<path fill="#8BC483" d="M91.033,292.588c0,0-31.572-1.683-19.785,33.819c0,0-0.066-37.783,23.359-25.641"/>
</svg>
