<?xml version="1.0" encoding="utf-8"?>
<!-- Generator: Adobe Illustrator 16.0.0, SVG Export Plug-In . SVG Version: 6.00 Build 0)  -->
<!DOCTYPE svg PUBLIC "-//W3C//DTD SVG 1.1//EN" "http://www.w3.org/Graphics/SVG/1.1/DTD/svg11.dtd">
<svg version="1.1" id="Layer_1" xmlns="http://www.w3.org/2000/svg" xmlns:xlink="http://www.w3.org/1999/xlink" x="0px" y="0px"
	 width="70px" height="70px" viewBox="0 0 644.59 658.395" enable-background="new 0 0 644.59 658.395"
	 xml:space="preserve">
<path fill="#A14996" d="M353.147,604.848v19.5c0,0-57.584,0.584-46.666,11.417c0,0,5.084,1.75,11.416,0c0,0-9.168,7,4.416,4.583
	s7.334-1.333,7.334-1.333s-2.5,6.416,8.5,3.666s20.75-10,20.75-10s42,0.083,25.166-5.75c-16.832-5.833-23-2.824-23-2.824
	l0.75-16.509"/>
<path fill="#A14996" d="M394.47,609.287l0.148,30.394c0,0-57.584,0.584-46.666,11.417c0,0,5.084,1.75,11.416,0
	c0,0-9.168,7,4.416,4.583s7.334-1.333,7.334-1.333s-2.5,6.416,8.5,3.666s20.75-10,20.75-10s42,0.083,25.166-5.75
	c-16.832-5.833-23-2.824-23-2.824l-0.064-30.152"/>
<path fill="#709B68" d="M326.776,584c0,0,23.332,48.258,52,8.925c28.666-39.333-18.313-27.333-18.313-27.333"/>
<path fill="#8BC483" d="M364.776,584c0,0,24,39.593,41.334,26.259c17.332-13.334,24.666-52,24.666-52"/>
<path fill="#8BC483" d="M338.628,343.663c0,0,6.174-53.763,14.479-90.725c0.936-2.892,1.66-5.876,2.145-8.943
	c0.002-0.012,0.006-0.024,0.008-0.036l-0.002-0.001c0.475-3.021,0.727-6.116,0.727-9.271c0-22.158-12.166-41.463-30.174-51.637
	l0.014-0.006c0,0-0.287-0.166-0.814-0.454c-0.031-0.018-0.064-0.035-0.096-0.052c-7.742-4.217-63.18-32.556-81.535,9.963
	c0,0-3.994,16.114-5.885,25.502l-0.072-0.016c0,0-38.793,223.543-3.793,353.029c0,0,103,56.074,262-22.221
	C495.628,548.797,445.013,434.877,338.628,343.663z"/>
<g>
	<path fill="#EF9B3A" d="M237.194,240.126c0,0-63.373-34.118-104.023,34.565c0,0,61.254-34.87,94.848,10.832
		C228.019,285.523,244.655,269.43,237.194,240.126z"/>
	<path fill="#FBBC3E" d="M239.671,254.389c-0.049-4.306-0.605-9.019-1.908-14.147c0,0-63.375-34.119-104.024,34.565
		c0,0,0.729-0.415,2.071-1.096C174.433,230.885,227.376,249.283,239.671,254.389z"/>
</g>
<path fill="#709B68" d="M319.394,591.033c-63.438-14.463-46.08-237.329-65.357-259.798c-14.779-17.229-26.729,16.226-31.5,32.771
	c-1.746,28.521-2.684,58.965-2.025,89.094c0.656,23.844,2.059,43.606,3.744,59.712c2.316,20.954,5.77,40.936,10.672,59.071
	c32.084,15.601,77.568,18.748,83.76,19.112C318.923,591.007,319.155,591.022,319.394,591.033z"/>
<path fill="#709B68" d="M436.667,450.867c0,0-103.592-137.099-130.381-124.115c-18.791,5.114-18.506,44.062-16.381,68.555
	l-0.309,1.686c0,0,4.318,57.575,37.18,92.852c32.859,35.276,30.537-32.724,30.537-32.724s8.322,108.277,52.322,101.139
	S436.667,450.867,436.667,450.867z"/>
<g>
	<path fill="#709B68" d="M343.323,315.458c0-0.014,0.006-0.026,0.006-0.04c0-0.53-0.203-1.004-0.516-1.381
		c-0.012-0.016-0.018-0.033-0.027-0.049c-0.02-0.027-0.049-0.054-0.072-0.081c-0.008-0.008-0.014-0.016-0.02-0.022
		c-0.105-0.12-0.244-0.236-0.424-0.35v-0.001c-0.002-0.001-0.004-0.002-0.008-0.003c-0.373-0.233-0.9-0.451-1.537-0.655
		c-73.805-30.895-126.076,116.777-126.076,116.777l0.389,11.104c22.238-51.064,43.037-82.16,61.092-100.813l2.482-2.507
		c0.057-0.057,0.113-0.11,0.172-0.167c4.658-4.441,14.869-13.148,27.752-18.028c5.613-2.035,21.047-6.326,35.666,1.364
		C342.202,320.607,343.657,317.79,343.323,315.458z"/>
	<path fill="#FBBC3E" d="M343.323,310.208c0-0.014,0.006-0.026,0.006-0.04c0-0.53-0.203-1.004-0.516-1.381
		c-0.012-0.016-0.018-0.033-0.027-0.049c-0.02-0.027-0.049-0.054-0.072-0.081c-0.008-0.008-0.014-0.016-0.02-0.022
		c-0.105-0.12-0.244-0.236-0.424-0.35v-0.001c-0.002-0.001-0.004-0.002-0.008-0.003c-0.373-0.233-0.9-0.451-1.537-0.655
		c-73.805-30.895-126.076,116.777-126.076,116.777l0.389,11.104c22.238-51.064,43.037-82.16,61.092-100.813l2.482-2.507
		c0.057-0.057,0.113-0.11,0.172-0.167c4.658-4.441,14.869-13.148,27.752-18.028c5.613-2.035,21.047-6.326,35.666,1.364
		C342.202,315.357,343.657,312.54,343.323,310.208z"/>
	<path fill="#EF9B3A" d="M274.878,521.89c0,50.923-20.023,92.204-44.729,92.204c-24.703,0-44.729-41.281-44.729-92.204
		c0-50.92,20.025-92.201,44.729-92.201C254.854,429.688,274.878,470.97,274.878,521.89z"/>
	<polyline fill="#EF9B3A" points="214.649,426.188 237.714,431.008 256.681,459.604 260.3,497.104 263.681,535.104 260.3,552.104 
		247.681,598.045 225.794,613.661 208.767,609.801 206.899,598.045 	"/>
	<path fill="#FBBC3E" d="M259.378,518.39c0,50.923-20.023,92.204-44.729,92.204c-24.703,0-44.729-41.281-44.729-92.204
		c0-50.92,20.025-92.201,44.729-92.201C239.354,426.188,259.378,467.47,259.378,518.39z"/>
	<ellipse fill="#EF9B3A" cx="208.399" cy="518.391" rx="31.479" ry="64.89"/>
	<path fill="#FFDF7B" d="M214.649,599.795c-23.855,0-43.344-38.49-44.658-86.983c-0.047,1.729-0.072,3.469-0.072,5.221
		c0,50.923,20.025,92.204,44.73,92.204c24.703,0,44.729-41.281,44.729-92.204c0-1.752-0.027-3.492-0.074-5.221
		C257.991,561.305,238.503,599.795,214.649,599.795z"/>
	<path opacity="0.3" fill="#FFDF7B" d="M178.212,529.856c0.732,9.538,2.471,18.387,4.99,26.063l56.676-51.675
		c-1.137-9.647-3.313-18.456-6.279-25.877L178.212,529.856z"/>
	<path fill="#EB6121" d="M216.067,461.99c3.826,0,7.492,1.41,10.883,3.986c-5.203-7.838-11.611-12.476-18.551-12.476
		c-17.385,0-31.479,29.053-31.479,64.89c0,27.95,8.574,51.771,20.594,60.902c-7.834-11.803-12.928-30.878-12.928-52.413
		C184.587,491.043,198.681,461.99,216.067,461.99z"/>
	<path fill="#FFDF7B" d="M214.649,434.152c24.057,0,43.674,39.147,44.686,88.22c0.027-1.321,0.043-2.647,0.043-3.982
		c0-50.92-20.023-92.201-44.729-92.201c-24.703,0-44.729,41.281-44.729,92.201c0,1.335,0.018,2.661,0.043,3.982
		C170.978,473.3,190.593,434.152,214.649,434.152z"/>
	<path opacity="0.3" fill="#FFDF7B" d="M238.802,497.411l14.84-15.842c-1.268-9.431-4.262-17.09-6.822-25.046l-15.291,17.487
		C233.927,478.995,237.142,487.11,238.802,497.411z"/>
	<path opacity="0.3" fill="#FFDF7B" d="M247.94,456.811l15.422,3.323c0,0,6.135,14.705,6.852,20.713l-14.975-1.244
		C255.239,479.603,249.169,459.52,247.94,456.811z"/>
</g>
<path fill="#709B68" d="M233.118,225.834c7.455-1.839,22.074-3.157,27.236,12.716l5.049-11.667c0,0-11.871-18.38-33.916-10.47
	c-0.488,2.175-0.939,4.265-1.311,6.096l-0.072-0.016c0,0-0.273,1.566-0.752,4.5c1.412-0.54,2.758-0.91,3.744-1.132
	C233.104,225.853,233.11,225.843,233.118,225.834z"/>
<path fill="#FFFFFF" d="M230.14,212.762c-2.297,0.415-4.045,2.439-4.045,4.889c0,2.416,1.699,4.427,3.951,4.877
	c1.67-0.705,3.313-1.152,4.467-1.412c0.008-0.009,0.014-0.019,0.021-0.027c7.455-1.839,22.074-3.157,27.236,12.716l5.049-11.667
	C266.819,222.137,253.96,202.198,230.14,212.762z"/>
<circle fill="#709B68" cx="292.166" cy="254.196" r="39.759"/>
<circle fill="#FFFFFF" cx="292.166" cy="247.646" r="39.759"/>
<circle fill="#010102" cx="292.166" cy="247.646" r="30.396"/>
<path fill="#8BC483" d="M435.472,450.867c0,0-103.592-137.099-130.379-124.115c-5.014,1.364-8.66,5.153-11.285,10.417
	c0.146,5.506,0.488,10.822,0.902,15.589l-0.309,1.686c0,0,4.318,57.575,37.18,92.852c32.859,35.276,30.537-32.724,30.537-32.724
	s8.322,108.277,52.322,101.139c12.25-1.987,19.77-11.195,24.25-23.442C438.722,470.071,435.472,450.867,435.472,450.867z"/>
</svg>
