<?xml version="1.0" encoding="utf-8"?>
<!-- Generator: Adobe Illustrator 16.0.0, SVG Export Plug-In . SVG Version: 6.00 Build 0)  -->
<!DOCTYPE svg PUBLIC "-//W3C//DTD SVG 1.1//EN" "http://www.w3.org/Graphics/SVG/1.1/DTD/svg11.dtd">
<svg version="1.1" id="Layer_1" xmlns="http://www.w3.org/2000/svg" xmlns:xlink="http://www.w3.org/1999/xlink" x="0px" y="0px"
	 width="70px" height="70px" viewBox="0 0 644.59 658.395" enable-background="new 0 0 644.59 658.395"
	 xml:space="preserve">
<path fill="#FFDF7B" d="M312.658,608.188l0.15,30.882c0,0-58.508,0.593-47.416,11.601c0,0,5.166,1.778,11.602,0
	c0,0-9.316,7.112,4.486,4.656c13.803-2.455,7.453-1.354,7.453-1.354s-2.541,6.52,8.635,3.726
	c11.178-2.795,21.084-10.161,21.084-10.161s42.674,0.084,25.57-5.843s-23.369-2.869-23.369-2.869l-0.066-30.637"/>
<path fill="#EB6121" d="M242.883,574.898c0,0,29.158,61.193,63.76,13.717c34.602-47.476-22.104-32.992-22.104-32.992"/>
<path fill="#FFDF7B" d="M291.76,382.282l-41.334-64.666c0,0,80-140,147.334-200.667s12.041,148.011,12.041,148.011"/>
<path fill="#EB5C5D" d="M136.775,389.035c0.48-71.149,26.063-113.579,44.568-134.996c5.23-6.938,11.551-12.884,18.691-17.522
	c0.053-0.035,0.086-0.058,0.086-0.058l0.008-0.001c10.785-6.982,23.412-11.004,36.914-11.004c6.734,0,13.242,1.02,19.422,2.887
	l0.049-0.007c0.584,0.173,1.158,0.362,1.734,0.552c0.049,0.017,0.098,0.031,0.146,0.047c1.053,0.351,2.094,0.729,3.119,1.136
	c0.26,0.101,0.514,0.212,0.77,0.315c0.496,0.205,0.992,0.411,1.48,0.629c11.445,4.95,21.43,12.976,29.063,23.139
	c2.324,2.809,4.51,5.729,6.566,8.705c1.783,2.359,47.607,63.842,31.619,124.592l65.576-5.166l-58.32,53.958l9.469,5.219
	l1.135,31.928l108.865-46.178c0,0,45.666-12.033,71.012-8.538l0,0c0,0,32.523-3.764,13.02,27.664l0.004-0.001
	c0,0-33.094,70.793-155.697,119.877c-12.701,5.21-27.316,10.131-43.236,13.632c-4.07,10.968-10.094,22.979-18.352,29.332
	c-15.031,11.563-34.994-16.043-40.521-24.381c-4.727-0.141-8.85-0.664-12.41-1.531c-12.445-1.729-25.102-4.834-37.787-9.665
	c-2.299-0.854-4.592-1.772-6.875-2.76c-0.131-0.056-0.264-0.112-0.393-0.168c-0.098-0.043-0.195-0.085-0.293-0.128
	c-6.475-2.8-11.627-5.501-15.604-8.104c-31.133-18.912-58.043-53.29-68.795-113.835l-0.072,0.005
	c-0.496-2.999-0.939-5.949-1.357-8.874c-0.055-0.377-0.113-0.747-0.168-1.126C137.387,418.67,136.357,402.326,136.775,389.035z"/>
<path fill="#FFDF7B" d="M270.672,603.677v19.813c0,0-58.508,0.594-47.416,11.601c0,0,5.166,1.778,11.6,0
	c0,0-9.314,7.113,4.488,4.657s7.451-1.354,7.451-1.354s-2.539,6.52,8.637,3.725c11.178-2.794,21.084-10.16,21.084-10.16
	s42.674,0.084,25.57-5.843s-23.371-2.87-23.371-2.87l0.764-16.773"/>
<circle fill="#E62C29" cx="221.856" cy="302.481" r="43.021"/>
<circle fill="#FFFFFF" cx="221.856" cy="302.481" r="32.89"/>
<circle fill="#010102" cx="213.264" cy="309.963" r="17.246"/>
<circle fill="#FFFFFF" cx="210.981" cy="314.199" r="7.271"/>
<path fill="#FFDF7B" d="M57.695,317.33c-0.061-0.136-0.092-0.209-0.092-0.209l0.262,0.253l103.465,25.701
	c0,0-2.131,46.317-29.002,45.848l0.072,0.065c-0.236-0.025-0.467-0.065-0.701-0.1c-3.414-0.149-7.217-1.043-11.461-2.869
	c-36.496-13.4-59.898-62.884-62.41-68.392l-0.215-0.317L57.695,317.33z"/>
<path fill="#EF7E81" d="M139.357,432.194c0,0,57.98-32.445,99.98,25.711c41.914,58.038,6.285,119.654,0.639,117.921
	c-1.857-0.635-4.314-1.275-6.172-1.982c-2.299-0.854-4.592-1.772-6.875-2.76c-0.131-0.056-0.264-0.112-0.395-0.168
	c-0.098-0.043-0.193-0.085-0.291-0.128c-6.475-2.8-11.627-5.501-15.604-8.104c-31.133-18.912-58.043-53.29-68.795-113.835
	l-0.072,0.005c-0.496-2.999-0.939-5.949-1.357-8.874c-0.055-0.377-0.115-0.747-0.168-1.126
	C139.926,436.586,139.633,434.37,139.357,432.194L139.357,432.194z"/>
<path fill="#58AADF" d="M133.955,410.793l3.014,121.115L300.865,398.74c0,0,11.451,6.327,13.258-3.313
	c0,0,28.021,7.531,39.166-5.123c0,0-16.57-18.076-37.961-7.532c0,0,1.205-2.712-1.205-5.121c0,0,27.115-14.461,25.307-42.18
	c0,0-29.223,0.984-34.646,37.098c0,0-8.736,2.671-7.531,8.095C298.457,386.087,133.955,410.793,133.955,410.793z"/>
<path fill="#3257A3" d="M315.328,382.772c0,0,1.205-2.712-1.205-5.121c0,0,27.115-14.461,25.307-42.18
	c0,0-29.223,0.984-34.646,37.098c0,0-8.736,2.671-7.531,8.095c0.408,1.835-18.168,5.878-42.912,10.426
	c2.404,2.602,3.887,6.071,3.887,9.895c0,8.065-6.537,14.603-14.604,14.603c-8.063,0-14.604-6.537-14.604-14.603
	c0-1.988,0.402-3.882,1.123-5.609c-12.984,2.229-26.465,4.454-39.092,6.492c2.682,2.799,4.336,6.586,4.336,10.769
	c0,8.606-6.977,15.584-15.584,15.584s-15.584-6.978-15.584-15.584c0-2.421,0.568-4.703,1.553-6.747
	c-18.744,2.941-31.816,4.904-31.816,4.904l0.764,30.753c1.619-0.391,3.301-0.621,5.039-0.621c11.83,0,21.42,9.591,21.42,21.421
	c0,11.831-9.59,21.421-21.42,21.421c-1.367,0-2.701-0.142-3.996-0.385l1.207,48.526l57.756-46.928
	c-8.031-4.354-13.482-12.857-13.482-22.635c0-14.212,11.518-25.732,25.73-25.732c11.658,0,21.49,7.755,24.654,18.385l69.238-56.258
	c0,0,11.451,6.327,13.258-3.313c0,0,28.021,7.531,39.166-5.123C353.289,390.305,336.719,372.229,315.328,382.772z"/>
<path fill="#EF7E81" d="M377.199,284.43c38.373-26.513,94.607-58.997,161.641-78.548c128-37.334-32,119.083-32,119.083
	c112-4.251-52.666,90.25-52.666,90.25c44,16,0,48,0,48c-12.803,9.989-25.666,16.178-37.992,19.726
	c-0.703,0.216-2.354,0.695-4.822,1.259c-6.027,1.423-11.902,2.235-17.557,2.579c-26.551,1.995-72.02-2.659-112.949-46.286
	l0.014-0.013c-8.086-7.912-13.805-16.62-14.805-25.838l-0.014,0.017c-0.012-0.126-0.012-0.254-0.021-0.38
	c-0.061-0.631-0.098-1.265-0.111-1.9c-0.014-0.323-0.018-0.646-0.021-0.971c0-0.058-0.002-0.116,0-0.175
	C265.393,354.663,377.053,284.521,377.199,284.43z"/>
<path fill="#FFDF7B" d="M382.174,474.542c0,0,44-32,0-48c0,0,164.666-94.501,52.666-90.25c0,0,106.166-103.791,76.342-122.096
	c8.996-3.215,18.217-6.233,27.658-8.987c128-37.334-32,119.083-32,119.083c112-4.251-52.666,90.25-52.666,90.25c44,16,0,48,0,48
	c-12.803,9.989-25.666,16.178-37.992,19.726c-0.703,0.216-2.354,0.695-4.822,1.259c-6.027,1.423-11.902,2.235-17.557,2.579
	c-7.854,0.59-17.365,0.598-27.922-0.813C371.291,482.333,376.738,478.783,382.174,474.542z"/>
</svg>
