<?xml version="1.0" encoding="utf-8"?>
<!-- Generator: Adobe Illustrator 16.0.0, SVG Export Plug-In . SVG Version: 6.00 Build 0)  -->
<!DOCTYPE svg PUBLIC "-//W3C//DTD SVG 1.1//EN" "http://www.w3.org/Graphics/SVG/1.1/DTD/svg11.dtd">
<svg version="1.1" id="Layer_1" xmlns="http://www.w3.org/2000/svg" xmlns:xlink="http://www.w3.org/1999/xlink" x="0px" y="0px"
	 width="70px" height="70px" viewBox="0 0 644.59 658.395" enable-background="new 0 0 644.59 658.395"
	 xml:space="preserve">
<path fill="#8BC483" d="M265.443,171.442c0,0-8.627,5.224-22.293-5.912c0,0,8.119,17.184,23.912,21.801"/>
<path fill="#709B68" d="M441.691,236.227c-6.352-11.76-25.344-37.886-74.902-56.22l-2.992,41.334l76.535,19.956
	C441.898,241.516,443.924,241.062,441.691,236.227z"/>
<path fill="#FFDF7B" d="M375.275,459.299l0.492,164.744c0,0-57.584,0.584-46.666,11.417c0,0,5.084,1.75,11.418,0
	c0,0-9.17,7,4.414,4.583c13.586-2.417,7.334-1.333,7.334-1.333s-2.5,6.416,8.5,3.666s20.752-10,20.752-10s41.998,0.083,25.164-5.75
	c-16.832-5.833-23-2.824-23-2.824l0.258-161.753"/>
<path fill="#FFDF7B" d="M416.598,463.738l0.641,175.638c0,0-57.582,0.584-46.666,11.417c0,0,5.084,1.75,11.416,0
	c0,0-9.168,7,4.416,4.583s7.336-1.333,7.336-1.333s-2.5,6.416,8.5,3.666s20.748-10,20.748-10s42,0.083,25.168-5.75
	c-16.834-5.833-23-2.824-23-2.824l-0.559-175.396"/>
<path fill="#A14996" d="M348.135,439.38c0,0,23.334,48.258,52,8.925c28.668-39.333-18.311-27.333-18.311-27.333"/>
<path fill="#BA76AF" d="M386.135,439.38c0,0,24.002,39.593,41.336,26.259c17.332-13.334,24.664-52,24.664-52"/>
<path fill="#BA76AF" d="M359.988,274.138c0,0,6.174-37.441,14.479-63.183c0.936-2.015,1.66-4.093,2.145-6.229
	c0.002-0.009,0.006-0.018,0.008-0.025l-0.002-0.001c0.475-2.104,0.727-4.26,0.727-6.456c0-15.432-12.166-28.876-30.174-35.961
	l0.014-0.004c0,0-0.287-0.116-0.814-0.316c-0.031-0.013-0.064-0.024-0.098-0.036c-7.74-2.937-63.18-22.673-81.533,6.938
	c0,0-3.994,11.223-5.887,17.76l-0.07-0.011c0,0-38.793,155.682-3.793,245.859c0,0,103,39.052,262-15.475
	C516.988,416.999,466.373,337.661,359.988,274.138z"/>
<path fill="#A14996" d="M339.451,446.413c-63.436-10.072-46.08-165.282-65.355-180.931c-14.781-11.999-26.73,11.3-31.5,22.823
	c-1.748,19.862-2.686,41.064-2.025,62.047c0.654,16.605,2.059,30.369,3.742,41.586c2.318,14.593,5.77,28.508,10.674,41.139
	c32.084,10.864,77.566,13.057,83.758,13.311C338.98,446.395,339.213,446.405,339.451,446.413z"/>
<path fill="#BA76AF" d="M458.027,348.798c0,0-103.592-95.479-130.381-86.438c-18.791,3.562-18.508,30.686-16.383,47.743
	l-0.307,1.174c0,0,4.318,40.097,37.178,64.665c32.861,24.567,30.539-22.79,30.539-22.79s8.322,75.407,52.322,70.436
	S458.027,348.798,458.027,348.798z"/>
<path fill="#709B68" d="M267.359,165.769c0,0-2.191,1.811-3.455,5.472l34.955,6.903l-5.5-11.25"/>
<g>
	<circle fill="#EA571F" cx="314.271" cy="212.379" r="30.003"/>
	<circle fill="#FFFFFF" cx="314.271" cy="212.379" r="23.447"/>
	<circle fill="#010102" cx="307.01" cy="212.379" r="12.295"/>
	<circle fill="#FFFFFF" cx="307.01" cy="208.276" r="5.184"/>
</g>
<path fill="#8BC483" d="M388.43,178.822c0-16.85-13.283-31.528-32.945-39.265l0.016-0.004c0,0-0.314-0.127-0.891-0.346
	c-0.033-0.014-0.068-0.026-0.105-0.04c-8.451-3.206-68.984-24.755-89.023,7.576c0,0-3.221,9.053-5.439,16.129l0.002-0.001
	c0,0-0.004,0.007-0.004,0.008c-0.035,0.117-0.072,0.234-0.109,0.35c-0.229,0.849-0.545,2.97,1.85,3.43c0.002,0,0.002,0,0.004,0.001
	l25.805,4.956c1.098,0.295,3.252,1.324,2.51,4.811l-2.256,10.575c-0.002,0.005-0.002,0.008-0.004,0.013
	c-0.568,2.667-1.748,3.487-2.787,3.64l-26.842-5.052c0-0.001,0-0.001-0.002-0.001c-2.783-0.524-3.633,0.9-3.891,1.741
	c-0.039,0.189-0.078,0.377-0.115,0.568v0.001l0,0c-0.242,1.196-0.488,2.431-0.74,3.716c-0.082,2.22,0.877,5.449,6.744,6.531
	c23.838,4.316,75.457,14.25,110.807,25.278c0.961,0.282,5.688,1.341,7.133-4.571c0.004-0.014,0.008-0.02,0.012-0.032
	c2.117-8.919,4.525-18.052,7.133-26.133c1.021-2.2,1.813-4.469,2.342-6.801c0.002-0.01,0.006-0.02,0.008-0.028l-0.002-0.001
	C388.154,183.575,388.43,181.22,388.43,178.822z"/>
<path fill="#709B68" d="M345.316,128.79l0.002-0.002l-0.043-0.014c-0.344-0.122-0.676-0.222-0.99-0.303l-5.666-1.734
	c-10.951-3.325-13.564,4.628-13.564,4.628l25.143,6.294C351.195,132.052,347.957,129.743,345.316,128.79z"/>
<path fill="#A14996" d="M432.037,392.866c-44,4.972-52.322-70.436-52.322-70.436s2.322,47.357-30.539,22.79
	c-30.273-22.636-36.322-58.453-37.086-63.947c-2.135,9.456-1.537,20.724-0.457,29.395l-0.307,1.174c0,0,4.318,40.097,37.178,64.665
	c32.861,24.567,30.539-22.79,30.539-22.79s8.322,75.407,52.322,70.436c31.354-3.543,31.748-40.007,29.387-60.679
	C457.814,377.974,450.018,390.835,432.037,392.866z"/>
<g>
	<path fill="#8BC483" d="M144.688,158.442l18.309-2.641c0,0,59.252,103.062,24.426,206.49c0,0,16.311-121.317-44.365-198.214"/>
	<path fill="#EB6121" d="M130.816,116.1c0,0,39.549,8.336,43.398,42.298C178.063,192.358,121.025,189.277,130.816,116.1z"/>
	<path fill="#FFDF7B" d="M152.742,102.836c0,0,37.301,25.562,26.727,62.305C168.893,201.884,111.27,174.262,152.742,102.836z"/>
	<path fill="#719B6A" d="M175.74,182.917c-1.307-3.249-2.576-6.249-3.781-8.988c-4.582,6.348-11.707,7.957-18.063,5.295
		c1.783,2.877,3.479,5.797,5.092,8.751C164.912,188.94,170.926,187.322,175.74,182.917z"/>
	<path fill="#8BC483" d="M177.291,221.751c0,0-26.996-16.459-33.463,20.385c0,0,17.867-33.291,32.729-11.488"/>
</g>
<g>
	<path fill="#E62C29" d="M255.73,217.707c0,0-63.373-34.118-104.023,34.565c0,0,61.256-34.87,94.848,10.832
		C246.555,263.104,263.191,247.011,255.73,217.707z"/>
	<path fill="#EB5C5D" d="M258.207,231.97c-0.049-4.306-0.604-9.019-1.908-14.147c0,0-63.375-34.119-104.023,34.565
		c0,0,0.729-0.415,2.07-1.096C192.969,208.466,245.912,226.864,258.207,231.97z"/>
</g>
</svg>
