<?xml version="1.0" encoding="utf-8"?>
<!-- Generator: Adobe Illustrator 16.0.0, SVG Export Plug-In . SVG Version: 6.00 Build 0)  -->
<!DOCTYPE svg PUBLIC "-//W3C//DTD SVG 1.1//EN" "http://www.w3.org/Graphics/SVG/1.1/DTD/svg11.dtd">
<svg version="1.1" id="Layer_1" xmlns="http://www.w3.org/2000/svg" xmlns:xlink="http://www.w3.org/1999/xlink" x="0px" y="0px"
	 width="70px" height="70px" viewBox="0 0 644.59 658.395" enable-background="new 0 0 644.59 658.395"
	 xml:space="preserve">
<path fill="#FFE401" d="M186.749,108.261c0,0,62.854-4.754,73.28,5.122c10.429,9.874-22.453-111.135-127.458-52.418L186.749,108.261
	z"/>
<path fill="#FBBC3E" d="M176.15,114.865c0,0,11.24,62.023,23.424,69.625c12.184,7.604-113.206,6.278-82.846-110.135L176.15,114.865z
	"/>
<path fill="#BA76AF" d="M260.529,575.356c0,0,29.159,61.193,63.761,13.717c34.602-47.476-22.104-32.992-22.104-32.992"/>
<path fill="#FFDF7B" d="M288.319,604.135v19.813c0,0-58.509,0.594-47.416,11.601c0,0,5.166,1.778,11.6,0
	c0,0-9.314,7.113,4.488,4.657c13.802-2.456,7.451-1.354,7.451-1.354s-2.539,6.52,8.637,3.725
	c11.177-2.794,21.083-10.16,21.083-10.16s42.675,0.084,25.571-5.843c-17.104-5.927-23.371-2.87-23.371-2.87l0.763-16.773"/>
<path fill="#86D0EC" d="M309.407,382.74l-41.334-64.666c0,0,80-140,147.334-200.667s12.04,148.011,12.04,148.011"/>
<path fill="#A14996" d="M546.395,419.129c-25.345-3.495-71.011,8.538-71.011,8.538l-108.865,46.178l-1.135-31.928l-9.47-5.219
	l58.321-53.958l-65.576,5.166c0.223-0.845,0.429-1.69,0.627-2.535l-31.493,4.075V264.335c-0.131-0.181-0.24-0.331-0.342-0.469
	v-78.229c0.217-2.372,0.342-4.77,0.342-7.197c0-0.2-0.014-0.397-0.016-0.598c0.242-2.564,0.379-5.161,0.379-7.789
	c0-45.234-36.67-81.903-81.903-81.903c-44.512,0-80.702,35.513-81.849,79.748h-0.07v223h0.055
	c-0.306,13.035,0.744,28.923,3.47,48.169c0.054,0.379,0.113,0.749,0.168,1.126c0.417,2.925,0.861,5.875,1.357,8.874l0.073-0.005
	c10.752,60.545,37.661,94.923,68.794,113.835c3.976,2.603,9.128,5.304,15.604,8.104c0.098,0.043,0.195,0.085,0.292,0.128
	c0.129,0.056,0.262,0.112,0.394,0.168c2.283,0.987,4.576,1.906,6.875,2.76c12.686,4.831,25.343,7.937,37.787,9.665
	c3.56,0.867,7.685,1.391,12.409,1.531c5.528,8.338,25.491,35.944,40.522,24.381c8.258-6.353,14.28-18.364,18.352-29.332
	c15.92-3.501,30.535-8.422,43.237-13.632c122.602-49.084,155.696-119.877,155.696-119.877l-0.005,0.001
	C578.919,415.365,546.395,419.129,546.395,419.129z"/>
<path fill="#8BC483" d="M317.654,265.822v-6.487c-0.13-0.181-0.242-0.331-0.342-0.469v-78.229c0.217-2.372,0.342-4.77,0.342-7.197
	c0-0.2-0.014-0.397-0.016-0.598c0.242-2.564,0.379-5.161,0.379-7.789c0-45.234-36.67-81.903-81.904-81.903
	c-44.511,0-80.701,35.513-81.848,79.748h-0.07v102.925H317.654z"/>
<path fill="#EF7E81" d="M131.609,89.741c0,0-72.141,46.49-54.722,129.201c17.419,82.71-3.169,86.836-20.588,92.691
	c-17.419,5.854-18.211,31.193,17.421,25.65c35.631-5.543,42.757-41.043,42.757-59.717c0-18.672-47.583-118.448,42.468-166.911
	c0,0,6.822-12.697-4.758-19.526S131.609,89.741,131.609,89.741z"/>
<path fill="#FFDF7B" d="M330.306,608.646l0.15,30.882c0,0-58.509,0.593-47.416,11.601c0,0,5.166,1.778,11.602,0
	c0,0-9.317,7.112,4.486,4.656c13.802-2.455,7.452-1.354,7.452-1.354s-2.54,6.52,8.636,3.726
	c11.178-2.795,21.084-10.161,21.084-10.161s42.675,0.084,25.57-5.843c-17.104-5.927-23.369-2.869-23.369-2.869l-0.066-30.637"/>
<circle fill="#709B68" cx="245.813" cy="154.11" r="48.594"/>
<circle fill="#FFFFFF" cx="245.812" cy="154.11" r="37.149"/>
<g>
	<circle fill="#010102" cx="236.106" cy="148.024" r="19.479"/>
	<circle fill="#FFFFFF" cx="233.8" cy="143.11" r="8.211"/>
</g>
<ellipse fill="#BA76AF" cx="162.417" cy="288.279" rx="26.846" ry="28.324"/>
<ellipse fill="#BA76AF" cx="308.632" cy="288.279" rx="26.847" ry="28.324"/>
<rect x="162.418" y="259.956" fill="#BA76AF" width="146.213" height="56.647"/>
<rect x="154.195" y="313.398" fill="#803B79" width="163.598" height="8"/>
<rect x="229.26" y="259.956" fill="#A14996" width="4.539" height="53.442"/>
<rect x="259.279" y="259.956" fill="#A14996" width="4.54" height="53.442"/>
<rect x="289.868" y="259.956" fill="#A14996" width="4.539" height="53.442"/>
<rect x="168.652" y="259.956" fill="#A14996" width="4.539" height="53.442"/>
<rect x="198.673" y="259.956" fill="#A14996" width="4.539" height="53.442"/>
<path fill="#BA76AF" d="M156.709,428.837c3.008,25.865,14.71,88.729,58.818,124.729c3.856,2.965,7.805,5.656,11.822,8.097
	c4.084,2.673,9.375,5.447,16.023,8.322c0.101,0.044,0.201,0.087,0.301,0.131c0.133,0.058,0.27,0.116,0.404,0.173
	c2.344,1.014,4.699,1.958,7.06,2.834c1.189,0.453,2.378,0.889,3.567,1.312c3.348,1.018,6.299,1.979,8.9,2.893
	c0.406,0.12,0.811,0.248,1.217,0.365c11.365-17.05,29.66-69.899-6.686-120.227c-39.137-54.19-88.694-35.798-101.289-29.974
	C156.899,427.896,156.836,428.353,156.709,428.837z"/>
<path fill="#8BC483" d="M160.682,456.774c0.043,0.299,0.09,0.602,0.133,0.9c7.402,35.107,24.91,84.567,66.004,107.144
	c2.064,1.058,4.344,2.132,6.871,3.225c0.083,0.036,0.166,0.073,0.248,0.109c0.109,0.047,0.223,0.096,0.335,0.143
	c1.942,0.84,3.894,1.622,5.848,2.347c1.581,0.602,3.671,1.146,5.251,1.688c4.803,1.475,35.109-50.939-0.544-100.308
	c-35.726-49.47-85.046-21.87-85.046-21.87c0.234,1.85,0.482,3.735,0.758,5.664C160.584,456.139,160.635,456.453,160.682,456.774z"/>
<path fill="#709B68" d="M160.682,456.771c0.043,0.299,0.09,0.602,0.133,0.9c0.014,0.068,0.031,0.14,0.045,0.208
	c6.818-3.402,44.919-20.299,79.07,7.93c-35.166-40.828-80.148-15.661-80.148-15.661c0.234,1.85,0.482,3.735,0.758,5.664
	C160.584,456.135,160.635,456.449,160.682,456.771z"/>
<rect x="184.051" y="419.951" transform="matrix(0.9982 -0.0602 0.0602 0.9982 -25.6351 12.006)" fill="#A14996" width="4.539" height="22.496"/>
<rect x="216.511" y="426.023" transform="matrix(0.9307 0.3657 -0.3657 0.9307 174.927 -49.7521)" fill="#A14996" width="4.539" height="21.614"/>
<rect x="243.265" y="446.988" transform="matrix(0.7702 0.6379 -0.6379 0.7702 347.8399 -51.6113)" fill="#A14996" width="4.539" height="19.729"/>
<rect x="259.686" y="472.013" transform="matrix(0.2932 0.9561 -0.9561 0.2932 645.8649 90.1621)" fill="#A14996" width="4.54" height="19.728"/>
<polygon fill="#A14996" points="261.598,515.988 260.98,510.878 279.623,511.863 279.396,516.396 "/>
<rect x="154.527" y="251.956" fill="#709B68" width="162.785" height="8"/>
<polygon fill="#A14996" points="258.83,546.684 259.475,541.577 277.317,547.071 275.994,551.412 "/>
<polygon fill="#A14996" points="249.826,570.353 250.494,565.253 267.834,570.594 266.512,574.935 "/>
<path fill="#BA76AF" d="M318.353,331.876c-35.776,0-64.778,29.003-64.778,64.777c0,35.776,29.002,64.778,64.778,64.778V331.876z"/>
<circle fill="#8BC483" cx="322.748" cy="396.654" r="51.154"/>
<path fill="#709B68" d="M317.793,345.743c-25.926,2.493-46.199,24.332-46.199,50.911c0,4.069,0.489,8.021,1.387,11.816
	c0.937-26.81,19.704-49.083,44.813-55.314V345.743z"/>
<path fill="#61B9E9" d="M394.846,284.888c38.375-26.513,94.608-58.997,161.643-78.548c128-37.334-32,119.083-32,119.083
	c112-4.251-52.667,90.25-52.667,90.25c44,16,0,48,0,48c-12.803,9.989-25.666,16.178-37.991,19.726
	c-0.705,0.216-2.354,0.695-4.823,1.259c-6.028,1.423-11.902,2.235-17.557,2.579c-26.55,1.995-72.021-2.659-112.949-46.286
	l0.013-0.013c-8.084-7.912-13.803-16.62-14.805-25.838l-0.014,0.017c-0.011-0.126-0.011-0.254-0.021-0.38
	c-0.061-0.631-0.098-1.265-0.111-1.9c-0.012-0.323-0.018-0.646-0.021-0.971c0-0.058,0-0.116,0-0.175
	C283.04,355.121,394.7,284.979,394.846,284.888z"/>
<path fill="#86D0EC" d="M399.821,475c0,0,44-32,0-48c0,0,164.667-94.501,52.667-90.25c0,0,106.166-103.791,76.342-122.096
	c8.994-3.215,18.215-6.233,27.658-8.987c128-37.334-32,119.083-32,119.083c112-4.251-52.667,90.25-52.667,90.25c44,16,0,48,0,48
	c-12.803,9.989-25.666,16.178-37.991,19.726c-0.705,0.216-2.354,0.695-4.823,1.259c-6.028,1.423-11.902,2.235-17.557,2.579
	c-7.854,0.59-17.364,0.598-27.923-0.813C388.939,482.791,394.387,479.241,399.821,475z"/>
</svg>
