<?xml version="1.0" encoding="utf-8"?>
<!-- Generator: Adobe Illustrator 16.0.0, SVG Export Plug-In . SVG Version: 6.00 Build 0)  -->
<!DOCTYPE svg PUBLIC "-//W3C//DTD SVG 1.1//EN" "http://www.w3.org/Graphics/SVG/1.1/DTD/svg11.dtd">
<svg version="1.1" id="Layer_1" xmlns="http://www.w3.org/2000/svg" xmlns:xlink="http://www.w3.org/1999/xlink" x="0px" y="0px"
	  width="70px" height="70px" viewBox="0 0 644.59 658.395" enable-background="new 0 0 644.59 658.395"
	 xml:space="preserve">
<g>
	<path fill="#E52625" d="M355.379,605.543v19.5c0,0-57.584,0.584-46.666,11.418c0,0,5.084,1.75,11.417,0c0,0-9.169,7,4.415,4.582
		c13.585-2.416,7.335-1.332,7.335-1.332s-2.5,6.416,8.5,3.666s20.75-10,20.75-10s41.999,0.082,25.165-5.75
		c-16.832-5.834-23-2.824-23-2.824l0.75-16.51"/>
	<path fill="#E52625" d="M396.701,609.982l0.148,30.395c0,0-57.583,0.584-46.666,11.416c0,0,5.084,1.75,11.417,0
		c0,0-9.168,7,4.416,4.584c13.584-2.418,7.334-1.334,7.334-1.334s-2.5,6.416,8.5,3.666s20.75-10,20.75-10s41.999,0.084,25.166-5.75
		c-16.833-5.832-23-2.824-23-2.824l-0.065-30.152"/>
	<path fill="#5264AC" d="M329.008,584.695c0,0,23.333,48.258,52,8.926c28.666-39.334-18.313-27.334-18.313-27.334"/>
	<path fill="#3257A3" d="M367.008,584.695c0,0,24.001,39.594,41.334,26.26c17.332-13.334,24.666-52,24.666-52"/>
	<path fill="#58AADF" d="M340.859,344.359c0,0,6.174-53.763,14.479-90.725c0.935-2.892,1.659-5.876,2.144-8.943
		c0.002-0.012,0.006-0.024,0.009-0.036l-0.003-0.001c0.475-3.021,0.727-6.116,0.727-9.271c0-22.158-12.166-41.463-30.174-51.637
		l0.015-0.006c0,0-0.288-0.166-0.815-0.454c-0.031-0.018-0.063-0.035-0.096-0.052c-7.741-4.217-63.18-32.556-81.534,9.963
		c0,0-3.994,16.114-5.886,25.502l-0.071-0.016c0,0-38.794,223.542-3.794,353.029c0,0,103,56.074,262-22.221
		C497.859,549.492,447.244,435.572,340.859,344.359z"/>
	<g>
		<path fill="#EF9B3A" d="M241.889,224.603c0,0-63.373-34.118-104.023,34.565c0,0,61.255-34.87,94.848,10.832
			C232.713,270,249.35,253.907,241.889,224.603z"/>
		<path fill="#FBBC3E" d="M244.365,238.866c-0.049-4.306-0.605-9.019-1.908-14.147c0,0-63.375-34.119-104.024,34.565
			c0,0,0.729-0.415,2.071-1.096C179.127,215.362,232.07,233.76,244.365,238.866z"/>
	</g>
	<g>
		<circle fill="#EA571F" cx="301.487" cy="242.763" r="41.71"/>
		<circle fill="#FFFFFF" cx="301.488" cy="242.763" r="32.596"/>
		<circle fill="#010102" cx="291.394" cy="242.763" r="17.093"/>
		<circle fill="#FFFFFF" cx="291.394" cy="237.06" r="7.206"/>
	</g>
	<path fill="#3257A3" d="M204.63,161.291c0,0,52.345,74.52,182.747,71.015c130.403-3.504-53.26-62.984-53.26-62.984
		S162.594,97.93,204.63,161.291z"/>
	<path fill="#3D8ACA" d="M372.422,195.453l12.045-44.624c0,0,14.043-38.541-20.79-52.979l-2.499-0.935l-34.675-12.953l-2.499-0.934
		c-35.765-11.939-50.434,26.368-50.434,26.368l-20.165,41.591c7.398,13.168,34.733,25.173,55.593,32.716
		C329.689,191.685,358.203,200.546,372.422,195.453z"/>
	<path fill="#61B9E9" d="M321.625,591.729c-63.437-14.463-46.08-237.328-65.356-259.797c-14.78-17.23-26.729,16.225-31.5,32.771
		c-1.746,28.52-2.685,58.965-2.025,89.094c0.656,23.844,2.059,43.605,3.744,59.711c2.316,20.955,5.77,40.936,10.672,59.072
		c32.084,15.6,77.567,18.748,83.759,19.111C321.155,591.703,321.387,591.719,321.625,591.729z"/>
	<path fill="#EB6121" d="M294.558,415.938c0,0-16.036-94.596,21.515-88.805"/>
	<path fill="#61B9E9" d="M326.328,147.498c-20.578-7.441-48.08-18.654-55.902-31.614l-10.801,22.276
		c7.398,13.168,35.271,24.795,56.131,32.338c20.691,7.982,46.175,16.426,60.394,11.332l5.906-21.883
		C366.886,162.16,344.955,154.683,326.328,147.498z"/>
	<path fill="#FFDF7B" d="M230.902,281.353c0,0,4.486,135.059,89.938,139.731l0.785,12.006c0,0-85.742-0.004-94.538-115.668"/>
	<path fill="#FFDF7B" d="M268.075,411.566c0,0-14.883,106.189,0,131.523s138.884,52.668,127.55-13.332
		s-52.428-101.549-52.428-101.549"/>
	<path fill="#FACD4E" d="M274.355,402.514c0,0,10.346,12.494,17.473,91.904s108.592,57.338,104.527,24.672
		s-22.064-90.881-22.064-90.881"/>
	<path fill="#EB6121" d="M291.828,397.688c0,0,4.319,57.576,37.18,92.852c32.86,35.277,30.537-32.723,30.537-32.723
		s8.323,108.277,52.323,101.139s27.03-107.393,27.03-107.393S317.11,290.381,303.489,334.098"/>
	<path fill="#EF9B3A" d="M298.887,494.422c-5.64-62.838-13.293-83.771-16.243-89.773l-8.288-2.131c0,0,10.346,12.494,17.473,91.904
		c3.769,41.988,33.91,55.598,60.882,54.277C327.774,547.451,302.328,532.773,298.887,494.422z"/>
</g>
</svg>
