<?xml version="1.0" encoding="utf-8"?>
<!-- Generator: Adobe Illustrator 16.0.0, SVG Export Plug-In . SVG Version: 6.00 Build 0)  -->
<!DOCTYPE svg PUBLIC "-//W3C//DTD SVG 1.1//EN" "http://www.w3.org/Graphics/SVG/1.1/DTD/svg11.dtd">
<svg version="1.1" id="Layer_1" xmlns="http://www.w3.org/2000/svg" xmlns:xlink="http://www.w3.org/1999/xlink" x="0px" y="0px"
	  width="70px" height="70px" viewBox="0 0 644.59 658.395" enable-background="new 0 0 644.59 658.395"
	 xml:space="preserve">
<path fill="#E52625" d="M316.515,608.188l0.15,30.882c0,0-58.508,0.593-47.416,11.601c0,0,5.166,1.778,11.602,0
	c0,0-9.316,7.112,4.486,4.656c13.803-2.455,7.453-1.354,7.453-1.354s-2.541,6.52,8.635,3.726
	c11.178-2.795,21.084-10.161,21.084-10.161s42.675,0.084,25.57-5.843c-17.104-5.927-23.369-2.869-23.369-2.869l-0.066-30.637"/>
<path fill="#BA76AF" d="M246.74,574.898c0,0,29.158,61.193,63.76,13.717c34.602-47.476-22.104-32.992-22.104-32.992"/>
<path fill="#EB5C5D" d="M295.617,382.282l-41.334-64.666c0,0,80-140,147.334-200.667s12.041,148.011,12.041,148.011"/>
<path fill="#A14996" d="M140.632,389.035c0.48-71.149,26.063-113.579,44.568-134.996c5.23-6.938,11.551-12.884,18.692-17.522
	c0.052-0.035,0.085-0.058,0.085-0.058l0.008-0.001c10.785-6.982,23.412-11.004,36.914-11.004c6.734,0,13.242,1.02,19.422,2.887
	l0.049-0.007c0.584,0.173,1.159,0.362,1.734,0.552c0.049,0.017,0.098,0.031,0.146,0.047c1.054,0.351,2.094,0.729,3.119,1.136
	c0.26,0.101,0.514,0.212,0.77,0.315c0.496,0.205,0.992,0.411,1.48,0.629c11.445,4.95,21.43,12.976,29.063,23.139
	c2.324,2.809,4.51,5.729,6.567,8.705c1.782,2.359,47.606,63.842,31.618,124.592l65.576-5.166l-58.32,53.958l9.469,5.219
	l1.135,31.928l108.865-46.178c0,0,45.666-12.033,71.012-8.538l0,0c0,0,32.523-3.764,13.02,27.664l0.004-0.001
	c0,0-33.094,70.793-155.696,119.877c-12.702,5.21-27.317,10.131-43.237,13.632c-4.07,10.968-10.094,22.979-18.352,29.332
	c-15.031,11.563-34.994-16.043-40.521-24.381c-4.727-0.141-8.85-0.664-12.41-1.531c-12.444-1.729-25.102-4.834-37.787-9.665
	c-2.299-0.854-4.592-1.772-6.875-2.76c-0.131-0.056-0.264-0.112-0.393-0.168c-0.098-0.043-0.195-0.085-0.293-0.128
	c-6.475-2.8-11.627-5.501-15.604-8.104c-31.133-18.912-58.043-53.29-68.794-113.835l-0.073,0.005
	c-0.496-2.999-0.939-5.949-1.357-8.874c-0.055-0.377-0.113-0.747-0.168-1.126C141.244,418.67,140.214,402.326,140.632,389.035z"/>
<path fill="#E52625" d="M274.529,603.677v19.813c0,0-58.508,0.594-47.416,11.601c0,0,5.166,1.778,11.6,0
	c0,0-9.314,7.113,4.488,4.657s7.451-1.354,7.451-1.354s-2.539,6.52,8.637,3.725c11.178-2.794,21.084-10.16,21.084-10.16
	s42.674,0.084,25.57-5.843s-23.371-2.87-23.371-2.87l0.764-16.773"/>
<g>
	<circle fill="#BA76AF" cx="225.713" cy="302.481" r="43.021"/>
	<circle fill="#FFFFFF" cx="225.713" cy="302.481" r="32.89"/>
	<path fill="#010102" d="M234.367,309.963c0,9.524-7.719,17.246-17.246,17.246c-9.525,0-17.245-7.722-17.245-17.246
		c0-9.526,7.72-17.247,17.245-17.247C226.648,292.716,234.367,300.437,234.367,309.963z"/>
	<circle fill="#FFFFFF" cx="214.838" cy="314.199" r="7.271"/>
</g>
<path fill="#EF9B3A" d="M61.552,317.33c-0.06-0.136-0.092-0.209-0.092-0.209l0.262,0.253l103.465,25.701
	c0,0-2.131,46.317-29.002,45.848l0.072,0.065c-0.235-0.025-0.467-0.065-0.7-0.1c-3.415-0.149-7.218-1.043-11.461-2.869
	c-36.496-13.4-59.899-62.884-62.411-68.392l-0.215-0.317L61.552,317.33z"/>
<path fill="#EF7E81" d="M381.056,284.43c38.373-26.513,94.607-58.997,161.642-78.548c128-37.334-32,119.083-32,119.083
	c112-4.251-52.667,90.25-52.667,90.25c44,16,0,48,0,48c-12.803,9.989-25.666,16.178-37.991,19.726
	c-0.704,0.216-2.354,0.695-4.823,1.259c-6.027,1.423-11.902,2.235-17.557,2.579c-26.55,1.995-72.02-2.659-112.949-46.286
	l0.014-0.013c-8.086-7.912-13.804-16.62-14.805-25.838l-0.014,0.017c-0.012-0.126-0.012-0.254-0.021-0.38
	c-0.061-0.631-0.098-1.265-0.111-1.9c-0.013-0.323-0.018-0.646-0.021-0.971c0-0.058-0.001-0.116,0-0.175
	C269.25,354.663,380.91,284.521,381.056,284.43z"/>
<path fill="#BA76AF" d="M143.214,432.194c0,0,57.98-32.445,99.98,25.711c41.915,58.038,6.285,119.654,0.639,117.921
	c-1.857-0.635-4.314-1.275-6.172-1.982c-2.299-0.854-4.592-1.772-6.875-2.76c-0.131-0.056-0.264-0.112-0.394-0.168
	c-0.098-0.043-0.194-0.085-0.292-0.128c-6.475-2.8-11.627-5.501-15.604-8.104c-31.133-18.912-58.042-53.29-68.794-113.835
	l-0.073,0.005c-0.496-2.999-0.939-5.949-1.357-8.874c-0.055-0.377-0.115-0.747-0.168-1.126
	C143.783,436.586,143.49,434.37,143.214,432.194L143.214,432.194z"/>
<path fill="#EB5C5D" d="M386.031,474.542c0,0,44-32,0-48c0,0,164.667-94.501,52.667-90.25c0,0,106.165-103.791,76.342-122.096
	c8.995-3.215,18.216-6.233,27.658-8.987c128-37.334-32,119.083-32,119.083c112-4.251-52.667,90.25-52.667,90.25c44,16,0,48,0,48
	c-12.803,9.989-25.666,16.178-37.991,19.726c-0.704,0.216-2.354,0.695-4.823,1.259c-6.027,1.423-11.902,2.235-17.557,2.579
	c-7.854,0.59-17.364,0.598-27.922-0.813C375.149,482.333,380.595,478.783,386.031,474.542z"/>
<g>
	<path fill="#EB6121" d="M404.958,289.701c0,0,4.262,17.417-16.527,12.44c-20.787-4.977-8.902-30.572-32.201-23.95
		c-23.297,6.622,30.266-1.063,30.266-1.063"/>
	<path fill="#EB6121" d="M203.445,258.409c0,0-32.187,6.888-72.55-11.739c-40.365-18.63-28.258-44.255-16.614-45.654
		c11.646-1.398,58.725,16.12,58.725,16.12"/>
	<path fill="#FFDF7B" d="M404.238,298.172c0,0,11.068-15.261-31.889-34.429c-42.959-19.168-61.828-24.684-61.828-24.684
		l-82.128-17.402l-19.45-10.313l-3.776-1.766c0,0-65.892-15.301-92.419-8.189c0,0,23.963-0.594,52.202,24.842
		c28.242,25.436,63.222,67.377,125.038,72.896c61.813,5.518,66.945-27.854,100.459-13.669
		C390.447,285.458,402.085,291.595,404.238,298.172z"/>
	<path fill="#FFDF7B" d="M281.347,161.304l0.078-0.127c0.318,0.113,0.619,0.232,0.936,0.348c0.328,0.072,0.646,0.134,0.975,0.211
		l-0.006,0.147c60.48,22.776,35.246,91.425,35.246,91.425c-18.164,4.367-43.121-1.211-61.076-6.748
		c-18.107-5.006-42.143-13.752-55.096-27.217C202.404,219.343,218.125,147.913,281.347,161.304z"/>
	<path fill="#EB6121" d="M263.55,225.864c17.463,5.387,41.529,10.781,59.55,7.057c-1.421,11.942-4.524,20.387-4.524,20.387
		c-18.164,4.367-43.121-1.211-61.076-6.748c-18.107-5.006-42.143-13.752-55.096-27.217c0,0,1.938-8.784,7.173-19.611
		C222.751,212.575,245.937,220.995,263.55,225.864z"/>
</g>
<path fill="#A14996" d="M176.829,264.67c0,0,11.378-15.377,12.479-15.624c0,0,13.069,11.441,14.138,12.311
	s-19.787,10.191-19.787,10.191"/>
</svg>
