<?xml version="1.0" encoding="utf-8"?>
<!-- Generator: Adobe Illustrator 16.0.0, SVG Export Plug-In . SVG Version: 6.00 Build 0)  -->
<!DOCTYPE svg PUBLIC "-//W3C//DTD SVG 1.1//EN" "http://www.w3.org/Graphics/SVG/1.1/DTD/svg11.dtd">
<svg version="1.1" id="Layer_1" xmlns="http://www.w3.org/2000/svg" xmlns:xlink="http://www.w3.org/1999/xlink" x="0px" y="0px"
	  width="70px" height="70px" viewBox="0 0 644.59 658.395" enable-background="new 0 0 644.59 658.395"
	 xml:space="preserve">
<path fill="#8BC483" d="M398.717,496.454c-7.361-2.188-14.549-3.661-14.549-3.661l0.084-0.076c-1.607-0.409-3.131-0.87-4.562-1.382
	c-1.813-0.409-3.628-0.795-5.433-1.149v-1.235c-13.445-7.138-16.867-19.552-16.951-30.105H238.52v90.695
	c0,0.254,0.114,0.478,0.287,0.637c1.982,22.206,14.639,41.328,32.795,52.228l-0.008,0.016c0,0,103.045,66.994,195.711-77.225
	C467.305,525.195,434.916,507.639,398.717,496.454z"/>
<path fill="#E52625" d="M348.059,609.553l1.594,22.878c0,0-27.077,7.606-17.232,16.797c0,0,1.739,2.751,15.061-4.923
	c0,0-3.33,12.162,2.172,10.714c0,0,6.66-0.434,7.529-8.108c0,0,10.137,16.651,15.928,9.847c0,0,10.426-4.199-11.729-24.182
	l-1.594-23.022"/>
<path fill="#E52625" d="M296.088,609.553l1.593,22.878c0,0-27.077,7.606-17.231,16.797c0,0,1.738,2.751,15.06-4.923
	c0,0-3.331,12.162,2.172,10.714c0,0,6.66-0.434,7.53-8.108c0,0,10.135,16.651,15.928,9.847c0,0,10.424-4.199-11.729-24.182
	l-1.594-23.022"/>
<path fill="#8BC483" d="M224.61,461.295h135.737v-62.852c0.188-2.061,0.297-4.144,0.297-6.253c0-37.565-30.451-68.018-68.018-68.018
	c-37.564,0-68.017,30.452-68.017,68.018c0,0.259,0.017,0.514,0.019,0.772c-0.004,0.032-0.019,0.062-0.019,0.097V461.295z"/>
<path fill="#EB6121" d="M308.424,498.592c0,0,22.146,74.751,76.383,81.325c54.238,6.574-36.211-115.05-36.211-115.05"/>
<path fill="#8BC483" d="M274.176,326.707c-23.084,8.897-31.264-2.534-31.264-2.534c-4.826,12.444,13.191,17.529,13.191,17.529"/>
<circle fill="#D61516" cx="295.682" cy="392.045" r="29.18"/>
<circle fill="#FFFFFF" cx="295.683" cy="392.045" r="22.308"/>
<g>
	<circle fill="#010102" cx="289.853" cy="387.752" r="11.697"/>
	<path fill="#FFFFFF" d="M286.518,390.423c-2.674-0.501-4.439-3.076-3.938-5.754c0.501-2.677,3.079-4.439,5.755-3.938
		s4.439,3.077,3.938,5.754C291.771,389.163,289.195,390.925,286.518,390.423z"/>
</g>
<path fill="#FFDF7B" d="M294.744,541.933v-19.412H238.52v27.023c0,0.253,0.114,0.478,0.287,0.636
	c1.982,22.207,14.639,41.329,32.795,52.228l-0.008,0.017c0,0,39.533,25.697,91.646,10.992
	C301.432,609.792,295.23,557.286,294.744,541.933z"/>
<path fill="#FFDF7B" d="M294.656,513.558v-35.75h-0.086c-1.184-17.493-15.736-31.318-33.527-31.318
	c-8.706,0-16.639,3.31-22.609,8.739v58.329H294.656z"/>
<path fill="#58AADF" d="M229.137,476.353l2.301,92.494l125.166-101.698c0,0,8.744,4.832,10.125-2.53c0,0,21.398,5.752,29.91-3.911
	c0,0-12.654-13.806-28.99-5.753c0,0,0.92-2.071-0.92-3.911c0,0,20.707-11.044,19.326-32.212c0,0-22.316,0.752-26.459,28.331
	c0,0-6.672,2.04-5.752,6.182S229.137,476.353,229.137,476.353z"/>
<path fill="#EB6121" d="M224.857,427.655c0,0,36.73,1.778,42.656-4.146c5.924-5.923-11.338,65.167-73.504,32.584L224.857,427.655z"
	/>
<path fill="#8BC483" d="M394.25,495.301c-3.123-0.807-6.315-1.587-8.125-2.024c-0.303-0.069-0.598-0.142-0.895-0.215
	c-0.385-0.092-0.604-0.145-0.604-0.145l0.014-0.01c-10.24-2.686-16.064-7.736-16.064-7.736l4.863,14.193l12.163,14.193
	C385.603,513.558,400.619,499.72,394.25,495.301z"/>
<path fill="#3257A3" d="M367.648,454.954c0,0,0.92-2.071-0.92-3.911c0,0,20.707-11.044,19.326-32.212
	c0,0-22.316,0.752-26.459,28.331c0,0-6.672,2.04-5.752,6.182c0.312,1.401-13.874,4.489-32.771,7.962
	c1.836,1.987,2.968,4.637,2.968,7.557c0,6.159-4.992,11.151-11.151,11.151c-6.158,0-11.152-4.992-11.152-11.151
	c0-1.519,0.307-2.965,0.856-4.284c-9.915,1.703-20.21,3.401-29.853,4.958c2.047,2.138,3.311,5.03,3.311,8.224
	c0,6.573-5.328,11.901-11.901,11.901s-11.901-5.328-11.901-11.901c0-1.849,0.434-3.592,1.186-5.152
	c-14.314,2.246-24.297,3.745-24.297,3.745l0.584,23.485c1.236-0.298,2.52-0.474,3.848-0.474c9.034,0,16.357,7.324,16.357,16.358
	c0,9.035-7.323,16.359-16.357,16.359c-1.045,0-2.063-0.108-3.053-0.295l0.922,37.06l44.107-35.838
	c-6.133-3.325-10.297-9.819-10.297-17.286c0-10.854,8.797-19.651,19.651-19.651c8.902,0,16.411,5.923,18.827,14.04l52.877-42.963
	c0,0,8.744,4.832,10.125-2.53c0,0,21.398,5.752,29.91-3.911C396.639,460.707,383.984,446.901,367.648,454.954z"/>
<path fill="#8BC483" d="M273.35,336.883c-17.937,0-32.476-14.539-32.476-32.476c0-3.902,0.689-7.644,1.951-11.11
	c-10.887,5.244-18.399,16.383-18.399,29.275c0,17.936,14.539,32.476,32.476,32.476c14.034,0,25.986-8.901,30.524-21.366
	C283.167,335.733,278.393,336.883,273.35,336.883z"/>
</svg>
