<?xml version="1.0" encoding="utf-8"?>
<!-- Generator: Adobe Illustrator 16.0.0, SVG Export Plug-In . SVG Version: 6.00 Build 0)  -->
<!DOCTYPE svg PUBLIC "-//W3C//DTD SVG 1.1//EN" "http://www.w3.org/Graphics/SVG/1.1/DTD/svg11.dtd">
<svg version="1.1" id="Layer_1" xmlns="http://www.w3.org/2000/svg" xmlns:xlink="http://www.w3.org/1999/xlink" x="0px" y="0px"
	  width="70px" height="70px" viewBox="0 0 644.59 658.395" enable-background="new 0 0 644.59 658.395"
	 xml:space="preserve">
<path fill="#D7D3CF" d="M128.658,187.231c0,0-2.08-15.146,11.879-18.265l60.584,38.644l-13.66,16.631"/>
<path fill="#F8AB12" d="M151.127,201.547c0,0-2.078-15.146,11.881-18.264l60.584,38.644l-13.662,16.63"/>
<path fill="#F8AB12" d="M245.885,171.443c0,0-8.627,5.224-22.293-5.912c0,0,8.119,17.184,23.912,21.801"/>
<path fill="#3D8ACA" d="M422.133,236.228c-6.352-11.76-25.344-37.886-74.902-56.22l-2.992,41.334l76.535,19.956
	C422.34,241.517,424.365,241.063,422.133,236.228z"/>
<path fill="#E52625" d="M355.717,459.299l0.492,164.744c0,0-57.584,0.584-46.666,11.418c0,0,5.084,1.75,11.418,0
	c0,0-9.17,7,4.414,4.582c13.586-2.416,7.334-1.332,7.334-1.332s-2.5,6.416,8.5,3.666s20.752-10,20.752-10s41.998,0.082,25.164-5.75
	c-16.832-5.834-23-2.824-23-2.824l0.258-161.754"/>
<path fill="#E52625" d="M397.039,463.738l0.641,175.639c0,0-57.582,0.584-46.666,11.416c0,0,5.084,1.75,11.416,0
	c0,0-9.168,7,4.416,4.584c13.584-2.418,7.336-1.334,7.336-1.334s-2.5,6.416,8.5,3.666s20.748-10,20.748-10s42,0.084,25.168-5.75
	c-16.834-5.832-23-2.824-23-2.824l-0.559-175.396"/>
<path fill="#EF7E81" d="M328.576,439.381c0,0,23.334,48.258,52,8.924c28.668-39.332-18.311-27.332-18.311-27.332"/>
<path fill="#EB5C5D" d="M366.576,439.381c0,0,24.002,39.592,41.336,26.258c17.332-13.334,24.664-52,24.664-52"/>
<path fill="#F8AB12" d="M340.43,274.139c0,0,6.174-37.442,14.479-63.183c0.936-2.015,1.66-4.093,2.145-6.229
	c0.002-0.009,0.006-0.018,0.008-0.025l-0.002-0.001c0.475-2.104,0.727-4.26,0.727-6.456c0-15.432-12.166-28.876-30.174-35.961
	l0.014-0.004c0,0-0.287-0.116-0.814-0.316c-0.031-0.013-0.064-0.024-0.098-0.036c-7.74-2.937-63.18-22.673-81.533,6.938
	c0,0-3.994,11.223-5.887,17.76l-0.07-0.011c0,0-38.793,155.682-3.793,245.859c0,0,103,39.051,262-15.475
	C497.43,417,446.814,337.662,340.43,274.139z"/>
<path fill="#FFDF7B" d="M319.893,446.414c-63.436-10.072-46.08-165.283-65.355-180.931c-14.781-11.999-26.73,11.301-31.5,22.824
	c-1.748,19.861-2.686,41.064-2.025,62.046c0.654,16.605,2.059,30.369,3.742,41.586c2.318,14.592,5.77,28.508,10.674,41.139
	c32.084,10.863,77.566,13.057,83.758,13.311C319.422,446.395,319.654,446.406,319.893,446.414z"/>
<path fill="#EB5C5D" d="M438.469,348.799c0,0-103.592-95.479-130.381-86.437c-18.791,3.561-18.508,30.686-16.383,47.742
	l-0.307,1.174c0,0,4.318,40.098,37.178,64.666c32.861,24.566,30.539-22.791,30.539-22.791s8.322,75.408,52.322,70.436
	C455.438,418.617,438.469,348.799,438.469,348.799z"/>
<g>
	<path fill="#E62C29" d="M236.172,217.708c0,0-63.373-34.118-104.023,34.565c0,0,61.256-34.87,94.848,10.833
		C226.996,263.106,243.633,247.012,236.172,217.708z"/>
	<path fill="#EB5C5D" d="M238.648,231.971c-0.049-4.306-0.604-9.019-1.908-14.147c0,0-63.375-34.119-104.023,34.565
		c0,0,0.729-0.415,2.07-1.096C173.41,208.467,226.354,226.865,238.648,231.971z"/>
</g>
<path fill="#EB6121" d="M247.801,165.77c0,0-2.191,1.811-3.455,5.472l34.955,6.903l-5.5-11.25"/>
<g>
	<circle fill="#EA571F" cx="294.712" cy="212.38" r="30.003"/>
	<circle fill="#FFFFFF" cx="294.713" cy="212.38" r="23.447"/>
	<circle fill="#010102" cx="287.451" cy="212.38" r="12.295"/>
	<circle fill="#FFFFFF" cx="287.451" cy="208.277" r="5.184"/>
</g>
<path fill="#3257A3" d="M368.871,178.823c0-16.85-13.283-31.528-32.945-39.265l0.016-0.004c0,0-0.314-0.127-0.891-0.346
	c-0.033-0.014-0.068-0.026-0.105-0.04c-8.451-3.206-68.984-24.755-89.023,7.576c0,0-3.221,9.053-5.439,16.129l0.002-0.001
	c0,0-0.004,0.007-0.004,0.008c-0.035,0.117-0.072,0.234-0.109,0.35c-0.229,0.849-0.545,2.97,1.85,3.43c0.002,0,0.002,0,0.004,0.001
	l25.805,4.956c1.098,0.295,3.252,1.324,2.51,4.811l-2.256,10.575c-0.002,0.005-0.002,0.008-0.004,0.013
	c-0.568,2.667-1.748,3.487-2.787,3.64l-26.842-5.052c0-0.001,0-0.001-0.002-0.001c-2.783-0.524-3.633,0.9-3.891,1.741
	c-0.039,0.189-0.078,0.377-0.115,0.568v0.001l0,0c-0.242,1.196-0.488,2.431-0.74,3.716c-0.082,2.22,0.877,5.449,6.744,6.531
	c23.838,4.316,75.457,14.25,110.807,25.278c0.961,0.282,5.688,1.341,7.133-4.571c0.004-0.014,0.008-0.02,0.012-0.032
	c2.117-8.919,4.525-18.052,7.133-26.133c1.021-2.2,1.813-4.469,2.342-6.801c0.002-0.01,0.006-0.02,0.008-0.028l-0.002-0.001
	C368.596,183.576,368.871,181.221,368.871,178.823z"/>
<path fill="#3D8ACA" d="M325.758,128.791l0.002-0.002l-0.043-0.014c-0.344-0.122-0.676-0.222-0.99-0.303l-5.666-1.734
	c-10.951-3.325-13.564,4.628-13.564,4.628l25.143,6.294C331.637,132.053,328.398,129.744,325.758,128.791z"/>
<path fill="#D7D3CF" d="M130.145,166.932c1.543,2.177-7.92-17.715,7.127-24.051c15.047-6.334,40.205-21.423,41.287-32.094
	s-6.045-29.281-30.992-28.094s19.404,7.086,11.484,28.094S104.803,131.189,130.145,166.932z"/>
</svg>
