<?xml version="1.0" encoding="utf-8"?>
<!-- Generator: Adobe Illustrator 16.0.0, SVG Export Plug-In . SVG Version: 6.00 Build 0)  -->
<!DOCTYPE svg PUBLIC "-//W3C//DTD SVG 1.1//EN" "http://www.w3.org/Graphics/SVG/1.1/DTD/svg11.dtd">
<svg version="1.1" id="Layer_1" xmlns="http://www.w3.org/2000/svg" xmlns:xlink="http://www.w3.org/1999/xlink" x="0px" y="0px"
	 width="70px" height="70px" viewBox="0 0 644.59 658.395" enable-background="new 0 0 644.59 658.395"
	 xml:space="preserve">
<path fill="#8BC483" d="M263.01,150.601c-37.564,0-68.017,30.452-68.017,68.018c0,0.259,0.017,0.514,0.02,0.772
	c-0.005,0.032-0.02,0.062-0.02,0.097v28.282c5.05,8.937,12.366,25.04,9.904,39.953h125.832v-62.852
	c0.188-2.061,0.298-4.144,0.298-6.253C331.027,181.053,300.576,150.601,263.01,150.601z"/>
<path fill="#E52625" d="M286.386,457.443l0.492,164.744c0,0-57.584,0.584-46.666,11.417c0,0,5.084,1.75,11.416,0
	c0,0-9.168,7,4.416,4.583s7.335-1.333,7.335-1.333s-2.5,6.416,8.5,3.666s20.749-10,20.749-10s42,0.083,25.166-5.75
	c-16.832-5.833-23-2.824-23-2.824l0.258-161.753"/>
<path fill="#E52625" d="M327.708,461.883l0.641,175.638c0,0-57.584,0.584-46.666,11.417c0,0,5.084,1.75,11.416,0
	c0,0-9.167,7,4.416,4.583c13.584-2.417,7.334-1.333,7.334-1.333s-2.5,6.416,8.5,3.666s20.75-10,20.75-10s42,0.083,25.166-5.75
	c-16.832-5.833-23-2.824-23-2.824l-0.557-175.396"/>
<path fill="#FACD4E" d="M259.247,437.524c0,0,23.332,48.258,52,8.925c28.665-39.333-18.314-27.333-18.314-27.333"/>
<path fill="#8BC483" d="M297.247,437.524c0,0,24,39.593,41.334,26.259c17.331-13.334,24.666-52,24.666-52"/>
<path fill="#8BC483" d="M369.099,322.882c-7.359-2.188-14.548-3.661-14.548-3.661l0.084-0.076c-1.607-0.409-3.13-0.87-4.562-1.382
	c-1.814-0.409-3.627-0.795-5.433-1.149v-1.235c-13.446-7.138-16.866-19.552-16.951-30.105H208.902v90.695
	c0,0.254,0.114,0.478,0.288,0.637c1.981,22.206,14.638,41.328,32.794,52.228l-0.008,0.016c0,0,103.045,66.994,195.711-77.225
	C437.688,351.623,405.298,334.066,369.099,322.882z"/>
<path fill="#8BC483" d="M244.559,153.135c-23.084,8.897-31.264-2.534-31.264-2.534c-4.827,12.444,13.192,17.529,13.192,17.529"/>
<circle fill="#D61516" cx="266.064" cy="218.473" r="29.18"/>
<circle fill="#FFFFFF" cx="266.065" cy="218.473" r="22.308"/>
<g>
	<circle fill="#010102" cx="260.236" cy="214.18" r="11.697"/>
	<circle fill="#FFFFFF" cx="257.808" cy="212.004" r="4.93"/>
</g>
<path fill="#FFDF7B" d="M265.127,368.36v-19.412h-56.225v27.023c0,0.253,0.114,0.478,0.288,0.636
	c1.981,22.207,14.638,41.329,32.794,52.228l-0.008,0.017c0,0,39.533,25.697,91.646,10.992
	C271.813,436.22,265.613,383.714,265.127,368.36z"/>
<path fill="#FFDF7B" d="M265.04,376.985v-35.75h-0.087c-1.183-17.493-15.737-31.318-33.527-31.318c-8.706,0-16.639,3.31-22.61,8.739
	v58.329H265.04z"/>
<path fill="#8BC483" d="M364.632,321.729c-3.122-0.807-6.314-1.587-8.125-2.024c-0.301-0.069-0.597-0.142-0.893-0.215
	c-0.386-0.092-0.605-0.145-0.605-0.145l0.015-0.01c-10.239-2.686-16.063-7.736-16.063-7.736l4.862,14.193l12.163,14.193
	C355.985,339.985,371.002,326.147,364.632,321.729z"/>
<path fill="#FFDF7B" d="M371.411,230.78c26.696-18.446,65.82-41.046,112.455-54.647c89.053-25.975-22.262,82.848-22.262,82.848
	c77.92-2.957-36.642,62.789-36.642,62.789c30.612,11.131,0,33.394,0,33.394c-8.907,6.95-17.855,11.255-26.433,13.724
	c-0.488,0.149-1.637,0.484-3.354,0.876c-4.193,0.989-8.281,1.555-12.215,1.794c-18.472,1.388-50.105-1.85-78.582-32.202l0.012-0.009
	c-5.627-5.505-9.604-11.563-10.301-17.976l-0.01,0.012c-0.008-0.088-0.008-0.176-0.016-0.265c-0.041-0.439-0.066-0.88-0.076-1.322
	c-0.009-0.225-0.012-0.45-0.016-0.676c0-0.039,0-0.08,0-0.12C293.625,279.642,371.309,230.844,371.411,230.78z"/>
<path fill="#8BC483" d="M374.872,363.044c0,0,30.609-22.263,0-33.395c0,0,114.561-65.746,36.641-62.789
	c0,0,73.861-72.208,53.111-84.943c6.258-2.237,12.674-4.337,19.242-6.252c89.053-25.974-22.262,82.848-22.262,82.848
	c77.92-2.957-36.642,62.788-36.642,62.788c30.612,11.132,0,33.395,0,33.395c-8.907,6.949-17.855,11.254-26.433,13.723
	c-0.488,0.151-1.637,0.484-3.354,0.876c-4.193,0.99-8.281,1.556-12.215,1.795c-5.463,0.41-12.082,0.416-19.426-0.565
	C367.3,368.465,371.09,365.993,374.872,363.044z"/>
<g>
	<path fill="#E62C29" d="M218.829,253.042c0,0-63.373-34.118-104.023,34.565c0,0,61.255-34.87,94.848,10.832
		C209.653,298.439,226.29,282.346,218.829,253.042z"/>
	<path fill="#EB5C5D" d="M220.754,267.344c-0.048-4.306-0.604-9.019-1.909-14.147c0,0-62.822-34.158-103.472,34.526
		c0,0,0.729-0.415,2.071-1.096C156.067,243.801,208.459,262.238,220.754,267.344z"/>
</g>
</svg>
