<?xml version="1.0" encoding="utf-8"?>
<!-- Generator: Adobe Illustrator 16.0.0, SVG Export Plug-In . SVG Version: 6.00 Build 0)  -->
<!DOCTYPE svg PUBLIC "-//W3C//DTD SVG 1.1//EN" "http://www.w3.org/Graphics/SVG/1.1/DTD/svg11.dtd">
<svg version="1.1" id="Layer_1" xmlns="http://www.w3.org/2000/svg" xmlns:xlink="http://www.w3.org/1999/xlink" x="0px" y="0px"
	 width="70px" height="70px" viewBox="0 0 644.59 658.395" enable-background="new 0 0 644.59 658.395"
	 xml:space="preserve">
<path fill="#FFE401" d="M180.32,107.418c0,0,62.854-4.754,73.281,5.122c10.428,9.874-22.453-111.135-127.459-52.418L180.32,107.418z
	"/>
<path fill="#FBBC3E" d="M169.723,114.022c0,0,11.24,62.023,23.424,69.625c12.184,7.604-113.207,6.278-82.846-110.135
	L169.723,114.022z"/>
<path fill="#A14996" d="M254.102,574.514c0,0,29.158,61.193,63.76,13.717c34.602-47.476-22.104-32.992-22.104-32.992"/>
<path fill="#E52625" d="M281.891,603.292v19.813c0,0-58.508,0.594-47.416,11.601c0,0,5.166,1.778,11.6,0
	c0,0-9.314,7.113,4.488,4.657s7.451-1.354,7.451-1.354s-2.539,6.52,8.637,3.725c11.178-2.794,21.084-10.16,21.084-10.16
	s42.674,0.084,25.57-5.843s-23.371-2.87-23.371-2.87l0.764-16.773"/>
<path fill="#8BC483" d="M302.979,381.897l-41.334-64.666c0,0,80-140,147.334-200.667s12.041,148.011,12.041,148.011"/>
<path fill="#58AADF" d="M539.966,418.286c-25.345-3.495-71.011,8.538-71.011,8.538L360.09,473.002l-1.135-31.928l-9.469-5.219
	l58.32-53.958l-65.576,5.166c0.223-0.845,0.43-1.69,0.627-2.535l-31.492,4.075V263.492c-0.131-0.181-0.24-0.331-0.342-0.469v-78.229
	c0.217-2.372,0.342-4.77,0.342-7.197c0-0.2-0.014-0.397-0.016-0.598c0.242-2.564,0.379-5.161,0.379-7.789
	c0-45.234-36.67-81.903-81.904-81.903c-44.512,0-80.701,35.513-81.848,79.748h-0.07v223h0.055
	c-0.307,13.035,0.744,28.923,3.469,48.169c0.055,0.379,0.113,0.749,0.168,1.126c0.418,2.925,0.861,5.875,1.357,8.874l0.074-0.005
	c10.752,60.545,37.66,94.923,68.793,113.835c3.977,2.603,9.129,5.304,15.604,8.104c0.098,0.043,0.195,0.085,0.293,0.128
	c0.129,0.056,0.262,0.112,0.393,0.168c2.283,0.987,4.576,1.906,6.875,2.76c12.686,4.831,25.344,7.937,37.787,9.665
	c3.561,0.867,7.686,1.391,12.41,1.531c5.527,8.338,25.49,35.944,40.521,24.381c8.258-6.353,14.281-18.364,18.352-29.332
	c15.92-3.501,30.535-8.422,43.238-13.632C519.896,516.742,552.99,445.949,552.99,445.949l-0.004,0.001
	C572.49,414.522,539.966,418.286,539.966,418.286z"/>
<path fill="#BA76AF" d="M311.227,264.979v-6.487c-0.131-0.181-0.242-0.331-0.342-0.469v-78.229c0.217-2.372,0.342-4.77,0.342-7.197
	c0-0.2-0.014-0.397-0.016-0.598c0.242-2.564,0.379-5.161,0.379-7.789c0-45.234-36.67-81.903-81.904-81.903
	c-44.512,0-80.701,35.513-81.848,79.748h-0.07v102.925H311.227z"/>
<path fill="#EF7E81" d="M125.182,88.898c0,0-72.142,46.49-54.723,129.201c17.42,82.71-3.169,86.836-20.588,92.691
	c-17.419,5.854-18.211,31.193,17.421,25.65s42.757-41.043,42.757-59.717c0-18.672-47.583-118.448,42.469-166.911
	c0,0,6.822-12.697-4.758-19.526S125.182,88.898,125.182,88.898z"/>
<path fill="#E52625" d="M323.877,607.804l0.15,30.882c0,0-58.508,0.593-47.416,11.601c0,0,5.166,1.778,11.602,0
	c0,0-9.316,7.112,4.486,4.656c13.803-2.455,7.453-1.354,7.453-1.354s-2.541,6.52,8.635,3.726
	c11.178-2.795,21.084-10.161,21.084-10.161s42.676,0.084,25.57-5.843c-17.104-5.927-23.369-2.869-23.369-2.869l-0.066-30.637"/>
<g>
	<circle fill="#A14996" cx="239.385" cy="153.268" r="48.594"/>
	<circle fill="#FFFFFF" cx="239.384" cy="153.268" r="37.149"/>
	<g>
		<circle fill="#010102" cx="229.679" cy="147.181" r="19.479"/>
		<circle fill="#FFFFFF" cx="227.372" cy="142.267" r="8.211"/>
	</g>
</g>
<ellipse fill="#61B9E9" cx="155.989" cy="287.437" rx="26.847" ry="28.324"/>
<ellipse fill="#61B9E9" cx="302.204" cy="287.437" rx="26.847" ry="28.324"/>
<rect x="155.99" y="259.113" fill="#61B9E9" width="146.213" height="56.647"/>
<rect x="147.768" y="312.556" fill="#5264AC" width="163.598" height="8"/>
<rect x="222.832" y="259.113" opacity="0.5" fill="#5264AC" width="4.539" height="53.442"/>
<rect x="252.852" y="259.113" opacity="0.5" fill="#5264AC" width="4.539" height="53.442"/>
<rect x="283.439" y="259.113" opacity="0.5" fill="#5264AC" width="4.539" height="53.442"/>
<rect x="162.225" y="259.113" opacity="0.5" fill="#5264AC" width="4.539" height="53.442"/>
<rect x="192.244" y="259.113" opacity="0.5" fill="#5264AC" width="4.539" height="53.442"/>
<path fill="#61B9E9" d="M150.281,427.994c3.008,25.865,14.709,88.729,58.818,124.729c3.855,2.965,7.805,5.656,11.822,8.097
	c4.084,2.673,9.375,5.447,16.023,8.322c0.1,0.044,0.201,0.087,0.301,0.131c0.133,0.058,0.27,0.116,0.404,0.173
	c2.344,1.014,4.699,1.958,7.059,2.834c1.189,0.453,2.379,0.889,3.568,1.312c3.348,1.018,6.299,1.979,8.9,2.893
	c0.406,0.12,0.811,0.248,1.217,0.365c11.365-17.05,29.66-69.899-6.686-120.227c-39.137-54.19-88.695-35.798-101.289-29.974
	C150.471,427.054,150.408,427.51,150.281,427.994z"/>
<path fill="#BA76AF" d="M154.254,455.932c0.043,0.299,0.09,0.602,0.133,0.9c7.402,35.107,24.91,84.567,66.004,107.144
	c2.064,1.058,4.344,2.132,6.871,3.225c0.082,0.036,0.166,0.073,0.248,0.109c0.109,0.047,0.223,0.096,0.334,0.143
	c1.943,0.84,3.895,1.622,5.848,2.347c1.582,0.602,3.672,1.146,5.252,1.688c4.803,1.475,35.109-50.939-0.545-100.308
	c-35.725-49.47-85.045-21.87-85.045-21.87c0.234,1.85,0.482,3.735,0.758,5.664C154.156,455.296,154.207,455.61,154.254,455.932z"/>
<path fill="#A14996" d="M154.254,455.928c0.043,0.299,0.09,0.602,0.133,0.9c0.014,0.068,0.031,0.14,0.045,0.208
	c6.818-3.402,44.918-20.299,79.07,7.93c-35.166-40.828-80.148-15.661-80.148-15.661c0.234,1.85,0.482,3.735,0.758,5.664
	C154.156,455.292,154.207,455.606,154.254,455.928z"/>
<rect x="177.623" y="419.108" transform="matrix(0.9982 -0.0602 0.0602 0.9982 -25.596 11.6173)" opacity="0.5" fill="#5264AC" width="4.539" height="22.496"/>
<rect x="210.083" y="425.181" transform="matrix(0.9307 0.3657 -0.3657 0.9307 174.1734 -47.4595)" opacity="0.5" fill="#5264AC" width="4.539" height="21.614"/>
<rect x="236.838" y="446.146" transform="matrix(0.7702 0.6379 -0.6379 0.7702 345.825 -47.705)" opacity="0.5" fill="#5264AC" width="4.539" height="19.729"/>
<rect x="253.257" y="471.171" transform="matrix(0.293 0.9561 -0.9561 0.293 640.5943 95.7919)" opacity="0.5" fill="#5264AC" width="4.54" height="19.727"/>
<polygon opacity="0.5" fill="#5264AC" points="255.17,515.146 254.553,510.035 273.195,511.021 272.969,515.554 "/>
<rect x="148.1" y="251.113" fill="#A14996" width="162.785" height="8"/>
<polygon opacity="0.5" fill="#5264AC" points="252.402,545.841 253.047,540.734 270.889,546.229 269.566,550.569 "/>
<polygon opacity="0.5" fill="#5264AC" points="243.398,569.51 244.066,564.41 261.406,569.751 260.084,574.092 "/>
<path fill="#61B9E9" d="M311.924,331.033c-35.775,0-64.777,29.003-64.777,64.777c0,35.776,29.002,64.778,64.777,64.778V331.033z"/>
<circle fill="#BA76AF" cx="316.32" cy="395.812" r="51.154"/>
<path fill="#A14996" d="M311.365,344.9c-25.926,2.493-46.199,24.332-46.199,50.911c0,4.069,0.488,8.021,1.387,11.816
	c0.936-26.81,19.703-49.083,44.813-55.314V344.9z"/>
<path fill="#FFDF7B" d="M388.418,284.045c38.375-26.513,94.607-58.997,161.642-78.548c128-37.334-32,119.083-32,119.083
	c112-4.251-52.668,90.25-52.668,90.25c44,16,0,48,0,48c-12.803,9.989-25.666,16.178-37.99,19.726
	c-0.705,0.216-2.354,0.695-4.824,1.259c-6.027,1.423-11.902,2.235-17.557,2.579c-26.549,1.995-72.02-2.659-112.949-46.286
	l0.014-0.013c-8.084-7.912-13.803-16.62-14.805-25.838l-0.014,0.017c-0.012-0.126-0.012-0.254-0.021-0.38
	c-0.061-0.631-0.098-1.265-0.111-1.9c-0.012-0.323-0.018-0.646-0.021-0.971c0-0.058,0-0.116,0-0.175
	C276.611,354.278,388.271,284.137,388.418,284.045z"/>
<path fill="#8BC483" d="M393.393,474.157c0,0,44-32,0-48c0,0,164.667-94.501,52.668-90.25c0,0,106.166-103.791,76.342-122.096
	c8.994-3.215,18.214-6.233,27.658-8.987c128-37.334-32,119.083-32,119.083c112-4.251-52.668,90.25-52.668,90.25c44,16,0,48,0,48
	c-12.803,9.989-25.666,16.178-37.99,19.726c-0.705,0.216-2.354,0.695-4.824,1.259c-6.027,1.423-11.902,2.235-17.557,2.579
	c-7.854,0.59-17.363,0.598-27.922-0.813C382.512,481.948,387.959,478.398,393.393,474.157z"/>
</svg>
