<?xml version="1.0" encoding="utf-8"?>
<!-- Generator: Adobe Illustrator 16.0.0, SVG Export Plug-In . SVG Version: 6.00 Build 0)  -->
<!DOCTYPE svg PUBLIC "-//W3C//DTD SVG 1.1//EN" "http://www.w3.org/Graphics/SVG/1.1/DTD/svg11.dtd">
<svg version="1.1" id="Layer_1" xmlns="http://www.w3.org/2000/svg" xmlns:xlink="http://www.w3.org/1999/xlink" x="0px" y="0px"
	 width="70px" height="70px" viewBox="0 0 644.59 658.395" enable-background="new 0 0 644.59 658.395"
	 xml:space="preserve">
<path fill="#58AADF" d="M310.595,382.18l-41.332-64.666c0,0,80-140,147.332-200.667c67.336-60.667,12.043,148.011,12.043,148.011"/>
<path fill="#E52625" d="M331.496,608.086l0.15,30.882c0,0-58.508,0.593-47.416,11.601c0,0,5.166,1.778,11.602,0
	c0,0-9.316,7.112,4.484,4.656c13.805-2.455,7.455-1.354,7.455-1.354s-2.541,6.52,8.633,3.726
	c11.178-2.795,21.084-10.161,21.084-10.161s42.676,0.084,25.57-5.843c-17.102-5.927-23.367-2.869-23.367-2.869l-0.066-30.637"/>
<path fill="#FACD4E" d="M261.718,574.796c0,0,29.16,61.193,63.762,13.717c34.602-47.476-22.104-32.992-22.104-32.992"/>
<path fill="#E52625" d="M289.509,603.574v19.813c0,0-58.508,0.594-47.416,11.601c0,0,5.164,1.778,11.598,0
	c0,0-9.313,7.113,4.488,4.657c13.805-2.456,7.451-1.354,7.451-1.354s-2.537,6.52,8.637,3.725
	c11.178-2.794,21.084-10.16,21.084-10.16s42.676,0.084,25.57-5.843c-17.102-5.927-23.371-2.87-23.371-2.87l0.766-16.773"/>
<path fill="#FFDF7B" d="M547.585,418.568c-25.346-3.495-71.014,8.538-71.014,8.538l-108.863,46.178l-1.137-31.928l-9.469-5.219
	l58.322-53.958l-65.578,5.166c0.225-0.845,0.43-1.69,0.627-2.535l-31.492,4.075V263.774c-0.131-0.181-0.242-0.331-0.342-0.469
	v-78.229c0.217-2.372,0.342-4.77,0.342-7.197c0-43.238-35.051-78.29-78.291-78.29c-43.236,0-78.287,35.052-78.287,78.29
	c0,0.298,0.018,0.591,0.021,0.889c-0.004,0.038-0.021,0.071-0.021,0.111v151.667c-4.053,16.829-6.641,36.212-6.791,58.387
	c-0.418,13.291,0.609,29.635,3.436,49.573c0.055,0.379,0.113,0.749,0.168,1.126c0.418,2.925,0.861,5.875,1.355,8.874l0.074-0.005
	c10.752,60.545,37.66,94.923,68.793,113.835c3.979,2.603,9.129,5.304,15.605,8.104c0.098,0.043,0.195,0.085,0.293,0.128
	c0.129,0.056,0.262,0.112,0.391,0.168c2.283,0.987,4.578,1.906,6.875,2.76c12.686,4.831,25.344,7.937,37.787,9.665
	c3.563,0.867,7.686,1.391,12.412,1.531c5.527,8.338,25.49,35.944,40.521,24.381c8.258-6.353,14.279-18.364,18.35-29.332
	c15.922-3.501,30.537-8.422,43.238-13.632c122.604-49.084,155.695-119.877,155.695-119.877l-0.004,0.001
	C580.107,414.805,547.585,418.568,547.585,418.568z"/>
<path fill="#FACD4E" d="M158.195,432.092c0,0,57.979-32.445,99.979,25.711c41.916,58.038,6.287,119.654,0.641,117.921
	c-1.857-0.635-4.316-1.275-6.172-1.982c-2.301-0.854-4.592-1.772-6.875-2.76c-0.133-0.056-0.266-0.112-0.395-0.168
	c-0.098-0.043-0.193-0.085-0.291-0.128c-6.475-2.8-11.627-5.501-15.604-8.104c-31.133-18.912-58.043-53.29-68.795-113.835
	l-0.072,0.005c-0.496-2.999-0.941-5.949-1.357-8.874c-0.055-0.377-0.115-0.747-0.168-1.126
	C158.763,436.483,158.47,434.268,158.195,432.092L158.195,432.092z"/>
<path fill="#61B9E9" d="M396.037,284.327c38.371-26.513,94.607-58.997,161.641-78.548c128-37.334-32,119.083-32,119.083
	c112-4.251-52.666,90.25-52.666,90.25c44,16,0,48,0,48c-12.803,9.989-25.666,16.178-37.992,19.726
	c-0.703,0.216-2.354,0.695-4.822,1.259c-6.027,1.423-11.902,2.235-17.559,2.579c-26.549,1.995-72.018-2.659-112.947-46.286
	l0.014-0.013c-8.088-7.912-13.805-16.62-14.805-25.838l-0.014,0.017c-0.014-0.126-0.014-0.254-0.023-0.38
	c-0.061-0.631-0.096-1.265-0.109-1.9c-0.014-0.323-0.018-0.646-0.021-0.971c0-0.058-0.002-0.116,0-0.175
	C284.23,354.561,395.89,284.419,396.037,284.327z"/>
<path fill="#58AADF" d="M401.011,474.439c0,0,44-32,0-48c0,0,164.666-94.501,52.666-90.25c0,0,106.166-103.791,76.342-122.096
	c8.996-3.215,18.217-6.233,27.658-8.987c128-37.334-32,119.083-32,119.083c112-4.251-52.666,90.25-52.666,90.25c44,16,0,48,0,48
	c-12.803,9.989-25.666,16.178-37.992,19.726c-0.703,0.216-2.354,0.695-4.822,1.259c-6.027,1.423-11.902,2.235-17.559,2.579
	c-7.852,0.59-17.363,0.598-27.92-0.813C390.128,482.23,395.576,478.681,401.011,474.439z"/>
<circle fill="#EB6121" cx="237.321" cy="286.152" r="43.021"/>
<circle fill="#FFFFFF" cx="237.321" cy="286.152" r="32.89"/>
<circle fill="#010102" cx="228.728" cy="293.634" r="17.246"/>
<circle fill="#FFFFFF" cx="226.444" cy="297.87" r="7.271"/>
<path fill="#EB6121" d="M204.777,290.678l64.889-26.904c0,0-20.482-20.783-33.969-12.756c-13.486,8.026-33.242-1.109-37.465,33.832"
	/>
<g>
	<path fill="#E62C29" d="M171.982,292.557c0,0-87.668-47.198-143.902,47.816c0,0,84.738-48.238,131.209,14.984
		C159.289,355.357,182.302,333.094,171.982,292.557z"/>
	<path fill="#EB5C5D" d="M175.406,312.287c-0.066-5.957-0.834-12.477-2.637-19.571c0,0-87.672-47.199-143.904,47.816
		c0,0,1.008-0.574,2.865-1.516C85.158,279.772,158.4,305.224,175.406,312.287z"/>
</g>
<circle fill="#FACD4E" cx="192.608" cy="150.042" r="11.823"/>
<circle fill="#FACD4E" cx="240.275" cy="124.608" r="18.822"/>
<circle fill="#FACD4E" cx="204.431" cy="124.608" r="6.734"/>
<circle fill="#FACD4E" cx="221.452" cy="161.864" r="13.224"/>
<path fill="#FACD4E" d="M514.085,502.375c-164.23,14.9-135.852,66.97-131.688,73.385c7.578-2.399,14.736-5.032,21.361-7.75
	C454.578,547.664,490.005,523.592,514.085,502.375z"/>
<path fill="#5264AC" d="M354.75,47.657c-7.346-4.375-39.469-22.107-79.328-23.26l-0.027-0.061
	c-85.627-3.242-93.303,46.983-93.303,46.983c-8.094,27.986,16.236,55.75,16.236,55.75l0.732,0.795c0.73,1.886,2.551,3.23,4.693,3.23
	c2.785,0,5.041-2.256,5.041-5.04c0-1.304-0.508-2.478-1.316-3.373l0.006-0.011c0,0-22.25-32.077,2.336-59.563
	c0.029-0.039,1.854-2.61,6.178-5.945c2.438-2.041,5.172-4.041,8.252-5.979c2.637-1.223,5.527-2.245,8.615-3.092
	c19.781-7.313,54.242-11.097,110.629,7.024c3.127,0.714,5.596,1.312,7.234,1.717c0.693,0.362,1.473,0.587,2.313,0.587
	c2.783,0,5.041-2.256,5.041-5.04C358.082,50.201,356.687,48.36,354.75,47.657z"/>
<path fill="#5264AC" d="M310.898,91.591c-3.479-2.071-18.686-10.468-37.559-11.013l-0.012-0.029
	c-40.543-1.534-44.176,22.245-44.176,22.245c-3.832,13.251,7.686,26.396,7.686,26.396l0.348,0.377
	c0.346,0.893,1.207,1.529,2.223,1.529c1.318,0,2.387-1.068,2.387-2.386c0-0.617-0.24-1.174-0.625-1.598l0.004-0.005
	c0,0-10.535-15.188,1.105-28.201c0.014-0.019,0.877-1.235,2.926-2.814c1.154-0.967,2.447-1.913,3.906-2.831
	c1.248-0.578,2.617-1.063,4.08-1.463c9.363-3.463,25.682-5.255,52.377,3.325c1.482,0.338,2.65,0.621,3.426,0.813
	c0.33,0.172,0.697,0.278,1.096,0.278c1.318,0,2.385-1.068,2.385-2.387C312.474,92.795,311.816,91.924,310.898,91.591z"/>
<path fill="#5264AC" d="M160.73,76.691c-2.361,3.288-12.039,17.716-14.207,36.472l-0.029,0.009
	c-5.021,40.26,18.355,45.928,18.355,45.928c12.871,4.959,26.959-5.384,26.959-5.384l0.406-0.314c0.92-0.267,1.627-1.07,1.717-2.081
	c0.111-1.313-0.859-2.47-2.172-2.583c-0.615-0.054-1.189,0.139-1.646,0.484l-0.006-0.003c0,0-16.037,9.187-28-3.531
	c-0.018-0.017-1.154-0.982-2.551-3.158c-0.865-1.233-1.695-2.604-2.484-4.136c-0.469-1.294-0.834-2.699-1.105-4.19
	c-2.645-9.629-3.025-26.039,7.824-51.896c0.463-1.447,0.848-2.587,1.105-3.344c0.199-0.313,0.336-0.671,0.373-1.067
	c0.113-1.312-0.861-2.469-2.174-2.583C162.066,75.225,161.142,75.806,160.73,76.691z"/>
</svg>
