<?xml version="1.0" encoding="utf-8"?>
<!-- Generator: Adobe Illustrator 16.0.0, SVG Export Plug-In . SVG Version: 6.00 Build 0)  -->
<!DOCTYPE svg PUBLIC "-//W3C//DTD SVG 1.1//EN" "http://www.w3.org/Graphics/SVG/1.1/DTD/svg11.dtd">
<svg version="1.1" id="Layer_1" xmlns="http://www.w3.org/2000/svg" xmlns:xlink="http://www.w3.org/1999/xlink" x="0px" y="0px"
	 width="582px" height="652px" viewBox="0 0 582 652" enable-background="new 0 0 582 652" xml:space="preserve">
<g>
	<path fill="#E52625" d="M288.058,571.559l2.126,30.544c0,0-36.152,10.156-23.006,22.426c0,0,2.321,3.673,20.106-6.572
		c0,0-4.446,16.237,2.899,14.305c0,0,8.893-0.579,10.053-10.825c0,0,13.534,22.23,21.266,13.145c0,0,13.92-5.604-15.66-32.283
		l-2.125-30.738"/>
	<path fill="#E52625" d="M218.67,571.559l2.127,30.544c0,0-36.151,10.156-23.006,22.426c0,0,2.32,3.673,20.105-6.572
		c0,0-4.446,16.237,2.9,14.305c0,0,8.892-0.579,10.053-10.825c0,0,13.533,22.23,21.266,13.145c0,0,13.919-5.604-15.658-32.283
		l-2.129-30.738"/>
	<path fill="#F8AB12" d="M447.648,477.919c0,0-21.429-52.472-67.453-95.725c-11.268-11.63-25.085-22.234-41.008-30.926
		c-0.784-0.428-1.574-0.822-2.362-1.238c-0.202-0.113-0.397-0.23-0.599-0.342l-0.025,0.016
		c-14.363-7.498-29.047-12.746-43.354-15.797c-0.836-0.26-1.848-0.477-3.066-0.643c-0.067-0.01-0.128-0.021-0.193-0.029
		c-2.09-0.398-4.17-0.756-6.238-1.062c-8.463-1.704-14.658-4.104-18.615-5.993c-0.706-0.365-1.421-0.721-2.136-1.073
		c-38.342-22.06-44.587-55.72-45.198-72.008c0.174-2.086,0.285-4.191,0.285-6.324c0-0.874-0.035-1.737-0.066-2.602
		c0.039-0.362,0.066-0.56,0.066-0.56h-0.08c-1.658-39.605-34.276-71.209-74.29-71.209c-41.075,0-74.372,33.297-74.372,74.371
		c0,12.51,3.104,24.29,8.56,34.636l-0.011,0.004c0,0,0.012,0.012,0.031,0.035c2.217,4.198,4.824,8.156,7.773,11.83
		c9.287,17.129,21.922,52.522,8.309,104.271c-3.595,11.462-5.535,23.655-5.535,36.303c0,27.157,8.936,52.226,24.029,72.427h-0.001
		c0,0,76.499,130.407,289.152,48.704l49.491-39.028L447.648,477.919z"/>
	<path fill="#7591CA" d="M111.045,335.262c0,0,109.847-24.348,109.873-61.019c0,0,4.619,18.932,16.676,30.51
		c0,0-22.855,56.338-136.906,45.615"/>
	<path fill="#EB6121" d="M452.009,479.532c0,0-85.85-165.301-198.148-160.947c0,0-79.134-10.847-117.09,79.387
		c-0.028,0.068-0.062,0.133-0.091,0.201l0,0c0,0-6.691,15.845-3.23,42.562c1.851,10.069,5.353,21.454,11.04,34.331
		c0,0,29.55,101.468,318.372,102.265c0,0,97.436,10.075,98.596-15.443C561.457,561.887,575.709,542.168,452.009,479.532z"/>
	<circle fill="#EA571F" cx="146.702" cy="233.122" r="39.147"/>
	<circle fill="#FFFFFF" cx="146.703" cy="233.122" r="30.593"/>
	<circle fill="#010102" cx="137.228" cy="226.799" r="16.042"/>
	<polyline fill="#EA571F" points="173.123,208.123 113.318,226.021 116.285,213.325 127.771,203.101 141.529,198.589 	"/>
	<path fill="#EB6121" d="M90.411,253.687l-0.495-0.376l-0.002-0.001l-27.229-20.652c0,0-45.803-3.616-40.982,41.585l57.83-1.957l0,0
		h0.004l0.816-0.028c1.426-0.143,4.409-0.892,6.456-4.533c0.11-0.197,0.212-0.36,0.313-0.507l4.503-7.272
		C93.694,256.922,91.47,254.565,90.411,253.687z"/>
	<g>
		<g>
			<path fill="#F8AB12" d="M210.02,545.133c3.225,0,3.225-5,0-5S206.795,545.133,210.02,545.133L210.02,545.133z"/>
		</g>
	</g>
	<path fill="#FFDF7B" d="M379.854,533.354c0,0,112.706,32.493,68.908-64.757c0,0-22.092-38.159-25.994-37.938"/>
	<path fill="#F8AB12" d="M303.098,537.151c0,0,69.126,31.554,84.152-12.773c0,0,33.813-4.509,32.309-30.806
		c0,0,21.037-7.999,19.534-37.058c0,0-5.259-17.416-30.054-40.896"/>
	<path fill="#EB6121" d="M271.211,556.117c0,0,24.733,0.014,29.34-19.311c0,0,44.795,2.33,46.717-27.777
		c0,0,40.33-2.33,44.865-40.075c0,0,27.475,4.271,23.962-45.584c0,0-13.583-27.234-31.263-39.258
		c-3.982-2.709-4.925,0.043-9.678-2.129c-25.859-11.822-13.521,29.054-13.521,29.054l-64.905,68.208l-63.24,31.239l-34.182,17.997
		c-1.789-1.366,8.943,4.84,25.843,12.142C242.049,547.924,265.115,556.319,271.211,556.117z"/>
	<path fill="#FFDF7B" d="M389.834,389.937c-5.414-6.959-26.606-25.16-26.606-25.16c-4.56,32.859-12.3,32.729-15.032,31.536
		c0,0-1.399,4.332-3.018,9.034c-0.992,3.52-2.211,6.726-3.576,9.669c-0.238,0.558-0.455,1.022-0.638,1.362
		c-0.005,0.012-0.013,0.018-0.018,0.029c-10.865,21.941-30.357,27.756-30.357,27.756c-14.167,29.896-55.201,39.428-55.201,39.428
		c-22.392,27.565-82.396,27.948-82.396,27.948c2.933,3.197,10.095,7.814,17.391,12.084l0.557,0.386l1.648,0.894
		c9.236,5.306,30.647,14.91,30.647,14.91c51.037-0.773,52.926-33.108,52.926-33.108c51.028,3.046,57.224-40.985,57.224-40.985
		c47.172,1.546,40.211-45.624,40.211-45.624C389.834,427.055,395.247,396.896,389.834,389.937z"/>
	<path fill="#FFDF7B" d="M83.267,228.011l0.001-0.002l-9.031-4.342c-0.848-0.629-1.808-1.091-2.834-1.363l-0.027-0.012l-0.002,0.006
		c-0.65-0.17-1.328-0.27-2.028-0.27c-4.806,0-8.699,4.241-8.699,9.472c0,3.935,2.204,7.308,5.341,8.74l0,0l10.348,5.12l0,0
		c1.135,0.589,2.399,0.929,3.74,0.929c4.806,0,8.699-4.241,8.699-9.472C88.773,232.814,86.49,229.397,83.267,228.011z"/>
	<path fill="#7591CA" d="M103.527,340.116c0,0-86.482,71.882-51.773,124.412c34.707,52.527,120.131-45.484,188.625,46.873h60.172
		l-17.727-60.314c0,0-66.485-64.098-148.779-25.328c-82.291,38.77-72.982-21.32-13.162-85.643"/>
	<path fill="#8CC47E" d="M228.162,467.979"/>
	<path fill="#4859A4" d="M116.682,351.462c0,0-9.846-14.084,2.213-17.268c0,0-1.488-5.58-4.703-5.887s-11.227,4.781-12.307,2.248
		c-1.08-2.535-20.848,2.52-9.73,20.713C92.154,351.269,102.162,357.868,116.682,351.462z"/>
	<path fill="#4859A4" d="M255.388,431.684l11.497,79.718h33.666l-17.727-60.314C282.824,451.087,261.761,435.044,255.388,431.684z"
		/>
	<path fill="#4859A4" d="M240.379,511.401l-9.284-90.64c0,0-17.528-6.532-31.981-6.966l6.393,65.966
		C205.506,479.762,219.605,485.761,240.379,511.401z"/>
	<path fill="#4859A4" d="M172.992,413.796l6.053,57.107c0,0-23.89-1.049-29.979-0.265l-5.763-48.84
		C143.303,421.799,166.931,413.938,172.992,413.796z"/>
	<path fill="#4859A4" d="M120.225,431.684l5.206,42.92c0,0-12.323,3.815-25.976,5.119l-4.944-41.136
		C94.511,438.587,106.4,437.61,120.225,431.684z"/>
	<path fill="#4859A4" d="M77.172,431.684l-16.526,42.454c0,0-17.566-9.702-17.079-35.551l30.608-17.726L77.172,431.684z"/>
	<path fill="#4859A4" d="M50.815,406.476l29.945-9.979l8.013-14.886l-16.026-9.716C72.747,371.896,55.84,392.422,50.815,406.476z"/>
</g>
</svg>
