<?xml version="1.0" encoding="utf-8"?>
<!-- Generator: Adobe Illustrator 16.0.0, SVG Export Plug-In . SVG Version: 6.00 Build 0)  -->
<!DOCTYPE svg PUBLIC "-//W3C//DTD SVG 1.1//EN" "http://www.w3.org/Graphics/SVG/1.1/DTD/svg11.dtd">
<svg version="1.1" id="Layer_1" xmlns="http://www.w3.org/2000/svg" xmlns:xlink="http://www.w3.org/1999/xlink" x="0px" y="0px"
	 width="180px" height="83px" viewBox="0 0 365 169" enable-background="new 0 0 365 169" xml:space="preserve">
<g>
	<path fill="#FFFFFF" d="M101.44,122.293c0,23.105,18.731,41.836,41.838,41.836h171.313l0,0l0,0
		c23.104,0,41.836-18.73,41.836-41.836c0-23.107-18.731-41.837-41.836-41.837l0,0l0,0h-11.154c0.086-1.101,0.145-2.209,0.145-3.332
		c0-23.106-18.731-41.836-41.836-41.836c-3.563,0-7.021,0.449-10.324,1.287c-8.769-18.933-27.926-32.073-50.162-32.073
		c-30.523,0-55.266,24.743-55.266,55.266c0,7.317,1.434,14.296,4.018,20.688h-6.733C120.172,80.456,101.44,99.188,101.44,122.293z"
		/>
	<path fill="#CCE6E1" d="M255.951,118.711c0.975-12.152,7.207-23.779,18.032-31.23c8.901-6.127,19.33-8.345,29.261-7.038
		c0.102-0.587,0.161-1.177,0.24-1.766l0.029,0.002v-0.223c0.058-0.444,0.138-0.886,0.182-1.331
		c-0.061-0.025-0.121-0.045-0.182-0.069v-2.712c0,0-8.704-1.446-18.608,0.372c-4.282,0.619-8.5,2.042-12.438,4.304
		c-0.108,0.061-0.221,0.116-0.33,0.179h0.008c-0.725,0.426-1.439,0.875-2.143,1.358C257.375,89.248,252.191,104.706,255.951,118.711
		z"/>
	<path fill="none" stroke="#074060" stroke-width="10" stroke-linecap="round" stroke-linejoin="round" stroke-miterlimit="10" d="
		M192.217,120.755c-47.172,0-12.496-19.512-12.496-19.512s-8.1,0.417-12.108-9.318c-4.008-9.734,24.604-7.862,24.604-7.862"/>
	<path fill="#CCE6E1" d="M248.366,30.881c-15.978,7.944-8.88,25.553-8.88,25.553c0-13.945,12.299-19.946,12.299-19.946
		L248.366,30.881z"/>
	<path fill="#074060" d="M172.323,36.749v23.154c0,4.086,3.312,7.399,7.397,7.399c4.089,0,7.4-3.313,7.4-7.399V39.458
		c0,0-0.584-3.629-3.9-4.191l-8.532-1.444C173.637,33.819,172.323,34.297,172.323,36.749z"/>
	<path fill="#074060" d="M202.205,40.834v18.963c0,4.087,3.312,7.399,7.398,7.399s7.398-3.312,7.398-7.399v-24.42
		c0,0-0.33-3.278-3.949-2.087l-1.064,0.351l-6.793,2.236C204.491,36.136,202.205,37.251,202.205,40.834z"/>
	<path fill="none" stroke="#074060" stroke-width="16" stroke-linecap="round" stroke-linejoin="round" stroke-miterlimit="10" d="
		M42.375,56.056c0.416,36.221,35.5,33.542,35.5,33.542h68.696"/>
	
		<line fill="none" stroke="#074060" stroke-width="16" stroke-linecap="round" stroke-linejoin="round" stroke-miterlimit="10" x1="46.851" y1="104.805" x2="141.543" y2="104.805"/>
	<path fill="none" stroke="#074060" stroke-width="16" stroke-linecap="round" stroke-linejoin="round" stroke-miterlimit="10" d="
		M9.551,151.316c0.377-32.914,32.259-30.479,32.259-30.479h62.421"/>
	<g>
		<g>
			<path fill="#FFFFFF" d="M51.406,79.686c-7.369-6.75-11.176-16.409-11.318-28.709c-0.033-2.759,2.178-5.021,4.938-5.053
				c0.019,0,0.038,0,0.058,0c2.732,0,4.965,2.2,4.996,4.939c0.106,9.395,2.805,16.598,8.021,21.406
				c8.727,8.046,21.986,7.219,22.102,7.213c0.127-0.01,0.254-0.015,0.381-0.015h68.696c2.761,0,4.996,2.237,4.996,4.996
				c0,2.76-2.235,4.996-4.996,4.996H80.744c-0.314,0.018-0.918,0.045-1.757,0.045C74.08,89.504,61.127,88.59,51.406,79.686z"/>
			<path fill="#FFFFFF" d="M44.564,99.671c0-2.759,2.236-4.996,4.996-4.996h94.691c2.76,0,4.996,2.237,4.996,4.996
				s-2.236,4.996-4.996,4.996H49.56C46.801,104.667,44.564,102.43,44.564,99.671z"/>
			<path fill="#FFFFFF" d="M12.203,151.803c-2.76-0.031-4.971-2.294-4.939-5.054c0.131-11.308,3.641-20.194,10.434-26.418
				c10.441-9.562,24.926-9.112,26.977-8.998h62.267c2.759,0,4.996,2.235,4.996,4.996c0,2.759-2.237,4.996-4.996,4.996H44.519
				c-0.115,0-0.248-0.007-0.363-0.015c-0.118-0.008-11.983-0.738-19.761,6.438c-4.641,4.28-7.041,10.712-7.139,19.114
				c-0.03,2.74-2.262,4.939-4.994,4.939C12.244,151.803,12.223,151.803,12.203,151.803z"/>
		</g>
	</g>
</g>
</svg>
