<?xml version="1.0" encoding="utf-8"?>
<!-- Generator: Adobe Illustrator 16.0.0, SVG Export Plug-In . SVG Version: 6.00 Build 0)  -->
<!DOCTYPE svg PUBLIC "-//W3C//DTD SVG 1.1//EN" "http://www.w3.org/Graphics/SVG/1.1/DTD/svg11.dtd">
<svg version="1.1" id="Layer_1" xmlns="http://www.w3.org/2000/svg" xmlns:xlink="http://www.w3.org/1999/xlink" x="0px" y="0px"
	 width="180px" height="83px" viewBox="0 0 365 169" enable-background="new 0 0 365 169" xml:space="preserve">
<g>
	<path fill="#FFFFFF" d="M220.413,80.456h-6.733c2.583-6.392,4.018-13.371,4.018-20.688c0-30.523-24.743-55.266-55.266-55.266
		c-22.236,0-41.394,13.14-50.162,32.073c-3.303-0.838-6.761-1.287-10.324-1.287c-23.105,0-41.836,18.73-41.836,41.836
		c0,1.123,0.058,2.231,0.144,3.332H49.1l0,0h0c-23.105,0-41.836,18.73-41.836,41.837c0,23.105,18.731,41.836,41.836,41.836h0l0,0
		h171.313c23.106,0,41.838-18.73,41.838-41.836C262.251,99.187,243.52,80.456,220.413,80.456z"/>
	<path fill="#CCE6E1" d="M93.689,80.557c-0.702-0.483-1.418-0.932-2.142-1.358l0.007,0c-0.109-0.063-0.221-0.118-0.33-0.179
		c-3.938-2.262-8.156-3.685-12.438-4.304c-9.904-1.818-18.609-0.372-18.609-0.372v2.712c-0.06,0.024-0.121,0.044-0.181,0.069
		c0.044,0.445,0.124,0.887,0.181,1.331v0.223l0.03-0.002c0.079,0.589,0.138,1.179,0.24,1.766c9.931-1.308,20.36,0.91,29.261,7.037
		c10.825,7.452,17.057,19.079,18.032,31.231C111.5,104.706,106.316,89.248,93.689,80.557z"/>
	<path fill="none" stroke="#074060" stroke-width="10" stroke-linecap="round" stroke-linejoin="round" stroke-miterlimit="10" d="
		M171.475,84.063c0,0,28.612-1.872,24.604,7.862c-4.008,9.735-12.109,9.318-12.109,9.318s34.676,19.512-12.495,19.512"/>
	<path fill="#CCE6E1" d="M111.907,36.488c0,0,12.298,6.001,12.298,19.946c0,0,7.098-17.609-8.88-25.553L111.907,36.488z"/>
	<path fill="#074060" d="M189.003,33.823l-8.532,1.444c-3.316,0.562-3.901,4.191-3.901,4.191v20.445c0,4.087,3.312,7.399,7.4,7.399
		c4.086,0,7.398-3.313,7.398-7.399V36.749C191.368,34.297,190.054,33.819,189.003,33.823z"/>
	<path fill="#074060" d="M158.496,35.877l-6.793-2.236l-1.064-0.351c-3.619-1.191-3.95,2.087-3.95,2.087v24.42
		c0,4.087,3.312,7.399,7.399,7.399s7.399-3.312,7.399-7.399V40.834C161.486,37.251,159.2,36.136,158.496,35.877z"/>
	<path fill="none" stroke="#074060" stroke-width="16" stroke-linecap="round" stroke-linejoin="round" stroke-miterlimit="10" d="
		M217.12,89.598h68.697c0,0,35.084,2.68,35.5-33.542"/>
	
		<line fill="none" stroke="#074060" stroke-width="16" stroke-linecap="round" stroke-linejoin="round" stroke-miterlimit="10" x1="222.149" y1="104.805" x2="316.841" y2="104.805"/>
	<path fill="none" stroke="#074060" stroke-width="16" stroke-linecap="round" stroke-linejoin="round" stroke-miterlimit="10" d="
		M259.461,120.837h62.421c0,0,31.881-2.435,32.258,30.479"/>
	<g>
		<g>
			<path fill="#FFFFFF" d="M284.704,89.504c-0.839,0-1.442-0.027-1.756-0.045h-68.537c-2.76,0-4.996-2.237-4.996-4.996
				s2.236-4.996,4.996-4.996h68.697c0.127,0,0.254,0.005,0.38,0.015c0.116,0.006,13.376,0.833,22.102-7.213
				c5.216-4.808,7.915-12.011,8.022-21.406c0.031-2.739,2.263-4.939,4.995-4.939c0.02,0,0.039,0,0.058,0
				c2.76,0.032,4.971,2.294,4.939,5.053c-0.143,12.3-3.95,21.959-11.319,28.709C302.565,88.59,289.612,89.504,284.704,89.504z"/>
			<path fill="#FFFFFF" d="M314.132,104.667H219.44c-2.76,0-4.996-2.237-4.996-4.996s2.236-4.996,4.996-4.996h94.691
				c2.759,0,4.996,2.237,4.996,4.996S316.891,104.667,314.132,104.667z"/>
			<path fill="#FFFFFF" d="M351.429,151.803c-2.732,0-4.963-2.199-4.994-4.939c-0.097-8.403-2.498-14.834-7.138-19.115
				c-7.777-7.176-19.643-6.447-19.761-6.438c-0.115,0.008-0.248,0.014-0.363,0.014h-62.422c-2.759,0-4.996-2.237-4.996-4.996
				c0-2.76,2.237-4.996,4.996-4.996h62.266c2.052-0.115,16.535-0.564,26.977,8.998c6.793,6.223,10.303,15.11,10.434,26.418
				c0.031,2.76-2.18,5.022-4.939,5.054C351.468,151.803,351.448,151.803,351.429,151.803z"/>
		</g>
	</g>
</g>
</svg>
