<?xml version="1.0" encoding="utf-8"?>
<!-- Generator: Adobe Illustrator 16.0.0, SVG Export Plug-In . SVG Version: 6.00 Build 0)  -->
<!DOCTYPE svg PUBLIC "-//W3C//DTD SVG 1.1//EN" "http://www.w3.org/Graphics/SVG/1.1/DTD/svg11.dtd">
<svg version="1.1" id="Layer_1" xmlns="http://www.w3.org/2000/svg" xmlns:xlink="http://www.w3.org/1999/xlink" x="0px" y="0px"
	 width="500px" height="123px" viewBox="0 0 595 146" enable-background="new 0 0 595 146" xml:space="preserve">
<g>
	<path fill="#E84823" d="M351.589,69.559c0,0-5.79,35.66,4.229,34.547c10.021-1.113,56.777-14.332,56.777-14.332"/>
	<path fill="#E84823" d="M354.037,46.239c0,0-5.789-35.66,4.23-34.547c10.02,1.114,56.778,14.333,56.778,14.333"/>
	<path fill="#E84823" d="M436.951,107.191l18.437,27.4c0,0,1.254,5.012,18.289,5.012c17.036,0,31.566,0,31.566,0
		s8.77,2.254,11.273-11.275c2.507-13.527,4.761-23.299,4.761-23.299"/>
	<rect x="329.768" y="56.902" fill="#E84823" width="22.607" height="5.344"/>
	<polyline fill="#E84823" points="294.321,6.5 330.837,57.093 330.837,61.429 294.321,10.72 	"/>
	<path fill="#F8AB12" d="M584.092,79.336c4.279-5.422,6.854-12.253,6.854-19.697c0-7.444-2.574-14.276-6.855-19.698l0.023-0.013
		C556.421,3.953,481.767,7.014,481.767,7.014l0.015,0.012C411.864,7.71,353.145,45.896,347.455,49.709
		c-0.156,0.102-0.313,0.207-0.467,0.316l0,0l0,0c-3.005,2.139-4.975,5.644-4.975,9.614c0,3.97,1.97,7.475,4.975,9.614l0,0v0.001
		c0.106,0.074,0.209,0.152,0.316,0.225c0.162,0.112,0.397,0.275,0.683,0.469c13.426,10.607,72.027,51.225,168.462,38.787
		c8.075-0.674,15.955-1.958,23.511-3.968c0.024-0.005,0.052-0.01,0.077-0.015l-0.003-0.004c13.901-3.707,26.706-9.887,37.625-19.27
		c0.332-0.238,0.659-0.481,0.981-0.732c0.029-0.014,0.059-0.025,0.09-0.04l-0.024-0.01c1.973-1.545,3.76-3.311,5.319-5.272
		c0.029-0.029,0.058-0.057,0.088-0.087L584.092,79.336z"/>
	<path fill="#E84823" d="M590.945,59.329c0-7.444-2.574-14.276-6.855-19.698l0.023-0.013
		c-10.552-13.708-27.921-21.744-45.382-26.445c7.92,13.909,12.328,29.316,12.328,45.531c0,16.457-4.536,32.082-12.68,46.152
		c0.527-0.133,1.057-0.26,1.58-0.399c0.024-0.005,0.052-0.01,0.077-0.015l-0.003-0.004c13.901-3.707,26.706-9.887,37.625-19.27
		c0.332-0.238,0.659-0.481,0.981-0.732c0.029-0.014,0.059-0.025,0.09-0.04l-0.024-0.01c1.973-1.545,3.76-3.311,5.319-5.272
		c0.029-0.029,0.058-0.057,0.088-0.087l-0.021-0.001C588.371,73.604,590.945,66.772,590.945,59.329z"/>
	<path fill="#58AADF" d="M473.269,129.759c0,0.552-0.448,1-1,1h-11.035c-0.552,0-1-0.448-1-1v-11.035c0-0.552,0.448-1,1-1h11.035
		c0.552,0,1,0.448,1,1V129.759z"/>
	<path fill="#58AADF" d="M493.493,129.759c0,0.552-0.448,1-1,1h-11.035c-0.552,0-1-0.448-1-1v-11.035c0-0.552,0.448-1,1-1h11.035
		c0.552,0,1,0.448,1,1V129.759z"/>
	<path fill="#58AADF" d="M519.287,115.287h-13.813c0,0-4.624-0.388-4.624,2.446c0,2.835,0,12.081,0,12.081s-0.148,1.939,3.281,1.939
		c3.101,0,10.269,0,11.623,0c0.45-1.193,0.84-2.574,1.138-4.186C517.746,122.959,518.57,118.787,519.287,115.287z"/>
	<path opacity="0.1" fill="#FFFFFF" d="M483.02,7.014l0.015,0.012C413.117,7.71,354.397,45.896,348.708,49.709
		c-0.156,0.102-0.313,0.207-0.467,0.316c-1.709,1.216-3.065,2.885-3.933,4.819c39.935-15.638,174.097-61.542,246.487-4.546
		c-1.174-3.805-3.043-7.305-5.453-10.357l0.023-0.013C557.674,3.953,483.02,7.014,483.02,7.014z"/>
	<polygon fill="#A8D5F4" points="5.81,6.5 48.366,57.628 5.81,110.982 5.81,111.527 294.321,111.527 294.321,6.5 	"/>
	<g>
		<rect x="416.646" y="26.092" fill="none" width="109.942" height="74.154"/>
		
			<text transform="matrix(1 0 0 1 449.4175 95.4902)" fill="#E84823" stroke="#FFFFFF" stroke-width="4" stroke-miterlimit="10" font-family="'DOCK11-Heavy'" font-size="100">1</text>
	</g>
	<polyline fill="#E84823" points="294.321,111.831 330.837,61.237 330.837,56.902 294.321,107.61 	"/>
</g>
</svg>
