<?xml version="1.0" encoding="utf-8"?>
<!-- Generator: Adobe Illustrator 19.0.0, SVG Export Plug-In . SVG Version: 6.00 Build 0)  -->
<svg version="1.1" id="Laag_1" xmlns="http://www.w3.org/2000/svg" xmlns:xlink="http://www.w3.org/1999/xlink" x="0px" y="0px" width="300px" height="300px"
	 viewBox="0 0 1080 1920" style="enable-background:new 0 0 1080 1920;" xml:space="preserve">
<style type="text/css">
	.st0{fill:#020202;}
	.st1{fill:#FFA02A;}
	.st2{fill:#020100;}
</style>
<g id="XMLID_1032_">
	<circle id="XMLID_1044_" class="st0" cx="159" cy="1226.7" r="101.1"/>
	<path id="XMLID_1043_" class="st0" d="M635.3,578c0,55.8-45.3,101.1-101.1,101.1S433.2,633.9,433.2,578s45.3-101.1,101.1-101.1
		c31,0,58.7,13.9,77.3,35.9C626.4,530.4,635.3,553.2,635.3,578z"/>
	<circle id="XMLID_1042_" class="st0" cx="921" cy="1230.6" r="101.1"/>
	<polyline id="XMLID_1041_" class="st0" points="452.5,518.6 79.7,1164.1 887.2,1135.3 	"/>
	<path id="XMLID_1040_" class="st0" d="M72,1175.1"/>
	<polyline id="XMLID_1039_" class="st0" points="73,1173.6 95.2,1137.2 99.2,1173.6 	"/>
	<path id="XMLID_1038_" class="st0" d="M441.7,537.2l0.2-0.4c0,0,0,0.4,0,0.4C442,537.2,441.7,537.2,441.7,537.2z"/>
	<polyline id="XMLID_1037_" class="st0" points="441.2,538.1 443,534.5 443.2,538.1 441.2,538.2 	"/>
	<polyline id="XMLID_1036_" class="st0" points="159,1327.8 921,1331.7 790.3,1129.5 222.3,1147.1 159,1324.4 	"/>
	<polygon id="XMLID_1035_" class="st0" points="1005.5,1175.1 616,518.6 443.2,1164.1 	"/>
	<polyline id="XMLID_1034_" class="st0" points="548.3,636.4 592.3,761.4 592.3,641.4 794.3,1218.4 874.3,1209.4 556.3,622.4 	"/>
	<polyline id="XMLID_1033_" class="st0" points="621.6,527.1 632,545.3 633.6,548.2 607.6,551.7 618.1,521.6 602.1,546.8 	"/>
</g>
<g id="XMLID_998_">
	<g id="XMLID_1003_">
		<circle id="XMLID_1029_" class="st1" cx="173.7" cy="1230" r="49.7"/>
		<circle id="XMLID_1026_" class="st1" cx="906.3" cy="1229" r="49.7"/>
		<circle id="XMLID_1023_" class="st1" cx="532.2" cy="584.2" r="49.7"/>
		<polyline id="XMLID_1022_" class="st1" points="139.6,1193.9 487.6,562.2 576.8,562.2 941.9,1194.3 		"/>
		<polygon id="XMLID_1021_" class="st1" points="167.3,1279.8 906.3,1278.7 870.7,1194.3 196.2,1189.3 		"/>
		<path id="XMLID_1019_" class="st1" d="M125.6,1217.4"/>
		<polygon id="XMLID_1018_" class="st1" points="131.2,1204.2 168.2,1142 170.1,1183.5 		"/>
		<polygon id="XMLID_1004_" class="st1" points="950,1205.3 947.6,1201.5 932.7,1178.4 941.9,1206.8 		"/>
	</g>
	<polyline id="XMLID_1001_" class="st1" points="924.6,1164.3 937.3,1210.2 952.3,1210.2 927.1,1168.8 	"/>
	<polygon id="XMLID_1000_" class="st1" points="947.2,1200.9 932.3,1177.2 929.6,1206.8 	"/>
</g>
<g id="XMLID_314_">
	<g id="XMLID_326_">
		<path id="XMLID_330_" class="st1" d="M727.3,1092.8c-6.7,2-8.9,9.4-11.7,15c-4,7.9-8.8,16.8-5.6,25.8c5.5,15.5,24,22.9,39.4,22
			c3.1-0.2,6.2-2.6,6-6c-0.3-7-7.7-9.5-13.5-11c-6.6-1.8-14.6-4.4-21.3-2c-6.2,2.2-13.1,8.6-11.4,15.8c1.7,7.3,11.4,11.1,18.1,8.9
			c7.9-2.5,10.5-12.7,8.6-20.1c-0.8-3.1-2.7-6.8-5.6-8.5c-4.1-2.4-9.7-0.8-14.1-0.1c-14.7,2.1-28.7,12.4-27,28.4
			c0.7,6.8,3.1,14,8.5,18.6c5.6,4.8,12.6,5.1,18,0c4.1-3.8,7.9-9.8,9.4-15.3c2.4-9.3-2.1-17.8-8.1-24.5
			c-12-13.3-30.7-22.6-47.7-12.8c-6.1,3.5-16.2,11-15.7,19c0.5,8.3,11.1,14.7,18.3,16.3c9.7,2.1,13.1-8.4,14.3-16.1
			c1-6.6,1-14.9-4.8-19.4c-5.8-4.5-15.7-6.2-22-2c-6.7,4.4-8.2,13.5-7.5,20.8c0.8,7.8,3.8,15.6,10.9,19.6c7.4,4.2,18,3.3,23.3-4
			c4.8-6.5,1.9-15-1.6-21.4c-3.5-6.3-8.9-13-17.1-10.3c-7.4,2.5-8.4,11.2-9.2,17.8c-0.9,7.8,0.9,14.9,7.2,20.1
			c3.9,3.2,8.6,5.6,12.9,8.2c5.2,3.1,10.3,6.2,15.8,8.9c9.3,4.5,19,8,28.7,11.6c5,1.8,10,3.5,15.1,5c5.6,1.7,10.4,1.9,16.2,1.9
			c9-0.1,16.5-7.1,20.8-14.6c8.7-14.9,15.1-35.6,0-48.8c-6.4-5.6-14.4-9-22.1-12.5c-4.4-2-9-4-13.7-5.3c-4.9-1.3-8.6,0.8-11.2,5.1
			c-4.7,7.8,1.2,17.5,4.5,24.7c4.1,8.9,9.6,16.7,16.8,23.3c3.2,2.9,6.6,5.6,10.1,8c3.8,2.6,7.4,5.7,11.7,7.6
			c4.1,1.8,8.5,2.6,12.9,2.3c5.2-0.4,8.1-2.5,11.6-6.3c12.7-14,15.7-35.6,14.3-53.8c-0.4-4.7-1.1-9.4-2.3-13.9
			c-0.6-2.2-1.3-4.4-2.1-6.6c-0.5-1.3-0.9-2.7-1.6-3.9c-0.1-0.2-0.2-0.5-0.3-0.7c-1.1-1.5-1.2-1.6-0.5-0.3c-2.9,1.2-5.9,2.4-8.8,3.6
			c12.6,8.7,23.4,19.6,35.9,28.5c5.5,3.9,10.3-3.4,8.2-8.2c-2.6-6.1-6.1-11.5-10.5-16.5c-5.1-5.9-9.7-12.4-14.4-18.6
			c-8.5-11.2-16.3-23.8-26.2-33.8c-4.6-4.7-13.6,1.6-9.4,7.3c9.7,13.1,20.4,25.4,30.8,37.9c10.6,12.7,20.3,25.9,29.6,39.5
			c4.3,6.3,14.3,0.7,10.4-6.1c-10.5-18.2-22-36.5-34.6-53.4c-3.1,2.4-6.3,4.8-9.4,7.3c8.5,9.9,16.4,20.3,24.2,30.8
			c6.8,9.2,12.7,19,21.1,26.9c5,4.6,12.7-1.2,9.4-7.3c-11.3-20.7-22.7-41.5-33.9-62.3c-5.6-10.5-11.3-20.9-17-31.3
			c-5.3-9.6-9.5-20.1-16.8-28.3c-3.9-4.3-12,0.2-10,5.8c7.9,22.2,18.5,43.1,29,64.1c5.2,10.4,10.1,20.9,15.1,31.4
			c2.5,5.4,5.1,10.9,7.7,16.3c2.7,5.5,6,10.8,8.3,16.5c3.3-1.9,6.7-3.9,10-5.8c-17.5-17.9-32.7-38.1-49-57.1
			c-8.1-9.4-16.3-18.7-24.9-27.7c-4.2-4.5-8.6-8.8-12.8-13.2c-3.7-3.9-7-7.1-12.1-8.9c-4.1-1.5-7.1,2.3-7.6,5.8
			c-1.3,10.3,1.9,18.8,4.4,28.6c2.6,10.3,5.2,20.7,7.8,31c2.6,10,5.2,20,7.9,30c1.4,5.3,2.8,10.7,4.1,16c0.6,2.5,1.2,5.1,1.9,7.6
			c0.3,1,0.6,2,1.2,3c0.6,1.1,1.5-0.7,0.1,0c2,0,4,0,6.1,0c-4.3-2-8.3-4.3-11.8-7.5c-3.4-3-6.4-6.5-10.6-8.5
			c-2.9-1.4-6.4-0.8-8.2,2.2c-3.3,5.5-3.4,11.7-1.3,17.6c2.6,7.5,12.6,4.3,11.6-3.2c-1.5-10.9-5.5-21.1-10.2-30.9
			c-4.6-9.7-10.5-19-14-29.1c-2.5-7.2-13.6-4.3-11.6,3.2c3.4,12.5,6.8,24.9,10.8,37.2c2.4,7.3,13.4,4.4,11.6-3.2
			c-2.4-9.8-6.1-19.1-8.9-28.8c-2.6-8.7-4.3-17.5-8.7-25.5c-2.3-4.2-10.2-3.8-11,1.4c-0.6,4.1-0.3,7.5,1.2,11.4
			c0.6,1.5,1.2,3,1.9,4.5c0.3,0.7,0.6,1.3,0.9,2c0.3,1.7,0.6,1.6,0.7-0.3c2.7-0.7,5.5-1.4,8.2-2.2c-2.9-2.2-5.1-5.1-8.9-5.6
			c-4.9-0.7-8,3.2-9,7.6c-1.6,7.5,10,10.8,11.6,3.2c0.9-4.1-5.1,1.7-5,0.9c0,0.2,1.2,1,1.5,1.2c1.1,1.2,2.5,2.1,3.7,3.1
			c2.4,1.8,7,0.6,8.2-2.2c1.6-3.6,1.4-6.6,0-10.2c-1.2-3-4-6.9-3.5-10.3c-3.7,0.5-7.3,1-11,1.4c4.1,7.5,5.4,16.2,8,24.3
			c2.8,9,6.2,17.9,8.4,27.1c3.9-1.1,7.7-2.1,11.6-3.2c-4-12.3-7.4-24.7-10.8-37.2c-3.9,1.1-7.7,2.1-11.6,3.2
			c7.2,20.6,21.1,37.9,24.2,60.1c3.9-1.1,7.7-2.1,11.6-3.2c-1-3-1.6-5.6,0.1-8.4c-2.7,0.7-5.5,1.4-8.2,2.2c5.4,2.6,9.4,8,14.3,11.4
			c5,3.4,11,7.5,16.5,3c4.8-3.9,4.1-8.9,2.3-14.2c-2.6-7.2-4-15.1-5.9-22.6c-3.9-15-7.9-30-11.7-45c-1.8-7.2-3.3-14.5-5.4-21.6
			c-2.2-7.5-4-13.6-3-21.6c-2.5,1.9-5.1,3.9-7.6,5.8c4.3,1.6,8,7.1,11.2,10.3c3.9,4,7.8,8.1,11.7,12.2c8.3,8.9,16.3,18,24.2,27.2
			c15.4,18,29.9,37.2,46.5,54.2c3.9,4,12.4-0.1,10-5.8c-4.4-10.7-10.3-20.9-15.3-31.4c-5.1-10.8-10.1-21.7-15.4-32.4
			c-10.5-21.2-21.5-42.2-29.4-64.6c-3.3,1.9-6.7,3.9-10,5.8c3.5,3.9,5.5,8.1,7.8,12.8c2.5,5,5.4,9.9,8.1,14.8
			c5.7,10.4,11.4,20.8,17,31.3c10.9,20.2,21.9,40.4,33,60.6c3.1-2.4,6.3-4.8,9.4-7.3c-8.5-7.9-14.5-18.1-21.5-27.4
			c-7.7-10.3-15.4-20.6-23.8-30.3c-4.4-5.1-13.5,1.8-9.4,7.3c12.6,16.8,24.1,35.2,34.6,53.4c3.5-2,6.9-4,10.4-6.1
			c-9.2-13.4-18.8-26.6-29.1-39.1c-10.5-12.7-21.5-25-31.3-38.3c-3.1,2.4-6.3,4.8-9.4,7.3c9.6,9.7,17.3,22,25.5,32.9
			c4.3,5.6,8.2,11.7,12.8,17c4.5,5.2,8.2,10.2,10.9,16.5c2.7-2.7,5.5-5.5,8.2-8.2c-12.5-8.9-23.3-19.8-35.9-28.5
			c-3.4-2.4-7.6,0.2-8.8,3.6c-1.2,3.4-0.4,5.9,1.2,8.9c1.3,2.6,2.3,5.3,3.1,8.2c2.1,7.4,2.7,15,2.3,22.7
			c-0.7,12.7-3.2,26.5-12.5,35.8c-3.8,3.8-10.8-0.5-14.7-3.5c-5.3-3.9-10.7-7.3-15.4-12c-4.8-4.8-8.4-10.3-11.5-16.4
			c-1.5-3.1-2.6-6.3-3.9-9.5c-1.4-3.4-3-4.5,0.1-6.9c-1.9,0.5-3.9,1-5.8,1.5c8.9,2.4,17.6,6.4,25.7,10.8c6.3,3.4,11.8,7.7,12.2,15.4
			c0.4,9.1-3.7,18.4-9.1,25.6c-1.9,2.6-5,5.4-8,6.1c-5.1,1.2-10.9-0.5-15.7-2c-20-6-38.8-14-56.7-24.7c-3.6-2.2-8.5-4.1-11.1-7.5
			c-2.3-2.9-1.7-6-1.4-9.4c0.2-1.8,0.1-5.3,1.5-6.7c-0.9,1-0.4,0.7,0.6,2.2c1,1.6,2,3.3,2.8,5c1.1,2.4,2.8,5.7,0,7.3
			c-2.8,1.7-6.6,0-8.5-2.3c-2.8-3.4-5.5-15.8-0.3-18.4c1.7-0.8,6.7,0.3,7.9,1.8c0.9,1.1,0.6,5.6,0.3,7.4c-0.2,1.5-0.7,2.9-1.1,4.3
			c-0.1,0.3-0.2,0.6-0.3,0.8c-1,1.4-0.9,2,0.4,1.7c0.3,0,0.6,0,0.9,0c-0.8,0-1.5-0.3-2.2-0.7c-1.5-0.7-3.5-1.9-4.9-2.9
			c-2.2-1.7-1.1-1.9,0.6-3.7c6.3-6.5,13.8-10.1,22.8-7.4c7.8,2.3,14.9,8.4,19.7,14.8c4.6,6.2,3.6,11.5-0.5,17.4
			c-0.8,1.1-1.9,2-2.6,3.1c-0.2,0.2-0.5,0.3-0.6,0.5c-0.1,0.1-0.2,0.1-0.4,0.2c1.6-0.1,2-0.2,1-0.4c0-0.1-2.3-1.6-2.5-1.7
			c-0.9-1-1.6-2.3-2.1-3.5c-2.8-6.7-2.3-13.2,4-17.3c3.1-2,6.6-3.5,10.2-4.2c1.2-0.3,8.1-0.3,8.5-1.1c-0.8,1.6-2.4-5.3-1.6-0.3
			c0.1,0.7,0.7,1.4,0.7,2.2c0.1,0.8,0,3.9-0.7,4.4c-0.7,0.4-2.5-0.4-2.8-0.4c0.1,0-0.6,1.4,0.1,1.1c0.4-0.2,1-1.1,1.4-1.5
			c1.5-1.2,2.6-1.4,4.4-1.4c3.8,0,7.6,1.3,11.2,2.3c1.5,0.4,3,0.8,4.5,1.3c3,1.2,1.1,1.7,1-1.7c2-2,4-4,6-6
			c-9.7,0.6-22.8-2.8-27.4-12.3c-2.8-5.7,1.1-11.7,3.7-16.7c0.9-1.7,1.7-3.4,2.5-5.1c0.5-1,0.9-2,1.5-3c0.5-0.9,2.2-2.4,0.9-2
			C737.9,1102.2,734.7,1090.6,727.3,1092.8L727.3,1092.8z"/>
	</g>
</g>
<g id="XMLID_315_">
	<g id="XMLID_339_">
		<path id="XMLID_343_" class="st1" d="M738.9,1161.4c-5-2.5-10.4-3.5-15.5-5.6c-4.2-1.8-8.7-3.6-12.9-0.7
			c-7.2,4.9-5.2,17.8,3.2,20.1c2,0.6,4.4,0,5.8-1.5c10.3-10.7,6.2-29.4-7.4-35.1c-7.5-3.1-16.2-3-24-1.4c-6.1,1.2-17.9,3.8-18.2,12
			c-0.2,8.7,7.1,15.1,13.7,19.5c5.7,3.9,14,7.7,21.1,5.7c6.7-1.9,11.2-9.2,9-15.9c-2.4-7.1-11-10.7-17.9-11.1
			c-16.7-1.1-31.7,18-28.6,34c3.9-1.1,7.7-2.1,11.6-3.2c-3.8-13.4-9.4-26.2-15.9-38.5c-6.5-12.4-13.1-25.1-21.6-36.2
			c-2.3-3-6.4-4.2-9.4-1.2c-5,5-7.9,11.4-7.9,18.6c0,8.4-0.8,16.8-1.1,25.3c-0.3,8.6,0,17.2,0.2,25.8c0.2,8.5,0.3,17.1,2.9,25.3
			c1.9,6,9.4,5.3,11.6,0c2.5-6.1,2.9-12.9,3.9-19.4c1-6.4,1.9-12.8,2.7-19.2c1.7-13.5,2.1-27.1,4.5-40.4c-3.9,0-7.7,0-11.6,0
			c2.4,7.3,3.2,15,4.9,22.4c1.7,7.2,3.5,14.1,6.6,20.8c2.6,5.5,11.3,2.6,11.2-3c-0.2-8.5-2.1-16.8-3.9-25.1
			c-1.7-7.8-2.2-15.6-5.9-22.8c-2.3-4.5-9.9-3.5-11,1.4c-1.5,6.9-2,13.9-2.1,21c-0.1,3.4-0.1,6.8-0.2,10.2
			c-0.1,2.8,0.6,8.5-0.6,11.1c3.1-0.4,6.3-0.8,9.4-1.2c-4.2-5.4-5-13.2-7-19.5c-0.9-2.9-4.3-5.4-7.4-4.2c-5.8,2.2-5,6.5-5.4,11.6
			c3.7-1,7.5-2,11.2-3c-3-6.4-4.9-13.3-7.5-19.9c-1.9-4.8-10.5-6.6-11.6,0c-1.9,12,2,24.2,5.4,35.6c1.7,5.9,3.6,11.7,5.2,17.6
			c1.4,5.1,1.9,10.4,4.6,15c2.7,4.6,9.4,3.4,11-1.4c7-22,12.2-44.4,17.2-66.9c2.4-10.8,4.8-21.7,7.3-32.5
			c2.4-10.8,3.3-21.6,8.4-31.6c-2.3,0.9-4.5,1.8-6.8,2.8c2.4,1,5.6,1.7,7.5,3.3c2,1.7,3.7,4.4,5.4,6.4c3.6,4.3,7.3,8.5,10.8,12.9
			c7.1,9.1,13.8,18.6,20.5,28c6.3,9,12.8,17.9,18.9,27.1c5.7,8.4,10,18.2,16.6,25.9c3.7,4.2,9.9,0.5,10.2-4.2
			c1.1-16.4,0.9-32.8-0.3-49.2c-1.2-16.2-4.9-32-6-48.1c-3,1.7-6,3.5-9,5.2c2.5,1.8,4,4.2,5.1,7.1c1.6,4,3.5,7.7,5.5,11.5
			c4,7.8,7.9,15.6,11.8,23.5c3.9,7.9,7.8,15.7,11.9,23.5c3.7,7.1,6.9,14.4,12.1,20.6c3.2,3.9,10.7,0.8,10.2-4.2
			c-0.6-6.6-2.8-11.4-6-17c-3.7-6.5-6.8-13.4-10.3-20.1c-6.7-12.6-14.2-24.9-20.4-37.7c-3.5,2-6.9,4-10.4,6.1
			c9.9,14,19,28.5,28.5,42.8c4.4,6.7,10,13.3,13.3,20.6c1.4,3,1.7,5.8,4.7,7.8c2.4,1.6,5.1,1.7,7.9,1.1c2.5-0.6,4.4-3.2,4.4-5.8
			c-0.1-13-3.3-25.6-8-37.6c-2.2-5.7-4.5-11.3-7.2-16.8c-2.5-5.1-6.4-10.2-7.1-15.9c-1.5,1.9-2.9,3.9-4.4,5.8c0.2,0,0.2-0.6,0.7,0.4
			c0.7,1.6,1.2,3.5,2.1,5.1c2.3,4.3,6.5,8.1,9.4,12c6.2,8,12.2,16.2,18.1,24.5c9.7,13.7,17.4,30,30.4,40.9c3.4,2.9,8.7,2,10-2.6
			c1.9-6.6-1.1-12.8-3.6-18.9c-2.6-6.5-5.6-12.9-8.8-19.2c-3-5.9-6.1-11.7-9.4-17.4c-3.4-5.8-7.2-11.4-8.9-18
			c-3.3,1.9-6.7,3.9-10,5.8c14,13.1,26.4,28.7,37.4,44.4c3.1-2.4,6.3-4.8,9.4-7.3c-11.6-10.3-22.6-21.3-34.4-31.4
			c-12-10.4-24.4-20.3-36.8-30.2c-3.2-2.6-7-2.2-9.4,1.2c-4.3,5.9-6,12.8-5,20c0.6,4.2,2.2,8,2.7,12.2c0.6,4.8,1.1,9.7,1.8,14.5
			c1.1,9,2.6,17.9,3.8,26.9c0.6,4.6,1,9.2,1.4,13.8c0.3,3.8,0.8,6.5-2.2,9.3c1.4-0.6,2.8-1.2,4.2-1.8c-8.2-1.1-16-4-23-8.3
			c-7.8-4.9-16.5-8.5-24.8-12.4c-8.1-3.8-16.3-7.5-24.4-11.4c-7.9-3.8-15.9-7.4-24.6-8.9c-6.1-1-11.3,7.8-4.6,11
			c7.8,3.7,15.8,6.9,24.1,9.4c7.9,2.4,16.3,4.9,24.6,4.9c6.2,0.1,12.4-2.1,14.1-8.7c1.9-7.6-4.4-15.1-10.2-19.2c-8.6-6.1-31-19-36-2
			c-2,6.8,3.2,11.9,7.8,16.1c5.3,4.7,10.4,9.8,17.4,11.6c2.7,0.7,5.3-0.5,6.8-2.8c3.9-6,5.1-14.6,1.3-20.9c-3.8-6.3-11.7-6.9-17.4-3
			c-5.4,3.7-8.9,11.2-5.6,17.4c2.9,5.5,10,9.3,15.6,11.4c14.4,5.5,22.5-6.3,26.7-18.3c2.1-5.9,4.4-12.2,0.4-17.8
			c-4.1-5.7-12.7-7.6-19.2-8c-7-0.4-14.1,1.4-20.5,4c-5.8,2.3-12.3,6.4-15.2,12.1c-3,5.9-2,15.2,0.2,21.2c2.5,7,6.8,13,12.7,17.6
			c10.5,8.1,28.2,15.5,41.1,10.3c2.9-1.2,5.4-2,7.5-4.4c2.4-2.6,3.6-6.6,5.1-9.8c3.3-7.4,5.2-15.4,5.4-23.5c0.1-3.9,1-7.9,0.7-11.8
			c-0.3-4.2-1.9-7.6-3.9-11.2c-1.8-3.2-2.8-7.4-5.8-9.7c-3.7-2.7-8.7-4.6-12.8-6.8c-4-2.2-7.4-2.3-11.9-2.6
			c-4.2-0.3-8.5-0.8-12.7-0.8c-4,0-8.3,1.5-12.2,2.4c-4.6,1.1-8.4,2-12.6,4.2c-6.2,3.4-11.2,5.3-14.8,11.8c-1.6,2.8-4.7,6.3-4.9,9.7
			c-0.1,3.9,1.4,8.2,2,12c0.8,4.4,2.6,6.6,5.2,10.1c2.3,3.1,4.4,6.4,7.2,9.2c5.2,5.3,11.9,10.3,18.3,14.1c3.5,2.1,7.1,3.4,10.9,4.7
			c4.2,1.4,8,3.3,12.5,3.1c3.8-0.2,7.4-1.8,11.1-2.5c4.8-1,7.6-4.1,11.3-7.3c12.7-11,21.6-25.3,23.1-42.3c0.6-6.8,0.3-14.7-1.7-21.3
			c-1.9-6.6-8-12.4-14.2-15.4c-7.2-3.5-15.6-4.6-23.5-4.7c-9.1-0.1-17.1,0.7-25.7,3.5c-7.5,2.4-15,5.2-21.1,10.3
			c-3.1,2.6-4.6,5.6-6.5,9c-2,3.5-4.2,6.8-5.5,10.7c-2.1,6.2-2.4,13.6-3,20.1c-0.6,7-0.5,14,0.7,21c1.1,6.4,3.5,12.8,7.3,18.1
			c2.5,3.4,5.4,5.2,8.7,7.7c3,2.2,5.7,4.6,9,6.1c6.7,3.1,14.6,4.1,21.9,2.3c7.2-1.7,15.3-3.3,21.6-7.4c3.2-2.1,6.3-4.3,9.4-6.4
			c3.5-2.4,5.9-6.6,8.4-10c2.4-3.2,5.2-6.3,7.1-9.7c2.3-4.1,3.9-8.5,6-12.6c3.7-7.3,6.6-14.8,9.3-22.5c1.4-4.1,3.1-8.2,4.4-12.3
			c1.3-3.9,3.4-8.5,3.8-12.5c0.3-2.9-0.9-6.7-1.7-9.6c-0.8-3-2.4-5.6-4.9-7.4c-2.7-2-5.4-2.4-8.5-3c-3.8-0.8-7.1-3.3-10.9-3.9
			c-9-1.3-18.7-0.8-27.8-1.2c-9.1-0.4-18.6,1.8-27.7,3c-9.5,1.3-18.7,3.3-28.1,5.3c-4,0.9-7.6,2.5-11.4,3.8c-3.6,1.2-6.9,2.8-10,5.1
			c-6.9,5.2-12.3,11.3-17.7,18c-2.5,3.1-2.7,5.7-3.7,9.5c-0.9,3.6-2,6.7-1.3,10.4c0.6,3.2,2.2,5.9,4.3,8.4c2.7,3.2,4.5,6.9,7.2,10
			c2.9,3.4,6.8,6.4,10,9.4c3.6,3.4,7,6.8,10.8,10c6.8,5.8,14,11.2,21,16.8c3.3,2.7,6.6,5.1,10.2,7.4c1.7,1.1,3.6,2.7,5.6,3.2
			c1.9,0.5,3.9-0.2,5.8-0.5c6.5-1.2,11.9-2.3,15.6-8.4c1.6-2.6,2.3-4.1,4.2-6.6c2.4-3.1,4.4-6.4,6-10.1c7-16.1,12.3-32.9,14.8-50.3
			c0.6-4-1-6.2-2.2-9.8c-1-3.2-1.7-6-4.1-8.5c-2.1-2.2-4.7-3.5-7.6-4.4c-4.4-1.5-7.9-3.9-12.6-4.4c-8.8-1-17.4-2.2-26.2-1
			c-7.2,0.9-16,2.7-21.6,7.5c-6.6,5.6-12.5,11-17.1,18.4c-1.9,3-3.6,6.1-5.2,9.2c-1.9,3.5-4.3,7.1-4.5,11.1
			c-0.2,3.7-1.1,9.2,0.2,12.7c1.6,4.3,5.5,8.4,8,12.3c4.8,7.2,12.6,12,19.4,17.4c6.6,5.2,13.8,9.2,21.2,13.1
			c7.4,3.8,14.3,7.8,22.3,10.1c3.3,1,6.4,2.1,10,1.3c1.9-0.4,3.4-1.3,5-2.2c2-1.1,4.6-1.7,6.4-3.2c3-2.4,5.4-6.8,7.7-9.9
			c3-3.9,4.8-8.1,6.8-12.6c5.5-12.3,14.2-30.3,0.1-40.4c-9.4-6.7-27.6-10.4-34.5,1.5c-3.4,5.8-3.8,11.7,1.1,16.8
			c4,4.1,9.8,6.9,14.9,9.2c5.5,2.4,11.8,4.4,17.7,2.3c5.7-2,8.7-7.8,9.6-13.5c0.9-5.6,0.5-11.9-2.6-16.8c-2.8-4.5-8.2-9.8-13.7-10.5
			c-6.1-0.8-11.3,7.5-4.6,11c3.1,1.6,5.9,1.8,9.4,1.8c7.7-0.1,7.7-12.1,0-12c-5.6,0.1-10.8-0.6-16.4,0.6c-4.9,1-9.7,2.5-14.3,4.5
			c-5.2,2.3-2.9,9.4,1.4,11c4.7,1.7,9.4,1,14.1,0.4c4.9-0.6,9.8,0.2,14.6-1.3c7.6-2.3,4.3-12.8-3.2-11.6
			c-13.2,2.1-27.5,2.7-39.9,8.1c-5.6,2.5-2.6,11.3,3,11.2c10.1-0.3,20.1-2,30.1-2.9c7.6-0.7,7.7-12.7,0-12c-10,1-20,2.7-30.1,2.9
			c1,3.7,2,7.5,3,11.2c5.5-2.4,11.8-3,17.7-4c6.4-1.1,12.9-1.9,19.3-2.9c-1.1-3.9-2.1-7.7-3.2-11.6c-3.6,1.1-7.8,0.4-11.5,0.8
			c-3.6,0.5-7.3,1.3-10.8,0c0.5,3.7,1,7.3,1.4,11c3.6-1.6,7.6-2.6,11.4-3.3c4.4-0.9,8.7-0.1,13.2-0.1c0-4,0-8,0-12
			c-0.8,0-2.5,0.3-3.3-0.1c-1.5,3.7-3.1,7.3-4.6,11c3.9,0.5,7.2,5,7.8,8.8c0.4,3.2,0.5,9.5-3.9,9.3c-4.8-0.2-9.9-3.4-13.9-5.8
			c-1-0.6-2.1-1.2-3.1-1.9c-0.7-0.5-1.6-2.1-1.6-0.9c-0.1-2.3,2.2-3.8,4.1-4.1c4.4-0.7,11.6,1.4,14.9,4.4c4.6,4.2,0.7,13.4-1.4,18
			c-1.8,3.8-3.5,7.6-5.2,11.4c-1.7,3.8-4.1,6.9-6.6,10.3c-0.9,1.3-1.9,3-3.1,3.8c-1.2,0.8-3.1,1.4-4.4,2c-2.8,1.4-6.7-0.3-9.7-1.3
			c-6.6-2.3-13.2-6.6-19.4-10c-6.9-3.7-13.1-7.8-19.2-12.6c-3.2-2.5-6.5-5-9.6-7.6c-3.3-2.8-5.5-6.8-7.9-10.5
			c-0.8-1.1-2.1-2.5-2.4-3.8c-0.4-1.6,0.1-4,0.1-5.6c0.1-3.2,1.8-5.7,3.3-8.6c3.2-6,6.5-12.4,11.5-17c2.6-2.4,5.5-5.6,8.5-7.5
			c2.5-1.5,6-2.3,8.9-3c7.9-2,15.5-1.5,23.5-0.6c3.8,0.4,6.9,0.6,10.3,2.3c2.2,1.1,6.2,1.6,7.9,3.3c0.9,0.8,0.9,1.9,1.3,3
			c0.5,1.6,1.5,3.2,1.9,4.9c0.6,2.9-0.7,8.5-1.4,11.7c-1.9,8.5-4.7,17.5-8.2,25.5c-3.2,7.5-5.3,14.4-10.7,20.7
			c-1.7,2-2.2,5.6-4.5,6.9c-2.4,1.4-6.8,1.3-9.5,1.8c1.5,0.2,3.1,0.4,4.6,0.6c-10.3-6.5-19.7-14.1-29.2-21.8
			c-4.5-3.7-8.8-7.7-13.1-11.7c-4.8-4.5-10-8.7-13.5-14.4c-1.4-2.3-2.9-3.9-4.6-6c-1.1-1.3-1.7-2.4-1.5-4.2c0.2-2,1.1-4.6,1.6-6.6
			c0.7-2.5,2.8-4.6,4.6-6.8c3.3-4.1,7.2-7.6,11.3-11c3.9-3.1,9.5-4.7,14.1-6.2c11.6-3.9,24.5-5.3,36.6-6.9c5.9-0.8,11.9-2,17.8-2
			c6.6,0,13.3,0.6,19.9,0.8c2.8,0.1,6-0.2,8.7,0.3c2.4,0.5,4.7,2.2,7,3c1.5,0.5,4.9,0.3,6.2,1.3c1.2,0.9,0.9,2.3,1.1,3.6
			c0.5,2.8,0.8,3-0.1,5.8c-0.8,2.5-1.6,5-2.4,7.5c-1.9,5.8-4,11.6-6.1,17.3c-1.8,5-4,9.8-6.4,14.6c-2.6,5.2-4.6,11.1-8.1,15.7
			c-3.1,4.1-6,9.2-9.7,12.7c-1.6,1.5-3.9,2.4-5.7,3.7c-2.2,1.5-4.1,3.2-6.5,4.3c-4.6,2.1-10.4,3.2-15.4,4.3c-4.6,1-9.7,0.4-14-1.8
			c-2.3-1.2-4.1-2.8-6.1-4.4c-2-1.6-4.4-2.7-6.1-4.6c-2.9-3.4-4.5-8.1-5.5-12.4c-2-8.6-1.5-17.9-0.2-26.5c0.7-4.4,0.7-9,2.7-13.1
			c2.2-4.6,5.1-10.3,9.4-13.2c8.9-6,21.6-9.5,32.2-9.4c10.2,0.1,22,0.3,29.3,8.5c3.2,3.6,3,10.3,3.1,14.9c0.1,5.7-0.6,11.4-2.7,16.8
			c-2.2,5.9-5.7,11.9-9.9,16.5c-3.4,3.7-9,9.8-14,10.9c-3.4,0.7-7.1,2.7-10.5,1.5c-2.8-0.9-5.6-2.1-8.4-3.1
			c-5.8-2.1-10.7-6.1-15.4-9.9c-4.5-3.6-7.8-7.2-11.3-11.8c-1.8-2.4-3.3-4.3-4-7.3c-0.8-3.4-1.2-7-1.8-10.4
			c-0.2,1.5-0.4,3.1-0.6,4.6c2-3.1,3.8-7.9,6.7-10.1c1.4-1.1,3.1-1.4,4.7-2.2c2.9-1.4,5.3-3,8.5-3.8c5.2-1.4,10.8-3,16.2-2.8
			c4.7,0.2,10.6-0.1,15,1.2c2.5,0.7,5.3,2.8,7.7,4.1c2.7,1.4,4.1,1.8,5.4,4.4c2.6,5.3,4.6,8.3,4,14.3c-0.5,5.2-0.2,10.4-1.4,15.6
			c-1.2,5.3-3.2,10-5.6,14.8c-3.8,7.9-17.4,2.4-23.5-0.2c-8.4-3.6-15.7-9.2-18.5-18.2c-1.2-3.9-1.9-9.3,0.9-12.3
			c3.1-3.2,6-4.9,10.3-6.3c4-1.3,8.1-2.3,12.4-2.1c2.6,0.1,9.8,0.9,10.4,3.9c0.5,2.5-2.7,8.5-3.7,10.9c-1.4,3.2-3.4,7.2-7.5,6.6
			c-2-0.3-10.9-4.1-11-6.5c0-0.5,0.8-0.9,1-1.3c0.4-0.4,0.8-0.7,1.4-0.9c-0.5-0.6-0.6-0.5-0.3,0c1.6,2.4-0.1,6.4-1.4,8.3
			c2.3-0.9,4.5-1.8,6.8-2.8c-4-1-6.9-3.7-9.8-6.4c-1.6-1.4-7-4.9-7.1-7.1c0,1.2,7.4,3.6,9.2,4.4c4.3,2,8.1,4.2,11.2,7.8
			c1,1.1,2.6,2.2,2.6,3.8c0-1.4-0.2-0.6-2.4-0.6c-4.8,0-9.6-1.3-14.3-2.5c-9.7-2.6-19.2-5.9-28.4-10.2c-1.5,3.7-3.1,7.3-4.6,11
			c9.5,1.6,17.9,5.8,26.5,10c8.5,4.1,17.2,7.9,25.8,11.9c4.7,2.2,9.5,4.4,14.1,6.8c3.5,1.8,6.8,4.2,10.4,5.9
			c3.9,1.9,7.9,3.5,12.1,4.7c3.6,1,8.3,2.5,12,2c7.9-1.1,9.6-12.2,9.2-18.4c-0.6-9.7-2.1-19.2-3.5-28.7c-1.4-9.8-2.6-19.6-3.7-29.4
			c-0.3-2.5-0.6-4.7-1.3-7.1c-0.6-2.1-1.3-4.1-1.5-6.3c-0.3-4.2,1.3-7.5,3.7-10.8c-3.1,0.4-6.3,0.8-9.4,1.2
			c12.4,10,24.8,19.9,36.8,30.2c11.8,10.1,22.8,21.1,34.4,31.4c4.8,4.3,13.6-1.4,9.4-7.3c-11.5-16.5-24.5-33.1-39.3-46.9
			c-4.4-4.1-11.5-0.1-10,5.8c2.8,11.4,10.6,21.5,16,31.7c2.9,5.5,5.8,11,8.4,16.6c1.4,3.2,2.8,6.4,4,9.7c1,2.7,3.1,6.2,2.2,9.1
			c3.3-0.9,6.7-1.8,10-2.6c-7.3-6.1-12.4-14-17.5-22c-5.8-9.1-11.9-17.9-18.3-26.5c-3.4-4.6-6.8-9.2-10.3-13.7
			c-3.1-4.1-7.3-8.2-9.8-12.6c-1.9-3.4-2.5-6.7-5.9-9.2c-3.2-2.4-6.8-2.7-10.6-1.9c-2.3,0.5-4.7,3.3-4.4,5.8
			c1.5,11.7,9.1,21.7,13.4,32.5c4.9,12.1,8.8,24.7,8.9,37.8c1.5-1.9,2.9-3.9,4.4-5.8c2.2,1.8,3.1,1.9,2.6,0.4
			c-0.1-0.7-0.3-1.4-0.7-2.1c-0.6-1.4-1.5-2.8-2.3-4.1c-1.7-3-3.6-5.9-5.5-8.8c-3.9-5.8-7.8-11.6-11.6-17.4
			c-7.6-11.7-15.2-23.5-23.3-34.9c-4.4-6.3-13.8-0.9-10.4,6.1c5.7,11.7,12.5,22.8,18.6,34.3c3.1,5.8,6.1,11.6,9.1,17.4
			c2.8,5.5,6.9,10.7,7.5,17.1c3.4-1.4,6.8-2.8,10.2-4.2c-5.1-6.2-8.3-14.5-12-21.6c-4.3-8.4-8.5-16.8-12.6-25.2
			c-4-8.1-8.4-16.1-12.3-24.3c-3.3-6.9-5.3-12.2-11.8-16.8c-3.6-2.6-9.3,0.9-9,5.2c1,16.1,4.8,32,6,48.1c1.2,16.4,1.4,32.8,0.3,49.2
			c3.4-1.4,6.8-2.8,10.2-4.2c-3.2-3.7-5.2-8.3-7.7-12.5c-3.1-5.1-6.4-10-9.7-14.8c-6.6-9.6-13.4-19.2-20.2-28.7
			c-6.6-9.3-13.3-18.5-20.4-27.4c-3.9-4.9-8-9.5-12.1-14.3c-1.8-2.2-3.3-4-5.9-5.3c-2.9-1.4-6.1-2.5-9.1-3.7
			c-2.3-0.9-5.7,0.6-6.8,2.8c-2.3,4.5-4.3,9.3-5.7,14.2c-1.5,5.4-1.9,11.1-3.1,16.6c-2.6,11.5-5.1,22.9-7.7,34.4
			c-5.1,23.1-10.4,46.2-17.6,68.8c3.7-0.5,7.3-1,11-1.4c-2.1-3.5-2.3-8.2-3.4-12.1c-1.5-5.3-3.1-10.5-4.7-15.7
			c-2.8-9.4-7.5-21.1-6-31.1c-3.9,0-7.7,0-11.6,0c3,7.6,5.3,15.4,8.8,22.8c2.8,5.8,10.8,2.4,11.2-3c0-0.6,0.1-1.3,0-1.9
			c-0.1-0.9,0.4-1.9-0.4-0.6c-1.2,0.9-2.4,1.8-3.6,2.8c0.2-0.1,0.4-0.1,0.6-0.2c-2.5-1.4-4.9-2.8-7.4-4.2
			c2.7,8.8,4.3,17.5,10.1,24.8c2.3,2.9,7.8,2,9.4-1.2c3.1-6.3,2.2-14.9,2.3-21.8c0.1-7.8,0.1-15.7,1.8-23.4c-3.7,0.5-7.3,1-11,1.4
			c3.1,6,3.3,13.4,4.7,19.9c1.6,7.3,3.3,14.5,3.5,21.9c3.7-1,7.5-2,11.2-3c-5.9-12.8-5.9-27.2-10.3-40.3c-1.7-5.1-10.5-6.3-11.6,0
			c-2.4,13.2-3,26.6-4.5,39.9c-0.8,6.6-1.7,13.2-2.7,19.7c-1,6.5-1.4,13.3-3.9,19.4c3.9,0,7.7,0,11.6,0c-2.2-6.9-2.3-14.1-2.5-21.3
			c-0.1-7.6-0.5-15.2-0.3-22.9c0.2-7.6,1.1-15.1,1.4-22.7c0.3-6.4-0.8-11.5,4.2-16.5c-3.1-0.4-6.3-0.8-9.4-1.2
			c8.1,10.7,14.5,22.8,20.8,34.7c6.4,11.9,11.9,24.1,15.5,37.2c2.1,7.5,13,4.3,11.6-3.2c-1-5,3.3-11.3,6.5-14.7
			c3.8-3.9,9.7-5.4,14.7-2.8c1.5,0.8,2.9,1.1,1.6,2.2c-1.5,1.2-6-1.3-7.4-1.9c-2.6-1.3-5-2.9-7.1-4.8c-3.4-3.1-4.2-4.1-5.3-8.5
			c-0.5,1.9-1,3.9-1.5,5.8c2.8-3.4,6.9-3.9,11.1-4.7c4.6-0.9,9.6-1.1,14.2,0.2c6.7,1.8,10.9,10.6,5.5,16.2c1.9-0.5,3.9-1,5.8-1.5
			c0.6,0.2,0.8,1,1.2,0.7c1.3-0.9-4.3,1.8-1.4,0.3c-2.7,1.4-0.9,0.5,0.2,1.3c0.7,0.5,1.9,0.9,2.7,1.2c4.3,1.9,9,2.5,13.3,4.6
			C739.8,1175.2,745.9,1164.8,738.9,1161.4L738.9,1161.4z"/>
	</g>
</g>
<g id="XMLID_316_">
	<g id="XMLID_348_">
		<path id="XMLID_358_" class="st1" d="M782.9,1178.6c-12.4,0.5-24.6,2.9-36.8,4.9c-13.1,2.2-26.3,4.1-39.5,6.3
			c-26.3,4.3-52.6,8.9-78.9,13c-7.1,1.1-4.7,11.3,1.6,11.8c19.4,1.6,38.8,2.1,58.2,3c19.7,0.9,39.4,2.4,59,3.6
			c19.7,1.3,39.4,2.4,59.2,3.4c19,1,38,2.5,56.9,0.2c7.5-0.9,7.9-11.6,0-12c-17.5-0.8-35-0.8-52.5-1c-17.7-0.2-35.5,0.7-53.3-0.6
			c0.5,3.9,1.1,7.9,1.6,11.8c42.5-9,86.1-10.1,129.2-14.1c4.7-0.4,7.2-4.7,5.2-9c-4.5-9.6-13.4-14.7-23.8-15.4
			c-2.8-0.2-5.6,0-8.3,0.4c-3.8,0.5-6,0.5-9.9-0.2c-8.1-1.4-16.2-2.8-24.3-3.9c-32.1-4.6-64.4-6.9-96.6-10.9
			c-7-0.9-7.6,9.7-1.6,11.8c8.3,2.9,16.8,5.2,25.1,7.9c0-3.9,0-7.7,0-11.6c-7.6,3.2-16.2,3.1-24.1,4.8c-4.6,1-12.8,1.6-15.4,6.1
			c-2.2,3.8,0.6,9.3,5.2,9c27.6-1.7,55.1-4,82.5-7.7c-0.5-3.9-1.1-7.9-1.6-11.8c-13.2,2.1-26.1,5.1-39,8.3
			c-10.3,2.5-21.3,4-30.2,10.1c-4.3,2.9-3.6,9.3,1.4,11c13.3,4.3,27.4,3.7,41.2,3.7c-0.5-3.9-1.1-7.9-1.6-11.8
			c-9.6,2.5-19.1,3.3-28.9,4.8c-10.6,1.7-21.2,3.4-31.9,5c-20.7,3.2-41.3,6.2-62,9.2c2.3,2.9,4.5,5.9,6.8,8.8
			c-2.1,3.4-2.1,1-0.9,1.4c0.7,0.2,2.5-0.5,3.2-0.6c1.7-0.2,3.4-0.3,5-0.5c7.2-0.8,14.4-1.6,21.7-1.9c16.3-0.7,32.6,0.2,48.9-0.2
			c0-4,0-8,0-12c-25.8,0.9-51.5,1.8-77.3,3.3c0.5,3.9,1.1,7.9,1.6,11.8c18.4-4,37-7,55.5-10.1c9-1.5,17.9-3.1,26.8-4.8
			c7.8-1.5,15.5-2.2,22.9-5.5c6.5-2.9,13.2-7.2,13.7-15c0.5-8.6-7.7-11.2-14.9-12.2c-17.9-2.6-36.4-3.3-54.5-2.1
			c0.5,3.9,1.1,7.9,1.6,11.8c10.9-2.8,21.8-5.7,32.9-7.7c11.5-2,23-3.5,34.5-5.5c6.9-1.2,4.9-11.6-1.6-11.8
			c-16.5-0.4-33-0.1-49.5-1.3c0.5,3.9,1.1,7.9,1.6,11.8c10.8-1.8,21.8-1.9,32.8-1.5c-0.5-3.9-1.1-7.9-1.6-11.8
			c-15.9,2.5-32,3.8-47.9,6.1c-15.3,2.2-30.3,6.1-45.7,7.3c1.7,3,3.5,6,5.2,9c2.9-4.7,7.3-4.5,12.1-5.9c6.7-2.1,13.4-4.2,20.3-5.8
			c14-3.2,28.2-5.9,42.5-7.7c-0.5-3.9-1.1-7.9-1.6-11.8c-12.1,2.7-24.9,3.1-37.2,5.2c-6,1-12,2.4-18.1,3.3
			c-4.5,0.7-10.1-0.1-13.9,2.8c-3.6,2.7-4.1,7.8,0,10.4c6,3.8,13.1,3.8,19.3,6.9c-0.7-2.7-1.4-5.5-2.2-8.2c-0.5,1-4.7,1.4-6.1,1.9
			c-3.1,1.1-6.2,2.1-9.3,3.1c-7,2.3-14.1,4-21.2,6.3c-5.1,1.6-6.3,10.7,0,11.6c13.7,2,27.4,0.9,41.2,1.5c-1-3.7-2-7.5-3-11.2
			c-2.3,1.6-4,1.2-6.7,1.4c-3.2,0.3-6.4,1.3-9.5,2c-6,1.3-12,2.8-17.9,4.4c-5.8,1.5-11.5,3.2-17.2,4.8c-5.7,1.6-12.2,4.6-18.2,4.6
			c0.5,3.9,1.1,7.9,1.6,11.8c9.6-2.6,19.1-5.2,28.9-6.9c10.1-1.8,20.3-2.8,30.2-5.4c6.9-1.8,4.9-11.2-1.6-11.8
			c-8.5-0.8-16.6,0.9-25.1,1.3c-5.3,0.3-11.8-0.6-16.4,2.7c-3.9,2.9-4,9.6,1.4,11c18.2,4.6,37.7,0.9,55.9,6.3
			c0.5-3.9,1.1-7.9,1.6-11.8c-10.4,1.3-20.8,1.3-31.2,2c-9.4,0.6-19,0.6-28.2,2.9c-5.1,1.3-5.8,8.4-1.4,11
			c6.1,3.6,14.9,3.9,21.9,4.8c8.6,1.1,17.2,1.4,25.9,1.4c17.1-0.1,34.1-1.8,51.2-2.6c8.7-0.4,17.4-0.7,26.1-0.7
			c8.2,0,16,1.4,24.1,2.5c8.2,1.1,16.4,1.4,24.5,3.2c7.8,1.7,15.6,1.3,23.6,1.4c8,0.1,15.9,0,23.7-1.6c6.2-1.3,12.7-2.2,15.4-8.9
			c2.9-7.3-2.3-12.2-7.2-16.9c-5.1-4.9-10.6-9.6-16.9-12.9c-14-7.3-30.3-10-45.6-13c-16.5-3.2-33-6.5-49.7-8.4
			c-19-2.1-38.1-3.4-57.2-3.6c-9.6-0.1-19.3,0.2-28.9,0.9c-9.1,0.7-18.7,2.7-27.8,2.4c-7.7-0.3-7.7,11.7,0,12
			c6.9,0.3,14.3-1.2,21.2-1.9c8-0.7,15.9-1.2,23.9-1.4c15.4-0.3,30.8,0.3,46.1,1.5c30.2,2.2,60.4,7.1,89.9,14.5
			c13.8,3.4,25.7,8,36.1,17.9c0.5,0.5,5.5,4.7,5.3,5.4c0.3-1.5-5.7,0.4-6.8,0.6c-7.7,1.6-15.4,1.4-23.1,1.4c-7,0-13.5,0.2-20.4-1.3
			c-7.7-1.7-15.5-1.9-23.3-2.9c-6.5-0.8-12.9-2.2-19.5-2.7c-8.2-0.6-16.5-0.1-24.7,0.2c-17.4,0.6-34.7,2.4-52.1,2.8
			c-8.4,0.2-16.7,0.2-25.1-0.4c-4.7-0.3-9.2-0.9-13.8-1.7c-3.4-0.6-7.5-0.5-10.5-2.3c-0.5,3.7-1,7.3-1.4,11
			c8.7-2.2,18.1-2.1,26.9-2.6c9.8-0.5,19.5-0.6,29.3-1.8c6.4-0.8,8.6-9.7,1.6-11.8c-18.2-5.4-37.7-1.7-55.9-6.3
			c0.5,3.7,1,7.3,1.4,11c3-2.2,9-0.9,12.5-1.3c7.7-0.7,15.1-1.8,22.8-1.1c-0.5-3.9-1.1-7.9-1.6-11.8c-9.9,2.6-20.1,3.5-30.2,5.4
			c-9.7,1.8-19.3,4.3-28.9,6.9c-6.5,1.8-5.2,11.8,1.6,11.8c6.7,0,13.2-2.7,19.6-4.5c6.3-1.8,12.7-3.6,19-5.3
			c6.6-1.7,13.2-3.3,19.8-4.8c5.8-1.3,12.2-0.7,17.2-4.2c4.8-3.4,3.2-10.9-3-11.2c-12.6-0.6-25.4,0.7-38-1.1c0,3.9,0,7.7,0,11.6
			c8.7-2.8,17.5-5,26.2-7.9c6.2-2.1,14.1-2.4,17.5-8.8c1.5-2.7,0.8-6.7-2.2-8.2c-6.1-3.1-13.6-3.2-19.3-6.9c0,3.5,0,6.9,0,10.4
			c1.2-0.9,3.2-0.5,4.7-0.7c2.8-0.2,5.6-0.7,8.3-1.2c6-1.1,12-2.4,18.1-3.3c11.7-1.9,23.7-2.3,35.2-4.9c6.5-1.4,5.2-12.7-1.6-11.8
			c-16.5,2.2-33.2,5-49.4,9.1c-7.6,1.9-15,4.2-22.5,6.2c-5.7,1.6-10.2,5.1-13.3,10.1c-2.3,3.7,0.6,9.4,5.2,9
			c15.8-1.3,31.3-5.1,47-7.5c16.6-2.5,33.3-3.7,49.9-6.4c6.9-1.1,4.9-11.6-1.6-11.8c-12.1-0.4-24,0-36,2c-7.1,1.2-4.7,11.3,1.6,11.8
			c16.5,1.2,33,0.8,49.5,1.3c-0.5-3.9-1.1-7.9-1.6-11.8c-11.5,2-23,3.5-34.5,5.5c-11.1,2-22,4.9-32.9,7.7
			c-6.4,1.6-5.3,12.2,1.6,11.8c10.5-0.7,21.1-0.5,31.6-0.1c5.2,0.2,10.4,0.7,15.6,1.4c4.8,0.7,8.8,0.9,13.1,3.3c-1-1.7-2-3.5-3-5.2
			c0.9,7.8-14.8,9.7-20.3,10.4c-9.8,1.3-19.6,3.7-29.3,5.3c-20.1,3.4-40.4,6.5-60.3,10.9c-6.5,1.4-5.2,12.2,1.6,11.8
			c25.7-1.5,51.5-2.4,77.3-3.3c7.7-0.3,7.7-12.2,0-12c-18.5,0.4-37.1-0.7-55.6,0.6c-6.4,0.4-12.8,1.2-19.2,1.9
			c-4.7,0.5-10.7,0.8-13.5,5.3c-3,4.9,2,9.5,6.8,8.8c20.7-3,41.3-6.1,62-9.2c10.3-1.6,20.6-3.4,30.9-4.9c10-1.5,19.9-2.4,29.8-5
			c6.6-1.7,5.2-11.8-1.6-11.8c-12.8,0-25.7,0.7-38-3.2c0.5,3.7,1,7.3,1.4,11c8.5-5.8,19.4-6.9,29.2-9.3c12.3-3.1,24.7-5.8,37.2-7.8
			c6.6-1.1,5.1-12.7-1.6-11.8c-27.4,3.7-54.9,6-82.5,7.7c1.7,3,3.5,6,5.2,9c-1.2,2.1-3.4,2.3-0.9,1.6c1.2-0.3,2.5-0.7,3.7-1
			c2.5-0.6,5-1.2,7.4-1.7c7.4-1.6,15.1-1.4,22.2-4.4c5.3-2.2,6.1-9.6,0-11.6c-8.4-2.7-16.8-5.1-25.1-7.9c-0.5,3.9-1.1,7.9-1.6,11.8
			c29.4,3.7,59,5.8,88.3,9.8c7.2,1,14.4,2.1,21.6,3.3c7.1,1.2,13.8,3.1,20.9,2c9.2-1.4,17.5,0.2,21.7,9.1c1.7-3,3.5-6,5.2-9
			c-44.2,4.1-88.8,5.3-132.4,14.5c-7,1.5-4.8,11.3,1.6,11.8c17.7,1.3,35.5,0.5,53.3,0.6c17.5,0.2,35,0.2,52.5,1c0-4,0-8,0-12
			c-18.9,2.3-37.9,0.8-56.9-0.2c-19.7-1-39.5-2.2-59.2-3.4c-19.7-1.3-39.4-2.7-59-3.6c-19.4-0.9-38.9-1.4-58.2-3
			c0.5,3.9,1.1,7.9,1.6,11.8c25.7-4,51.3-8.4,76.9-12.7c12.6-2.1,25.2-4,37.8-6c12.4-1.9,24.6-4.5,37.2-5.1
			C790.6,1190.3,790.6,1178.2,782.9,1178.6L782.9,1178.6z"/>
	</g>
</g>
<g id="XMLID_317_">
	<g id="XMLID_388_">
		<path id="XMLID_392_" class="st1" d="M205.4,1195.3c3.2,4.4,7.5,7.8,13,9c4.4,0.9,11.4,1.9,15.3-0.8c6.3-4.4,0.3-14.8-6.1-10.4
			c0.9-0.1,0.8-0.2-0.3-0.1c-0.4,0-0.9,0-1.3,0c-1.5,0-2.9,0-4.4-0.3c-2.2-0.4-4.4-1.6-5.8-3.4c-1.9-2.6-5.2-3.9-8.2-2.2
			C204.9,1188.5,203.5,1192.7,205.4,1195.3L205.4,1195.3z"/>
	</g>
</g>
<g id="XMLID_318_">
	<g id="XMLID_395_">
		<path id="XMLID_399_" class="st1" d="M308.6,1214.3c7.7,0,7.7-12,0-12C300.8,1202.3,300.8,1214.3,308.6,1214.3L308.6,1214.3z"/>
	</g>
</g>
<g id="XMLID_319_">
	<g id="XMLID_402_">
		<path id="XMLID_407_" class="st1" d="M219.4,1191.3c-3.6,10.6,9.5,10.8,16,9c9.9-2.7,18.7-7.6,29-9.3c10.4-1.6,21.7-2.6,32.1-1.4
			c5.1,0.6,10,0.5,14.9,1.8c5.2,1.4,10.6,1.5,15.9,2.6c0.5-3.9,1.1-7.9,1.6-11.8c-16.5-0.2-33.4,1.1-49.9-0.1
			c1.9,1.5,3.9,2.9,5.8,4.4c2.4,7.8-3.2,5.2-1.7,5.3c0.6,0,1.4-0.4,2.1-0.5c1.4-0.3,2.7-0.5,4.1-0.6c2.4-0.3,4.8-0.4,7.2-0.8
			c6.6-1.2,5.2-12.3-1.6-11.8c-3.5,0.3-7,0.5-10.5,0.8c-3.1,0.2-6.9,1.2-10,0.8c-0.5,3.9-1.1,7.9-1.6,11.8c2.5,0,5,0,7.5,0
			c7.7,0,7.7-11.9,0-12c-5.8-0.1-39.5-0.1-34.7,13.6c1.4,3.9,5.2,5.3,8.8,3.6c8.5-4,18.2-20.7,6.9-26.9c-8.5-4.7-25.1-4.6-32.4,2.2
			c-1.4,1.3-2.3,4-1.5,5.8c1.6,4.1,4,4.6,7.7,6c0.5-3.9,1.1-7.9,1.6-11.8c-6,0.7-10.3,2.2-14.8,6.4c-4.2,3.8-6.7,8.6-7.4,14.2
			c-0.6,5.1,0.9,9.9,6,11.9c5.9,2.3,11.9-0.9,16.4-4.8c4.4-3.9,7.7-9.6,6.6-15.7c-1-5.8-5.5-10.4-11.4-10.9
			c-10.3-0.8-21.9,8.5-25.3,17.9c-1.9,5.4-4.6,13-2,18.4c2.5,5.1,8.1,8.1,13.5,8.7c13,1.6,21.6-11.1,23-22.5c0.6-5,0.2-10.2-3.5-14
			c-3.7-3.8-9.2-5.3-14.3-6.3c-5.7-1.1-12.3-1.6-17.7,0.9c-5,2.3-8.5,7-10.7,11.9c-5.3,11.5-3.4,24,7.6,31.4
			c10.4,6.9,21.3,1.5,29.3-6.5c7-7.1,20.2-19.1,11.2-29.2c-8.3-9.3-21.4-12.4-33.4-11.5c-6.6,0.5-10.2,3.7-12.8,9.6
			c-2.4,5.4-4.3,13.1-2.6,18.9c1.3,4.6,5.8,9.4,9.6,12.2c4.8,3.5,11.8,6,17.8,5.8c14-0.5,22.9-14.7,29.5-25.3
			c3.1-4.9,6.8-10.6,4.5-16.4c-2-4.9-5.9-8.5-11-10.1c-6.6-2.1-13.5-3.9-20.3-5.4c-5.8-1.3-11.1-0.7-15.3,3.9
			c-7.6,8.2-8.4,21.1-6.2,31.4c0.8,3.9,2.1,8.7,5.7,11c4.3,2.8,9.7,0.5,11.4-4.2c2.7-7.4-3.6-21-12.6-19.2c-1.9,0.4-3.8,2.3-4.2,4.2
			c-1.4,6.1-0.3,12,2,17.7c1.1,2.7,2.3,5.4,3.4,8.1c1.2,2.9,1.5,5.3,3.6,7.7c2.5,3,7.6,1.9,9.4-1.2c0.6-1.1,1.1-2.1,1.4-3.3
			c-3.3,0.9-6.7,1.8-10,2.6c0.6,0.6,1.4,5.7,1.7,6.9c0.5,2.3,0.6,5.4-0.8,7.4c-4,5.9,4.5,11.6,9.4,7.3c22.6-19.8,50.2-36,78.3-46.5
			c14.6-5.4,29.5-8.8,44.9-11.1c8.5-1.2,16.9-2.4,25.5-2.6c7-0.2,15.4-0.5,22.2,1.7c0-3.9,0-7.7,0-11.6c-4.9,1-9.9,1.4-14.8,2.6
			c-4.8,1.2-9.5,2.8-14.2,4.3c-4.6,1.4-9.1,3.1-13.7,4.3c-3.2,0.9-6.4,1.4-9.3,3.2c-3,1.9-4.3,6.9-1.2,9.4c7.1,5.8,18,5.1,26.7,5.7
			c-0.5-3.9-1.1-7.9-1.6-11.8c-4.5,1.8-9.1,1.9-13.8,2.3c-3.9,0.4-10,2-13.6,0.8c0.5,3.7,1,7.3,1.4,11c8.2-6.2,21.2-5.8,30.9-7.3
			c5.8-0.9,5.7-10.6,0-11.6c-4.9-0.8-9.5,0.5-14.4,1.2c-3.1,0.4-7.5,2.1-10.6,1.2c0.9,3.3,1.8,6.7,2.6,10c4.2-3.9,10.3-1.8,14.6-5.1
			c4.3-3.3,3.5-11.4-3-11.2c-6.3,0.2-12.8,0.4-18.9,1.6c-6.6,1.2-5.2,12.5,1.6,11.8c8.1-0.8,16.2-2,24.3-2.8
			c7.8-0.8,15.6-0.6,23.4-1.5c7.7-0.9,7.7-11,0-12c-13.1-1.7-25.7-0.4-38.8-0.5c0,4,0,8,0,12c8.3-0.1,16.6-0.5,24.7,1.3
			c0-3.9,0-7.7,0-11.6c-4.4,1.2-9.6,0.9-14.1,1.4c-4.2,0.4-8.4,0.8-12.6,1.7c-5.6,1.2-5.9,10.6,0,11.6c7.3,1.3,15.1,0.3,22.5,0.4
			c7.7,0,7.7-12,0-12c-7.3,0-14.6,0.4-21.9,1.4c-6.2,0.9-12.6,0.7-18.8,1.9c1.1,3.9,2.1,7.7,3.2,11.6c4.9-1.4,9.8-2.2,14.8-3.1
			c6.7-1.3,5.1-12-1.6-11.8c-1.1,0.1-2.2,0.1-3.3,0c-7.8-0.3-7.5,11.2,0,12c5.5,0.5,10.8,2.1,16.2,2.9c5.4,0.7,10.8,1.2,16.2,1.6
			c6.7,0.5,20.3,3.8,25.6-2.2c2.6-3,2.2-9.3-2.6-10c-4.5-0.7-8.9-1-13.4-1.3c-1.7-0.1-3.5-0.3-5.2-0.5c-2.1-0.2-2.7-0.9-0.9,0.7
			c-0.4,3.1-0.8,6.3-1.2,9.4c2.7-1.7,8.8-1,12-1.1c5.8-0.3,11.6-0.1,17.3-0.1c5.2,0,10.5,0.6,15.7,0.2c2.5-0.2,4.6-1.2,7-1.6
			c2.8-0.4,6.1,0.1,8.9,0c5.4-0.1,10.5,1.6,15.8,2.3c5.6,0.7,11.4,0.7,17,1c4.4,0.2,10.1,0,12.7,1.6c4,2.4,10.6,1.2,15.1,1.2
			c7.7,0,7.7-12,0-12c-2.9,0-5.8-0.2-8.7,0c-0.5,0-0.9,0-1.4,0.1c0.8,0.2,0.8,0.1,0.1-0.3c-1-0.4-1.8-1.2-2.9-1.5
			c-4.8-1.4-10.9-0.9-15.8-1.1c-6-0.3-12.3-0.2-18.2-1.3c-6-1.2-11.1-1.9-17.2-1.8c-2.6,0-5.4-0.3-8,0.2c-2.9,0.6-4.9,1.4-7.9,1.4
			c-5.6-0.1-11.2-0.3-16.8-0.3c-6.1,0-12.2,0.2-18.4,0.5c-4.4,0.2-8.7-0.1-12.5,2.4c-3.1,2-4.2,6.7-1.2,9.4c2.8,2.5,5.9,2.6,9.4,2.8
			c5.1,0.4,10.3,0.6,15.4,1.3c-0.9-3.3-1.8-6.7-2.6-10c1.3-0.5,1.3-0.7-0.1-0.4c-0.6,0-1.2,0-1.7,0c-2.6,0-5.2-0.3-7.8-0.5
			c-4.3-0.3-8.6-0.5-13-0.9c-9.1-0.8-17.9-3.1-27-4.1c0,4,0,8,0,12c1.1,0.1,2.2,0.1,3.3,0c-0.5-3.9-1.1-7.9-1.6-11.8
			c-5,0.9-9.9,1.7-14.8,3.1c-7.5,2.1-4.3,13,3.2,11.6c5.5-1,11.4-0.8,16.9-1.6c6.8-1,13.6-1.3,20.5-1.2c0-4,0-8,0-12
			c-6.1,0-13.3,1.1-19.3,0.1c0,3.9,0,7.7,0,11.6c8.7-1.9,18.2-0.7,26.8-3c5.5-1.5,5.9-10.3,0-11.6c-9.2-2-18.5-1.8-27.9-1.7
			c-7.7,0.1-7.7,11.9,0,12c13.1,0.1,25.7-1.2,38.8,0.5c0-4,0-8,0-12c-7.7,0.9-15.6,0.7-23.4,1.5c-8.1,0.8-16.2,2-24.3,2.8
			c0.5,3.9,1.1,7.9,1.6,11.8c5.1-0.9,10.6-1,15.8-1.2c-1-3.7-2-7.5-3-11.2c-1.7,1.3-5.2,0.9-7.4,1.6c-3.6,1.1-6.9,2.8-9.7,5.4
			c-3.4,3.1-1.5,8.8,2.6,10c3.7,1.1,7.5,0.4,11.2-0.3c1.9-0.3,3.8-0.6,5.7-0.9c2.3-0.3,5.8-1.6,8-1.2c0-3.9,0-7.7,0-11.6
			c-11,1.7-24.5,1.6-33.8,8.5c-4.2,3.1-3.7,9.2,1.4,11c5.3,1.8,11.4,0.2,16.8-0.4c5.7-0.5,11.6-0.6,17-2.7
			c6.2-2.5,5.5-11.3-1.6-11.8c-3.9-0.3-7.8-0.6-11.6-1c-1.9-0.2-5,0-6.6-1.2c-0.4,3.1-0.8,6.3-1.2,9.4c2.6-1.6,6.1-1.9,9-2.8
			c4.3-1.3,8.6-2.8,12.9-4.1c4.1-1.3,8.2-2.7,12.3-3.7c4.9-1.2,9.9-1.6,14.8-2.6c6.1-1.3,5.3-9.9,0-11.6c-7.2-2.3-15.9-2.2-23.4-2.1
			c-9,0.1-17.9,1.2-26.8,2.5c-16.7,2.4-32.9,5.7-48.7,11.6c-30.2,11.3-59.4,28.4-83.6,49.6c3.1,2.4,6.3,4.8,9.4,7.3
			c2.7-4.1,3.4-10.7,2.4-15.5c-0.9-4.3-1.9-10.2-5.1-13.4c-3.3-3.3-8.7-1.6-10,2.6c-0.1,0.1-0.2,0.3-0.2,0.4
			c3.1-0.4,6.3-0.8,9.4-1.2c1.5,1.7-0.7-2.8-1-3.5c-0.9-2.1-1.9-4.1-2.7-6.2c-1.5-3.8-3.2-8-2.2-12.1c-1.4,1.4-2.8,2.8-4.2,4.2
			c-6,1.2-4-2.7-3,0.7c0.2,0.7,0.6,2.6,1,3.2c0.5,0.6,7.1,0.9,7.1-1.9c0-0.2-0.5-1.6-0.6-1.7c-1.7-5.3-2.1-7.9-1-13.7
			c0.5-2.5,1.9-8.9,4.7-9.8c2-0.6,5.4,1.1,7.3,1.6c4.5,1.2,9,2.3,13.4,3.6c1.1,0.3,2.4,0.5,3.3,1.2c0.5,0.4,0.9,0.8,1.2,1.4
			c0.5,0.8,0.6,1,0.1,0.4c0.2,3-4.6,8.3-6.3,10.8c-2.8,4.2-5.7,7.9-9.5,11.3c-7,6.3-15.7,3.1-21.1-3.7c-2.5-3.1-1.6-5.8-0.5-9.6
			c0.3-1.2,1.2-5.3,2.5-5.9c0.5-0.2,4.3,0.1,5.2,0.1c8.1-0.1,15.8,3,21,9.3c-0.6-1.4-1.2-2.8-1.8-4.2c0.2,2.4,0.3,2.3-0.6,4.1
			c-1,2-2.8,3.6-4.3,5.2c-2.1,2.3-4.2,4.8-6.5,6.9c-5.3,5.1-11.8,7.7-16.8,0.6c-3.6-5-0.8-16,5-19c3.4-1.7,8.6-0.5,12.1,0.3
			c1.8,0.4,5.5,0.9,6.5,2.8c1.3,2.4-0.4,7.8-1.5,10.1c-1.7,3.3-5.2,7-9.2,5.8c-4.1-1.2-2.9-2.7-1.8-6.6c1.2-4.4,2.1-7.6,5.9-10.4
			c1.5-1.1,6.1-4.8,8.1-4c3.8,1.4-2.9,6.2-4,7.3c-1.3,0.2-1.6,0.6-0.9,1.4c0.4,0.9,0.5,0.9,0.5,0c0.5-0.3,1.1-3.7,1.6-4.4
			c2.1-3.2,5.1-5,8.7-5.4c6.7-0.8,8.1-9.3,1.6-11.8c-0.5-0.2-1.4-0.3-1.8-0.5c0.9,1.2,1.8,2.4,2.8,3.6c-0.1-0.2-0.2-0.5-0.3-0.7
			c-0.5,1.9-1,3.9-1.5,5.8c2.8-2.6,11.1-1.8,14.4-1.3c0.5,0.1,3.4,1,3.4,0.9c-0.2-0.7-0.5-1.3-0.7-2c-0.2,0.7-0.5,1.4-0.9,2.1
			c-1.2,2.6-2.6,4.8-5.3,6.1c2.9,1.2,5.9,2.4,8.8,3.6c-3,4.6-3.5,6.3-1.6,5.1c0.2-0.1,0.4-0.2,0.6-0.3c0.6-0.1,1.3-0.5,1.9-0.7
			c1.5-0.5,3.1-0.9,4.6-1.3c5.8-1.4,11.7-1.3,17.7-1.2c0-4,0-8,0-12c-2.5,0-5,0-7.5,0c-6.5,0-8.5,10.8-1.6,11.8
			c7.7,1.1,16-0.6,23.7-1.2c-0.5-3.9-1.1-7.9-1.6-11.8c2.4-0.5-0.1,0-0.6,0c-1.1,0.1-2.2,0.2-3.3,0.3c-2.6,0.3-5.2,0.6-7.7,1.1
			c-4.7,1-10.1,4.2-8.3,9.9c0.8,2.7,3.1,4.2,5.8,4.4c16.5,1.2,33.3-0.1,49.9,0.1c6.6,0.1,8.3-10.4,1.6-11.8c-4.5-0.9-9.1-1-13.5-2
			c-4.4-1-8.2-2.2-12.8-2.3c-4.7-0.1-9.4-1-14.2-1c-4.6-0.1-9.2,0.3-13.7,0.6c-9.1,0.7-18.5,1.6-27.2,4.5c-4.2,1.4-8.1,3.3-12.2,4.9
			c-2,0.8-4.1,1.5-6.2,1.9c-0.8,0.2-1.6,0.4-2.5,0.4c-2.9-0.2-2,1.4,2.8,5C233.5,1187.2,221.9,1184,219.4,1191.3L219.4,1191.3z"/>
	</g>
</g>
<g id="XMLID_320_">
	<g id="XMLID_410_">
		<path id="XMLID_414_" class="st1" d="M648.9,1183.7c-2.4-1.8-5.1-1.5-7.9-1.5c-3.8,0.1-7.5,0.1-11.2-0.5c-6.9-1.2-13.7-2.6-20.5-4
			c-3.6-0.7-6.9-0.3-10.4-0.8c-2.7-0.4-6-1.8-8.5-2.8c-2.6-1.1-4.8-2.5-7.7-2.7c-1.4-0.1-2.8,0.1-4.2,0.6c-1.9,0.7-2.8,2.3-4.5,3.1
			c-5.5,2.6-2.7,11.3,3,11.2c17.6-0.5,35.4-0.2,53-0.2c17.6,0,35.3,0.5,52.7,3c17.6,2.4,34.9,4.4,52.7,4.5
			c8.2,0.1,16.9,0.7,25.1-0.4c8.5-1.1,16.9-4.6,25.2-6.7c9.3-2.3,18.8-4.4,28.3-5.6c10-1.3,20.2-1.3,30.2-2.7
			c5.8-0.8,5.6-10.5,0-11.6c-7.7-1.4-16.1,0.1-23.9,0.5c-8.9,0.5-17.9,0.8-26.8,1c-17.8,0.4-35.7,0.8-53.6,0.8c-7.7,0-7.7,12,0,12
			c17.2,0,34.4-0.4,51.6-0.7c8.6-0.2,17.2-0.5,25.8-0.9c4.1-0.2,8.1-0.5,12.2-0.8c3.6-0.2,8-1,11.5-0.3c0-3.9,0-7.7,0-11.6
			c-8.6,1.2-17.4,1.1-26.1,2.2c-8.4,1-16.7,2.6-24.9,4.4c-8.4,1.9-16.8,4.1-25.1,6.6c-8,2.5-16.3,1.8-24.6,1.8
			c-34.8,0-68.7-7.2-103.5-7.5c-19.9-0.1-39.9-0.4-59.8,0.2c1,3.7,2,7.5,3,11.2c1.2-0.6,2.4-2,3.4-2.5c-1.5,0.6-0.9,0.5,0.2,1.3
			c2.1,1.5,5.5,2.1,7.9,3c5.6,2.1,11.3,1.3,17,2.6c5.9,1.3,12,2.3,18,3.4c2.7,0.5,5.5,0.9,8.3,1c1.5,0.1,7-0.9,8-0.2
			C649.1,1198.7,655.1,1188.3,648.9,1183.7L648.9,1183.7z"/>
	</g>
</g>
<g id="XMLID_322_">
	<g id="XMLID_417_">
		<path id="XMLID_421_" class="st1" d="M569.2,1199.6c10.7,0,21.3-1.3,32-1.4c10.8-0.2,21.5,0.1,32.3,0.1c11.1,0,22.2,0.5,33.3-0.5
			c10.8-1,21.6-2.3,32.4-3c22-1.4,44-2.1,66-2.8c10.8-0.3,21.6-0.5,32.4-0.1c11,0.4,21.9,2.1,32.9,1.7c12.3-0.4,24.6-2.2,36.9-2.4
			c5.7-0.1,11.3,0.3,16.9,1c3,0.4,6,0.9,9,1.5c0.8,0.2,1.7,0.3,2.5,0.5c3.2,0.7,0.7,1-0.4-2.2c0.9-2.3,1.8-4.5,2.8-6.8
			c-15.2,9.8-34.3,10.7-51.9,11c-9,0.2-17.9-0.1-26.9-0.1c-4.3,0-8.5,0.1-12.8,0.5c-2.2,0.2-4.4,0.2-6.6,0.4c-0.7,0-6.8,0.9-3.2,0.8
			c1.4,0.6,2.8,1.2,4.2,1.8c-0.2-0.2-0.4-0.4-0.6-0.6c-0.4,3.1-0.8,6.3-1.2,9.4c10.7-8.2,23.8-11,36.9-13.4c7-1.2,14.1-2.4,21.1-3.4
			c8-1.1,16.2-1.1,24.1-3c7-1.6,4.8-11.2-1.6-11.8c-13.4-1.3-27.1-1.3-40.6-1.4c-12.7-0.1-26,0.2-38.6,2.3c-6.8,1.2-5,11.8,1.6,11.8
			c4,0,7.9,0.4,11.9,1c3.2,0.5,6.6,0.5,9.7,1.6c0-3.9,0-7.7,0-11.6c-3.4,1.3-6.9,2.2-10.3,3.3c-4.5,1.5-6.3,8.5-1.4,11
			c2.9,1.4,5.3,1.5,8.5,1.5c4,0,8,0.4,11.9,1c8.3,1.3,16.5,2.7,24.7,4c0-3.9,0-7.7,0-11.6c-0.9,0.4-1.8,0.6-2.7,0.7
			c-6.5,1.3-5.2,12.5,1.6,11.8c4-0.4,9.8,0.2,12.8-3c3.7-3.9,0.9-9.9-4.2-10.2c-6.6-0.4-13.1,0-19.6,0.5c-5.7,0.4-12.5,1.8-18.1,0.4
			c1.5,1.9,2.9,3.9,4.4,5.8c0,5.5-2.3,1.7-0.1,1.9c0.5,0.1,1.4-0.4,1.9-0.5c1.5-0.4,3-0.6,4.5-0.9c4.8-0.7,9.7-0.6,14.3-2
			c6.8-2,5-11.2-1.6-11.8c-16.3-1.6-32.6-1.4-48.8,1c-15.4,2.3-31.1,6.4-46.7,6.8c-7.7,0.2-7.8,12.1,0,12c3.2,0,7.6-0.1,10.6-1
			c5.6-1.8,5.8-9.8,0-11.6c-5.8-1.8-11.3-0.5-17.2-0.1c0.5,3.9,1.1,7.9,1.6,11.8c3.2-0.8,6.5-1.4,9.7-2.1c6.1-1.4,5.3-9.8,0-11.6
			c-3.2-1.1-6.7-0.7-10.1-0.7c-4,0-8.1-0.1-12.2,0c-7.7,0.1-7.7,11.9,0,12c7,0.1,13.9-1.2,20.9-1.7c7.4-0.5,14.7-0.6,22.1-1
			c15.6-0.9,31.1-0.8,46.7-0.8c14.8,0.1,29.5-0.1,44.3,0.1c6.1,0.1,13.5,0.9,19-2.5c2.3-1.4,3.8-3.5,6.2-4.8
			c2.4-1.4,4.3-2.9,5.6-5.4c1.3-2.4,1-5.3-0.9-7.3c-12.2-12.3-33.2-12.6-42,3.4c-4.1,7.4-5.9,15.7-6.2,24.1c-0.2,4.5,0.8,9.5-0.1,14
			c-1,4.8-2.5,8.7-2.6,13.8c-0.1,7.7,11.9,7.7,12,0c0-3.7,1-6.3,2-9.8c0.9-3.3,0.9-6.8,0.8-10.2c-0.2-6.7-0.3-13.3,1.9-19.7
			c1.5-4.4,3.6-9.9,8.2-11.9c5.8-2.6,13.3,0.5,17.6,4.8c-0.3-2.4-0.6-4.8-0.9-7.3c-0.8,1.5-3.8,2.3-5.1,3.4c-2.5,2-3.1,3.1-6.4,3.5
			c-6.1,0.7-12.8,0-19,0c-14.1,0-28.2-0.1-42.2-0.1c-13.9,0-27.8,0.2-41.7,1c-7,0.4-14,0.4-21,1c-6.4,0.5-12.7,1.6-19.1,1.5
			c0,4,0,8,0,12c3.5-0.1,6.9,0,10.4,0c2.7,0,6.1-0.6,8.7,0.3c0-3.9,0-7.7,0-11.6c-3.2,0.7-6.5,1.3-9.7,2.1
			c-6.4,1.7-5.3,12.2,1.6,11.8c4.6-0.3,9.5-1.7,14-0.3c0-3.9,0-7.7,0-11.6c-1.8,0.6-5.6,0.6-7.4,0.6c0,4,0,8,0,12
			c15.4-0.5,31-4.3,46.2-6.7c16.4-2.6,32.9-2.7,49.4-1.2c-0.5-3.9-1.1-7.9-1.6-11.8c-8,2.4-29.3-0.1-29.4,13.1
			c0,2.6,1.9,5.2,4.4,5.8c6.4,1.6,13,0.6,19.4,0.1c7.2-0.5,14.3-1.1,21.5-0.6c-1.4-3.4-2.8-6.8-4.2-10.2c0.7-0.7,2.9-0.7,1.3-1
			c-0.5-0.1-1.6,0.2-2,0.2c-1.2,0.1-2.4,0.1-3.6,0.3c0.5,3.9,1.1,7.9,1.6,11.8c0.9-0.1,1.9-0.4,2.7-0.7c5.1-1.7,6.3-10.6,0-11.6
			c-7.6-1.2-15.2-2.4-22.8-3.7c-3.8-0.6-7.6-1.2-11.4-1.5c-1.8-0.2-6.6,0.6-8.1-0.1c-0.5,3.7-1,7.3-1.4,11c3.4-1.1,6.9-2,10.3-3.3
			c5.5-2.1,5.8-9.5,0-11.6c-3.7-1.3-7.7-1.3-11.5-1.8c-4.4-0.6-8.8-1.2-13.3-1.1c0.5,3.9,1.1,7.9,1.6,11.8
			c12.1-2.1,25.1-2.1,37.3-1.9c12.8,0.2,25.8,0.1,38.6,1.4c-0.5-3.9-1.1-7.9-1.6-11.8c-7.8,1.8-16.1,1.9-24.1,3
			c-7.6,1-15.2,2.3-22.7,3.7c-13.5,2.4-27.2,5.8-38.2,14.3c-3.1,2.4-4.1,6.3-1.2,9.4c1.3,1.4,2.8,2.2,4.8,2.4c0.7,0,1.6,0,2.3-0.2
			c4.5-1.3-1-0.4,1.6-0.6c4.6-0.5,9.5-0.7,14.1-0.8c10.5-0.1,21,0.3,31.5,0.1c19.6-0.4,41-1.7,57.9-12.6c2.1-1.4,3.7-4.2,2.8-6.8
			c-2.8-8-15.6-7.7-22.6-8.6c-10.9-1.3-21.6-1.1-32.5-0.2c-11.7,0.9-23.2,2-34.9,1.1c-11.1-0.8-22-1.6-33.1-1.6
			c-23,0-46,1.3-68.9,2.3c-23,1-45.8,4.5-68.8,4.4c-13.1,0-26.1-0.2-39.2-0.2c-12.7,0-25.3,1.5-37.9,1.5
			C561.5,1187.6,561.5,1199.6,569.2,1199.6L569.2,1199.6z"/>
	</g>
</g>
<g id="XMLID_324_">
	<g id="XMLID_425_">
		<path id="XMLID_429_" class="st1" d="M396.6,1198.9c35-2.1,70-2.1,105.1-1.9c17.5,0.1,35,0.2,52.6,0.1c17.2-0.1,34.3-1,51.5-1.9
			c9.2-0.5,18.5-0.6,27.8-0.9c9-0.3,18.2,0,27.1-1.6c6.5-1.2,4.8-9.6,0-11.6c-2.4-1-5.1-0.5-7.6-0.4c-7.7,0.4-7.8,12.1,0,12
			c8.1-0.1,15.8-0.9,23.7-2.8c8.1-2,16-4.6,24.1-6.3c3.4-0.7,7.6-2.2,11-1.3c3.6,1,6.3,3.8,10.2,4.7c7.8,1.7,16,2.5,24,3.6
			c34.1,4.4,68.4,4.9,102.6,7.6c-1-3.7-2-7.5-3-11.2c-2.5,1.2-6.3,0.6-9.1,0.7c-3.4,0.2-6.7,0.3-10.1,0.4c-7,0.2-14,0.5-21.1,0.6
			c-14.7,0.3-29.4,0.2-44.1,0.2c-29.3,0.1-58.6-1.5-87.9-1.5c-7.7,0-7.7,12,0,12c30.6,0,61.2,1.6,91.9,1.5c15-0.1,30,0.1,44.9-0.3
			c7.6-0.2,15.1-0.4,22.7-0.7c6.4-0.2,13,0.4,18.8-2.5c5.8-2.9,2.4-10.8-3-11.2c-34.2-2.7-68.5-3.1-102.6-7.6
			c-4.2-0.6-8.4-1.2-12.5-1.8c-3.6-0.6-7.9-0.7-11.3-2.2c-3.6-1.7-6.1-3.9-10.3-4.3c-3.5-0.4-7,0.5-10.5,1.1
			c-8,1.5-15.7,3.8-23.5,5.9c-8.4,2.3-16.2,3.4-24.8,3.5c0,4,0,8,0,12c1.3-0.1,3.3-0.5,4.4-0.1c0-3.9,0-7.7,0-11.6
			c-7.4,1.4-15.4,0.9-22.9,1.1c-8.3,0.3-16.6,0.4-24.9,0.7c-16.8,0.7-33.6,1.9-50.4,2c-34.7,0.3-69.4-0.4-104.1-0.1
			c-19.5,0.2-39,0.7-58.5,1.9C388.9,1187.4,388.8,1199.4,396.6,1198.9L396.6,1198.9z"/>
	</g>
</g>
<g id="XMLID_976_">
	<g id="XMLID_456_">
		<circle id="XMLID_460_" class="st2" cx="536.9" cy="1141.1" r="50.6"/>
		<circle id="XMLID_459_" class="st2" cx="536.9" cy="1000.4" r="50.6"/>
		<circle id="XMLID_458_" class="st2" cx="536.9" cy="741.7" r="50.6"/>
		<polyline id="XMLID_457_" class="st2" points="486.3,1000.4 486.3,741.7 587.6,741.7 587.6,1000.4 		"/>
	</g>
</g>
</svg>
