<?xml version="1.0" encoding="utf-8"?>
<!-- Generator: Adobe Illustrator 19.0.0, SVG Export Plug-In . SVG Version: 6.00 Build 0)  -->
<svg version="1.1" id="Laag_1" xmlns="http://www.w3.org/2000/svg" xmlns:xlink="http://www.w3.org/1999/xlink" x="0px" y="0px" width="300px" height="300px"
	 viewBox="0 0 1080 1920" style="enable-background:new 0 0 1080 1920;" xml:space="preserve">
<style type="text/css">
	.st0{fill:#050505;}
	.st1{fill:#EEE71B;}
	.st2{fill:#020100;}
</style>
<g id="XMLID_914_">
	<circle id="XMLID_926_" class="st0" cx="159" cy="1227.9" r="101.1"/>
	<path id="XMLID_925_" class="st0" d="M635.3,579.3c0,55.8-45.3,101.1-101.1,101.1s-101.1-45.3-101.1-101.1s45.3-101.1,101.1-101.1
		c31,0,58.7,13.9,77.3,35.9C626.4,531.7,635.3,554.4,635.3,579.3z"/>
	<circle id="XMLID_924_" class="st0" cx="921" cy="1231.9" r="101.1"/>
	<polyline id="XMLID_923_" class="st0" points="452.5,519.9 79.7,1165.3 887.2,1136.6 	"/>
	<path id="XMLID_922_" class="st0" d="M72,1176.4"/>
	<polyline id="XMLID_921_" class="st0" points="73,1174.8 95.2,1138.4 99.2,1174.8 	"/>
	<path id="XMLID_920_" class="st0" d="M441.7,538.4l0.2-0.4c0,0,0,0.4,0,0.4S441.7,538.4,441.7,538.4z"/>
	<polyline id="XMLID_919_" class="st0" points="441.2,539.3 443,535.7 443.2,539.3 441.2,539.4 	"/>
	<polyline id="XMLID_918_" class="st0" points="159,1329 921,1332.9 790.3,1130.8 222.3,1148.3 159,1325.7 	"/>
	<polygon id="XMLID_917_" class="st0" points="1005.5,1176.4 616,519.9 443.2,1165.3 	"/>
	<polyline id="XMLID_916_" class="st0" points="548.3,637.7 592.3,762.7 592.3,642.7 794.3,1219.7 874.3,1210.7 556.3,623.7 	"/>
	<polyline id="XMLID_915_" class="st0" points="621.6,528.4 632,546.6 633.6,549.4 607.6,552.9 618.1,522.8 602.1,548 	"/>
</g>
<g id="XMLID_894_">
	<g id="XMLID_897_">
		<circle id="XMLID_911_" class="st1" cx="173.7" cy="1231.3" r="49.7"/>
		<circle id="XMLID_908_" class="st1" cx="906.3" cy="1230.2" r="49.7"/>
		<circle id="XMLID_905_" class="st1" cx="532.2" cy="585.5" r="49.7"/>
		<polyline id="XMLID_904_" class="st1" points="139.6,1195.1 487.6,563.5 576.8,563.5 941.9,1195.5 		"/>
		<polygon id="XMLID_903_" class="st1" points="167.3,1281 906.3,1280 870.7,1195.5 196.2,1190.5 		"/>
		<path id="XMLID_902_" class="st1" d="M125.6,1218.6"/>
		<polygon id="XMLID_901_" class="st1" points="131.2,1205.4 168.2,1143.2 170.1,1184.7 		"/>
		<polygon id="XMLID_898_" class="st1" points="950,1206.5 947.6,1202.7 932.7,1179.6 941.9,1208.1 		"/>
	</g>
	<polyline id="XMLID_896_" class="st1" points="924.6,1165.5 937.3,1211.4 952.3,1211.4 927.1,1170 	"/>
	<polygon id="XMLID_895_" class="st1" points="947.2,1202.1 932.3,1178.4 929.6,1208.1 	"/>
</g>
<g id="XMLID_883_">
	<g id="XMLID_407_">
		<circle id="XMLID_411_" class="st2" cx="536.9" cy="1142.3" r="50.6"/>
		<circle id="XMLID_410_" class="st2" cx="536.9" cy="1001.6" r="50.6"/>
		<circle id="XMLID_409_" class="st2" cx="536.9" cy="743" r="50.6"/>
		<polyline id="XMLID_408_" class="st2" points="486.3,1001.6 486.3,743 587.6,743 587.6,1001.6 		"/>
	</g>
</g>
<g id="XMLID_932_">
	<g id="XMLID_374_">
		<path id="XMLID_378_" class="st1" d="M686.8,1100.8c7.7,0,7.7-12,0-12C679.1,1088.8,679.1,1100.8,686.8,1100.8L686.8,1100.8z"/>
	</g>
</g>
<g id="XMLID_933_">
	<g id="XMLID_368_">
		<path id="XMLID_372_" class="st1" d="M686.8,1100.8c7.7,0,7.7-12,0-12C679.1,1088.8,679.1,1100.8,686.8,1100.8L686.8,1100.8z"/>
	</g>
</g>
<g id="XMLID_934_">
	<g id="XMLID_362_">
		<path id="XMLID_366_" class="st1" d="M686.8,1100.8c7.7,0,7.7-12,0-12C679.1,1088.8,679.1,1100.8,686.8,1100.8L686.8,1100.8z"/>
	</g>
</g>
<g id="XMLID_935_">
	<g id="XMLID_356_">
		<path id="XMLID_360_" class="st1" d="M680.8,1094.8c0.4,4.3-1.5,7.8-2.9,11.7c-1.5,4.1-2.3,8.4-2.8,12.8
			c-0.8,6.6-0.8,13.6,3.1,19.3c6.7,9.6,22,12,32.9,10c13-2.4,22.2-20.1,14.1-31.5c-8.9-12.5-24.2-9.2-34.2,0.1
			c-10.3,9.6-9.8,24-3.5,35.7c7,12.9,19.8,21.6,32.9,27.2c13.7,5.9,27.6,7.1,38.2-5.1c9.2-10.6,13.3-25.3,16.7-38.7
			c3.7-14.7,4.6-29.5-5.1-42c-8.1-10.4-25.3-16-38.2-15.1c-15.1,1.1-28.5,10.4-34.4,24.5c-5.1,12.3-3,28.9,7.4,38
			c10.6,9.2,25.7,4.7,34.4-5c9.4-10.6,10.8-24,6.3-37.1c-2.1-6.2-5.1-12.1-10.8-15.7c-6.6-4.2-14.4-4.8-21.9-3.5
			c-6.4,1.1-13.4,3.1-18.3,7.6c-4.9,4.6-6.8,11.5-7.8,17.9c-2,12.9-0.5,27.5,3.4,39.9c4.5,14.2,14.4,23.6,29.6,25
			c14.5,1.3,22.8-8.7,29.9-20c3.8-6.1,6.7-12.8,9.1-19.6c2.2-6.5,5-14,2.7-20.8c-3.8-11.3-19.1-17.1-29.9-18.6
			c-6.3-0.9-13.2-0.4-18.1,4.2c-4.6,4.3-4.8,10.7-1.4,15.8c6.2,9.4,21.1,15.3,32.1,14.5c13.2-0.9,21-15.1,24.1-26.6
			c1.6-6.1,2-12.8-0.2-18.7c-2.3-6.1-7.2-10.4-12.4-14.1c-5.5-4-12.9-7.2-19.8-5.3c-6.3,1.7-11.1,6.8-14.2,12.4
			c-5.9,10.6-7.1,23.1-4,34.8c1.5,5.6,4.2,11.5,9.2,14.7c5.6,3.5,13.7,2.6,18.9-1.2c8.1-6.1,9.9-19.8,10.5-29.3
			c0.6-9.8-1-21.6-9.7-27.7c-10.6-7.3-25.2-1.8-35.6,2.9c-12.5,5.6-24.2,14.7-32.3,25.7c-9.6,13-12.3,30.3-13.2,46
			c-0.8,13.2-2.3,32,8.9,41.5c10.1,8.6,28.6,13.2,40.3,5.2c5.5-3.8,8.1-9.4,10.1-15.6c1.9-6.1,4.6-12.7,5.2-19.1
			c1-10.2-11-22.6-21.8-20.1c-6.2,1.4-7.4,7.3-6.9,12.8c0.5,5.1,0.3,10.5,3.5,14.8c3.7,5.2,10.9,9.7,17,11.4
			c6.5,1.8,13.3-0.5,19.1-3.5c12.7-6.5,23.1-17.3,33-27.3c3.9-3.9,13.1-4.1,18.4-3.6c2.8,0.3,5.4,1.6,8.1,2.4
			c1.7,0.5,6.3,0.5,7.3,2.1c0.7-2.7,1.4-5.5,2.2-8.2c-25.8,16.9-56.8,11.4-85.9,13.6c-16.1,1.3-31.8,6.3-47.9,6.6
			c-7.5,0.2-15.3,0.3-22.8,0c-4.1-0.2-8.8-0.8-9.6-5.4c-0.8-4.6-1-10.3-0.4-14.8c0.8-5.5,6.4-8.1,11.2-9.7c13-4.4,27.1-5.6,40.7-6.2
			c7.2-0.3,14.7-0.9,21.8,1.1c6.8,2,13.3,6.2,19.2,9.9c12.3,7.7,23.6,16.8,36.3,23.6c6.1,3.3,12.6,6.2,19.2,8.2
			c6.5,2,13.3,2.8,19.8,4.9c12.2,4,22,13.6,29.7,23.7c1.7,2.2,4.2,4.9,3.3,7.8c-0.9,2.9-4,5.1-6.1,7c-5.5,4.7-12,8.1-18.5,11.1
			c-13.2,6-26.5,9.6-41.1,9.5c-14.7-0.1-27.5-4.2-41.5-8.2c-14.9-4.2-30.8-2.6-46-2.6c-8.4,0-16.8,0-25.2,0c-3.8,0-7.7-0.3-11.5,0
			c-1.6,0.1-5.9,0.5-7.2,1.7c-1.3,1.1,2.1,0.2,1.8,0.5c0.2-0.2-0.5-1.5-0.4-1.7c0.1-1.3-0.2-2.7-0.1-4c0.2-3.2,1-6.4,1.8-9.6
			c1.8-7.2,3.3-14.3,4.4-21.6c2.4-15.8,3.7-31.7,3.8-47.7c0.1-8.1-0.3-16.1-2.1-24c-1.2-5.5-2.7-12,3.6-14.6
			c13.8-5.6,26.7,4.3,36.9,12.3c12.3,9.7,24,20.1,35.4,30.8c5.6,5.3,11,10.6,16.5,16c5.5,5.4,14-3,8.5-8.5
			c-12.9-12.7-25.9-25.2-39.7-36.9c-12.5-10.6-26.4-24.3-43.3-26.8c-13.5-2-30,3.1-30.9,18.8c-0.5,8.4,2.9,16.7,3.1,25.1
			c0.3,9.3-0.1,18.6-0.7,27.9c-0.6,9.4-1.7,18.8-3.2,28c-1.3,8-3.7,15.8-5.2,23.8c-1.2,6.2-2,14.3,1.9,19.8
			c4.2,5.8,9.1,3.7,14.8,2.6c4.6-0.9,10-0.1,14.7-0.1c4.8,0,9.7,0,14.5,0c9.2,0,18.5,0,27.7-0.2c9.4-0.2,18,0.7,27,3.6
			c7.7,2.4,15.2,4.7,23.2,5.9c16,2.4,32.8,2,48.3-3.1c14.7-4.8,31.7-12.2,42-24.2c4.9-5.7,6.8-13,3.2-19.9
			c-3.2-6.2-8.9-13.1-14-17.8c-5.3-4.9-11.5-10.1-18.1-13.2c-6.8-3.2-14-4.9-21.3-6.5c-16.5-3.4-30.7-12.8-44.3-22.2
			c-13-9-27.3-20.3-43.4-22.4c-8.4-1.1-17-0.5-25.5,0c-8.6,0.5-17.3,1.7-25.8,3.4c-11.9,2.4-28.3,7-30.8,20.9
			c-1.1,5.9-0.6,12.2-0.1,18.2c0.6,6.7,3.9,12.1,10.1,14.9c6.1,2.8,12.9,2.4,19.5,2.3c8.9,0,17.8,0.2,26.7-1.1
			c9.5-1.4,18.9-3.7,28.5-4.8c9.2-1,18.4-1.4,27.6-1.6c16.9-0.2,33.8,0.3,50.2-4.5c7.7-2.3,15.1-5.6,21.8-10c2.6-1.7,4-5.4,2.2-8.2
			c-2.5-3.8-6-5.7-10.4-6.7c-4.7-1.1-9.2-3-14-3.5c-8.5-0.9-20.8-0.1-27.2,6c-7.5,7-14.3,14.7-22.7,20.9c-3.7,2.7-7.6,5.4-11.9,6.9
			c-5.1,1.9-8.4,0.7-12.8-2.3c-3.6-2.4-4.9-3.6-5.2-7.7c-0.1-1.4-0.3-2.8-0.4-4.2c0-0.4,0.1-3-0.1-3.2c-0.8,0.9-1.7,1.7-2.5,2.6
			c0.4,0.1,0.7,0.2,1.1,0.3c1.5,1.9,5.2,2.4,6.2,4.8c1.4,3.4-1.9,9.4-2.8,12.7c-1.2,4-2,8.6-4.2,12.2c-2.7,4.3-7.8,5.3-12.6,4.8
			c-4.4-0.5-9.2-2.1-13.1-4.3c-5.1-2.8-6.7-7.3-7.4-12.9c-1.4-10.8-0.7-22.5,1-33.2c1.8-11.4,5.1-22.6,12.9-31.3
			c6.6-7.2,14.7-13.3,23.5-17.5c6-2.9,17.3-8.3,24-4.8c5.2,2.7,5.4,10.7,5.3,15.7c-0.1,6.4-1.1,14-3.9,19.7c-1.4,2.8-4.9,5-7.8,2.7
			c-2.9-2.3-3.7-7.7-4.2-11c-1.2-7.7-0.1-15.6,3.9-22.3c1.9-3.2,4.8-6.8,8.9-6.3c4.8,0.6,9.8,4.7,13,8.1c5.9,6.2,3.2,15.9-0.3,22.6
			c-1.7,3.2-3.9,7.8-7.3,9.7c-3.6,2-8.5,0.4-12.2-0.7c-3.5-1.1-6.9-2.4-9.8-4.8c-0.9-0.7-2.7-2.2-3-3.5c-0.1-0.7-0.1,0.3-0.2,0.4
			c0.5-1,2.3-1.3,3.2-1.4c7.4-1.2,17.2,2.8,22.8,7.5c3.8,3.2,2.7,6.6,1.5,10.9c-1.5,5.2-3.3,10.4-5.6,15.3
			c-3.3,6.9-8.8,18.4-16.5,21.2c-8.9,3.3-18.8-2.5-22.9-10.1c-4.2-7.9-5.2-17.8-5.9-26.6c-0.6-7.6-1.1-21.3,6.2-26.1
			c6.9-4.5,21.4-6.6,26.8,1.1c4.7,6.8,6.8,17.2,3.7,24.9c-2.7,6.8-11.7,16.4-19.8,12.6c-8.3-3.9-9.6-17-7-24.6
			c3.4-9.9,12.8-17.1,23.1-18.4c8.9-1.1,21.1,2.4,27.8,8.5c8.1,7.3,7.9,18.4,5.9,28.3c-2,9.9-4.9,20.5-9.3,29.7
			c-4.2,8.7-10.6,16.9-21.2,14.6c-9.6-2.2-19.5-7.3-26.9-13.8c-6.7-5.9-14.1-15.2-12.6-24.8c0.9-6.3,10.2-15.5,17-12.8
			c5.3,2.1,4.8,7.2,2.6,11.4c-2.3,4.4-6.1,4.8-10.6,4.7c-6.1-0.2-15.9-1.1-17-8.7c-0.8-5.5,0.5-11.8,2.2-17
			c1.8-5.6,4.3-10.4,3.8-16.5C692.2,1087.2,680.2,1087.1,680.8,1094.8L680.8,1094.8z"/>
	</g>
</g>
<g id="XMLID_936_">
	<g id="XMLID_350_">
		<path id="XMLID_354_" class="st1" d="M383.9,1118.8c-0.4,6-7.6,11.1-12.8,13c-2.1,0.8-1.8,1.2-3.4-0.8c-1.6-2-2.4-4.8-3.1-7.1
			c-0.7-2.3-1.3-4.7-1.7-7c-0.3-1.9,0.2-4.7-0.5-6.3c0.1,0.3-1.4,0.7-0.5,1.1c0.1,0.1,0.9-0.2,1.2-0.2c1.3,0.1,2.6-0.1,3.9-0.1
			c3.7,0,5,0.5,6.8,3.9c3.7,7.1,3.8,15.6,3.3,23.4c-0.5,6.9-1,15.3-5.1,21.1c-2.3,3.2-5.8,5.7-9.1,7.6c-2.5,1.4-7.3,4.2-10.3,3.7
			c-3-0.6-3.3-5.5-3.1-8c0.2-1.8,0.6-3.7,1.7-5.2c0.5-0.6,1.2-0.8,3-1.4c2.4-0.8,5-1.7,7.5-2c0.7-0.1,2.1,0.2,2.7-0.1
			c-0.5,0.2,0.6,0,0.5,0.2c-0.2,0.4-1.9-1.7-1.9-1.8c1.5-1.9,2.9-3.9,4.4-5.8c0.4,0.2,0.8,0.3,1.2,0.5c-5.9-4.9-14.4,3.5-8.5,8.5
			c3.2,2.6,6.3,3.9,10.4,2.6c2.6-0.8,4.4-3.1,4.4-5.8c0.1-10.4-10.6-11.2-18.4-9.6c-6.8,1.5-13.7,3.9-16.9,10.5
			c-3.6,7.4-3.2,17.9,2.3,24.2c7.7,8.9,20.7,3.9,29-1.6c4.7-3.1,9.2-6.9,12.1-11.9c3.3-5.6,4.3-12.1,5.2-18.4
			c1.6-12.7,2.1-27-4.9-38.3c-5.4-8.7-16.8-10.7-26.1-7.2c-9.8,3.7-6.9,16-4.9,23.9c2.2,9,7.5,21.4,18.8,19.6
			c12-1.8,23.9-13.1,24.7-25.3C396.4,1111.1,384.4,1111.2,383.9,1118.8L383.9,1118.8z"/>
	</g>
</g>
<g id="XMLID_339_">
	<g id="XMLID_389_">
		<path id="XMLID_393_" class="st1" d="M745,1141.3c-1.3,9.7,1.9,18.2,8.7,25.1c6.9,7,17.4,7,25.9,2.9c7.3-3.5,11.3-11.5,14.4-18.5
			c3.2-7.3,8.7-19.2,4.7-27c-1.6-3.2-6.7-5.9-10.2-6.5c-4.8-0.9-10.3-0.3-15,0.7c-8.9,1.9-15.8,4.1-21.1,11.9
			c-4.4,6.6-8,16.7-4.2,24.3c4.1,8.4,11.2,13.5,18.9,18.4c4.3,2.7,9.8,4.9,14.3,1.8c2.4-1.6,5.1-3.7,6.9-6c1.6-2.2,2.8-5,4.1-7.4
			c5.2-9.3,10.5-20.9,11.9-31.6c0.6-4.6-2.5-8.4-7.4-7.4c-14.2,2.9-16.1,30.6-5.3,38.1c6.1,4.2,14.8,2.9,20-2.3
			c5.4-5.4,6-13.7,7.7-20.7c-1.9,1.5-3.9,2.9-5.8,4.4c-2.7,0.2-2.5-1.6-1.3,0.5c0.4,0.8,1.2,1.6,1.8,2.3c1.8,1.9,3.9,3.2,6.6,3
			c3.1-0.2,6.2-2.6,6-6c-0.4-6.4-2.5-11.8-5.1-17.6c-2.5-5.5-4.6-11.4-8.9-15.8c-4-4.1-9.6-0.6-10.2,4.2c-1.2,9,1.4,18.7,3.9,27.4
			c2.5,8.8,5.4,17.4,10.1,25.3c2.3-2.9,4.5-5.9,6.8-8.8c-8-1.8-16.6,0.9-23.5,5.1c-3.1,1.9-5.7,4.3-7.9,7.1
			c-2.3,2.9-5.1,5.9-6.3,9.5c-2.7,8.3,2.2,14.6,7.1,20.7c5.5,6.8,12.2,12.3,19.5,17c7.3,4.6,14.9,7.4,23.2,4.3
			c7.5-2.8,13.8-8.9,11.9-17.3c-1.7-7.6-8.1-11-13.8-15.4c-6.3-4.9-13.4-8.3-21-10.8c-9.9-3.2-19.5-7.5-29.8-9.2
			c-9.4-1.6-20.4-2.6-29.1,1.9c-3.6,1.8-3.7,6.7-1.2,9.4c5.5,5.9,13.7,8.8,20.9,12c8.7,3.9,17.6,7,26.6,10
			c8.2,2.8,17.1,7.2,25.8,4.5c6.6-2.1,12.5-11.2,13-17.9c0.5-7.1-4.2-14-9.8-18.1c-6.4-4.7-13.1-8.7-20.7-11.3
			c-8.1-2.7-15.4-6.6-23.6-2.1c-3.1,1.7-4.9,4.5-5.6,7.9c-0.9,4.4,2.2,9,5,12.2c5.2,5.9,14.5,9.7,21.7,12.4
			c7.6,2.8,17.1,4.5,25.1,3.5c6.4-0.8,17.1-4.2,18.4-11.4c1.2-6.3-1.8-12.3-7.4-15.2c-15.8-8.4-33.2-7.1-50.1-3
			c-4.5,1.1-8.9,2.7-13.3,3.9c-3.7,1-7,2.2-10,4.6c-2.6,2.1-4.8,5-6.1,8.1c-1.5,3.8,0.1,7.2,2.3,10.5c5.1,7.6,13.4,10.8,21.7,13.8
			c8.9,3.2,17.2-0.2,22.9-7.4c5.3-6.6,8.5-14.4,1.1-20.9c-6-5.3-16.6-8.4-23.1-3c-1.5,1.3-2.2,4-1.5,5.8c2.1,6.3,6.1,10.3,11.5,14.2
			c4.9,3.6,9.9,3.8,15.7,2.6c5.4-1.1,10.2-4.5,14.3-8c4.1-3.5,8.1-6.5,9.5-11.9c0.5-2,0-4.4-1.5-5.8c-4.3-4.1-9.1-6.5-14.9-7.6
			c-6.3-1.1-12.4-2.8-18.8-3.7c-13.5-1.9-27.2-2.6-40.7-4.1c1.9,2.5,3.9,5.1,5.8,7.6c-4.5,1.4-5.3,2.5-2.5,3.2
			c0.7,0.4,1.4,0.7,2.2,0.7c1.8,0.3,3.8,0,5.7,0.1c4.3,0.1,8.6,0.4,12.9,1c8,1.2,15.9,3.2,24,4.3c-0.5-3.7-1-7.3-1.4-11
			c-1.9,0.8-3.7,0.1-5.6,0c-2.3-0.1-4.8,0.2-7.1,0.3c-4.5,0.2-9.1,0.4-13.6,0.7c-4.7,0.2-9.4,0.8-14.1,0.7c-4.7,0-8.8,0-13.3,1.7
			c-5.4,2.1-5.9,9.6,0,11.6c10.1,3.3,20.8,4.2,31.3,5.8c5.7,0.9,11.4,1.7,17.1,2.6c5.1,0.8,11.7,1.3,16.4,3.5
			c1.7,0.8,1.9,2.2,1.4-0.9c-0.5-3-0.8-1.7-2.6-0.4c-2.1,1.5-4.2,3-6.3,4.4c-4.5,2.9-9.2,5.6-13.8,8.5c-4.5,3-8.7,6.3-13.2,9.3
			c-4.2,2.8-7.6,5.1-10.3,9.5c-1.1,1.7-1.2,4.3,0,6.1c5.2,7.6,11.8,10.9,19.7,15.1c4.2,2.2,8.4,4.2,12.7,6.2
			c3.5,1.6,7.3,2.7,9.8,5.7c-0.3-2.4-0.6-4.8-0.9-7.3c-3.3,6.1-11.6,8-14.3,14.8c-1.2,3,1.3,6.6,4.2,7.4c6.3,1.6,12.3,1.3,18.6,1.9
			c0-4,0-8,0-12c-3.8,0.5-7.7,0.7-11.6,1c1.7,3,3.5,6,5.2,9c0.2-0.4,4.3-1.3,5.7-1.8c2.7-1,5.4-1.9,8.2-2.8
			c5.4-1.7,10.9-3.3,16.1-5.4c3.7-1.5,6.6-6.9,2.6-10c-2.8-2.2-6-3.1-9.4-4.2c0.9,3.3,1.8,6.7,2.6,10c0.7-0.8,3.8-1.1,5-1.5
			c2.4-0.7,4.8-1.4,7.2-2.1c4.2-1.1,8.3-2.2,12.1-4.2c2.4-1.3,3.4-4.3,2.8-6.8c-1.6-6.4-9.1-10.2-14.5-13.1c-3.8-2-7.6-4-11.4-6
			c-1.9-1-4.4-2.6-6.5-3c-0.5-0.1-1.1-0.1-1.6-0.2c1.5,1.1,1.6,1.1,0.6-0.2c0.5,1,1,0.8,1.5-0.7c0.7-0.7,1.3-1.6,1.5-2.6
			c0.9-1.7,1.5-3.6,2.2-5.4c1.7-4.2,3.5-8.4,5.2-12.7c3.5-8.5,6.9-16.9,10.4-25.4c3.1-7.5,6.5-15.6,5.5-23.9
			c-1-7.9-5.8-16.4-10.5-22.8c-4.9-6.6-10.4-12.6-16-18.6c-2.7-2.8-5.5-5.6-8-8.6c-2.2-2.7-3.7-5.3-7.4-5.9c-3-0.5-6.7,0.7-7.4,4.2
			c-4.8,24.4,1.4,49.4,6.5,73.2c1.9-2.5,3.9-5.1,5.8-7.6c1.5-0.2,2,2,1.6-0.7c-0.1-1-1-2.1-1.5-3c-1.3-2.4-2.8-4.8-4.2-7.1
			c-2.6-4.5-5.2-9.1-7.7-13.6c-2.5-4.4-5-8.7-7.5-13c-2.6-4.5-4.7-9.1-8.1-13.1c-2.8-3.3-9.3-1.7-10,2.6
			c-2.3,13.3,1.7,27.3,5.2,40.1c3.6,13.3,8,26.5,11,40c1.4-2.5,2.8-4.9,4.2-7.4c3.2,2.4,4.4,2.7,3.4,0.9c-0.2-0.7-0.7-1.4-1.2-1.9
			c-1-1.4-2-2.7-3-4.1c-1.7-2.5-3.2-5.2-4.7-7.9c-2.9-5.1-3.8-9.5-10-11.5c-3.3-1.1-6.2,1.3-7.4,4.2c-3.4,8.3-4,16.5-4.9,25.4
			c-0.4,4.2-0.7,8.4-1,12.6c-0.2,2.3-0.3,4.7-0.5,7c0,0.8-0.7,5.8,0.5,4.6c3.3,0.9,6.7,1.8,10,2.6c-2.2-11.4-3.5-22.9-4.9-34.4
			c-0.6-5.2-1.4-10.5-1.9-15.8c-0.4-4.9-0.4-8.9-2.5-13.5c-1.9-4-8.4-3.9-10.4,0c-7.1,14.1-9.3,31.3-10.9,46.9
			c3.4-1.4,6.8-2.8,10.2-4.2c-3.2-3.9-2.8-9.2-3.8-13.9c-1.2-5.3-2.3-10.6-3.4-15.9c-0.5-2.5-0.9-5.2-1.7-7.7
			c-0.6-1.9,0.2-1-0.5-0.6c0.7-0.5-0.2-0.5,0.3-0.5c1.9,0,3.4,0.8,5.2,1.2c2.7,0.6,5.6,0.8,8.3,1.3c10.9,1.9,21.6,4.7,32.3,7.4
			c5.2,1.3,10.5,2.8,15.7,4c5.2,1.2,10.8,1.3,15.9,2.9c0-3.9,0-7.7,0-11.6c-20.6,6.9-42.8,10.1-64.2,14c-6.7,1.2-5.1,12,1.6,11.8
			c10-0.3,20.3-2.6,30.3-4c10.4-1.4,20.6-3.4,30.9-5.2c4.4-0.8,5.9-7.2,2.6-10c-5-4.3-10.8-6.7-17.5-6.4c-4.5,0.2-8.3,0.4-12.8-0.1
			c-4.3-0.4-8.5-0.8-12.8-1.1c-8.5-0.7-17-1.2-25.5-1.8c-8.3-0.6-16.9-0.5-25-2c-0.5,3.9-1.1,7.9-1.6,11.8c20,0.9,39.8,5.7,59.6,8.3
			c2.6,0.3,5.2-2.1,5.8-4.4c1.3-4.7-0.3-9.2-4.7-11.6c-5.5-2.9-10.6-6.5-16.1-9.4c-12.2-6.2-25.4-10.9-38.3-15.3
			c-0.5,3.9-1.1,7.9-1.6,11.8c14.8,1.9,29.6,2.8,44.4,3.2c6.5,0.2,13,0.3,19.5,0.8c5.7,0.4,9.3-2.7,11.4-7.8
			c1.3-3.2-1.5-6.3-4.2-7.4c-23.2-9-47.6-6.4-71.8-3.8c-12.2,1.3-24.4,3.1-36.5,5c-6.2,0.9-12.4,2-18.6,2.4
			c-4.7,0.3-8.5,2.6-10.8,6.7c-1.9,3.4-0.2,7.8,3.6,8.8c9.5,2.7,19,3,28.7,4.2c10.6,1.2,21.2,2.5,31.8,3.8
			c21.1,2.6,42.2,5.9,63.4,7.8c-1.4-3.4-2.8-6.8-4.2-10.2c-5,6.1-11.9,3.4-18.6,5.5c-9.2,2.8-18.4,5.5-27.5,8.6
			c-8.2,2.8-16.3,6-24.2,9.7c-6.4,2.9-13.8,7.9-16.9,14.5c-8.3,17.2,22.9,20.7,33,22.8c18.4,3.8,37,4,55.6,6.4c-1-3.7-2-7.5-3-11.2
			c-3.2,2.4-6.2,2.7-10,3.5c-4.5,1-9,2.2-13.5,3.2c-8.7,1.8-17.4,3.6-26.2,4.9c1.1,3.9,2.1,7.7,3.2,11.6c20.5-3.9,41.8-1.1,62.3-4.2
			c3.9-0.6,5.4-5.8,3.6-8.8c-2-3.3-4.4-4.4-8-5.4c-3.1-0.9-8-1.3-10.8-2.8c-1,3.7-2,7.5-3,11.2c2.5-0.3,5.1-0.4,7.6-0.4
			c7.7,0,7.7-12,0-12c-2.6,0-5.1,0.1-7.6,0.4c-5.5,0.5-8.6,8.1-3,11.2c2.3,1.3,4.9,1.7,7.5,2.3c1.3,0.3,6.9,1.4,7,1.7
			c1.2-2.9,2.4-5.9,3.6-8.8c-10,1.5-20.5,1-30.7,1.4c-10.5,0.4-21.4,0.8-31.7,2.8c-7.7,1.5-4.3,12.7,3.2,11.6
			c9.4-1.4,18.7-3.3,28-5.3c4.5-1,8.9-2.3,13.5-3.2c4.2-0.8,7.7-1.7,11.1-4.3c4.9-3.7,3.1-10.4-3-11.2c-14-1.8-28.2-2-42.1-4.2
			c-12.7-2-26.4-3.5-37.7-10.2c0.9,1.2,1.8,2.4,2.8,3.6c-0.8-2-0.6-1.4,1.2-3.3c1.2-1.3,2.3-2.7,3.8-3.8c3.4-2.6,7.7-4.1,11.6-5.8
			c8.2-3.5,16.7-6.4,25.2-9c8.2-2.5,16.5-6.2,25.1-6.3c6.7-0.1,13-2.7,17.3-7.9c3.4-4.1,1.1-9.8-4.2-10.2c-20.6-1.8-41-5-61.4-7.5
			c-10-1.2-19.9-2.4-29.9-3.6c-9.9-1.2-19.7-1.5-29.4-4.2c1.2,2.9,2.4,5.9,3.6,8.8c0.8-1.4,1.9-0.5,3.4-0.5c2.7-0.1,5.6-0.9,8.3-1.3
			c5.4-0.9,10.9-1.7,16.3-2.5c11.1-1.6,22.2-3.2,33.4-4.3c10.4-1,21.1-2.1,31.6-2.1c10.8,0,21.1,2.2,31.2,6.1
			c-1.4-2.5-2.8-4.9-4.2-7.4c0.6-1.5,1.8,0,0.5-1.1c-1-0.8-2.8-0.6-3.9-0.7c-2.8-0.1-5.6,0.1-8.4,0.1c-5.7,0-11.4-0.2-17.1-0.5
			c-11.6-0.5-23.3-1.4-34.8-2.9c-7-0.9-7.6,9.7-1.6,11.8c9.9,3.4,19.5,7.1,29.1,11.1c4.2,1.8,8.3,3.8,12.2,6.2
			c1.9,1.2,3.8,2.4,5.6,3.8c0.9,0.7,1.7,1.4,2.8,1.8c0.5,0.2,0.9,0.4,1.4,0.5c1.4,0.5,1.2-0.1-0.3-2c1.9-1.5,3.9-2.9,5.8-4.4
			c-19.8-2.6-39.6-7.4-59.6-8.3c-6.7-0.3-8.3,10.5-1.6,11.8c14.9,2.8,30.7,2.5,45.8,3.6c7.9,0.6,15.8,1.2,23.6,2
			c3.8,0.4,6.9-0.2,10.6-0.3c3.2-0.1,5.8,0.8,8.2,2.9c0.9-3.3,1.8-6.7,2.6-10c-9.7,1.7-19.3,3.6-29.1,5c-9.5,1.4-19.4,3.5-29,3.8
			c0.5,3.9,1.1,7.9,1.6,11.8c21.4-3.9,43.6-7.1,64.2-14c5.6-1.9,5.8-9.8,0-11.6c-6.2-1.9-13.1-2.1-19.4-3.8
			c-6.9-1.8-13.8-3.6-20.7-5.3c-7-1.7-14-3.5-21.1-4.8c-3.1-0.6-6.2-0.9-9.2-1.5c-3-0.6-5.8-1.8-8.9-1.9c-4.6-0.2-8.9,1.7-11.5,5.5
			c-3.5,5.2-1.3,9.9-0.1,15.6c1.5,6.8,3.3,13.7,4.4,20.6c1.1,6.8,1.9,11.8,6.5,17.3c3.7,4.5,9.8,0.3,10.2-4.2
			c0.7-6.9,1.8-13.9,3.3-20.7c1.5-6.7,2.9-13.9,6-20.1c-3.5,0-6.9,0-10.4,0c0.9,2,0.6,3.6,0.7,5.7c0.1,2.4,0.6,4.8,0.9,7.1
			c0.7,5.4,1.3,10.9,1.9,16.3c1.2,10.6,2.6,21.2,4.6,31.8c0.9,4.6,7,5.6,10,2.6c3.3-3.1,3.2-6.4,3-10.6c-0.2-4.9,0.5-10,0.9-14.9
			c0.8-10.1,1.2-19.9,5-29.3c-2.5,1.4-4.9,2.8-7.4,4.2c-0.3-0.9-0.3-0.6,0.1,0.8c0.3,0.8,0.6,1.5,1,2.2c0.8,1.5,1.7,3,2.5,4.4
			c1.8,3.1,3.6,6.2,5.7,9.1c3.2,4.4,5.5,10.4,12.5,7.9c3.2-1.1,4.9-4,4.2-7.4c-2.7-12.3-6.5-24.2-9.9-36.3
			c-1.7-5.9-3.2-11.7-4.4-17.7c-1.3-6.6-3-13-1.9-19.7c-3.3,0.9-6.7,1.8-10,2.6c3.7,4.4,6.2,10.5,9,15.5c3.1,5.4,6.1,10.8,9.2,16.2
			c2.8,4.9,6.3,9.8,8.1,15.1c1.5,4.3,4.6,7.8,9.6,7.3c4-0.4,6.7-3.5,5.8-7.6c-4.6-21.5-10.9-44.8-6.5-66.8c-2.5,1.4-4.9,2.8-7.4,4.2
			c-1-0.8-0.9-0.5,0.3,0.8c0.6,0.7,1.2,1.3,1.8,2c1.4,1.6,2.9,3.1,4.3,4.6c2.5,2.6,5,5.2,7.4,7.9c5.2,5.6,10.6,11.4,14.3,18.2
			c2,3.7,4.8,8.2,5.2,12.5c0.4,3.7-1,7-2.2,10.4c-2.8,8.1-6.2,16-9.4,23.9c-3.2,7.9-6.5,15.7-9.7,23.6c-2.3,5.7-7.2,10-3.9,16.6
			c3,5.8,9.2,6.7,14.6,9.6c3.4,1.8,6.9,3.5,10.3,5.4c1.5,0.8,2.9,1.7,4.2,2.7c0.9,0.7,1.8,1.3,2.7,2c1.2,0.5,1.4,0.6,0.6,0.5
			c0.9-2.3,1.8-4.5,2.8-6.8c-4.2,2.3-9.4,3.1-14,4.4c-4.4,1.3-9.5,1.6-12.7,5.3c-3,3.4-1.9,8.6,2.6,10c1,0.3,2.1,0.8,3.1,1
			c0.6,0.2,2.5,1.2,1,0c0.9-3.3,1.8-6.7,2.6-10c-6.9,2.7-14.1,4.6-21.1,7c-5.8,2-13,2.4-16.1,8.5c-1.9,3.7,0.4,9.4,5.2,9
			c3.9-0.3,7.7-0.5,11.6-1c7.6-1,7.8-11.3,0-12c-5.3-0.5-10.2-0.1-15.4-1.5c1.4,2.5,2.8,4.9,4.2,7.4c-1.2,2.9,1.1-0.2,2-0.9
			c1.7-1.4,3.4-2.8,5-4.3c2.4-2.1,4.6-3.8,6.1-6.7c1.4-2.5,0.8-5.1-0.9-7.3c-4.9-5.9-13.6-8.1-20.2-11.3
			c-7.1-3.5-15.5-6.4-20.1-13.2c0,2,0,4,0,6.1c2.7-4.5,8.7-7.3,12.9-10.2c5.3-3.7,10.8-7.2,16.4-10.5c7-4.2,25-13.4,15.3-23.1
			c-4.1-4.1-9.6-4.9-15.1-6.1c-6.2-1.3-12.5-2.2-18.8-3.2c-12.6-1.9-25.8-2.9-38-6.8c0,3.9,0,7.7,0,11.6c4.7-1.8,9-1.2,13.9-1.5
			c5.3-0.3,10.6-0.5,16-0.8c4.7-0.2,9.5-0.8,14.2-0.6c4.7,0.2,8.2,0.2,12.6-1.7c4.5-2,3.5-10.3-1.4-11c-11.4-1.6-22.6-4.7-34.2-5.6
			c-2.9-0.2-6,0.2-8.8-0.3c-1.6-0.2-3.3-1-5.1-1.2c-4.4-0.4-7.6,2-9,6.1c-1.4,4.1,2.2,7.2,5.8,7.6c11.8,1.4,23.5,2.3,35.3,3.5
			c5.6,0.6,11.2,1.6,16.7,3c5.2,1.3,9.7,1.4,13.9,5.3c-0.5-1.9-1-3.9-1.5-5.8c-0.6,2.4-3.4,4-5.2,5.6c-2.4,2.1-5.1,4.2-8.2,5.3
			c-3.1,1.2-5.7,1.1-8.4-0.8c-2.6-1.8-5.1-4.1-6.1-7.1c-0.5,1.9-1,3.9-1.5,5.8c-1.3,1.1-0.9,0.4,0.5,0.9c1.2,0.4,2.3,0.7,3.5,1.2
			c0.8,0.3,1.6,0.7,2.4,1.1c0.6,0.4,0.9,1.4,0.9,0.3c0.1,1-2.6,3.9-3.1,4.6c-1.4,1.7-3.1,3.5-5.3,3.9c-4,0.9-9.8-2.5-13.3-4.1
			c-4.3-2-6.7-5.1-8.6-9.4c0,2,0,4,0,6.1c2.1-4.8,4.8-6,9.6-7.3c6.1-1.7,11.9-3.7,18.1-4.9c6-1.2,12.2-2.2,18.4-1.8
			c5.7,0.3,10.8,2.5,16.1,4.5c1.3,0.5,1.9,0.8,2.6,1.9c0.4,0.7-0.3,0.1,0.4-0.5c-0.8,0.8-2.7,1.7-3.7,2.1c-4.9,2-10,1-15.1,0.4
			c-5.8-0.6-11.4-2.6-16.5-5.3c-2.5-1.3-5-2.7-7.3-4.3c-2.6-1.8-3.7-4-5.4-6.7c0.2,1.5,0.4,3.1,0.6,4.6c0.3-2.3,1.9-2.2,4.5-1.5
			c2.6,0.7,5,1.7,7.5,2.6c5.1,1.7,9.7,3.6,14.1,6.7c3.4,2.4,7.7,4.4,9.4,8.6c1.3,3.2-1.5,8.5-4.4,9.8c-3.7,1.7-10.7-2.1-14.2-3.2
			c-5.5-1.8-11-3.7-16.5-5.7c-5.7-2-11.2-4.3-16.6-6.9c-4.7-2.3-9.8-3.9-13.4-7.8c-0.4,3.1-0.8,6.3-1.2,9.4c5.9-3,15.3-1.5,21.6-0.3
			c8.2,1.5,16,4.7,23.8,7.4c6.8,2.4,13.2,4.5,19.3,8.7c2.8,1.9,5.2,4.2,8,6.1c2.5,1.7,3.4,3,3.4,6.1c0.6-1.4,1.2-2.8,1.8-4.2
			c-2.3,2.9-4.4,5.5-8.3,6.1c-3.6,0.5-7.4-1.8-10.4-3.6c-6.2-3.8-12.1-8.5-16.7-14.2c-1.9-2.3-5.7-5.5-5.5-8.7c0.1-2.4,2.9-5,4.4-7
			c3.8-4.9,12.6-9.5,18.9-8.1c4.9,1.1,9.6-4.2,6.8-8.8c-4.3-7-6.7-14.6-8.9-22.5c-2.2-7.7-4.6-16.1-3.5-24.2
			c-3.4,1.4-6.8,2.8-10.2,4.2c2.9,3,4.4,7.8,6.2,11.6c2,4.3,4,8.5,4.3,13.3c2-2,4-4,6-6c3.1-0.2,1.8,1.5,1.4-0.1
			c-0.2-0.8-1.7-2.3-2.3-2.9c-1.7-1.7-3.8-3-6.3-2.8c-2.6,0.2-5.1,1.7-5.8,4.4c-0.9,3.5-2,18.5-8.1,16.7c-3.9-1.1-3.8-16.1,0.5-17
			c-2.5-2.5-4.9-4.9-7.4-7.4c-1,6.9-3.9,13.8-6.5,20.2c-1.5,3.6-3.2,6.8-5.1,10.2c-2.3,4.1-4.5,6.3-8.2,9.3c1.9-0.5,3.9-1,5.8-1.5
			c-5.5-1.7-12.3-5.4-16.1-9.9c-1.9-2.3-3.6-4.9-3.7-7.8c-0.1-2.8,0.5-5.1,1.7-7.7c2.4-5.4,6.1-7.2,11.6-8.6
			c3.3-0.8,6.5-1.4,9.8-1.4c3.6,0,4.8,0.5,8,2.2c-0.9-1.2-1.8-2.4-2.8-3.6c1.6,4.6-1.7,11.9-3.5,16.3c-1.8,4.5-4,9.8-7.7,13.1
			c-3.9,3.6-10.9,4.2-14.6,0.2c-4.5-4.8-5.5-9.6-4.7-16c0.4-3.2-3.1-6-6-6C747.4,1135.2,745.4,1138.1,745,1141.3L745,1141.3z"/>
	</g>
</g>
<g id="XMLID_340_">
	<g id="XMLID_396_">
		<path id="XMLID_400_" class="st1" d="M686.4,1081.3c-11.9,15.2-22.4,33-27.3,51.9c-2.7,10.2-3.8,20.9-5.3,31.3
			c-1.4,10-3,20.1-2.6,30.2c0.2,4.2,0.9,9,2.3,13c1.4,3.9,3.8,10.2,8.2,11.6c6.9,2.2,14.4-2.3,18.2-7.8
			c11.6-16.9,22.1-34.7,31.4-52.9c5.4-10.6,10.6-21.3,15.3-32.2c4.7-10.8,8.5-22,13-32.9c-2.9,1.2-5.9,2.4-8.8,3.6
			c4.8,2.2,7.7,10.6,10.2,15.2c3.1,5.9,6.2,11.8,9.3,17.7c3,5.7,6.2,11.3,9.4,16.8c2.7,4.6,5.5,11,10,13.9c3.9,2.5,9-0.8,9-5.2
			c0-6.1-0.8-12-1.7-18c-0.9-5.4-3-11.8-2.4-17.2c-3.7,1-7.5,2-11.2,3c7,11.7,12.4,24.6,18.5,36.7c3,6,5.9,12,8.9,17.9
			c2.7,5.3,5.1,11.1,8.5,16c3.8,5.4,12.7,2.3,11-4.6c-5.5-22.1-8.3-44.6-13-66.8c-1.2-5.7-10.4-5.8-11.6,0
			c-0.9,4.6,0.3,8.9,0.8,13.5c0.4,4.4,0.5,8.9,1.6,13.2c1.9,7.5,13.5,4.3,11.6-3.2c-0.8-3.2-0.9-6.7-1.2-10
			c-0.3-2.8-1.7-7.6-1.2-10.3c-3.9,0-7.7,0-11.6,0c4.7,22.2,7.6,44.8,13,66.8c3.7-1.5,7.3-3.1,11-4.6c-3.5-4.8-5.9-10.7-8.5-16
			c-3-6-6-12-8.9-17.9c-6.1-12.2-11.5-25.1-18.5-36.7c-3.3-5.5-10.6-2.6-11.2,3c-0.6,5.4,1.3,11.3,2.2,16.6c1,6.2,1.9,12.3,1.9,18.6
			c3-1.7,6-3.5,9-5.2c1.7,1.1-0.9-1.8-1.2-2.3c-0.8-1.2-1.6-2.4-2.3-3.6c-1.6-2.7-3.2-5.4-4.8-8.1c-3.3-5.7-6.4-11.6-9.5-17.4
			c-3.1-5.8-6-11.7-9.2-17.5c-3.1-5.7-5.8-11.8-11.9-14.6c-3.9-1.8-7.2-0.2-8.8,3.6c-4.6,11.1-8.4,22.4-13.3,33.4
			c-5,11.2-10.3,22.2-16,33c-5.5,10.7-11.3,21.1-17.9,31c-3.2,4.9-6.7,9.7-9.5,14.8c-2.1,3.7-3.6,5.4-8,5c1.7,1,3.5,2,5.2,3
			c-5.9-8.9-5.8-18.9-4.7-29.2c1.2-11.6,3.1-23.1,4.9-34.6c3.2-20.7,13.5-40.4,26.3-56.7C699.6,1083.8,691.2,1075.3,686.4,1081.3
			L686.4,1081.3z"/>
	</g>
</g>
<g id="XMLID_341_">
	<g id="XMLID_404_">
		<path id="XMLID_413_" class="st1" d="M746.3,1210.3c15.1-1.1,27.9-5,39-15.9c8.3-8.2,10.8-14.7,14.9-25.4c-34.7,0-69.4,0-104.1,0
			c7.8,26.7,34.7,46.1,62.1,47c28.3,1,56.4-17.8,63.3-45.9c4.9-20.1,3.8-40.6-6.9-58.6c-6.5-11-14.4-18.1-24.8-25.3
			c-3.6-2.5-7.2-5.2-11.1-7.2c-19.1-9.5-41-16.7-62.4-10.8c-27,7.4-46.6,36.3-44.9,64.1c1,16.3,3.3,33.1,12.6,46.9
			c9.6,14.2,21.2,23.8,35,33.8c-3.6-2.8-7.3-5.6-10.9-8.4c7.4,5.8,14.7,11.8,22.7,16.8c-3.6-2.8-7.3-5.6-10.9-8.4
			c11.9,9.3,16.2,12.6,30.7,17.6c-4.3-1.8-8.6-3.6-12.9-5.4c10.2,4.5,19.5,8.3,30.8,8.2c10.4-0.1,22-3.2,30.9-8.8
			c11.7-7.3,18.6-15.3,26.6-26.2c-2.8,3.6-5.6,7.3-8.4,10.9c9.2-10.7,13.5-17.3,18.2-30.6c2-5.7,3.1-10.8,3.9-16.9
			c0.8-5.9,1.4-11.3,1.3-17.2c-0.2-13.5-3.8-22.8-9.6-34.8c1.8,4.3,3.6,8.6,5.4,12.9c-2.2-5.7-4.1-11.5-7.5-16.6
			c-6.8-10.4-11.4-13.9-21.5-21.1c3.6,2.8,7.3,5.6,10.9,8.4c-7.9-6.8-16.2-12.6-26.4-15.4c-10.6-2.9-21.2-2.4-31.9,0
			c-11.3,2.5-24,9.8-32.1,18.2c-11.8,12.3-17.8,28.8-17.9,45.8c-0.1,13.2,3.1,27.7,10.4,38.9c7.6,11.7,18.6,21,32.3,24.8
			c12.9,3.6,30.1,2,41.6-5.4c11.5-7.4,21.7-18.5,24.8-32.3c3.1-13.8,2.5-29.4-5.4-41.6c-0.7-0.9-1.2-1.9-1.6-2.9
			c1.8,4.3,3.6,8.6,5.4,12.9c-0.6-1.6-0.9-3-1.2-4.6c0.6,4.8,1.3,9.6,1.9,14.4c-0.2-2.2-0.1-4.3-0.1-6.5c-0.6,4.8-1.3,9.6-1.9,14.4
			c0.1-1,0.3-1.9,0.7-2.9c-1.8,4.3-3.6,8.6-5.4,12.9c0.3-0.9,0.8-1.7,1.3-2.4c-2.8,3.6-5.6,7.3-8.4,10.9c0.3-0.3,0.5-0.6,0.8-0.9
			c-3.6,2.8-7.3,5.6-10.9,8.4c1.4-1.1,3-1.9,4.6-2.7c-4.3,1.8-8.6,3.6-12.9,5.4c1.4-0.5,2.7-0.8,4.2-1c-4.8,0.6-9.6,1.3-14.4,1.9
			c0.4,0,0.8,0,1.2,0.1c-4.8-0.6-9.6-1.3-14.4-1.9c0.4,0.1,0.8,0.2,1.1,0.3c-4.3-1.8-8.6-3.6-12.9-5.4c0.3,0.2,0.7,0.4,1,0.6
			c-3.6-2.8-7.3-5.6-10.9-8.4c4.1,3.5,8.6,6.9,13,10.1c-3.6-2.8-7.3-5.6-10.9-8.4c0.3,0.3,0.7,0.6,1,0.9c-2.8-3.6-5.6-7.3-8.4-10.9
			c0.6,0.7,1.1,1.5,1.5,2.3c-1.8-4.3-3.6-8.6-5.4-12.9c2,5.3,4.2,10.6,6.7,15.7c-1.8-4.3-3.6-8.6-5.4-12.9c0.6,1.5,1,2.9,1.3,4.5
			c-0.6-4.8-1.3-9.6-1.9-14.4c0.4,3.7,0.3,7.8-0.2,11.5c0.6-4.8,1.3-9.6,1.9-14.4c-0.6,3.3-1.8,6.6-2.9,9.8
			c1.8-4.3,3.6-8.6,5.4-12.9c-0.9,2-2,3.8-3.3,5.5c2.8-3.6,5.6-7.3,8.4-10.9c-3.6,4.2-7,8.8-10.3,13.3c2.8-3.6,5.6-7.3,8.4-10.9
			c-1.2,1.5-2.5,2.8-4,4c3.6-2.8,7.3-5.6,10.9-8.4c-1.3,0.9-2.5,1.7-3.9,2.5c4.3-1.8,8.6-3.6,12.9-5.4c-0.5,0.2-1,0.3-1.5,0.5
			c4.8-0.6,9.6-1.3,14.4-1.9c-0.5,0-1,0.1-1.5,0.1c4.8,0.6,9.6,1.3,14.4,1.9c-0.5-0.1-1-0.2-1.4-0.3c4.3,1.8,8.6,3.6,12.9,5.4
			c-5.2-2.3-10.5-4.7-15.8-6.6c4.3,1.8,8.6,3.6,12.9,5.4c-1.5-0.7-2.8-1.4-4.1-2.3c3.6,2.8,7.3,5.6,10.9,8.4
			c-7.4-5.8-15.1-11-22.5-16.7c3.6,2.8,7.3,5.6,10.9,8.4c-4.9-3.9-10-7.7-15-11.5c3.6,2.8,7.3,5.6,10.9,8.4
			c-4.3-3.4-8.4-7.1-12-11.3c2.8,3.6,5.6,7.3,8.4,10.9c-1.6-2-2.8-4.1-3.8-6.5c1.8,4.3,3.6,8.6,5.4,12.9c-0.7-2-1.2-3.9-1.5-5.9
			c0.6,4.8,1.3,9.6,1.9,14.4c-0.5-4.2-1.4-8.6-0.8-12.8c-0.6,4.8-1.3,9.6-1.9,14.4c0.2-0.9,0.4-1.7,0.8-2.5
			c-1.8,4.3-3.6,8.6-5.4,12.9c0.4-0.8,0.8-1.6,1.3-2.3c-2.8,3.6-5.6,7.3-8.4,10.9c0.6-0.7,1.2-1.4,1.9-2c-3.6,2.8-7.3,5.6-10.9,8.4
			c0.4-0.3,0.8-0.6,1.2-0.9c-9.1,2.5-18.2,4.9-27.3,7.4c1.7-0.1,3.4-0.1,5.1-0.2c-4.8-0.6-9.6-1.3-14.4-1.9
			c4.2,1.1,8.2,2.5,12.2,4.1c-4.3-1.8-8.6-3.6-12.9-5.4c5.6,2.3,10.3,5.8,15.3,9.1c-3.6-2.8-7.3-5.6-10.9-8.4c1.1,1,2.1,2,3.1,3.1
			c-2.8-3.6-5.6-7.3-8.4-10.9c1.1,1.5,2,3,2.8,4.7c-1.8-4.3-3.6-8.6-5.4-12.9c0.7,1.8,1.1,3.5,1.3,5.4c-0.6-4.8-1.3-9.6-1.9-14.4
			c0.1,1,0.1,1.9,0.1,2.9c0.6-4.8,1.3-9.6,1.9-14.4c-0.5,2.6-0.9,5.2-1.7,7.7c1.8-4.3,3.6-8.6,5.4-12.9c-0.3,0.8-0.8,1.6-1.4,2.3
			c2.8-3.6,5.6-7.3,8.4-10.9c-0.3,0.3-0.7,0.6-1,0.9c3.6-2.8,7.3-5.6,10.9-8.4c-0.4,0.2-0.8,0.5-1.2,0.7c4.3-1.8,8.6-3.6,12.9-5.4
			c-1.4,0.5-2.7,0.9-4.2,1.1c4.8-0.6,9.6-1.3,14.4-1.9c-1,0.1-2,0.1-2.9-0.1c4.8,0.6,9.6,1.3,14.4,1.9c-0.5-0.1-0.9-0.2-1.4-0.4
			c4.3,1.8,8.6,3.6,12.9,5.4c-1.5-0.6-2.7-1.3-4-2.3c3.6,2.8,7.3,5.6,10.9,8.4c-1.5-1.3-3.1-2.6-4.5-4.1c4.6,7.9,9.3,15.9,13.9,23.8
			c-0.1-0.2-0.1-0.5-0.2-0.7c-3.3-11.4-10-20.9-19.4-28.1c-9.1-7-20.9-12.1-32.7-11.6c-9.6,0.4-18.8,2.9-27.3,7.4
			c-12.9,6.8-19.8,19.4-24.8,32.3c-0.1,0.3-0.2,0.6-0.3,0.8c4.6-7.9,9.3-15.9,13.9-23.8c-0.2,0.2-0.5,0.5-0.7,0.7
			c12.7-5.3,25.5-10.5,38.2-15.8c-0.3,0-0.5,0-0.8,0.1c-14.4,1-27.7,5.3-38.2,15.8c-9.4,9.4-16.4,24.7-15.8,38.2
			c0.6,14,5.2,28.5,15.8,38.2C718.3,1203.7,732.1,1211.3,746.3,1210.3L746.3,1210.3z"/>
	</g>
</g>
<g id="XMLID_342_">
	<g id="XMLID_416_">
		<path id="XMLID_420_" class="st1" d="M869,1183.6c0-0.4,0-0.8,0-1.2c-0.6,4.8-1.3,9.6-1.9,14.4c1.3-8.8,2.5-17.4,3-26.3
			c0.4-8.8-1.1-17.3-2.4-26.1c0.6,4.8,1.3,9.6,1.9,14.4c-0.9-6.8-1.2-13.9-3.4-20.5c-2.3-6.7-5.1-13.5-9.3-19.4
			c-6.1-8.7-12.9-15.9-19.9-23.6c2.8,3.6,5.6,7.3,8.4,10.9c-8.3-11.7-19.5-23.7-34.5-26.3c-9.6-2.6-19.1-2.6-28.7,0
			c-9.1,2.6-17.1,7.2-23.8,13.9c-12.9,12.9-20.1,34.7-13.9,52.5c4.9,14.1,11.6,27.5,19.3,40.2c2.5,4.2,5,8.5,7.7,12.7
			c3.3,5.2,7.2,10.5,11.3,15c5.5,6.1,11,8.9,18.1,11.9c4.2,2.4,8.8,3.7,13.6,3.7c2.7,0.4,5.3,0.8,8,1.1c4.8-0.6,9.6-1.3,14.4-1.9
			c7-1.7,13.1-4.9,18.4-9.7c9.4-7.2,16-16.5,19.4-28.1c4.2-14.3,2.7-24.4,0.7-38.7c0.6,4.8,1.3,9.6,1.9,14.4
			c-1.1-8.6-2-17.3-3.9-25.7c-1.9-8.3-5.1-15.5-8.6-23.4c1.8,4.3,3.6,8.6,5.4,12.9c-0.1-0.4-0.2-0.9-0.3-1.3
			c-32.9,13.9-65.8,27.7-98.7,41.6c2.9,4.6,6,9.1,8.9,13.6c-1.8-4.3-3.6-8.6-5.4-12.9c4.3,10.8,6.2,16.7,14.6,25.1
			c7,7,15.4,11.9,25,14.4c16.9,4.4,33.4,0.9,47.1-9.7c12.5-9.7,22.7-25.8,21.3-42.4c-0.6-6.8-1.3-13.7-3-20.3
			c-0.6-2.2-1.4-4.5-1.8-6.7c-32.9,13.9-65.8,27.7-98.7,41.6c5.6,8.3,10.8,16.9,16.5,25.2c6.9,9.9,14.5,17.3,25.8,22.1
			c10.7,4.5,23.8,6.4,35.2,2.7c8.9-2.9,16.9-7.6,23.8-13.9c10.2-9.4,15.4-24.7,15.8-38.2c0.3-11-4-23.9-7.9-34.3
			c0.6,4.8,1.3,9.6,1.9,14.4c0-0.4,0.1-0.8,0.1-1.1c-2.5,9.1-4.9,18.2-7.4,27.3c0.2-0.3,0.5-0.6,0.7-0.9c-2.8,3.6-5.6,7.3-8.4,10.9
			c0.3-0.3,0.5-0.5,0.8-0.8c-12.7,5.3-25.5,10.5-38.2,15.8c0.3,0,0.7-0.1,1-0.1c-4.8-0.6-9.6-1.3-14.4-1.9c0.9,0.4,1.7,0.7,2.6,1.1
			c-4.3-1.8-8.6-3.6-12.9-5.4c1.3,0.6,2.5,1.3,3.8,2.1c-3.6-2.8-7.3-5.6-10.9-8.4c1.3,1.1,2.4,2.1,3.5,3.4
			c-2.8-3.6-5.6-7.3-8.4-10.9c0.7,0.9,1.3,1.7,1.9,2.7c7.3,11.2,18.8,21.7,32.3,24.8c12.1,2.8,23.7,2.1,35.2-2.7
			c10.4-4.4,20.4-11.9,25.8-22.1c6.7-12.6,9.8-27.6,5.4-41.6c-1.4-4.6-3.2-9.1-4.9-13.5c-3.2-8-5.9-16.4-10.3-23.8
			c-6-10.1-15-17.5-25.8-22.1c-10.7-4.5-23.8-6.4-35.2-2.7c-8.9,2.9-16.9,7.6-23.8,13.9c-9.3,8.6-16.6,25.5-15.8,38.2
			c0.9,13.2,3.7,26.3,6.1,39.3c1.7,9,3.1,18.1,5,27.1c-0.6-4.8-1.3-9.6-1.9-14.4c0,0.6,0.1,1.2,0.1,1.7
			c30.7-12.7,61.5-25.5,92.2-38.2c-6.2-6.3-12.3-12.7-18.1-19.3c-2.6-2.9-5.1-5.9-7.7-8.7c-5.6-6-12.2-10.7-18.8-15.7
			c-8.4-4.9-17.5-7.3-27.3-7.4c-9.7,0-18.8,2.5-27.3,7.4c-17.9,10.1-28.5,29.4-28.6,49.8c0.6-4.8,1.3-9.6,1.9-14.4
			c-1.2,6.8-2.7,13.8-2.3,20.7c0.4,6.8,1.6,13.6,2.6,20.4c22.1-22.1,44.3-44.3,66.4-66.4c-0.4-0.1-0.8-0.3-1.2-0.4
			c7.9,4.6,15.9,9.3,23.8,13.9c-6.2-6.2-13.4-11.9-21.4-15.7c-8.3-3.9-17-6.9-25.5-10.5c4.3,1.8,8.6,3.6,12.9,5.4
			c-1.5-0.7-3-1.4-4.5-2.2c0,31.1,0,62.2,0,93.3c0.4-0.2,0.9-0.4,1.3-0.6c-4.3,1.8-8.6,3.6-12.9,5.4c0.9-0.3,1.8-0.6,2.7-0.7
			c-4.8,0.6-9.6,1.3-14.4,1.9c6.7-0.3,13.3-1.2,20-1.6c13.8-0.9,28.5-5.2,38.2-15.8c8.2-8.9,13.2-19,14.9-31
			c1.5-11.5,0.1-24.4-6.4-34.4c-7.8-12.1-18.4-20.5-32.3-24.8c-4.9-1.5-11.8-2.2-16.9-2.4c-13.6-0.3-28.6,6.3-38.2,15.8
			c-9.4,9.4-16.4,24.7-15.8,38.2c0.6,14,5.2,28.5,15.8,38.2c10.7,9.8,23.4,15.4,38.2,15.8c0.4,0,0.9,0,1.3,0
			c-4.8-0.6-9.6-1.3-14.4-1.9c0.4,0.1,0.8,0.3,1.2,0.4c4.8-35.4,9.6-70.7,14.4-106.1c-5,0.3-10,0.6-15,1.1c-6.4,0.7-13.2,1-19.3,2.4
			c-5.9,1.4-11.4,4.2-17,6.7c-8.1,4.8-14.6,11.3-19.4,19.4c-4.9,8.4-7.3,17.5-7.4,27.3c0,18.5,10.2,37.8,26.7,46.6
			c9.1,4.9,18.9,8.1,28.5,12c-4.3-1.8-8.6-3.6-12.9-5.4c3,1.3,6,2.8,8.7,4.8c-3.6-2.8-7.3-5.6-10.9-8.4c1.2,1,2.2,2.1,3.3,3.1
			c7.2,6.8,15.5,11.3,25.1,14.3c18.3,5.6,39.2-0.6,52.5-13.9c6.7-6.7,11.3-14.7,13.9-23.8c2.6-9.6,2.6-19.1,0-28.7
			c-0.1-0.5-0.1-1-0.2-1.5c0.6,4.8,1.3,9.6,1.9,14.4c-0.4-3.1-0.7-6.2-0.4-9.3c-0.6,4.8-1.3,9.6-1.9,14.4c1-5.4,2.2-11.5,2.2-17
			c-0.6,4.8-1.3,9.6-1.9,14.4c0.1-0.3,0.2-0.6,0.3-0.9c-4.6,7.9-9.3,15.9-13.9,23.8c0.2-0.2,0.4-0.5,0.6-0.7
			c-3.6,2.8-7.3,5.6-10.9,8.4c0.3-0.2,0.6-0.3,0.9-0.5c-18.2,0-36.3,0-54.5,0c0.4,0.3,0.9,0.7,1.3,1c-3.6-2.8-7.3-5.6-10.9-8.4
			c5.8,4.8,10.5,10.7,15.5,16.3c5.5,6.1,11.1,12.1,16.9,17.9c15.4,15.4,39.2,19.5,59,11.2c8.9-3.7,15.7-9,21.6-16.6
			c6.9-8.9,12.4-21.1,11.6-32.7c-1.6-21.8-7.7-43.2-10.9-64.8c0.6,4.8,1.3,9.6,1.9,14.4c-0.2-1.1-0.3-2.2-0.3-3.4
			c-33.5,9.1-67.1,18.2-100.6,27.3c0.9,1.5,1.6,3,2.4,4.5c-1.8-4.3-3.6-8.6-5.4-12.9c2.7,6.6,5.3,13.2,7.5,19.9
			c32.9-13.9,65.8-27.7,98.7-41.6c-7.2-11-15.5-20.5-27.2-26.9c-7.7-4.2-15.4-7-24-8.1c-16.5-2.2-34.5,2.5-46.4,15
			c-14.8,15.5-21,36.8-14.7,57.6c1.6,5.4,3.3,10.9,5.3,16.2c-0.6-4.8-1.3-9.6-1.9-14.4c0,0.5,0,1,0,1.5
			c33.5-9.1,67.1-18.2,100.6-27.3c-5.7-8.2-10.8-16.9-16.5-25.2c-7.6-11.2-18.5-21.7-32.3-24.8c-12.1-2.8-23.7-2.1-35.2,2.7
			c-10.4,4.4-20.4,11.9-25.8,22.1c-1.8,4.3-3.6,8.6-5.4,12.9c-2.6,9.6-2.6,19.1,0,28.7c0.7,3.7,2.1,7.3,2.8,11
			c-0.6-4.8-1.3-9.6-1.9-14.4c0,0.6,0.1,1.2,0.1,1.7c22.8-17.4,45.6-34.7,68.4-52.1c-0.3-0.1-0.6-0.1-0.8-0.2
			c7.9,4.6,15.9,9.3,23.8,13.9c-0.2-0.2-0.4-0.4-0.6-0.6c4.6,7.9,9.3,15.9,13.9,23.8c-2.6-6.4-5-12.7-8.8-18.5c-1.9-3-4-6-5.9-9
			c-7.2-11.2-18.9-21.8-32.3-24.8c-12.1-2.8-23.7-2.1-35.2,2.7c-10.4,4.4-20.4,11.9-25.8,22.1c-7,13.3-8.6,26.8-5.4,41.6
			c1.1,5.2,4.1,10.7,6.3,15.5c-1.8-4.3-3.6-8.6-5.4-12.9c2.1,6.1,3.5,12.5,4.4,18.9c-0.6-4.8-1.3-9.6-1.9-14.4
			c0.8,5.9,1.6,11.9,2.4,17.8c-0.6-4.8-1.3-9.6-1.9-14.4c0.1,1.7,0.1,3.3-0.1,5c0.6-4.8,1.3-9.6,1.9-14.4c-0.2,1.1-0.4,2.2-0.8,3.3
			c17.4-13.2,34.7-26.4,52.1-39.6c-0.3,0-0.6-0.1-0.8-0.1c12.7,5.3,25.5,10.5,38.2,15.8c-0.2-0.2-0.5-0.5-0.7-0.7
			c2.8,3.6,5.6,7.3,8.4,10.9c-8.8-11.8-16.5-25.6-22.5-39.1c1.8,4.3,3.6,8.6,5.4,12.9c-0.7-1.7-1.3-3.3-1.9-5
			c-22.1,22.1-44.3,44.3-66.4,66.4c0.3,0.1,0.6,0.1,0.9,0.2c-4.3-1.8-8.6-3.6-12.9-5.4c0.3,0.2,0.5,0.3,0.8,0.5
			c-6.5-6.5-12.9-12.9-19.4-19.4c4.1,5.9,8.6,11.5,13.6,16.6c2.3,2.3,4.4,4.6,6.4,7.1c-2.8-3.6-5.6-7.3-8.4-10.9
			c1.7,2.3,3.2,4.6,4.3,7.2c-1.8-4.3-3.6-8.6-5.4-12.9c0.6,1.5,1,3,1.3,4.6c-0.6-4.8-1.3-9.6-1.9-14.4c0.8,5.9,1.6,11.8,2.4,17.7
			c-0.6-4.8-1.3-9.6-1.9-14.4c0.6,6.6,0.1,13.4-0.6,20c0.6-4.8,1.3-9.6,1.9-14.4c-0.8,5.7-2,11.6-2.3,17.4
			c-0.6,13.5,6.4,28.8,15.8,38.2c9.4,9.4,24.7,16.4,38.2,15.8c14-0.6,28.5-5.2,38.2-15.8C863.1,1211,868.4,1198.4,869,1183.6
			L869,1183.6z"/>
	</g>
</g>
</svg>
